M48
; DRILL file {KiCad (5.99.0-2858-ga3fc028c9b)} date 08/26/20 16:16:31
; FORMAT={3:3/ absolute / metric / keep zeros}
; #@! TF.CreationDate,2020-08-26T16:16:31+02:00
; #@! TF.GenerationSoftware,Kicad,Pcbnew,(5.99.0-2858-ga3fc028c9b)
FMAT,2
METRIC
T1C0.200
T2C0.300
T3C0.600
T4C1.000
T5C1.400
T6C2.700
%
G90
G05
T1
X010141Y010795
X017456Y042088
X019869Y010846
X020377Y041961
X021647Y032944
X024949Y030404
X024949Y028118
X024949Y024943
X024949Y019990
X027235Y042088
X027235Y040437
X027235Y037389
X027235Y033071
X027235Y022022
X028632Y019990
X029013Y024562
X029013Y023165
X029902Y027864
X030664Y026340
X030788Y025144
X030809Y024544
X030918Y011989
X031001Y015755
X031172Y023165
X031299Y031801
X031299Y029261
X031299Y019990
X031426Y042215
X031934Y015672
X032569Y040437
X032569Y037389
X032569Y035103
X032569Y018212
X033331Y042215
X034220Y033071
X034474Y012243
X035998Y012243
X036125Y042215
X036379Y027610
X036379Y022149
X036506Y030150
X036506Y019609
X036506Y018212
X036760Y040437
X036760Y037389
X036760Y035103
X036760Y033071
X037141Y042215
X037522Y012243
X039046Y012116
X039427Y035103
X040316Y042342
X040316Y018212
X040697Y033071
X040824Y040437
X040824Y037389
X041205Y042342
X041459Y026340
X041586Y029261
X041586Y023165
X041586Y019990
X042094Y025705
X042094Y024562
X042475Y025070
X042602Y026594
X042856Y035103
X042984Y022149
X044507Y042342
X044507Y024943
X044507Y019990
X044761Y029261
X045142Y040437
X045142Y037389
X046412Y042342
X046920Y028499
X046920Y024562
X047175Y034535
X047175Y033646
X047428Y042342
X048063Y019990
X048444Y026467
X049460Y042342
X050222Y036373
X050222Y031801
X050222Y026975
X050222Y024181
X050349Y025959
X050476Y042342
X051238Y031801
X051238Y022403
X051261Y036350
X052254Y025197
X052508Y042342
X052508Y009322
X052508Y004877
X052889Y023165
X053524Y009322
X053524Y004877
X053778Y026975
X054408Y042347
X054667Y025324
X055810Y025324
X056445Y042342
X058477Y042342
X060509Y042342
X061652Y028118
X061652Y026086
X061652Y024181
X062414Y042342
X063430Y028880
X063430Y025197
X063430Y023292
X064446Y042342
X065075Y030779
X066478Y042342
X066605Y026594
X066605Y025324
X067367Y042342
X069526Y042342
X070288Y022911
X071050Y030785
X071050Y022149
X071050Y022149
X071390Y042348
X072066Y022149
X072701Y022911
X073580Y042342
X075454Y042348
X077517Y042342
X079391Y042348
X081589Y042348
X082353Y036754
X082353Y032182
X082353Y026213
X082353Y021641
X082353Y015626
X082353Y010973
X083242Y031420
X083344Y042348
X083369Y036754
X083369Y026213
X083398Y015626
X083496Y020879
X083525Y009957
X083623Y032309
X083750Y021768
X083750Y010973
X085526Y042348
X087408Y042348
X089398Y035925
X089398Y025361
X089398Y014901
X089590Y042348
X090735Y035040
X090735Y024562
X090735Y014015
X091345Y042348
X093527Y042348
X095408Y042368
X097466Y042342
T2
X033927Y024794
X036427Y024794
X038927Y024794
T4
X061730Y019482
X061730Y016942
X086925Y028776
X089465Y028776
X086925Y018287
X089465Y018287
X086925Y007290
X089465Y007290
X057080Y019482
X057080Y016942
T5
X033969Y003582
T6
X110000Y044000
X110000Y004000
X004000Y004000
X004000Y044000
T3
G00X025719Y012062
M15
G01X025719Y010462
M16
G05
G00X025719Y005032
M15
G01X025719Y003932
M16
G05
G00X042219Y012062
M15
G01X042219Y010462
M16
G05
G00X042219Y005032
M15
G01X042219Y003932
M16
G05
T0
M30
