G04 #@! TF.GenerationSoftware,KiCad,Pcbnew,(5.99.0-2858-ga3fc028c9b)*
G04 #@! TF.CreationDate,2020-08-26T16:16:25+02:00*
G04 #@! TF.ProjectId,EDSCH0002-V2-A,45445343-4830-4303-9032-2d56322d412e,V2.0*
G04 #@! TF.SameCoordinates,PX3235458PY54a6c6c*
G04 #@! TF.FileFunction,Copper,L4,Bot*
G04 #@! TF.FilePolarity,Positive*
%FSLAX46Y46*%
G04 Gerber Fmt 4.6, Leading zero omitted, Abs format (unit mm)*
G04 Created by KiCad (PCBNEW (5.99.0-2858-ga3fc028c9b)) date 2020-08-26 16:16:25*
%MOMM*%
%LPD*%
G01*
G04 APERTURE LIST*
G04 #@! TA.AperFunction,ComponentPad*
%ADD10R,1.700000X1.700000*%
G04 #@! TD*
G04 #@! TA.AperFunction,ComponentPad*
%ADD11O,1.700000X1.700000*%
G04 #@! TD*
G04 #@! TA.AperFunction,ComponentPad*
%ADD12C,0.500000*%
G04 #@! TD*
G04 #@! TA.AperFunction,ComponentPad*
%ADD13O,1.200000X2.800000*%
G04 #@! TD*
G04 #@! TA.AperFunction,ComponentPad*
%ADD14O,1.200000X2.300000*%
G04 #@! TD*
G04 #@! TA.AperFunction,ViaPad*
%ADD15C,0.500000*%
G04 #@! TD*
G04 #@! TA.AperFunction,Conductor*
%ADD16C,0.250000*%
G04 #@! TD*
G04 #@! TA.AperFunction,Conductor*
%ADD17C,0.150000*%
G04 #@! TD*
G04 #@! TA.AperFunction,Conductor*
%ADD18C,0.200000*%
G04 #@! TD*
G04 APERTURE END LIST*
G04 #@! TA.AperFunction,SMDPad,CuDef*
G36*
G01*
X14058000Y43051000D02*
X14058000Y46701000D01*
G75*
G02*
X14233000Y46876000I175000J0D01*
G01*
X14583000Y46876000D01*
G75*
G02*
X14758000Y46701000I0J-175000D01*
G01*
X14758000Y43051000D01*
G75*
G02*
X14583000Y42876000I-175000J0D01*
G01*
X14233000Y42876000D01*
G75*
G02*
X14058000Y43051000I0J175000D01*
G01*
G37*
G04 #@! TD.AperFunction*
G04 #@! TA.AperFunction,SMDPad,CuDef*
G36*
G01*
X15058000Y43051000D02*
X15058000Y46701000D01*
G75*
G02*
X15233000Y46876000I175000J0D01*
G01*
X15583000Y46876000D01*
G75*
G02*
X15758000Y46701000I0J-175000D01*
G01*
X15758000Y43051000D01*
G75*
G02*
X15583000Y42876000I-175000J0D01*
G01*
X15233000Y42876000D01*
G75*
G02*
X15058000Y43051000I0J175000D01*
G01*
G37*
G04 #@! TD.AperFunction*
G04 #@! TA.AperFunction,SMDPad,CuDef*
G36*
G01*
X16058000Y43051000D02*
X16058000Y46701000D01*
G75*
G02*
X16233000Y46876000I175000J0D01*
G01*
X16583000Y46876000D01*
G75*
G02*
X16758000Y46701000I0J-175000D01*
G01*
X16758000Y43051000D01*
G75*
G02*
X16583000Y42876000I-175000J0D01*
G01*
X16233000Y42876000D01*
G75*
G02*
X16058000Y43051000I0J175000D01*
G01*
G37*
G04 #@! TD.AperFunction*
G04 #@! TA.AperFunction,SMDPad,CuDef*
G36*
G01*
X17058000Y43051000D02*
X17058000Y46701000D01*
G75*
G02*
X17233000Y46876000I175000J0D01*
G01*
X17583000Y46876000D01*
G75*
G02*
X17758000Y46701000I0J-175000D01*
G01*
X17758000Y43051000D01*
G75*
G02*
X17583000Y42876000I-175000J0D01*
G01*
X17233000Y42876000D01*
G75*
G02*
X17058000Y43051000I0J175000D01*
G01*
G37*
G04 #@! TD.AperFunction*
G04 #@! TA.AperFunction,SMDPad,CuDef*
G36*
G01*
X18058000Y43051000D02*
X18058000Y46701000D01*
G75*
G02*
X18233000Y46876000I175000J0D01*
G01*
X18583000Y46876000D01*
G75*
G02*
X18758000Y46701000I0J-175000D01*
G01*
X18758000Y43051000D01*
G75*
G02*
X18583000Y42876000I-175000J0D01*
G01*
X18233000Y42876000D01*
G75*
G02*
X18058000Y43051000I0J175000D01*
G01*
G37*
G04 #@! TD.AperFunction*
G04 #@! TA.AperFunction,SMDPad,CuDef*
G36*
G01*
X19058000Y43051000D02*
X19058000Y46701000D01*
G75*
G02*
X19233000Y46876000I175000J0D01*
G01*
X19583000Y46876000D01*
G75*
G02*
X19758000Y46701000I0J-175000D01*
G01*
X19758000Y43051000D01*
G75*
G02*
X19583000Y42876000I-175000J0D01*
G01*
X19233000Y42876000D01*
G75*
G02*
X19058000Y43051000I0J175000D01*
G01*
G37*
G04 #@! TD.AperFunction*
G04 #@! TA.AperFunction,SMDPad,CuDef*
G36*
G01*
X20058000Y43051000D02*
X20058000Y46701000D01*
G75*
G02*
X20233000Y46876000I175000J0D01*
G01*
X20583000Y46876000D01*
G75*
G02*
X20758000Y46701000I0J-175000D01*
G01*
X20758000Y43051000D01*
G75*
G02*
X20583000Y42876000I-175000J0D01*
G01*
X20233000Y42876000D01*
G75*
G02*
X20058000Y43051000I0J175000D01*
G01*
G37*
G04 #@! TD.AperFunction*
G04 #@! TA.AperFunction,SMDPad,CuDef*
G36*
G01*
X21058000Y43051000D02*
X21058000Y46701000D01*
G75*
G02*
X21233000Y46876000I175000J0D01*
G01*
X21583000Y46876000D01*
G75*
G02*
X21758000Y46701000I0J-175000D01*
G01*
X21758000Y43051000D01*
G75*
G02*
X21583000Y42876000I-175000J0D01*
G01*
X21233000Y42876000D01*
G75*
G02*
X21058000Y43051000I0J175000D01*
G01*
G37*
G04 #@! TD.AperFunction*
G04 #@! TA.AperFunction,SMDPad,CuDef*
G36*
G01*
X22058000Y43051000D02*
X22058000Y46701000D01*
G75*
G02*
X22233000Y46876000I175000J0D01*
G01*
X22583000Y46876000D01*
G75*
G02*
X22758000Y46701000I0J-175000D01*
G01*
X22758000Y43051000D01*
G75*
G02*
X22583000Y42876000I-175000J0D01*
G01*
X22233000Y42876000D01*
G75*
G02*
X22058000Y43051000I0J175000D01*
G01*
G37*
G04 #@! TD.AperFunction*
G04 #@! TA.AperFunction,SMDPad,CuDef*
G36*
G01*
X23058000Y43051000D02*
X23058000Y46701000D01*
G75*
G02*
X23233000Y46876000I175000J0D01*
G01*
X23583000Y46876000D01*
G75*
G02*
X23758000Y46701000I0J-175000D01*
G01*
X23758000Y43051000D01*
G75*
G02*
X23583000Y42876000I-175000J0D01*
G01*
X23233000Y42876000D01*
G75*
G02*
X23058000Y43051000I0J175000D01*
G01*
G37*
G04 #@! TD.AperFunction*
G04 #@! TA.AperFunction,SMDPad,CuDef*
G36*
G01*
X24058000Y43051000D02*
X24058000Y46701000D01*
G75*
G02*
X24233000Y46876000I175000J0D01*
G01*
X24583000Y46876000D01*
G75*
G02*
X24758000Y46701000I0J-175000D01*
G01*
X24758000Y43051000D01*
G75*
G02*
X24583000Y42876000I-175000J0D01*
G01*
X24233000Y42876000D01*
G75*
G02*
X24058000Y43051000I0J175000D01*
G01*
G37*
G04 #@! TD.AperFunction*
G04 #@! TA.AperFunction,SMDPad,CuDef*
G36*
G01*
X27058000Y43051000D02*
X27058000Y46701000D01*
G75*
G02*
X27233000Y46876000I175000J0D01*
G01*
X27583000Y46876000D01*
G75*
G02*
X27758000Y46701000I0J-175000D01*
G01*
X27758000Y43051000D01*
G75*
G02*
X27583000Y42876000I-175000J0D01*
G01*
X27233000Y42876000D01*
G75*
G02*
X27058000Y43051000I0J175000D01*
G01*
G37*
G04 #@! TD.AperFunction*
G04 #@! TA.AperFunction,SMDPad,CuDef*
G36*
G01*
X28058000Y43051000D02*
X28058000Y46701000D01*
G75*
G02*
X28233000Y46876000I175000J0D01*
G01*
X28583000Y46876000D01*
G75*
G02*
X28758000Y46701000I0J-175000D01*
G01*
X28758000Y43051000D01*
G75*
G02*
X28583000Y42876000I-175000J0D01*
G01*
X28233000Y42876000D01*
G75*
G02*
X28058000Y43051000I0J175000D01*
G01*
G37*
G04 #@! TD.AperFunction*
G04 #@! TA.AperFunction,SMDPad,CuDef*
G36*
G01*
X29058000Y43051000D02*
X29058000Y46701000D01*
G75*
G02*
X29233000Y46876000I175000J0D01*
G01*
X29583000Y46876000D01*
G75*
G02*
X29758000Y46701000I0J-175000D01*
G01*
X29758000Y43051000D01*
G75*
G02*
X29583000Y42876000I-175000J0D01*
G01*
X29233000Y42876000D01*
G75*
G02*
X29058000Y43051000I0J175000D01*
G01*
G37*
G04 #@! TD.AperFunction*
G04 #@! TA.AperFunction,SMDPad,CuDef*
G36*
G01*
X30058000Y43051000D02*
X30058000Y46701000D01*
G75*
G02*
X30233000Y46876000I175000J0D01*
G01*
X30583000Y46876000D01*
G75*
G02*
X30758000Y46701000I0J-175000D01*
G01*
X30758000Y43051000D01*
G75*
G02*
X30583000Y42876000I-175000J0D01*
G01*
X30233000Y42876000D01*
G75*
G02*
X30058000Y43051000I0J175000D01*
G01*
G37*
G04 #@! TD.AperFunction*
G04 #@! TA.AperFunction,SMDPad,CuDef*
G36*
G01*
X31058000Y43051000D02*
X31058000Y46701000D01*
G75*
G02*
X31233000Y46876000I175000J0D01*
G01*
X31583000Y46876000D01*
G75*
G02*
X31758000Y46701000I0J-175000D01*
G01*
X31758000Y43051000D01*
G75*
G02*
X31583000Y42876000I-175000J0D01*
G01*
X31233000Y42876000D01*
G75*
G02*
X31058000Y43051000I0J175000D01*
G01*
G37*
G04 #@! TD.AperFunction*
G04 #@! TA.AperFunction,SMDPad,CuDef*
G36*
G01*
X32058000Y43051000D02*
X32058000Y46701000D01*
G75*
G02*
X32233000Y46876000I175000J0D01*
G01*
X32583000Y46876000D01*
G75*
G02*
X32758000Y46701000I0J-175000D01*
G01*
X32758000Y43051000D01*
G75*
G02*
X32583000Y42876000I-175000J0D01*
G01*
X32233000Y42876000D01*
G75*
G02*
X32058000Y43051000I0J175000D01*
G01*
G37*
G04 #@! TD.AperFunction*
G04 #@! TA.AperFunction,SMDPad,CuDef*
G36*
G01*
X33058000Y43051000D02*
X33058000Y46701000D01*
G75*
G02*
X33233000Y46876000I175000J0D01*
G01*
X33583000Y46876000D01*
G75*
G02*
X33758000Y46701000I0J-175000D01*
G01*
X33758000Y43051000D01*
G75*
G02*
X33583000Y42876000I-175000J0D01*
G01*
X33233000Y42876000D01*
G75*
G02*
X33058000Y43051000I0J175000D01*
G01*
G37*
G04 #@! TD.AperFunction*
G04 #@! TA.AperFunction,SMDPad,CuDef*
G36*
G01*
X34058000Y43051000D02*
X34058000Y46701000D01*
G75*
G02*
X34233000Y46876000I175000J0D01*
G01*
X34583000Y46876000D01*
G75*
G02*
X34758000Y46701000I0J-175000D01*
G01*
X34758000Y43051000D01*
G75*
G02*
X34583000Y42876000I-175000J0D01*
G01*
X34233000Y42876000D01*
G75*
G02*
X34058000Y43051000I0J175000D01*
G01*
G37*
G04 #@! TD.AperFunction*
G04 #@! TA.AperFunction,SMDPad,CuDef*
G36*
G01*
X35058000Y43051000D02*
X35058000Y46701000D01*
G75*
G02*
X35233000Y46876000I175000J0D01*
G01*
X35583000Y46876000D01*
G75*
G02*
X35758000Y46701000I0J-175000D01*
G01*
X35758000Y43051000D01*
G75*
G02*
X35583000Y42876000I-175000J0D01*
G01*
X35233000Y42876000D01*
G75*
G02*
X35058000Y43051000I0J175000D01*
G01*
G37*
G04 #@! TD.AperFunction*
G04 #@! TA.AperFunction,SMDPad,CuDef*
G36*
G01*
X36058000Y43051000D02*
X36058000Y46701000D01*
G75*
G02*
X36233000Y46876000I175000J0D01*
G01*
X36583000Y46876000D01*
G75*
G02*
X36758000Y46701000I0J-175000D01*
G01*
X36758000Y43051000D01*
G75*
G02*
X36583000Y42876000I-175000J0D01*
G01*
X36233000Y42876000D01*
G75*
G02*
X36058000Y43051000I0J175000D01*
G01*
G37*
G04 #@! TD.AperFunction*
G04 #@! TA.AperFunction,SMDPad,CuDef*
G36*
G01*
X37058000Y43051000D02*
X37058000Y46701000D01*
G75*
G02*
X37233000Y46876000I175000J0D01*
G01*
X37583000Y46876000D01*
G75*
G02*
X37758000Y46701000I0J-175000D01*
G01*
X37758000Y43051000D01*
G75*
G02*
X37583000Y42876000I-175000J0D01*
G01*
X37233000Y42876000D01*
G75*
G02*
X37058000Y43051000I0J175000D01*
G01*
G37*
G04 #@! TD.AperFunction*
G04 #@! TA.AperFunction,SMDPad,CuDef*
G36*
G01*
X38058000Y43051000D02*
X38058000Y46701000D01*
G75*
G02*
X38233000Y46876000I175000J0D01*
G01*
X38583000Y46876000D01*
G75*
G02*
X38758000Y46701000I0J-175000D01*
G01*
X38758000Y43051000D01*
G75*
G02*
X38583000Y42876000I-175000J0D01*
G01*
X38233000Y42876000D01*
G75*
G02*
X38058000Y43051000I0J175000D01*
G01*
G37*
G04 #@! TD.AperFunction*
G04 #@! TA.AperFunction,SMDPad,CuDef*
G36*
G01*
X39058000Y43051000D02*
X39058000Y46701000D01*
G75*
G02*
X39233000Y46876000I175000J0D01*
G01*
X39583000Y46876000D01*
G75*
G02*
X39758000Y46701000I0J-175000D01*
G01*
X39758000Y43051000D01*
G75*
G02*
X39583000Y42876000I-175000J0D01*
G01*
X39233000Y42876000D01*
G75*
G02*
X39058000Y43051000I0J175000D01*
G01*
G37*
G04 #@! TD.AperFunction*
G04 #@! TA.AperFunction,SMDPad,CuDef*
G36*
G01*
X40058000Y43051000D02*
X40058000Y46701000D01*
G75*
G02*
X40233000Y46876000I175000J0D01*
G01*
X40583000Y46876000D01*
G75*
G02*
X40758000Y46701000I0J-175000D01*
G01*
X40758000Y43051000D01*
G75*
G02*
X40583000Y42876000I-175000J0D01*
G01*
X40233000Y42876000D01*
G75*
G02*
X40058000Y43051000I0J175000D01*
G01*
G37*
G04 #@! TD.AperFunction*
G04 #@! TA.AperFunction,SMDPad,CuDef*
G36*
G01*
X41058000Y43051000D02*
X41058000Y46701000D01*
G75*
G02*
X41233000Y46876000I175000J0D01*
G01*
X41583000Y46876000D01*
G75*
G02*
X41758000Y46701000I0J-175000D01*
G01*
X41758000Y43051000D01*
G75*
G02*
X41583000Y42876000I-175000J0D01*
G01*
X41233000Y42876000D01*
G75*
G02*
X41058000Y43051000I0J175000D01*
G01*
G37*
G04 #@! TD.AperFunction*
G04 #@! TA.AperFunction,SMDPad,CuDef*
G36*
G01*
X42058000Y43051000D02*
X42058000Y46701000D01*
G75*
G02*
X42233000Y46876000I175000J0D01*
G01*
X42583000Y46876000D01*
G75*
G02*
X42758000Y46701000I0J-175000D01*
G01*
X42758000Y43051000D01*
G75*
G02*
X42583000Y42876000I-175000J0D01*
G01*
X42233000Y42876000D01*
G75*
G02*
X42058000Y43051000I0J175000D01*
G01*
G37*
G04 #@! TD.AperFunction*
G04 #@! TA.AperFunction,SMDPad,CuDef*
G36*
G01*
X43058000Y43051000D02*
X43058000Y46701000D01*
G75*
G02*
X43233000Y46876000I175000J0D01*
G01*
X43583000Y46876000D01*
G75*
G02*
X43758000Y46701000I0J-175000D01*
G01*
X43758000Y43051000D01*
G75*
G02*
X43583000Y42876000I-175000J0D01*
G01*
X43233000Y42876000D01*
G75*
G02*
X43058000Y43051000I0J175000D01*
G01*
G37*
G04 #@! TD.AperFunction*
G04 #@! TA.AperFunction,SMDPad,CuDef*
G36*
G01*
X44058000Y43051000D02*
X44058000Y46701000D01*
G75*
G02*
X44233000Y46876000I175000J0D01*
G01*
X44583000Y46876000D01*
G75*
G02*
X44758000Y46701000I0J-175000D01*
G01*
X44758000Y43051000D01*
G75*
G02*
X44583000Y42876000I-175000J0D01*
G01*
X44233000Y42876000D01*
G75*
G02*
X44058000Y43051000I0J175000D01*
G01*
G37*
G04 #@! TD.AperFunction*
G04 #@! TA.AperFunction,SMDPad,CuDef*
G36*
G01*
X45058000Y43051000D02*
X45058000Y46701000D01*
G75*
G02*
X45233000Y46876000I175000J0D01*
G01*
X45583000Y46876000D01*
G75*
G02*
X45758000Y46701000I0J-175000D01*
G01*
X45758000Y43051000D01*
G75*
G02*
X45583000Y42876000I-175000J0D01*
G01*
X45233000Y42876000D01*
G75*
G02*
X45058000Y43051000I0J175000D01*
G01*
G37*
G04 #@! TD.AperFunction*
G04 #@! TA.AperFunction,SMDPad,CuDef*
G36*
G01*
X46058000Y43051000D02*
X46058000Y46701000D01*
G75*
G02*
X46233000Y46876000I175000J0D01*
G01*
X46583000Y46876000D01*
G75*
G02*
X46758000Y46701000I0J-175000D01*
G01*
X46758000Y43051000D01*
G75*
G02*
X46583000Y42876000I-175000J0D01*
G01*
X46233000Y42876000D01*
G75*
G02*
X46058000Y43051000I0J175000D01*
G01*
G37*
G04 #@! TD.AperFunction*
G04 #@! TA.AperFunction,SMDPad,CuDef*
G36*
G01*
X47058000Y43051000D02*
X47058000Y46701000D01*
G75*
G02*
X47233000Y46876000I175000J0D01*
G01*
X47583000Y46876000D01*
G75*
G02*
X47758000Y46701000I0J-175000D01*
G01*
X47758000Y43051000D01*
G75*
G02*
X47583000Y42876000I-175000J0D01*
G01*
X47233000Y42876000D01*
G75*
G02*
X47058000Y43051000I0J175000D01*
G01*
G37*
G04 #@! TD.AperFunction*
G04 #@! TA.AperFunction,SMDPad,CuDef*
G36*
G01*
X48058000Y43051000D02*
X48058000Y46701000D01*
G75*
G02*
X48233000Y46876000I175000J0D01*
G01*
X48583000Y46876000D01*
G75*
G02*
X48758000Y46701000I0J-175000D01*
G01*
X48758000Y43051000D01*
G75*
G02*
X48583000Y42876000I-175000J0D01*
G01*
X48233000Y42876000D01*
G75*
G02*
X48058000Y43051000I0J175000D01*
G01*
G37*
G04 #@! TD.AperFunction*
G04 #@! TA.AperFunction,SMDPad,CuDef*
G36*
G01*
X49058000Y43051000D02*
X49058000Y46701000D01*
G75*
G02*
X49233000Y46876000I175000J0D01*
G01*
X49583000Y46876000D01*
G75*
G02*
X49758000Y46701000I0J-175000D01*
G01*
X49758000Y43051000D01*
G75*
G02*
X49583000Y42876000I-175000J0D01*
G01*
X49233000Y42876000D01*
G75*
G02*
X49058000Y43051000I0J175000D01*
G01*
G37*
G04 #@! TD.AperFunction*
G04 #@! TA.AperFunction,SMDPad,CuDef*
G36*
G01*
X50058000Y43051000D02*
X50058000Y46701000D01*
G75*
G02*
X50233000Y46876000I175000J0D01*
G01*
X50583000Y46876000D01*
G75*
G02*
X50758000Y46701000I0J-175000D01*
G01*
X50758000Y43051000D01*
G75*
G02*
X50583000Y42876000I-175000J0D01*
G01*
X50233000Y42876000D01*
G75*
G02*
X50058000Y43051000I0J175000D01*
G01*
G37*
G04 #@! TD.AperFunction*
G04 #@! TA.AperFunction,SMDPad,CuDef*
G36*
G01*
X51058000Y43051000D02*
X51058000Y46701000D01*
G75*
G02*
X51233000Y46876000I175000J0D01*
G01*
X51583000Y46876000D01*
G75*
G02*
X51758000Y46701000I0J-175000D01*
G01*
X51758000Y43051000D01*
G75*
G02*
X51583000Y42876000I-175000J0D01*
G01*
X51233000Y42876000D01*
G75*
G02*
X51058000Y43051000I0J175000D01*
G01*
G37*
G04 #@! TD.AperFunction*
G04 #@! TA.AperFunction,SMDPad,CuDef*
G36*
G01*
X52058000Y43051000D02*
X52058000Y46701000D01*
G75*
G02*
X52233000Y46876000I175000J0D01*
G01*
X52583000Y46876000D01*
G75*
G02*
X52758000Y46701000I0J-175000D01*
G01*
X52758000Y43051000D01*
G75*
G02*
X52583000Y42876000I-175000J0D01*
G01*
X52233000Y42876000D01*
G75*
G02*
X52058000Y43051000I0J175000D01*
G01*
G37*
G04 #@! TD.AperFunction*
G04 #@! TA.AperFunction,SMDPad,CuDef*
G36*
G01*
X53058000Y43051000D02*
X53058000Y46701000D01*
G75*
G02*
X53233000Y46876000I175000J0D01*
G01*
X53583000Y46876000D01*
G75*
G02*
X53758000Y46701000I0J-175000D01*
G01*
X53758000Y43051000D01*
G75*
G02*
X53583000Y42876000I-175000J0D01*
G01*
X53233000Y42876000D01*
G75*
G02*
X53058000Y43051000I0J175000D01*
G01*
G37*
G04 #@! TD.AperFunction*
G04 #@! TA.AperFunction,SMDPad,CuDef*
G36*
G01*
X54058000Y43051000D02*
X54058000Y46701000D01*
G75*
G02*
X54233000Y46876000I175000J0D01*
G01*
X54583000Y46876000D01*
G75*
G02*
X54758000Y46701000I0J-175000D01*
G01*
X54758000Y43051000D01*
G75*
G02*
X54583000Y42876000I-175000J0D01*
G01*
X54233000Y42876000D01*
G75*
G02*
X54058000Y43051000I0J175000D01*
G01*
G37*
G04 #@! TD.AperFunction*
G04 #@! TA.AperFunction,SMDPad,CuDef*
G36*
G01*
X55058000Y43051000D02*
X55058000Y46701000D01*
G75*
G02*
X55233000Y46876000I175000J0D01*
G01*
X55583000Y46876000D01*
G75*
G02*
X55758000Y46701000I0J-175000D01*
G01*
X55758000Y43051000D01*
G75*
G02*
X55583000Y42876000I-175000J0D01*
G01*
X55233000Y42876000D01*
G75*
G02*
X55058000Y43051000I0J175000D01*
G01*
G37*
G04 #@! TD.AperFunction*
G04 #@! TA.AperFunction,SMDPad,CuDef*
G36*
G01*
X56058000Y43051000D02*
X56058000Y46701000D01*
G75*
G02*
X56233000Y46876000I175000J0D01*
G01*
X56583000Y46876000D01*
G75*
G02*
X56758000Y46701000I0J-175000D01*
G01*
X56758000Y43051000D01*
G75*
G02*
X56583000Y42876000I-175000J0D01*
G01*
X56233000Y42876000D01*
G75*
G02*
X56058000Y43051000I0J175000D01*
G01*
G37*
G04 #@! TD.AperFunction*
G04 #@! TA.AperFunction,SMDPad,CuDef*
G36*
G01*
X57058000Y43051000D02*
X57058000Y46701000D01*
G75*
G02*
X57233000Y46876000I175000J0D01*
G01*
X57583000Y46876000D01*
G75*
G02*
X57758000Y46701000I0J-175000D01*
G01*
X57758000Y43051000D01*
G75*
G02*
X57583000Y42876000I-175000J0D01*
G01*
X57233000Y42876000D01*
G75*
G02*
X57058000Y43051000I0J175000D01*
G01*
G37*
G04 #@! TD.AperFunction*
G04 #@! TA.AperFunction,SMDPad,CuDef*
G36*
G01*
X58058000Y43051000D02*
X58058000Y46701000D01*
G75*
G02*
X58233000Y46876000I175000J0D01*
G01*
X58583000Y46876000D01*
G75*
G02*
X58758000Y46701000I0J-175000D01*
G01*
X58758000Y43051000D01*
G75*
G02*
X58583000Y42876000I-175000J0D01*
G01*
X58233000Y42876000D01*
G75*
G02*
X58058000Y43051000I0J175000D01*
G01*
G37*
G04 #@! TD.AperFunction*
G04 #@! TA.AperFunction,SMDPad,CuDef*
G36*
G01*
X59058000Y43051000D02*
X59058000Y46701000D01*
G75*
G02*
X59233000Y46876000I175000J0D01*
G01*
X59583000Y46876000D01*
G75*
G02*
X59758000Y46701000I0J-175000D01*
G01*
X59758000Y43051000D01*
G75*
G02*
X59583000Y42876000I-175000J0D01*
G01*
X59233000Y42876000D01*
G75*
G02*
X59058000Y43051000I0J175000D01*
G01*
G37*
G04 #@! TD.AperFunction*
G04 #@! TA.AperFunction,SMDPad,CuDef*
G36*
G01*
X60058000Y43051000D02*
X60058000Y46701000D01*
G75*
G02*
X60233000Y46876000I175000J0D01*
G01*
X60583000Y46876000D01*
G75*
G02*
X60758000Y46701000I0J-175000D01*
G01*
X60758000Y43051000D01*
G75*
G02*
X60583000Y42876000I-175000J0D01*
G01*
X60233000Y42876000D01*
G75*
G02*
X60058000Y43051000I0J175000D01*
G01*
G37*
G04 #@! TD.AperFunction*
G04 #@! TA.AperFunction,SMDPad,CuDef*
G36*
G01*
X61058000Y43051000D02*
X61058000Y46701000D01*
G75*
G02*
X61233000Y46876000I175000J0D01*
G01*
X61583000Y46876000D01*
G75*
G02*
X61758000Y46701000I0J-175000D01*
G01*
X61758000Y43051000D01*
G75*
G02*
X61583000Y42876000I-175000J0D01*
G01*
X61233000Y42876000D01*
G75*
G02*
X61058000Y43051000I0J175000D01*
G01*
G37*
G04 #@! TD.AperFunction*
G04 #@! TA.AperFunction,SMDPad,CuDef*
G36*
G01*
X62058000Y43051000D02*
X62058000Y46701000D01*
G75*
G02*
X62233000Y46876000I175000J0D01*
G01*
X62583000Y46876000D01*
G75*
G02*
X62758000Y46701000I0J-175000D01*
G01*
X62758000Y43051000D01*
G75*
G02*
X62583000Y42876000I-175000J0D01*
G01*
X62233000Y42876000D01*
G75*
G02*
X62058000Y43051000I0J175000D01*
G01*
G37*
G04 #@! TD.AperFunction*
G04 #@! TA.AperFunction,SMDPad,CuDef*
G36*
G01*
X63058000Y43051000D02*
X63058000Y46701000D01*
G75*
G02*
X63233000Y46876000I175000J0D01*
G01*
X63583000Y46876000D01*
G75*
G02*
X63758000Y46701000I0J-175000D01*
G01*
X63758000Y43051000D01*
G75*
G02*
X63583000Y42876000I-175000J0D01*
G01*
X63233000Y42876000D01*
G75*
G02*
X63058000Y43051000I0J175000D01*
G01*
G37*
G04 #@! TD.AperFunction*
G04 #@! TA.AperFunction,SMDPad,CuDef*
G36*
G01*
X64058000Y43051000D02*
X64058000Y46701000D01*
G75*
G02*
X64233000Y46876000I175000J0D01*
G01*
X64583000Y46876000D01*
G75*
G02*
X64758000Y46701000I0J-175000D01*
G01*
X64758000Y43051000D01*
G75*
G02*
X64583000Y42876000I-175000J0D01*
G01*
X64233000Y42876000D01*
G75*
G02*
X64058000Y43051000I0J175000D01*
G01*
G37*
G04 #@! TD.AperFunction*
G04 #@! TA.AperFunction,SMDPad,CuDef*
G36*
G01*
X65058000Y43051000D02*
X65058000Y46701000D01*
G75*
G02*
X65233000Y46876000I175000J0D01*
G01*
X65583000Y46876000D01*
G75*
G02*
X65758000Y46701000I0J-175000D01*
G01*
X65758000Y43051000D01*
G75*
G02*
X65583000Y42876000I-175000J0D01*
G01*
X65233000Y42876000D01*
G75*
G02*
X65058000Y43051000I0J175000D01*
G01*
G37*
G04 #@! TD.AperFunction*
G04 #@! TA.AperFunction,SMDPad,CuDef*
G36*
G01*
X66058000Y43051000D02*
X66058000Y46701000D01*
G75*
G02*
X66233000Y46876000I175000J0D01*
G01*
X66583000Y46876000D01*
G75*
G02*
X66758000Y46701000I0J-175000D01*
G01*
X66758000Y43051000D01*
G75*
G02*
X66583000Y42876000I-175000J0D01*
G01*
X66233000Y42876000D01*
G75*
G02*
X66058000Y43051000I0J175000D01*
G01*
G37*
G04 #@! TD.AperFunction*
G04 #@! TA.AperFunction,SMDPad,CuDef*
G36*
G01*
X67058000Y43051000D02*
X67058000Y46701000D01*
G75*
G02*
X67233000Y46876000I175000J0D01*
G01*
X67583000Y46876000D01*
G75*
G02*
X67758000Y46701000I0J-175000D01*
G01*
X67758000Y43051000D01*
G75*
G02*
X67583000Y42876000I-175000J0D01*
G01*
X67233000Y42876000D01*
G75*
G02*
X67058000Y43051000I0J175000D01*
G01*
G37*
G04 #@! TD.AperFunction*
G04 #@! TA.AperFunction,SMDPad,CuDef*
G36*
G01*
X68058000Y43051000D02*
X68058000Y46701000D01*
G75*
G02*
X68233000Y46876000I175000J0D01*
G01*
X68583000Y46876000D01*
G75*
G02*
X68758000Y46701000I0J-175000D01*
G01*
X68758000Y43051000D01*
G75*
G02*
X68583000Y42876000I-175000J0D01*
G01*
X68233000Y42876000D01*
G75*
G02*
X68058000Y43051000I0J175000D01*
G01*
G37*
G04 #@! TD.AperFunction*
G04 #@! TA.AperFunction,SMDPad,CuDef*
G36*
G01*
X69058000Y43051000D02*
X69058000Y46701000D01*
G75*
G02*
X69233000Y46876000I175000J0D01*
G01*
X69583000Y46876000D01*
G75*
G02*
X69758000Y46701000I0J-175000D01*
G01*
X69758000Y43051000D01*
G75*
G02*
X69583000Y42876000I-175000J0D01*
G01*
X69233000Y42876000D01*
G75*
G02*
X69058000Y43051000I0J175000D01*
G01*
G37*
G04 #@! TD.AperFunction*
G04 #@! TA.AperFunction,SMDPad,CuDef*
G36*
G01*
X70058000Y43051000D02*
X70058000Y46701000D01*
G75*
G02*
X70233000Y46876000I175000J0D01*
G01*
X70583000Y46876000D01*
G75*
G02*
X70758000Y46701000I0J-175000D01*
G01*
X70758000Y43051000D01*
G75*
G02*
X70583000Y42876000I-175000J0D01*
G01*
X70233000Y42876000D01*
G75*
G02*
X70058000Y43051000I0J175000D01*
G01*
G37*
G04 #@! TD.AperFunction*
G04 #@! TA.AperFunction,SMDPad,CuDef*
G36*
G01*
X71058000Y43051000D02*
X71058000Y46701000D01*
G75*
G02*
X71233000Y46876000I175000J0D01*
G01*
X71583000Y46876000D01*
G75*
G02*
X71758000Y46701000I0J-175000D01*
G01*
X71758000Y43051000D01*
G75*
G02*
X71583000Y42876000I-175000J0D01*
G01*
X71233000Y42876000D01*
G75*
G02*
X71058000Y43051000I0J175000D01*
G01*
G37*
G04 #@! TD.AperFunction*
G04 #@! TA.AperFunction,SMDPad,CuDef*
G36*
G01*
X72058000Y43051000D02*
X72058000Y46701000D01*
G75*
G02*
X72233000Y46876000I175000J0D01*
G01*
X72583000Y46876000D01*
G75*
G02*
X72758000Y46701000I0J-175000D01*
G01*
X72758000Y43051000D01*
G75*
G02*
X72583000Y42876000I-175000J0D01*
G01*
X72233000Y42876000D01*
G75*
G02*
X72058000Y43051000I0J175000D01*
G01*
G37*
G04 #@! TD.AperFunction*
G04 #@! TA.AperFunction,SMDPad,CuDef*
G36*
G01*
X73058000Y43051000D02*
X73058000Y46701000D01*
G75*
G02*
X73233000Y46876000I175000J0D01*
G01*
X73583000Y46876000D01*
G75*
G02*
X73758000Y46701000I0J-175000D01*
G01*
X73758000Y43051000D01*
G75*
G02*
X73583000Y42876000I-175000J0D01*
G01*
X73233000Y42876000D01*
G75*
G02*
X73058000Y43051000I0J175000D01*
G01*
G37*
G04 #@! TD.AperFunction*
G04 #@! TA.AperFunction,SMDPad,CuDef*
G36*
G01*
X74058000Y43051000D02*
X74058000Y46701000D01*
G75*
G02*
X74233000Y46876000I175000J0D01*
G01*
X74583000Y46876000D01*
G75*
G02*
X74758000Y46701000I0J-175000D01*
G01*
X74758000Y43051000D01*
G75*
G02*
X74583000Y42876000I-175000J0D01*
G01*
X74233000Y42876000D01*
G75*
G02*
X74058000Y43051000I0J175000D01*
G01*
G37*
G04 #@! TD.AperFunction*
G04 #@! TA.AperFunction,SMDPad,CuDef*
G36*
G01*
X75058000Y43051000D02*
X75058000Y46701000D01*
G75*
G02*
X75233000Y46876000I175000J0D01*
G01*
X75583000Y46876000D01*
G75*
G02*
X75758000Y46701000I0J-175000D01*
G01*
X75758000Y43051000D01*
G75*
G02*
X75583000Y42876000I-175000J0D01*
G01*
X75233000Y42876000D01*
G75*
G02*
X75058000Y43051000I0J175000D01*
G01*
G37*
G04 #@! TD.AperFunction*
G04 #@! TA.AperFunction,SMDPad,CuDef*
G36*
G01*
X76058000Y43051000D02*
X76058000Y46701000D01*
G75*
G02*
X76233000Y46876000I175000J0D01*
G01*
X76583000Y46876000D01*
G75*
G02*
X76758000Y46701000I0J-175000D01*
G01*
X76758000Y43051000D01*
G75*
G02*
X76583000Y42876000I-175000J0D01*
G01*
X76233000Y42876000D01*
G75*
G02*
X76058000Y43051000I0J175000D01*
G01*
G37*
G04 #@! TD.AperFunction*
G04 #@! TA.AperFunction,SMDPad,CuDef*
G36*
G01*
X77058000Y43051000D02*
X77058000Y46701000D01*
G75*
G02*
X77233000Y46876000I175000J0D01*
G01*
X77583000Y46876000D01*
G75*
G02*
X77758000Y46701000I0J-175000D01*
G01*
X77758000Y43051000D01*
G75*
G02*
X77583000Y42876000I-175000J0D01*
G01*
X77233000Y42876000D01*
G75*
G02*
X77058000Y43051000I0J175000D01*
G01*
G37*
G04 #@! TD.AperFunction*
G04 #@! TA.AperFunction,SMDPad,CuDef*
G36*
G01*
X78058000Y43051000D02*
X78058000Y46701000D01*
G75*
G02*
X78233000Y46876000I175000J0D01*
G01*
X78583000Y46876000D01*
G75*
G02*
X78758000Y46701000I0J-175000D01*
G01*
X78758000Y43051000D01*
G75*
G02*
X78583000Y42876000I-175000J0D01*
G01*
X78233000Y42876000D01*
G75*
G02*
X78058000Y43051000I0J175000D01*
G01*
G37*
G04 #@! TD.AperFunction*
G04 #@! TA.AperFunction,SMDPad,CuDef*
G36*
G01*
X79058000Y43051000D02*
X79058000Y46701000D01*
G75*
G02*
X79233000Y46876000I175000J0D01*
G01*
X79583000Y46876000D01*
G75*
G02*
X79758000Y46701000I0J-175000D01*
G01*
X79758000Y43051000D01*
G75*
G02*
X79583000Y42876000I-175000J0D01*
G01*
X79233000Y42876000D01*
G75*
G02*
X79058000Y43051000I0J175000D01*
G01*
G37*
G04 #@! TD.AperFunction*
G04 #@! TA.AperFunction,SMDPad,CuDef*
G36*
G01*
X80058000Y43051000D02*
X80058000Y46701000D01*
G75*
G02*
X80233000Y46876000I175000J0D01*
G01*
X80583000Y46876000D01*
G75*
G02*
X80758000Y46701000I0J-175000D01*
G01*
X80758000Y43051000D01*
G75*
G02*
X80583000Y42876000I-175000J0D01*
G01*
X80233000Y42876000D01*
G75*
G02*
X80058000Y43051000I0J175000D01*
G01*
G37*
G04 #@! TD.AperFunction*
G04 #@! TA.AperFunction,SMDPad,CuDef*
G36*
G01*
X81058000Y43051000D02*
X81058000Y46701000D01*
G75*
G02*
X81233000Y46876000I175000J0D01*
G01*
X81583000Y46876000D01*
G75*
G02*
X81758000Y46701000I0J-175000D01*
G01*
X81758000Y43051000D01*
G75*
G02*
X81583000Y42876000I-175000J0D01*
G01*
X81233000Y42876000D01*
G75*
G02*
X81058000Y43051000I0J175000D01*
G01*
G37*
G04 #@! TD.AperFunction*
G04 #@! TA.AperFunction,SMDPad,CuDef*
G36*
G01*
X82058000Y43051000D02*
X82058000Y46701000D01*
G75*
G02*
X82233000Y46876000I175000J0D01*
G01*
X82583000Y46876000D01*
G75*
G02*
X82758000Y46701000I0J-175000D01*
G01*
X82758000Y43051000D01*
G75*
G02*
X82583000Y42876000I-175000J0D01*
G01*
X82233000Y42876000D01*
G75*
G02*
X82058000Y43051000I0J175000D01*
G01*
G37*
G04 #@! TD.AperFunction*
G04 #@! TA.AperFunction,SMDPad,CuDef*
G36*
G01*
X83058000Y43051000D02*
X83058000Y46701000D01*
G75*
G02*
X83233000Y46876000I175000J0D01*
G01*
X83583000Y46876000D01*
G75*
G02*
X83758000Y46701000I0J-175000D01*
G01*
X83758000Y43051000D01*
G75*
G02*
X83583000Y42876000I-175000J0D01*
G01*
X83233000Y42876000D01*
G75*
G02*
X83058000Y43051000I0J175000D01*
G01*
G37*
G04 #@! TD.AperFunction*
G04 #@! TA.AperFunction,SMDPad,CuDef*
G36*
G01*
X84058000Y43051000D02*
X84058000Y46701000D01*
G75*
G02*
X84233000Y46876000I175000J0D01*
G01*
X84583000Y46876000D01*
G75*
G02*
X84758000Y46701000I0J-175000D01*
G01*
X84758000Y43051000D01*
G75*
G02*
X84583000Y42876000I-175000J0D01*
G01*
X84233000Y42876000D01*
G75*
G02*
X84058000Y43051000I0J175000D01*
G01*
G37*
G04 #@! TD.AperFunction*
G04 #@! TA.AperFunction,SMDPad,CuDef*
G36*
G01*
X85058000Y43051000D02*
X85058000Y46701000D01*
G75*
G02*
X85233000Y46876000I175000J0D01*
G01*
X85583000Y46876000D01*
G75*
G02*
X85758000Y46701000I0J-175000D01*
G01*
X85758000Y43051000D01*
G75*
G02*
X85583000Y42876000I-175000J0D01*
G01*
X85233000Y42876000D01*
G75*
G02*
X85058000Y43051000I0J175000D01*
G01*
G37*
G04 #@! TD.AperFunction*
G04 #@! TA.AperFunction,SMDPad,CuDef*
G36*
G01*
X86058000Y43051000D02*
X86058000Y46701000D01*
G75*
G02*
X86233000Y46876000I175000J0D01*
G01*
X86583000Y46876000D01*
G75*
G02*
X86758000Y46701000I0J-175000D01*
G01*
X86758000Y43051000D01*
G75*
G02*
X86583000Y42876000I-175000J0D01*
G01*
X86233000Y42876000D01*
G75*
G02*
X86058000Y43051000I0J175000D01*
G01*
G37*
G04 #@! TD.AperFunction*
G04 #@! TA.AperFunction,SMDPad,CuDef*
G36*
G01*
X87058000Y43051000D02*
X87058000Y46701000D01*
G75*
G02*
X87233000Y46876000I175000J0D01*
G01*
X87583000Y46876000D01*
G75*
G02*
X87758000Y46701000I0J-175000D01*
G01*
X87758000Y43051000D01*
G75*
G02*
X87583000Y42876000I-175000J0D01*
G01*
X87233000Y42876000D01*
G75*
G02*
X87058000Y43051000I0J175000D01*
G01*
G37*
G04 #@! TD.AperFunction*
G04 #@! TA.AperFunction,SMDPad,CuDef*
G36*
G01*
X88058000Y43051000D02*
X88058000Y46701000D01*
G75*
G02*
X88233000Y46876000I175000J0D01*
G01*
X88583000Y46876000D01*
G75*
G02*
X88758000Y46701000I0J-175000D01*
G01*
X88758000Y43051000D01*
G75*
G02*
X88583000Y42876000I-175000J0D01*
G01*
X88233000Y42876000D01*
G75*
G02*
X88058000Y43051000I0J175000D01*
G01*
G37*
G04 #@! TD.AperFunction*
G04 #@! TA.AperFunction,SMDPad,CuDef*
G36*
G01*
X89058000Y43051000D02*
X89058000Y46701000D01*
G75*
G02*
X89233000Y46876000I175000J0D01*
G01*
X89583000Y46876000D01*
G75*
G02*
X89758000Y46701000I0J-175000D01*
G01*
X89758000Y43051000D01*
G75*
G02*
X89583000Y42876000I-175000J0D01*
G01*
X89233000Y42876000D01*
G75*
G02*
X89058000Y43051000I0J175000D01*
G01*
G37*
G04 #@! TD.AperFunction*
G04 #@! TA.AperFunction,SMDPad,CuDef*
G36*
G01*
X90058000Y43051000D02*
X90058000Y46701000D01*
G75*
G02*
X90233000Y46876000I175000J0D01*
G01*
X90583000Y46876000D01*
G75*
G02*
X90758000Y46701000I0J-175000D01*
G01*
X90758000Y43051000D01*
G75*
G02*
X90583000Y42876000I-175000J0D01*
G01*
X90233000Y42876000D01*
G75*
G02*
X90058000Y43051000I0J175000D01*
G01*
G37*
G04 #@! TD.AperFunction*
G04 #@! TA.AperFunction,SMDPad,CuDef*
G36*
G01*
X91058000Y43051000D02*
X91058000Y46701000D01*
G75*
G02*
X91233000Y46876000I175000J0D01*
G01*
X91583000Y46876000D01*
G75*
G02*
X91758000Y46701000I0J-175000D01*
G01*
X91758000Y43051000D01*
G75*
G02*
X91583000Y42876000I-175000J0D01*
G01*
X91233000Y42876000D01*
G75*
G02*
X91058000Y43051000I0J175000D01*
G01*
G37*
G04 #@! TD.AperFunction*
G04 #@! TA.AperFunction,SMDPad,CuDef*
G36*
G01*
X92058000Y43051000D02*
X92058000Y46701000D01*
G75*
G02*
X92233000Y46876000I175000J0D01*
G01*
X92583000Y46876000D01*
G75*
G02*
X92758000Y46701000I0J-175000D01*
G01*
X92758000Y43051000D01*
G75*
G02*
X92583000Y42876000I-175000J0D01*
G01*
X92233000Y42876000D01*
G75*
G02*
X92058000Y43051000I0J175000D01*
G01*
G37*
G04 #@! TD.AperFunction*
G04 #@! TA.AperFunction,SMDPad,CuDef*
G36*
G01*
X93058000Y43051000D02*
X93058000Y46701000D01*
G75*
G02*
X93233000Y46876000I175000J0D01*
G01*
X93583000Y46876000D01*
G75*
G02*
X93758000Y46701000I0J-175000D01*
G01*
X93758000Y43051000D01*
G75*
G02*
X93583000Y42876000I-175000J0D01*
G01*
X93233000Y42876000D01*
G75*
G02*
X93058000Y43051000I0J175000D01*
G01*
G37*
G04 #@! TD.AperFunction*
G04 #@! TA.AperFunction,SMDPad,CuDef*
G36*
G01*
X94058000Y43051000D02*
X94058000Y46701000D01*
G75*
G02*
X94233000Y46876000I175000J0D01*
G01*
X94583000Y46876000D01*
G75*
G02*
X94758000Y46701000I0J-175000D01*
G01*
X94758000Y43051000D01*
G75*
G02*
X94583000Y42876000I-175000J0D01*
G01*
X94233000Y42876000D01*
G75*
G02*
X94058000Y43051000I0J175000D01*
G01*
G37*
G04 #@! TD.AperFunction*
G04 #@! TA.AperFunction,SMDPad,CuDef*
G36*
G01*
X95058000Y43051000D02*
X95058000Y46701000D01*
G75*
G02*
X95233000Y46876000I175000J0D01*
G01*
X95583000Y46876000D01*
G75*
G02*
X95758000Y46701000I0J-175000D01*
G01*
X95758000Y43051000D01*
G75*
G02*
X95583000Y42876000I-175000J0D01*
G01*
X95233000Y42876000D01*
G75*
G02*
X95058000Y43051000I0J175000D01*
G01*
G37*
G04 #@! TD.AperFunction*
G04 #@! TA.AperFunction,SMDPad,CuDef*
G36*
G01*
X96058000Y43051000D02*
X96058000Y46701000D01*
G75*
G02*
X96233000Y46876000I175000J0D01*
G01*
X96583000Y46876000D01*
G75*
G02*
X96758000Y46701000I0J-175000D01*
G01*
X96758000Y43051000D01*
G75*
G02*
X96583000Y42876000I-175000J0D01*
G01*
X96233000Y42876000D01*
G75*
G02*
X96058000Y43051000I0J175000D01*
G01*
G37*
G04 #@! TD.AperFunction*
G04 #@! TA.AperFunction,SMDPad,CuDef*
G36*
G01*
X97058000Y43051000D02*
X97058000Y46701000D01*
G75*
G02*
X97233000Y46876000I175000J0D01*
G01*
X97583000Y46876000D01*
G75*
G02*
X97758000Y46701000I0J-175000D01*
G01*
X97758000Y43051000D01*
G75*
G02*
X97583000Y42876000I-175000J0D01*
G01*
X97233000Y42876000D01*
G75*
G02*
X97058000Y43051000I0J175000D01*
G01*
G37*
G04 #@! TD.AperFunction*
D10*
X89465000Y7290000D03*
D11*
X86925000Y7290000D03*
D10*
X89465000Y18287000D03*
D11*
X86925000Y18287000D03*
D10*
X89465000Y28776000D03*
D11*
X86925000Y28776000D03*
D10*
X61730000Y16942000D03*
D11*
X61730000Y19482000D03*
D12*
X38927000Y24794000D03*
X36427000Y24794000D03*
X33927000Y24794000D03*
D13*
X25718800Y11261600D03*
D14*
X25718800Y4481600D03*
X42218800Y4481600D03*
D13*
X42218800Y11261600D03*
D10*
X57080000Y16942000D03*
D11*
X57080000Y19482000D03*
D15*
X83242000Y31420000D03*
X90735000Y35039500D03*
X83525000Y9957000D03*
X89398000Y14900500D03*
X90735000Y14015000D03*
X89398000Y25361000D03*
X31299000Y31801000D03*
X34220000Y33071000D03*
X36760000Y33071000D03*
X40697000Y33071000D03*
X32569000Y35103000D03*
X36760000Y35103000D03*
X39427000Y35103000D03*
X40824000Y37389000D03*
X36760000Y37389000D03*
X32569000Y37389000D03*
X27235000Y37389000D03*
X32569000Y40437000D03*
X36760000Y40437000D03*
X40824000Y40437000D03*
X45142000Y40437000D03*
X45142000Y37389000D03*
X27235000Y40437000D03*
X42856000Y35103000D03*
X27235000Y33071000D03*
X32569000Y18212000D03*
X40316000Y18212000D03*
X36506000Y18212000D03*
X31299000Y19990000D03*
X28632000Y19990000D03*
X24949000Y19990000D03*
X24949000Y24943000D03*
X24949000Y28118000D03*
X24949000Y30404000D03*
X31299000Y29261000D03*
X41586000Y19990000D03*
X44507000Y19990000D03*
X48063000Y19990000D03*
X46920000Y24562000D03*
X48444000Y26467000D03*
X46920000Y28499000D03*
X41586000Y29261000D03*
X44761000Y29261000D03*
X64446000Y42342000D03*
X66478000Y42342000D03*
X69526000Y42342000D03*
X73580000Y42342000D03*
X77517000Y42342000D03*
X81589000Y42348000D03*
X85526000Y42348000D03*
X89590000Y42348000D03*
X93527000Y42348000D03*
X71390000Y42348000D03*
X75454000Y42348000D03*
X79391000Y42348000D03*
X83344000Y42348000D03*
X87408000Y42348000D03*
X91345000Y42348000D03*
X61652000Y26086000D03*
X61652000Y24181000D03*
X36125000Y42215000D03*
X56445000Y42342000D03*
X53524000Y4877000D03*
X10140800Y10795200D03*
X90735000Y24562000D03*
X61652000Y28118000D03*
X71050000Y30785000D03*
X27235000Y42088000D03*
X54667000Y25324000D03*
X37522000Y12243000D03*
X72701000Y22911000D03*
X67367000Y42342000D03*
X82353000Y15626000D03*
X97466000Y42342000D03*
X65075000Y30779000D03*
X17456000Y42088000D03*
X35998000Y12243000D03*
X51238000Y22403000D03*
X44507000Y42342000D03*
X20377000Y41961000D03*
X46412000Y42342000D03*
X36506000Y19609000D03*
X60509000Y42342000D03*
X54408000Y42347000D03*
X82353000Y36754000D03*
X31426000Y42215000D03*
X50476000Y42342000D03*
X82353000Y21641000D03*
X49460000Y42342000D03*
X51261000Y36350000D03*
X33331000Y42215000D03*
X82353000Y32182000D03*
X31934000Y15672000D03*
X36506000Y30150000D03*
X50349000Y25959000D03*
X53524000Y9322000D03*
X95408000Y42368000D03*
X40316000Y42342000D03*
X37141000Y42215000D03*
X51238000Y31801000D03*
X82353000Y26213000D03*
X58477000Y42342000D03*
X89398000Y35925000D03*
X47428000Y42342000D03*
X62414000Y42342000D03*
X72066000Y22149000D03*
X39046000Y12116000D03*
X52508000Y42342000D03*
X83496000Y20879000D03*
X34474000Y12243000D03*
X41205000Y42342000D03*
X82353000Y10973000D03*
X31172000Y23165000D03*
X29013000Y23165000D03*
X30664000Y26340000D03*
X29013000Y24562000D03*
X41586000Y23165000D03*
X42984000Y22149000D03*
X42602000Y26594000D03*
X41459000Y26340000D03*
X83369000Y26213000D03*
X52508000Y9322000D03*
X55810000Y25324000D03*
X71050000Y22149000D03*
X50222000Y31801000D03*
X83750000Y10973000D03*
X63430000Y25197000D03*
X83398000Y15626000D03*
X31000990Y15754990D03*
X52254000Y25197000D03*
X30918000Y11989000D03*
X44507000Y24943000D03*
X36379000Y27610000D03*
X19869000Y10846000D03*
X71050000Y22149000D03*
X52889000Y23165000D03*
X52508000Y4877000D03*
X70288000Y22911000D03*
X36379000Y22149000D03*
X63430000Y23292000D03*
X63430000Y28880000D03*
X83750000Y21768000D03*
X83623000Y32309000D03*
X83369000Y36754000D03*
X50222000Y36373000D03*
X47175000Y33645500D03*
X47175000Y34534500D03*
X42094000Y24562000D03*
X53778000Y26975000D03*
X42475000Y25070000D03*
X50222000Y26975000D03*
X50222000Y24181000D03*
X42094000Y25705000D03*
X27235000Y22022000D03*
X30809000Y24544000D03*
X66605000Y26594000D03*
X66605000Y25324000D03*
X29902000Y27864000D03*
X30788480Y25143651D03*
X21647000Y32944000D03*
D16*
X64345000Y42443000D02*
X64446000Y42342000D01*
X64345000Y44876000D02*
X64345000Y42443000D01*
X66377000Y42443000D02*
X66478000Y42342000D01*
X66377000Y44876000D02*
X66377000Y42443000D01*
X69425000Y44876000D02*
X69425000Y42443000D01*
X69425000Y42443000D02*
X69526000Y42342000D01*
X73479000Y42443000D02*
X73580000Y42342000D01*
X74479000Y44876000D02*
X73479000Y44876000D01*
X73479000Y44876000D02*
X73479000Y42443000D01*
X77416000Y42443000D02*
X77517000Y42342000D01*
X78416000Y44876000D02*
X77416000Y44876000D01*
X77416000Y44876000D02*
X77416000Y42443000D01*
X82488000Y44882000D02*
X81488000Y44882000D01*
X81488000Y44882000D02*
X81488000Y42449000D01*
X81488000Y42449000D02*
X81589000Y42348000D01*
X86425000Y44882000D02*
X85425000Y44882000D01*
X85425000Y44882000D02*
X85425000Y42449000D01*
X85425000Y42449000D02*
X85526000Y42348000D01*
X89489000Y42449000D02*
X89590000Y42348000D01*
X90489000Y44882000D02*
X89489000Y44882000D01*
X89489000Y44882000D02*
X89489000Y42449000D01*
X94426000Y44882000D02*
X93426000Y44882000D01*
X93426000Y42449000D02*
X93527000Y42348000D01*
X93426000Y44882000D02*
X93426000Y42449000D01*
X35408000Y44876000D02*
X35408000Y42424000D01*
X17408000Y44876000D02*
X17408000Y42136000D01*
X60408000Y44876000D02*
X60408000Y42443000D01*
X35408000Y42424000D02*
X35617000Y42215000D01*
X42408000Y44876000D02*
X42408000Y42783000D01*
X56408000Y42379000D02*
X56445000Y42342000D01*
X39408000Y44876000D02*
X39408000Y42615000D01*
X60408000Y42443000D02*
X60509000Y42342000D01*
X49408000Y42394000D02*
X49460000Y42342000D01*
X33408000Y44876000D02*
X33408000Y42292000D01*
X52408000Y42442000D02*
X52508000Y42342000D01*
X39408000Y42615000D02*
X39681000Y42342000D01*
X42408000Y42783000D02*
X41967000Y42342000D01*
X56408000Y44876000D02*
X56408000Y42379000D01*
X39681000Y42342000D02*
X40316000Y42342000D01*
X61408000Y44876000D02*
X60408000Y44876000D01*
X49408000Y44876000D02*
X49408000Y42394000D01*
X56408000Y44876000D02*
X57408000Y44876000D01*
X35617000Y42215000D02*
X36125000Y42215000D01*
X97408000Y42400000D02*
X97466000Y42342000D01*
X52408000Y44876000D02*
X52408000Y42442000D01*
X41967000Y42342000D02*
X41205000Y42342000D01*
X30408000Y42725000D02*
X30918000Y42215000D01*
X17408000Y42136000D02*
X17456000Y42088000D01*
X46408000Y44876000D02*
X46408000Y42346000D01*
X42408000Y44876000D02*
X43408000Y44876000D01*
X52408000Y44876000D02*
X53408000Y44876000D01*
X97408000Y44876000D02*
X97408000Y42400000D01*
X70408000Y44876000D02*
X69408000Y44876000D01*
X30918000Y42215000D02*
X31426000Y42215000D01*
X27408000Y42261000D02*
X27235000Y42088000D01*
X38408000Y44876000D02*
X39408000Y44876000D01*
X46408000Y42346000D02*
X46412000Y42342000D01*
X27408000Y44876000D02*
X27408000Y42261000D01*
X30408000Y44876000D02*
X30408000Y42725000D01*
X33408000Y42292000D02*
X33331000Y42215000D01*
X30918000Y11989000D02*
X30918000Y13767000D01*
D17*
X36379000Y22149000D02*
X36379000Y21387000D01*
D16*
X70288000Y22911000D02*
X70923000Y22911000D01*
D18*
X28723000Y42124000D02*
X28408000Y42439000D01*
X28408000Y44876000D02*
X28408000Y42439000D01*
X30991538Y33878832D02*
X28723000Y36147370D01*
X47062467Y33771198D02*
X46954833Y33878832D01*
X46954833Y33878832D02*
X30991538Y33878832D01*
X28723000Y36147370D02*
X28723000Y42124000D01*
X47047000Y34340999D02*
X46954833Y34248832D01*
X29408000Y44876000D02*
X29408000Y42483000D01*
X47047000Y34341000D02*
X47047000Y34340999D01*
X29093000Y42168000D02*
X29408000Y42483000D01*
X31144798Y34248832D02*
X29093000Y36300630D01*
X46954833Y34248832D02*
X31144798Y34248832D01*
X29093000Y36300630D02*
X29093000Y42168000D01*
D17*
X53778000Y22784000D02*
X53778000Y26975000D01*
X42094000Y24562000D02*
X44728001Y21927999D01*
X52921999Y21927999D02*
X53778000Y22784000D01*
X44728001Y21927999D02*
X52921999Y21927999D01*
X51215000Y26975000D02*
X50222000Y26975000D01*
X51492000Y23927000D02*
X51492000Y26698000D01*
X51492000Y26698000D02*
X51215000Y26975000D01*
X44253000Y23292000D02*
X50857000Y23292000D01*
X42475000Y25070000D02*
X44253000Y23292000D01*
X50857000Y23292000D02*
X51492000Y23927000D01*
X42094000Y25705000D02*
X42729000Y25705000D01*
X44761000Y23673000D02*
X49714000Y23673000D01*
X42729000Y25705000D02*
X44761000Y23673000D01*
X49714000Y23673000D02*
X50222000Y24181000D01*
X27235000Y22304842D02*
X27235000Y22022000D01*
X30809000Y24544000D02*
X30156000Y23891000D01*
X28821158Y23891000D02*
X27235000Y22304842D01*
X30156000Y23891000D02*
X28821158Y23891000D01*
X65589000Y26594000D02*
X64827000Y25832000D01*
X64827000Y25832000D02*
X64827000Y22657000D01*
X63938000Y21768000D02*
X57969000Y21768000D01*
X64827000Y22657000D02*
X63938000Y21768000D01*
X66605000Y26594000D02*
X65589000Y26594000D01*
X57080000Y20879000D02*
X57080000Y19482000D01*
X57969000Y21768000D02*
X57080000Y20879000D01*
X66605000Y25324000D02*
X66605000Y20879000D01*
X65208000Y19482000D02*
X61730000Y19482000D01*
X66605000Y20879000D02*
X65208000Y19482000D01*
X30061999Y25164001D02*
X29902000Y25324000D01*
X30188999Y25164001D02*
X30061999Y25164001D01*
X29902000Y25324000D02*
X29902000Y27864000D01*
X30209349Y25143651D02*
X30188999Y25164001D01*
X30788480Y25143651D02*
X30209349Y25143651D01*
X24408000Y35705000D02*
X21647000Y32944000D01*
X24408000Y44876000D02*
X24408000Y35705000D01*
G04 #@! TA.AperFunction,Conductor*
G36*
X13945778Y47481093D02*
G01*
X13981742Y47431593D01*
X13981742Y47370407D01*
X13937087Y47315263D01*
X13804558Y47238747D01*
X13664596Y47087905D01*
X13664594Y47087901D01*
X13575313Y46902507D01*
X13575312Y46902503D01*
X13552353Y46750179D01*
X13552352Y46750171D01*
X13552352Y43012228D01*
X13592362Y42800769D01*
X13695251Y42622560D01*
X13695251Y42622559D01*
X13846095Y42482596D01*
X13846099Y42482594D01*
X14031493Y42393313D01*
X14031497Y42393312D01*
X14183821Y42370353D01*
X14183829Y42370352D01*
X14621772Y42370352D01*
X14833231Y42410361D01*
X14861984Y42426962D01*
X14921832Y42439683D01*
X14954437Y42430421D01*
X15031492Y42393314D01*
X15031497Y42393312D01*
X15183821Y42370353D01*
X15183829Y42370352D01*
X15621772Y42370352D01*
X15833231Y42410361D01*
X15861984Y42426962D01*
X15921832Y42439683D01*
X15954437Y42430421D01*
X16031492Y42393314D01*
X16031497Y42393312D01*
X16183821Y42370353D01*
X16183829Y42370352D01*
X16624202Y42370352D01*
X16682393Y42351445D01*
X16718357Y42301945D01*
X16718876Y42242408D01*
X16707311Y42204580D01*
X16707310Y42204573D01*
X16704684Y41989753D01*
X16762459Y41782831D01*
X16875984Y41600446D01*
X17036137Y41457253D01*
X17230045Y41364763D01*
X17442118Y41330415D01*
X17655302Y41356969D01*
X17852465Y41442289D01*
X18017760Y41579520D01*
X18137895Y41757626D01*
X18203211Y41962287D01*
X18206058Y42195419D01*
X18191979Y42243566D01*
X18193794Y42304724D01*
X18231211Y42353136D01*
X18287000Y42370352D01*
X18621772Y42370352D01*
X18833231Y42410361D01*
X18861984Y42426962D01*
X18921832Y42439683D01*
X18954437Y42430421D01*
X19031492Y42393314D01*
X19031497Y42393312D01*
X19183821Y42370353D01*
X19183829Y42370352D01*
X19584029Y42370352D01*
X19642220Y42351445D01*
X19678184Y42301945D01*
X19678703Y42242408D01*
X19628311Y42077580D01*
X19628310Y42077573D01*
X19625684Y41862753D01*
X19683459Y41655831D01*
X19796984Y41473446D01*
X19957137Y41330253D01*
X20151045Y41237763D01*
X20363118Y41203415D01*
X20576302Y41229969D01*
X20773465Y41315289D01*
X20938760Y41452520D01*
X21058895Y41630626D01*
X21124211Y41835287D01*
X21127058Y42068420D01*
X21075586Y42244440D01*
X21077401Y42305598D01*
X21114818Y42354010D01*
X21180005Y42368901D01*
X21180135Y42370629D01*
X21183829Y42370352D01*
X21621772Y42370352D01*
X21833231Y42410361D01*
X21861984Y42426962D01*
X21921832Y42439683D01*
X21954437Y42430421D01*
X22031492Y42393314D01*
X22031497Y42393312D01*
X22183821Y42370353D01*
X22183829Y42370352D01*
X22621772Y42370352D01*
X22833231Y42410361D01*
X22861984Y42426962D01*
X22921832Y42439683D01*
X22954437Y42430421D01*
X23031492Y42393314D01*
X23031497Y42393312D01*
X23183821Y42370353D01*
X23183829Y42370352D01*
X23621772Y42370352D01*
X23715595Y42388104D01*
X23776286Y42380345D01*
X23820826Y42338393D01*
X23833000Y42290830D01*
X23833001Y35984181D01*
X23804005Y35914177D01*
X21605544Y33715716D01*
X21548975Y33687636D01*
X21438782Y33672542D01*
X21438776Y33672540D01*
X21242675Y33584819D01*
X21242673Y33584818D01*
X21079071Y33445581D01*
X21079067Y33445577D01*
X20961122Y33266022D01*
X20961119Y33266017D01*
X20898311Y33060578D01*
X20898310Y33060573D01*
X20895684Y32845753D01*
X20953459Y32638831D01*
X21066984Y32456446D01*
X21227137Y32313253D01*
X21421045Y32220763D01*
X21633118Y32186415D01*
X21846302Y32212969D01*
X22043465Y32298289D01*
X22208760Y32435520D01*
X22328895Y32613626D01*
X22394211Y32818287D01*
X22394211Y32818288D01*
X22394458Y32838482D01*
X22423447Y32907275D01*
X22488924Y32972753D01*
X26483684Y32972753D01*
X26541459Y32765831D01*
X26654984Y32583446D01*
X26815137Y32440253D01*
X27009045Y32347763D01*
X27221118Y32313415D01*
X27434302Y32339969D01*
X27631465Y32425289D01*
X27796760Y32562520D01*
X27916895Y32740626D01*
X27982211Y32945287D01*
X27985058Y33178420D01*
X27924762Y33384617D01*
X27809016Y33565603D01*
X27809015Y33565605D01*
X27647122Y33706833D01*
X27452104Y33796942D01*
X27239628Y33828698D01*
X27026786Y33799543D01*
X26830671Y33711817D01*
X26667071Y33572581D01*
X26667067Y33572577D01*
X26549122Y33393022D01*
X26549119Y33393017D01*
X26486311Y33187578D01*
X26486310Y33187573D01*
X26483684Y32972753D01*
X22488924Y32972753D01*
X24878985Y35362814D01*
X24896246Y35396691D01*
X24904363Y35409938D01*
X24926715Y35440703D01*
X24938466Y35476867D01*
X24944410Y35491217D01*
X24961674Y35525099D01*
X24967623Y35562660D01*
X24971249Y35577762D01*
X24982998Y35613925D01*
X24982999Y35613931D01*
X24982999Y35655647D01*
X24983000Y35655671D01*
X24983000Y42443745D01*
X25009428Y42511082D01*
X25151404Y42664095D01*
X25151406Y42664099D01*
X25240687Y42849493D01*
X25240688Y42849497D01*
X25263647Y43001821D01*
X25263648Y43001829D01*
X25263648Y46739772D01*
X25223638Y46951231D01*
X25120749Y47129440D01*
X25120749Y47129441D01*
X24969905Y47269404D01*
X24969901Y47269407D01*
X24881861Y47311804D01*
X24837636Y47354087D01*
X24826711Y47414289D01*
X24853258Y47469415D01*
X24924815Y47500000D01*
X26887587Y47500000D01*
X26945778Y47481093D01*
X26981742Y47431593D01*
X26981742Y47370407D01*
X26937087Y47315263D01*
X26804558Y47238747D01*
X26664596Y47087905D01*
X26664594Y47087901D01*
X26575313Y46902507D01*
X26575312Y46902503D01*
X26552353Y46750179D01*
X26552352Y46750171D01*
X26552352Y43012228D01*
X26592361Y42800771D01*
X26661690Y42680690D01*
X26674411Y42620842D01*
X26658698Y42576837D01*
X26549122Y42410022D01*
X26549119Y42410017D01*
X26486311Y42204578D01*
X26486310Y42204573D01*
X26483684Y41989753D01*
X26541459Y41782831D01*
X26654984Y41600446D01*
X26815137Y41457253D01*
X27009045Y41364763D01*
X27029674Y41361422D01*
X27084094Y41333454D01*
X27111681Y41278841D01*
X27101900Y41218443D01*
X27058485Y41175329D01*
X27033545Y41167561D01*
X27033567Y41167482D01*
X27030223Y41166526D01*
X27027285Y41165611D01*
X27026785Y41165543D01*
X26830671Y41077817D01*
X26667071Y40938581D01*
X26667067Y40938577D01*
X26549122Y40759022D01*
X26549119Y40759017D01*
X26486311Y40553578D01*
X26486310Y40553573D01*
X26483684Y40338753D01*
X26541459Y40131831D01*
X26654984Y39949446D01*
X26815137Y39806253D01*
X27009045Y39713763D01*
X27221118Y39679415D01*
X27434302Y39705969D01*
X27631465Y39791289D01*
X27796760Y39928520D01*
X27916895Y40106626D01*
X27929688Y40146712D01*
X27965392Y40196399D01*
X28023483Y40215611D01*
X28081772Y40197008D01*
X28117994Y40147697D01*
X28123001Y40116612D01*
X28123000Y37715981D01*
X28104093Y37657790D01*
X28054593Y37621826D01*
X27993407Y37621826D01*
X27943907Y37657790D01*
X27928979Y37688197D01*
X27924763Y37702616D01*
X27809016Y37883603D01*
X27809015Y37883605D01*
X27647122Y38024833D01*
X27452104Y38114942D01*
X27239628Y38146698D01*
X27026786Y38117543D01*
X26830671Y38029817D01*
X26667071Y37890581D01*
X26667067Y37890577D01*
X26549122Y37711022D01*
X26549119Y37711017D01*
X26486311Y37505578D01*
X26486310Y37505573D01*
X26483684Y37290753D01*
X26541459Y37083831D01*
X26654984Y36901446D01*
X26815137Y36758253D01*
X27009045Y36665763D01*
X27221118Y36631415D01*
X27434302Y36657969D01*
X27631465Y36743289D01*
X27796760Y36880520D01*
X27916893Y37058624D01*
X27929686Y37098709D01*
X27965391Y37148397D01*
X28023482Y37167609D01*
X28081770Y37149006D01*
X28117993Y37099695D01*
X28123000Y37068610D01*
X28123000Y36096072D01*
X28123001Y36096048D01*
X28123001Y36052342D01*
X28123002Y36052339D01*
X28135366Y36014283D01*
X28138992Y35999180D01*
X28145253Y35959650D01*
X28163424Y35923987D01*
X28169369Y35909634D01*
X28181732Y35871582D01*
X28181734Y35871579D01*
X28205256Y35839203D01*
X28213373Y35825958D01*
X28231540Y35790303D01*
X28365935Y35655907D01*
X30500077Y33521764D01*
X30634470Y33387372D01*
X30670125Y33369205D01*
X30683370Y33361088D01*
X30715746Y33337566D01*
X30715749Y33337564D01*
X30753801Y33325201D01*
X30768154Y33319256D01*
X30803817Y33301085D01*
X30843346Y33294824D01*
X30858449Y33291198D01*
X30896505Y33278834D01*
X30896508Y33278833D01*
X30940215Y33278833D01*
X30940239Y33278832D01*
X33372207Y33278832D01*
X33430398Y33259925D01*
X33466362Y33210425D01*
X33471200Y33178622D01*
X33468684Y32972753D01*
X33526459Y32765831D01*
X33639984Y32583446D01*
X33800137Y32440253D01*
X33994045Y32347763D01*
X34206118Y32313415D01*
X34419302Y32339969D01*
X34616465Y32425289D01*
X34781760Y32562520D01*
X34901895Y32740626D01*
X34967211Y32945287D01*
X34970090Y33181041D01*
X34989707Y33238996D01*
X35069083Y33278832D01*
X35912207Y33278832D01*
X35970398Y33259925D01*
X36006362Y33210425D01*
X36011200Y33178622D01*
X36008684Y32972753D01*
X36066459Y32765831D01*
X36179984Y32583446D01*
X36340137Y32440253D01*
X36534045Y32347763D01*
X36746118Y32313415D01*
X36959302Y32339969D01*
X37156465Y32425289D01*
X37321760Y32562520D01*
X37441895Y32740626D01*
X37507211Y32945287D01*
X37510090Y33181041D01*
X37529707Y33238996D01*
X37609083Y33278832D01*
X39849207Y33278832D01*
X39907398Y33259925D01*
X39943362Y33210425D01*
X39948200Y33178622D01*
X39945684Y32972753D01*
X40003459Y32765831D01*
X40116984Y32583446D01*
X40277137Y32440253D01*
X40471045Y32347763D01*
X40683118Y32313415D01*
X40896302Y32339969D01*
X41093465Y32425289D01*
X41258760Y32562520D01*
X41378895Y32740626D01*
X41444211Y32945287D01*
X41447090Y33181041D01*
X41466707Y33238996D01*
X41546083Y33278832D01*
X46464750Y33278832D01*
X46522941Y33259925D01*
X46548798Y33232147D01*
X46594984Y33157946D01*
X46755137Y33014753D01*
X46949045Y32922263D01*
X47161118Y32887915D01*
X47374302Y32914469D01*
X47571465Y32999789D01*
X47736760Y33137020D01*
X47856895Y33315126D01*
X47922211Y33519787D01*
X47925058Y33752920D01*
X47864762Y33959118D01*
X47815539Y34036085D01*
X47800116Y34095294D01*
X47816868Y34144783D01*
X47856890Y34204118D01*
X47856896Y34204129D01*
X47922211Y34408787D01*
X47925058Y34641920D01*
X47864762Y34848117D01*
X47749016Y35029103D01*
X47749015Y35029105D01*
X47587122Y35170333D01*
X47392104Y35260442D01*
X47179628Y35292198D01*
X46966786Y35263043D01*
X46770671Y35175317D01*
X46607071Y35036081D01*
X46607067Y35036077D01*
X46513397Y34893479D01*
X46465646Y34855223D01*
X46430652Y34848832D01*
X43697729Y34848832D01*
X43639538Y34867739D01*
X43603574Y34917239D01*
X43603438Y34969802D01*
X43602035Y34970029D01*
X43603211Y34977287D01*
X43606058Y35210420D01*
X43545762Y35416617D01*
X43430016Y35597603D01*
X43430015Y35597605D01*
X43268122Y35738833D01*
X43073104Y35828942D01*
X42860628Y35860698D01*
X42647786Y35831543D01*
X42451671Y35743817D01*
X42288071Y35604581D01*
X42288067Y35604577D01*
X42170122Y35425022D01*
X42170119Y35425017D01*
X42107311Y35219578D01*
X42107310Y35219573D01*
X42104684Y35004751D01*
X42113143Y34974454D01*
X42110581Y34913323D01*
X42072575Y34865372D01*
X42017790Y34848832D01*
X40268729Y34848832D01*
X40210538Y34867739D01*
X40174574Y34917239D01*
X40174438Y34969802D01*
X40173035Y34970029D01*
X40174211Y34977287D01*
X40177058Y35210420D01*
X40116762Y35416617D01*
X40001016Y35597603D01*
X40001015Y35597605D01*
X39839122Y35738833D01*
X39644104Y35828942D01*
X39431628Y35860698D01*
X39218786Y35831543D01*
X39022671Y35743817D01*
X38859071Y35604581D01*
X38859067Y35604577D01*
X38741122Y35425022D01*
X38741119Y35425017D01*
X38678311Y35219578D01*
X38678310Y35219573D01*
X38675684Y35004751D01*
X38684143Y34974454D01*
X38681581Y34913323D01*
X38643575Y34865372D01*
X38588790Y34848832D01*
X37601729Y34848832D01*
X37543538Y34867739D01*
X37507574Y34917239D01*
X37507438Y34969802D01*
X37506035Y34970029D01*
X37507211Y34977287D01*
X37510058Y35210420D01*
X37449762Y35416617D01*
X37334016Y35597603D01*
X37334015Y35597605D01*
X37172122Y35738833D01*
X36977104Y35828942D01*
X36764628Y35860698D01*
X36551786Y35831543D01*
X36355671Y35743817D01*
X36192071Y35604581D01*
X36192067Y35604577D01*
X36074122Y35425022D01*
X36074119Y35425017D01*
X36011311Y35219578D01*
X36011310Y35219573D01*
X36008684Y35004751D01*
X36017143Y34974454D01*
X36014581Y34913323D01*
X35976575Y34865372D01*
X35921790Y34848832D01*
X33410729Y34848832D01*
X33352538Y34867739D01*
X33316574Y34917239D01*
X33316438Y34969802D01*
X33315035Y34970029D01*
X33316211Y34977287D01*
X33319058Y35210420D01*
X33258762Y35416617D01*
X33143016Y35597603D01*
X33143015Y35597605D01*
X32981122Y35738833D01*
X32786104Y35828942D01*
X32573628Y35860698D01*
X32360786Y35831543D01*
X32164671Y35743817D01*
X32001071Y35604581D01*
X32001067Y35604577D01*
X31883122Y35425022D01*
X31883119Y35425017D01*
X31820311Y35219578D01*
X31820310Y35219573D01*
X31817684Y35004751D01*
X31826143Y34974454D01*
X31823581Y34913323D01*
X31785575Y34865372D01*
X31730790Y34848832D01*
X31434334Y34848832D01*
X31364330Y34877828D01*
X29990405Y36251753D01*
X50509684Y36251753D01*
X50567459Y36044831D01*
X50680984Y35862446D01*
X50841137Y35719253D01*
X51035045Y35626763D01*
X51247118Y35592415D01*
X51460302Y35618969D01*
X51657465Y35704289D01*
X51804973Y35826753D01*
X88646684Y35826753D01*
X88704459Y35619831D01*
X88817984Y35437446D01*
X88978137Y35294253D01*
X89172045Y35201763D01*
X89384118Y35167415D01*
X89597302Y35193969D01*
X89794467Y35279290D01*
X89794468Y35279291D01*
X89847357Y35323199D01*
X89904206Y35345822D01*
X89963496Y35330708D01*
X90002578Y35283632D01*
X90005268Y35218083D01*
X89986311Y35156077D01*
X89986310Y35156073D01*
X89983684Y34941253D01*
X90041459Y34734331D01*
X90154984Y34551946D01*
X90315137Y34408753D01*
X90509045Y34316263D01*
X90721118Y34281915D01*
X90934302Y34308469D01*
X91131465Y34393789D01*
X91296760Y34531020D01*
X91416895Y34709126D01*
X91482211Y34913787D01*
X91485058Y35146920D01*
X91424762Y35353117D01*
X91309016Y35534103D01*
X91309015Y35534105D01*
X91147122Y35675333D01*
X90952104Y35765442D01*
X90739628Y35797198D01*
X90526786Y35768043D01*
X90330671Y35680317D01*
X90287720Y35643762D01*
X90231151Y35620446D01*
X90171682Y35634833D01*
X90132026Y35681428D01*
X90129242Y35749253D01*
X90145211Y35799290D01*
X90148058Y36032420D01*
X90087762Y36238617D01*
X89972016Y36419603D01*
X89972015Y36419605D01*
X89810122Y36560833D01*
X89615104Y36650942D01*
X89402628Y36682698D01*
X89189786Y36653543D01*
X88993671Y36565817D01*
X88830071Y36426581D01*
X88830067Y36426577D01*
X88712122Y36247022D01*
X88712119Y36247017D01*
X88649311Y36041578D01*
X88649310Y36041573D01*
X88646684Y35826753D01*
X51804973Y35826753D01*
X51822760Y35841520D01*
X51942895Y36019626D01*
X52008211Y36224287D01*
X52011058Y36457420D01*
X51953062Y36655753D01*
X81601684Y36655753D01*
X81659459Y36448831D01*
X81772984Y36266446D01*
X81933137Y36123253D01*
X82127045Y36030763D01*
X82339118Y35996415D01*
X82552302Y36022969D01*
X82749465Y36108289D01*
X82914760Y36245520D01*
X83034895Y36423626D01*
X83100211Y36628287D01*
X83103058Y36861420D01*
X83042762Y37067617D01*
X82927016Y37248603D01*
X82927015Y37248605D01*
X82765122Y37389833D01*
X82570104Y37479942D01*
X82357628Y37511698D01*
X82144786Y37482543D01*
X81948671Y37394817D01*
X81785071Y37255581D01*
X81785067Y37255577D01*
X81667122Y37076022D01*
X81667119Y37076017D01*
X81604311Y36870578D01*
X81604310Y36870573D01*
X81601684Y36655753D01*
X51953062Y36655753D01*
X51950762Y36663617D01*
X51835016Y36844603D01*
X51835015Y36844605D01*
X51673122Y36985833D01*
X51478104Y37075942D01*
X51265628Y37107698D01*
X51052786Y37078543D01*
X50856671Y36990817D01*
X50693071Y36851581D01*
X50693067Y36851577D01*
X50575122Y36672022D01*
X50575119Y36672017D01*
X50512311Y36466578D01*
X50512310Y36466573D01*
X50509684Y36251753D01*
X29990405Y36251753D01*
X29721996Y36520161D01*
X29693000Y36590165D01*
X29693000Y37290753D01*
X31817684Y37290753D01*
X31875459Y37083831D01*
X31988984Y36901446D01*
X32149137Y36758253D01*
X32343045Y36665763D01*
X32555118Y36631415D01*
X32768302Y36657969D01*
X32965465Y36743289D01*
X33130760Y36880520D01*
X33250895Y37058626D01*
X33316211Y37263287D01*
X33316546Y37290753D01*
X36008684Y37290753D01*
X36066459Y37083831D01*
X36179984Y36901446D01*
X36340137Y36758253D01*
X36534045Y36665763D01*
X36746118Y36631415D01*
X36959302Y36657969D01*
X37156465Y36743289D01*
X37321760Y36880520D01*
X37441895Y37058626D01*
X37507211Y37263287D01*
X37507546Y37290753D01*
X40072684Y37290753D01*
X40130459Y37083831D01*
X40243984Y36901446D01*
X40404137Y36758253D01*
X40598045Y36665763D01*
X40810118Y36631415D01*
X41023302Y36657969D01*
X41220465Y36743289D01*
X41385760Y36880520D01*
X41505895Y37058626D01*
X41571211Y37263287D01*
X41571546Y37290753D01*
X44390684Y37290753D01*
X44448459Y37083831D01*
X44561984Y36901446D01*
X44722137Y36758253D01*
X44916045Y36665763D01*
X45128118Y36631415D01*
X45341302Y36657969D01*
X45538465Y36743289D01*
X45703760Y36880520D01*
X45823895Y37058626D01*
X45889211Y37263287D01*
X45892058Y37496420D01*
X45831762Y37702617D01*
X45716016Y37883603D01*
X45716015Y37883605D01*
X45554122Y38024833D01*
X45359104Y38114942D01*
X45146628Y38146698D01*
X44933786Y38117543D01*
X44737671Y38029817D01*
X44574071Y37890581D01*
X44574067Y37890577D01*
X44456122Y37711022D01*
X44456119Y37711017D01*
X44393311Y37505578D01*
X44393310Y37505573D01*
X44390684Y37290753D01*
X41571546Y37290753D01*
X41574058Y37496420D01*
X41513762Y37702617D01*
X41398016Y37883603D01*
X41398015Y37883605D01*
X41236122Y38024833D01*
X41041104Y38114942D01*
X40828628Y38146698D01*
X40615786Y38117543D01*
X40419671Y38029817D01*
X40256071Y37890581D01*
X40256067Y37890577D01*
X40138122Y37711022D01*
X40138119Y37711017D01*
X40075311Y37505578D01*
X40075310Y37505573D01*
X40072684Y37290753D01*
X37507546Y37290753D01*
X37510058Y37496420D01*
X37449762Y37702617D01*
X37334016Y37883603D01*
X37334015Y37883605D01*
X37172122Y38024833D01*
X36977104Y38114942D01*
X36764628Y38146698D01*
X36551786Y38117543D01*
X36355671Y38029817D01*
X36192071Y37890581D01*
X36192067Y37890577D01*
X36074122Y37711022D01*
X36074119Y37711017D01*
X36011311Y37505578D01*
X36011310Y37505573D01*
X36008684Y37290753D01*
X33316546Y37290753D01*
X33319058Y37496420D01*
X33258762Y37702617D01*
X33143016Y37883603D01*
X33143015Y37883605D01*
X32981122Y38024833D01*
X32786104Y38114942D01*
X32573628Y38146698D01*
X32360786Y38117543D01*
X32164671Y38029817D01*
X32001071Y37890581D01*
X32001067Y37890577D01*
X31883122Y37711022D01*
X31883119Y37711017D01*
X31820311Y37505578D01*
X31820310Y37505573D01*
X31817684Y37290753D01*
X29693000Y37290753D01*
X29693000Y40338753D01*
X31817684Y40338753D01*
X31875459Y40131831D01*
X31988984Y39949446D01*
X32149137Y39806253D01*
X32343045Y39713763D01*
X32555118Y39679415D01*
X32768302Y39705969D01*
X32965465Y39791289D01*
X33130760Y39928520D01*
X33250895Y40106626D01*
X33316211Y40311287D01*
X33316546Y40338753D01*
X36008684Y40338753D01*
X36066459Y40131831D01*
X36179984Y39949446D01*
X36340137Y39806253D01*
X36534045Y39713763D01*
X36746118Y39679415D01*
X36959302Y39705969D01*
X37156465Y39791289D01*
X37321760Y39928520D01*
X37441895Y40106626D01*
X37507211Y40311287D01*
X37507546Y40338753D01*
X40072684Y40338753D01*
X40130459Y40131831D01*
X40243984Y39949446D01*
X40404137Y39806253D01*
X40598045Y39713763D01*
X40810118Y39679415D01*
X41023302Y39705969D01*
X41220465Y39791289D01*
X41385760Y39928520D01*
X41505895Y40106626D01*
X41571211Y40311287D01*
X41571546Y40338753D01*
X44390684Y40338753D01*
X44448459Y40131831D01*
X44561984Y39949446D01*
X44722137Y39806253D01*
X44916045Y39713763D01*
X45128118Y39679415D01*
X45341302Y39705969D01*
X45538465Y39791289D01*
X45703760Y39928520D01*
X45823895Y40106626D01*
X45889211Y40311287D01*
X45892058Y40544420D01*
X45831762Y40750617D01*
X45716016Y40931603D01*
X45716015Y40931605D01*
X45554122Y41072833D01*
X45359104Y41162942D01*
X45146628Y41194698D01*
X44933786Y41165543D01*
X44737671Y41077817D01*
X44574071Y40938581D01*
X44574067Y40938577D01*
X44456122Y40759022D01*
X44456119Y40759017D01*
X44393311Y40553578D01*
X44393310Y40553573D01*
X44390684Y40338753D01*
X41571546Y40338753D01*
X41574058Y40544420D01*
X41513762Y40750617D01*
X41398016Y40931603D01*
X41398015Y40931605D01*
X41236122Y41072833D01*
X41041104Y41162942D01*
X40828628Y41194698D01*
X40615786Y41165543D01*
X40419671Y41077817D01*
X40256071Y40938581D01*
X40256067Y40938577D01*
X40138122Y40759022D01*
X40138119Y40759017D01*
X40075311Y40553578D01*
X40075310Y40553573D01*
X40072684Y40338753D01*
X37507546Y40338753D01*
X37510058Y40544420D01*
X37449762Y40750617D01*
X37334016Y40931603D01*
X37334015Y40931605D01*
X37172122Y41072833D01*
X36977104Y41162942D01*
X36764628Y41194698D01*
X36551786Y41165543D01*
X36355671Y41077817D01*
X36192071Y40938581D01*
X36192067Y40938577D01*
X36074122Y40759022D01*
X36074119Y40759017D01*
X36011311Y40553578D01*
X36011310Y40553573D01*
X36008684Y40338753D01*
X33316546Y40338753D01*
X33319058Y40544420D01*
X33258762Y40750617D01*
X33143016Y40931603D01*
X33143015Y40931605D01*
X32981122Y41072833D01*
X32786104Y41162942D01*
X32573628Y41194698D01*
X32360786Y41165543D01*
X32164671Y41077817D01*
X32001071Y40938581D01*
X32001067Y40938577D01*
X31883122Y40759022D01*
X31883119Y40759017D01*
X31820311Y40553578D01*
X31820310Y40553573D01*
X31817684Y40338753D01*
X29693000Y40338753D01*
X29693000Y41878465D01*
X29721996Y41948469D01*
X29899462Y42125935D01*
X29913113Y42152728D01*
X29956377Y42195994D01*
X30016809Y42205566D01*
X30071328Y42177789D01*
X30546054Y41703063D01*
X30583487Y41683990D01*
X30596734Y41675872D01*
X30630718Y41651181D01*
X30630722Y41651179D01*
X30670675Y41638197D01*
X30685028Y41632252D01*
X30722456Y41613181D01*
X30763950Y41606609D01*
X30779054Y41602983D01*
X30819009Y41590002D01*
X30819012Y41590001D01*
X30864714Y41590001D01*
X30864738Y41590000D01*
X30971685Y41590000D01*
X31014306Y41580356D01*
X31200045Y41491763D01*
X31412118Y41457415D01*
X31625302Y41483969D01*
X31822465Y41569289D01*
X31987760Y41706520D01*
X32107895Y41884626D01*
X32173211Y42089287D01*
X32175449Y42272561D01*
X32195066Y42330516D01*
X32274442Y42370352D01*
X32482566Y42370352D01*
X32540757Y42351445D01*
X32576721Y42301945D01*
X32581559Y42270142D01*
X32579684Y42116753D01*
X32637459Y41909831D01*
X32750984Y41727446D01*
X32911137Y41584253D01*
X33105045Y41491763D01*
X33317118Y41457415D01*
X33530302Y41483969D01*
X33727465Y41569289D01*
X33892760Y41706520D01*
X34012895Y41884626D01*
X34078211Y42089287D01*
X34080450Y42272612D01*
X34100067Y42330568D01*
X34150003Y42365924D01*
X34180120Y42369353D01*
X34180120Y42370352D01*
X34621773Y42370352D01*
X34674156Y42380263D01*
X34734847Y42372503D01*
X34786714Y42313584D01*
X34795984Y42285056D01*
X34799611Y42269947D01*
X34806182Y42228458D01*
X34806184Y42228453D01*
X34825251Y42191032D01*
X34831196Y42176679D01*
X34844179Y42136723D01*
X34844180Y42136720D01*
X34868874Y42102731D01*
X34876991Y42089486D01*
X34896063Y42052055D01*
X35245057Y41703061D01*
X35282490Y41683988D01*
X35295735Y41675872D01*
X35329723Y41651179D01*
X35329725Y41651178D01*
X35369674Y41638197D01*
X35384024Y41632253D01*
X35421455Y41613181D01*
X35462950Y41606609D01*
X35478054Y41602983D01*
X35518009Y41590002D01*
X35518012Y41590001D01*
X35563714Y41590001D01*
X35563738Y41590000D01*
X35670685Y41590000D01*
X35713306Y41580356D01*
X35899045Y41491763D01*
X36111118Y41457415D01*
X36324302Y41483969D01*
X36521468Y41569290D01*
X36568045Y41607960D01*
X36624895Y41630584D01*
X36697271Y41605592D01*
X36721137Y41584253D01*
X36915045Y41491763D01*
X37127118Y41457415D01*
X37340302Y41483969D01*
X37537465Y41569289D01*
X37702760Y41706520D01*
X37822895Y41884626D01*
X37888211Y42089287D01*
X37890842Y42304702D01*
X37910459Y42362658D01*
X37960395Y42398014D01*
X38023742Y42393355D01*
X38024403Y42395500D01*
X38031497Y42393312D01*
X38183821Y42370353D01*
X38183829Y42370352D01*
X38621770Y42370352D01*
X38732619Y42391326D01*
X38793311Y42383567D01*
X38837685Y42333157D01*
X38840642Y42334664D01*
X38844180Y42327720D01*
X38868874Y42293731D01*
X38876991Y42280486D01*
X38896063Y42243055D01*
X39309056Y41830062D01*
X39346493Y41810987D01*
X39359738Y41802870D01*
X39393719Y41778182D01*
X39393723Y41778180D01*
X39433663Y41765203D01*
X39448016Y41759258D01*
X39485457Y41740181D01*
X39526949Y41733609D01*
X39542052Y41729983D01*
X39582007Y41717002D01*
X39582010Y41717001D01*
X39627714Y41717001D01*
X39627738Y41717000D01*
X39861685Y41717000D01*
X39904306Y41707356D01*
X40090044Y41618763D01*
X40090045Y41618763D01*
X40302118Y41584415D01*
X40515302Y41610969D01*
X40718940Y41699091D01*
X40719480Y41697843D01*
X40771584Y41710398D01*
X40806521Y41701053D01*
X40979044Y41618763D01*
X40979045Y41618763D01*
X41191118Y41584415D01*
X41404302Y41610969D01*
X41601471Y41696292D01*
X41607478Y41699980D01*
X41608844Y41697755D01*
X41662153Y41717000D01*
X42020262Y41717000D01*
X42020286Y41717001D01*
X42065988Y41717001D01*
X42065991Y41717002D01*
X42105946Y41729983D01*
X42121049Y41733609D01*
X42162543Y41740181D01*
X42162547Y41740183D01*
X42199974Y41759253D01*
X42214327Y41765199D01*
X42254282Y41778181D01*
X42254285Y41778183D01*
X42288265Y41802871D01*
X42301512Y41810989D01*
X42338942Y41830060D01*
X42894553Y42385671D01*
X42949070Y42413448D01*
X43007513Y42404862D01*
X43031493Y42393313D01*
X43031497Y42393312D01*
X43183821Y42370353D01*
X43183829Y42370352D01*
X43621773Y42370352D01*
X43638670Y42373549D01*
X43699361Y42365789D01*
X43743900Y42323838D01*
X43756067Y42275065D01*
X43755684Y42243753D01*
X43813459Y42036831D01*
X43926984Y41854446D01*
X44087137Y41711253D01*
X44281044Y41618763D01*
X44281045Y41618763D01*
X44493118Y41584415D01*
X44706302Y41610969D01*
X44903465Y41696289D01*
X45068760Y41833520D01*
X45188895Y42011626D01*
X45254211Y42216287D01*
X45254898Y42272561D01*
X45274515Y42330516D01*
X45353891Y42370352D01*
X45562014Y42370352D01*
X45620205Y42351445D01*
X45656169Y42301945D01*
X45661007Y42270141D01*
X45660684Y42243753D01*
X45718459Y42036831D01*
X45718460Y42036831D01*
X45831984Y41854446D01*
X45992137Y41711253D01*
X46186044Y41618763D01*
X46186045Y41618763D01*
X46398118Y41584415D01*
X46611302Y41610969D01*
X46808468Y41696290D01*
X46855045Y41734960D01*
X46911895Y41757584D01*
X46984271Y41732592D01*
X47008138Y41711253D01*
X47008137Y41711253D01*
X47202044Y41618763D01*
X47202045Y41618763D01*
X47414118Y41584415D01*
X47627302Y41610969D01*
X47824465Y41696289D01*
X47989760Y41833520D01*
X48109895Y42011626D01*
X48175211Y42216287D01*
X48175898Y42272561D01*
X48195515Y42330516D01*
X48274891Y42370352D01*
X48610014Y42370352D01*
X48668205Y42351445D01*
X48704169Y42301945D01*
X48709007Y42270141D01*
X48708684Y42243753D01*
X48766459Y42036831D01*
X48766460Y42036831D01*
X48879984Y41854446D01*
X49040137Y41711253D01*
X49234044Y41618763D01*
X49234045Y41618763D01*
X49446118Y41584415D01*
X49659302Y41610969D01*
X49856468Y41696290D01*
X49903045Y41734960D01*
X49959895Y41757584D01*
X50032271Y41732592D01*
X50056138Y41711253D01*
X50056137Y41711253D01*
X50250044Y41618763D01*
X50250045Y41618763D01*
X50462118Y41584415D01*
X50675302Y41610969D01*
X50872465Y41696289D01*
X51037760Y41833520D01*
X51157895Y42011626D01*
X51223211Y42216287D01*
X51223898Y42272561D01*
X51243515Y42330516D01*
X51322891Y42370352D01*
X51621770Y42370352D01*
X51639670Y42373739D01*
X51700361Y42365980D01*
X51744901Y42324030D01*
X51757069Y42275256D01*
X51756684Y42243753D01*
X51814459Y42036831D01*
X51814460Y42036831D01*
X51927984Y41854446D01*
X52088137Y41711253D01*
X52282044Y41618763D01*
X52282045Y41618763D01*
X52494118Y41584415D01*
X52707302Y41610969D01*
X52904465Y41696289D01*
X53069760Y41833520D01*
X53189895Y42011626D01*
X53255211Y42216287D01*
X53255898Y42272561D01*
X53275515Y42330516D01*
X53354891Y42370352D01*
X53557952Y42370352D01*
X53616143Y42351445D01*
X53652107Y42301945D01*
X53656945Y42270144D01*
X53656684Y42248754D01*
X53714459Y42041831D01*
X53714460Y42041831D01*
X53827984Y41859446D01*
X53988137Y41716253D01*
X54182045Y41623763D01*
X54394118Y41589415D01*
X54607302Y41615969D01*
X54804465Y41701289D01*
X54969760Y41838520D01*
X55089895Y42016626D01*
X55155211Y42221287D01*
X55155837Y42272561D01*
X55175454Y42330516D01*
X55254830Y42370352D01*
X55595014Y42370352D01*
X55653205Y42351445D01*
X55689169Y42301945D01*
X55694007Y42270141D01*
X55693684Y42243753D01*
X55751459Y42036831D01*
X55751460Y42036831D01*
X55864984Y41854446D01*
X56025137Y41711253D01*
X56219044Y41618763D01*
X56219045Y41618763D01*
X56431118Y41584415D01*
X56644302Y41610969D01*
X56841465Y41696289D01*
X57006760Y41833520D01*
X57126895Y42011626D01*
X57192211Y42216287D01*
X57192898Y42272561D01*
X57212515Y42330516D01*
X57291891Y42370352D01*
X57626404Y42370352D01*
X57626404Y42368048D01*
X57677501Y42356568D01*
X57717914Y42310629D01*
X57726007Y42270200D01*
X57725684Y42243754D01*
X57783459Y42036831D01*
X57783460Y42036831D01*
X57896984Y41854446D01*
X58057137Y41711253D01*
X58251044Y41618763D01*
X58251045Y41618763D01*
X58463118Y41584415D01*
X58676302Y41610969D01*
X58873465Y41696289D01*
X59038760Y41833520D01*
X59158895Y42011626D01*
X59224211Y42216287D01*
X59224898Y42272561D01*
X59244515Y42330516D01*
X59323891Y42370352D01*
X59621773Y42370352D01*
X59640674Y42373928D01*
X59701365Y42366168D01*
X59745904Y42324216D01*
X59758071Y42275445D01*
X59757684Y42243754D01*
X59815459Y42036831D01*
X59815460Y42036831D01*
X59928984Y41854446D01*
X60089137Y41711253D01*
X60283044Y41618763D01*
X60283045Y41618763D01*
X60495118Y41584415D01*
X60708302Y41610969D01*
X60905465Y41696289D01*
X61070760Y41833520D01*
X61190895Y42011626D01*
X61256211Y42216287D01*
X61256898Y42272561D01*
X61276515Y42330516D01*
X61355891Y42370352D01*
X61564014Y42370352D01*
X61622205Y42351445D01*
X61658169Y42301945D01*
X61663007Y42270141D01*
X61662684Y42243753D01*
X61720459Y42036831D01*
X61720460Y42036831D01*
X61833984Y41854446D01*
X61994137Y41711253D01*
X62188044Y41618763D01*
X62188045Y41618763D01*
X62400118Y41584415D01*
X62613302Y41610969D01*
X62810465Y41696289D01*
X62975760Y41833520D01*
X63095895Y42011626D01*
X63161211Y42216287D01*
X63161898Y42272561D01*
X63181515Y42330516D01*
X63260891Y42370352D01*
X63596014Y42370352D01*
X63654205Y42351445D01*
X63690169Y42301945D01*
X63695007Y42270141D01*
X63694684Y42243753D01*
X63752459Y42036831D01*
X63752460Y42036831D01*
X63865984Y41854446D01*
X64026137Y41711253D01*
X64220044Y41618763D01*
X64220045Y41618763D01*
X64432118Y41584415D01*
X64645302Y41610969D01*
X64842465Y41696289D01*
X65007760Y41833520D01*
X65127895Y42011626D01*
X65193211Y42216287D01*
X65193898Y42272561D01*
X65213515Y42330516D01*
X65292891Y42370352D01*
X65626404Y42370352D01*
X65626404Y42368361D01*
X65678483Y42356674D01*
X65718907Y42310744D01*
X65727009Y42270292D01*
X65726684Y42243753D01*
X65784459Y42036831D01*
X65784460Y42036831D01*
X65897984Y41854446D01*
X66058137Y41711253D01*
X66252044Y41618763D01*
X66252045Y41618763D01*
X66464118Y41584415D01*
X66677302Y41610969D01*
X66880940Y41699091D01*
X66881480Y41697843D01*
X66933584Y41710398D01*
X66968521Y41701053D01*
X67141045Y41618763D01*
X67353118Y41584415D01*
X67566302Y41610969D01*
X67763465Y41696289D01*
X67928760Y41833520D01*
X68048895Y42011626D01*
X68114211Y42216287D01*
X68114211Y42216288D01*
X68114899Y42272562D01*
X68134517Y42330518D01*
X68213892Y42370352D01*
X68621773Y42370352D01*
X68657714Y42377152D01*
X68718405Y42369392D01*
X68762944Y42327441D01*
X68775111Y42278668D01*
X68774684Y42243753D01*
X68832459Y42036831D01*
X68832460Y42036831D01*
X68945984Y41854446D01*
X69106137Y41711253D01*
X69300045Y41618763D01*
X69512118Y41584415D01*
X69725302Y41610969D01*
X69922465Y41696289D01*
X70087760Y41833520D01*
X70207895Y42011626D01*
X70273211Y42216287D01*
X70273898Y42272561D01*
X70293515Y42330516D01*
X70372891Y42370352D01*
X70539940Y42370352D01*
X70598131Y42351445D01*
X70634095Y42301945D01*
X70638933Y42270143D01*
X70638684Y42249754D01*
X70696459Y42042831D01*
X70696460Y42042831D01*
X70809984Y41860446D01*
X70970137Y41717253D01*
X71164044Y41624763D01*
X71164045Y41624763D01*
X71376118Y41590415D01*
X71589302Y41616969D01*
X71786465Y41702289D01*
X71951760Y41839520D01*
X72071895Y42017626D01*
X72137211Y42222287D01*
X72137211Y42222288D01*
X72137825Y42272561D01*
X72157442Y42330517D01*
X72236818Y42370352D01*
X72621772Y42370352D01*
X72711838Y42387393D01*
X72772530Y42379634D01*
X72817069Y42337682D01*
X72829236Y42288909D01*
X72828684Y42243753D01*
X72886459Y42036831D01*
X72999984Y41854446D01*
X73160137Y41711253D01*
X73354045Y41618763D01*
X73566118Y41584415D01*
X73779302Y41610969D01*
X73976465Y41696289D01*
X74141760Y41833520D01*
X74261895Y42011626D01*
X74327211Y42216287D01*
X74327898Y42272561D01*
X74347515Y42330516D01*
X74426891Y42370352D01*
X74603940Y42370352D01*
X74662131Y42351445D01*
X74698095Y42301945D01*
X74702933Y42270143D01*
X74702684Y42249754D01*
X74760459Y42042831D01*
X74760460Y42042831D01*
X74873984Y41860446D01*
X75034137Y41717253D01*
X75228044Y41624763D01*
X75228045Y41624763D01*
X75440118Y41590415D01*
X75653302Y41616969D01*
X75850465Y41702289D01*
X76015760Y41839520D01*
X76135895Y42017626D01*
X76201211Y42222287D01*
X76201211Y42222288D01*
X76201825Y42272561D01*
X76221442Y42330517D01*
X76300818Y42370352D01*
X76621770Y42370352D01*
X76648691Y42375446D01*
X76709382Y42367687D01*
X76753922Y42325737D01*
X76766090Y42276962D01*
X76765684Y42243753D01*
X76823459Y42036831D01*
X76936984Y41854446D01*
X77097137Y41711253D01*
X77291045Y41618763D01*
X77503118Y41584415D01*
X77716302Y41610969D01*
X77913465Y41696289D01*
X78078760Y41833520D01*
X78198895Y42011626D01*
X78264211Y42216287D01*
X78264898Y42272561D01*
X78284515Y42330516D01*
X78363891Y42370352D01*
X78540940Y42370352D01*
X78599131Y42351445D01*
X78635095Y42301945D01*
X78639933Y42270143D01*
X78639684Y42249754D01*
X78697459Y42042831D01*
X78697460Y42042831D01*
X78810984Y41860446D01*
X78971137Y41717253D01*
X79165044Y41624763D01*
X79165045Y41624763D01*
X79377118Y41590415D01*
X79590302Y41616969D01*
X79787465Y41702289D01*
X79952760Y41839520D01*
X80072895Y42017626D01*
X80138211Y42222287D01*
X80138211Y42222288D01*
X80138825Y42272561D01*
X80158442Y42330517D01*
X80237818Y42370352D01*
X80621772Y42370352D01*
X80720785Y42389086D01*
X80781476Y42381327D01*
X80826016Y42339375D01*
X80838183Y42290603D01*
X80837684Y42249753D01*
X80895459Y42042831D01*
X80895460Y42042831D01*
X81008984Y41860446D01*
X81169137Y41717253D01*
X81363044Y41624763D01*
X81363045Y41624763D01*
X81575118Y41590415D01*
X81788302Y41616969D01*
X81985465Y41702289D01*
X82150760Y41839520D01*
X82270895Y42017626D01*
X82336211Y42222287D01*
X82336211Y42222288D01*
X82336825Y42272561D01*
X82356442Y42330517D01*
X82435818Y42370352D01*
X82493940Y42370352D01*
X82552131Y42351445D01*
X82588095Y42301945D01*
X82592933Y42270143D01*
X82592684Y42249754D01*
X82650459Y42042831D01*
X82650460Y42042831D01*
X82763984Y41860446D01*
X82924137Y41717253D01*
X83118044Y41624763D01*
X83118045Y41624763D01*
X83330118Y41590415D01*
X83543302Y41616969D01*
X83740465Y41702289D01*
X83905760Y41839520D01*
X84025895Y42017626D01*
X84091211Y42222287D01*
X84091211Y42222288D01*
X84091825Y42272561D01*
X84111442Y42330517D01*
X84190818Y42370352D01*
X84621770Y42370352D01*
X84657638Y42377139D01*
X84718329Y42369380D01*
X84762869Y42327430D01*
X84775037Y42278656D01*
X84774684Y42249754D01*
X84832459Y42042831D01*
X84832460Y42042831D01*
X84945984Y41860446D01*
X85106137Y41717253D01*
X85300044Y41624763D01*
X85300045Y41624763D01*
X85512118Y41590415D01*
X85725302Y41616969D01*
X85922465Y41702289D01*
X86087760Y41839520D01*
X86207895Y42017626D01*
X86273211Y42222287D01*
X86273211Y42222288D01*
X86273825Y42272561D01*
X86293442Y42330517D01*
X86372818Y42370352D01*
X86557940Y42370352D01*
X86616131Y42351445D01*
X86652095Y42301945D01*
X86656933Y42270143D01*
X86656684Y42249754D01*
X86714459Y42042831D01*
X86714460Y42042831D01*
X86827984Y41860446D01*
X86988137Y41717253D01*
X87182044Y41624763D01*
X87182045Y41624763D01*
X87394118Y41590415D01*
X87607302Y41616969D01*
X87804465Y41702289D01*
X87969760Y41839520D01*
X88089895Y42017626D01*
X88155211Y42222287D01*
X88155211Y42222288D01*
X88155825Y42272561D01*
X88175442Y42330517D01*
X88254818Y42370352D01*
X88621772Y42370352D01*
X88721788Y42389276D01*
X88782479Y42381517D01*
X88827019Y42339566D01*
X88839186Y42290792D01*
X88838684Y42249753D01*
X88896459Y42042831D01*
X88896460Y42042831D01*
X89009984Y41860446D01*
X89170137Y41717253D01*
X89364044Y41624763D01*
X89364045Y41624763D01*
X89576118Y41590415D01*
X89789302Y41616969D01*
X89986465Y41702289D01*
X90151760Y41839520D01*
X90271895Y42017626D01*
X90337211Y42222287D01*
X90337211Y42222288D01*
X90337825Y42272561D01*
X90357442Y42330517D01*
X90436818Y42370352D01*
X90494940Y42370352D01*
X90553131Y42351445D01*
X90589095Y42301945D01*
X90593933Y42270143D01*
X90593684Y42249754D01*
X90651459Y42042831D01*
X90651460Y42042831D01*
X90764984Y41860446D01*
X90925137Y41717253D01*
X91119044Y41624763D01*
X91119045Y41624763D01*
X91331118Y41590415D01*
X91544302Y41616969D01*
X91741465Y41702289D01*
X91906760Y41839520D01*
X92026895Y42017626D01*
X92092211Y42222287D01*
X92092211Y42222288D01*
X92092825Y42272561D01*
X92112442Y42330517D01*
X92191818Y42370352D01*
X92621773Y42370352D01*
X92658642Y42377328D01*
X92719333Y42369569D01*
X92763873Y42327618D01*
X92776040Y42278843D01*
X92775684Y42249753D01*
X92833459Y42042831D01*
X92833460Y42042831D01*
X92946984Y41860446D01*
X93107137Y41717253D01*
X93301044Y41624763D01*
X93301045Y41624763D01*
X93513118Y41590415D01*
X93726302Y41616969D01*
X93923465Y41702289D01*
X94088760Y41839520D01*
X94208895Y42017626D01*
X94274211Y42222287D01*
X94274211Y42222288D01*
X94274825Y42272561D01*
X94294442Y42330517D01*
X94373818Y42370352D01*
X94557696Y42370352D01*
X94615887Y42351445D01*
X94651851Y42301945D01*
X94655686Y42276736D01*
X94655769Y42276747D01*
X94656289Y42272771D01*
X94656689Y42270141D01*
X94656684Y42269753D01*
X94714459Y42062831D01*
X94827984Y41880446D01*
X94988137Y41737253D01*
X95182045Y41644763D01*
X95394118Y41610415D01*
X95607302Y41636969D01*
X95804465Y41722289D01*
X95969760Y41859520D01*
X96089895Y42037626D01*
X96155211Y42242287D01*
X96155211Y42242288D01*
X96155581Y42272562D01*
X96175199Y42330517D01*
X96254574Y42370352D01*
X96616014Y42370352D01*
X96674205Y42351445D01*
X96710169Y42301945D01*
X96715007Y42270141D01*
X96714684Y42243753D01*
X96772459Y42036831D01*
X96885984Y41854446D01*
X97046137Y41711253D01*
X97240045Y41618763D01*
X97452118Y41584415D01*
X97665302Y41610969D01*
X97862465Y41696289D01*
X98027760Y41833520D01*
X98147895Y42011626D01*
X98213211Y42216287D01*
X98216058Y42449420D01*
X98163243Y42630034D01*
X98169068Y42700774D01*
X98240687Y42849493D01*
X98240688Y42849497D01*
X98263647Y43001821D01*
X98263648Y43001829D01*
X98263648Y44050184D01*
X108145731Y44050184D01*
X108145731Y44050171D01*
X108157910Y43781974D01*
X108157910Y43781973D01*
X108208675Y43518347D01*
X108208679Y43518334D01*
X108296969Y43264802D01*
X108296971Y43264797D01*
X108420939Y43026656D01*
X108577989Y42808900D01*
X108764819Y42616107D01*
X108764824Y42616102D01*
X108977541Y42452289D01*
X109211666Y42320905D01*
X109462310Y42224692D01*
X109724225Y42165666D01*
X109991907Y42145070D01*
X109991908Y42145070D01*
X110259758Y42163330D01*
X110259765Y42163331D01*
X110522180Y42220067D01*
X110773647Y42314088D01*
X110773651Y42314090D01*
X111008920Y42443430D01*
X111008921Y42443431D01*
X111223054Y42605379D01*
X111411562Y42796538D01*
X111411566Y42796542D01*
X111570502Y43012906D01*
X111570508Y43012917D01*
X111696545Y43249957D01*
X111787051Y43502729D01*
X111787052Y43502731D01*
X111840117Y43765907D01*
X111840118Y43765914D01*
X111850084Y44134242D01*
X111811328Y44399901D01*
X111811326Y44399913D01*
X111734626Y44657195D01*
X111621590Y44900710D01*
X111474580Y45125363D01*
X111296687Y45326437D01*
X111296675Y45326448D01*
X111091619Y45499734D01*
X111091616Y45499736D01*
X110863698Y45641602D01*
X110863690Y45641607D01*
X110617666Y45749092D01*
X110358709Y45819935D01*
X110092233Y45852654D01*
X109823820Y45846562D01*
X109559101Y45801787D01*
X109303625Y45719271D01*
X109062725Y45600734D01*
X108841475Y45448672D01*
X108644479Y45266253D01*
X108644472Y45266245D01*
X108475890Y45057317D01*
X108339220Y44826221D01*
X108339220Y44826220D01*
X108237344Y44577823D01*
X108172397Y44317329D01*
X108172395Y44317322D01*
X108145731Y44050184D01*
X98263648Y44050184D01*
X98263648Y46739772D01*
X98223638Y46951231D01*
X98120749Y47129440D01*
X98120749Y47129441D01*
X97969905Y47269404D01*
X97969901Y47269407D01*
X97881861Y47311804D01*
X97837636Y47354087D01*
X97826711Y47414289D01*
X97853258Y47469415D01*
X97924815Y47500000D01*
X113401000Y47500000D01*
X113459191Y47481093D01*
X113500000Y47401000D01*
X113500001Y599000D01*
X113481094Y540809D01*
X113431594Y504845D01*
X113401001Y500000D01*
X599000Y500000D01*
X540809Y518907D01*
X500000Y599000D01*
X500000Y4050184D01*
X2145731Y4050184D01*
X2145731Y4050171D01*
X2157910Y3781974D01*
X2157910Y3781973D01*
X2208675Y3518347D01*
X2208679Y3518334D01*
X2296969Y3264802D01*
X2296971Y3264797D01*
X2420939Y3026656D01*
X2577989Y2808900D01*
X2764819Y2616107D01*
X2764824Y2616102D01*
X2977541Y2452289D01*
X3211666Y2320905D01*
X3462310Y2224692D01*
X3724225Y2165666D01*
X3991907Y2145070D01*
X3991908Y2145070D01*
X4259758Y2163330D01*
X4259765Y2163331D01*
X4522180Y2220067D01*
X4773647Y2314088D01*
X4773651Y2314090D01*
X5008920Y2443430D01*
X5008921Y2443431D01*
X5223054Y2605379D01*
X5411562Y2796538D01*
X5411566Y2796542D01*
X5570502Y3012906D01*
X5570508Y3012917D01*
X5696545Y3249957D01*
X5787051Y3502729D01*
X5787052Y3502731D01*
X5840117Y3765907D01*
X5840118Y3765914D01*
X5850084Y4134242D01*
X5811328Y4399901D01*
X5811326Y4399913D01*
X5734626Y4657195D01*
X5621590Y4900710D01*
X5506601Y5076431D01*
X24618800Y5076431D01*
X24618800Y3880327D01*
X24632588Y3730283D01*
X24632589Y3730276D01*
X24687464Y3535705D01*
X24776876Y3354395D01*
X24776882Y3354385D01*
X24897840Y3192403D01*
X25046296Y3055172D01*
X25217270Y2947296D01*
X25217277Y2947292D01*
X25405042Y2872382D01*
X25405043Y2872381D01*
X25603327Y2832941D01*
X25805478Y2830293D01*
X26004720Y2864530D01*
X26004723Y2864531D01*
X26194392Y2934504D01*
X26368131Y3037867D01*
X26368135Y3037870D01*
X26520128Y3171164D01*
X26645287Y3329927D01*
X26736232Y3502784D01*
X32766240Y3502784D01*
X32766240Y3502778D01*
X32800741Y3284951D01*
X32800743Y3284944D01*
X32874361Y3077054D01*
X32984632Y2886059D01*
X33127863Y2718358D01*
X33127866Y2718355D01*
X33299259Y2579564D01*
X33493074Y2474330D01*
X33702832Y2406176D01*
X33702837Y2406174D01*
X33921491Y2377389D01*
X34141722Y2388931D01*
X34141725Y2388931D01*
X34356181Y2440418D01*
X34557655Y2530119D01*
X34557656Y2530120D01*
X34739410Y2655035D01*
X34895365Y2810990D01*
X35020280Y2992744D01*
X35020281Y2992745D01*
X35109982Y3194219D01*
X35161467Y3408668D01*
X35161468Y3408674D01*
X35168884Y3691872D01*
X35168884Y3691876D01*
X35128694Y3908721D01*
X35049656Y4114623D01*
X34934428Y4302657D01*
X34934420Y4302668D01*
X34786850Y4466561D01*
X34786849Y4466562D01*
X34611881Y4600820D01*
X34611880Y4600821D01*
X34415382Y4700943D01*
X34415366Y4700949D01*
X34203916Y4763583D01*
X34203914Y4763583D01*
X33984573Y4786637D01*
X33764714Y4769333D01*
X33551679Y4712251D01*
X33352622Y4617306D01*
X33174193Y4487669D01*
X33022387Y4327699D01*
X33022378Y4327689D01*
X32902268Y4142734D01*
X32902267Y4142733D01*
X32817867Y3938974D01*
X32772013Y3723248D01*
X32772013Y3723246D01*
X32766240Y3502784D01*
X26736232Y3502784D01*
X26739422Y3508847D01*
X26799369Y3701909D01*
X26799370Y3701918D01*
X26818800Y3886768D01*
X26818800Y5076431D01*
X41118800Y5076431D01*
X41118800Y3880327D01*
X41132588Y3730283D01*
X41132589Y3730276D01*
X41187464Y3535705D01*
X41276876Y3354395D01*
X41276882Y3354385D01*
X41397840Y3192403D01*
X41546296Y3055172D01*
X41717270Y2947296D01*
X41717277Y2947292D01*
X41905042Y2872382D01*
X41905043Y2872381D01*
X42103327Y2832941D01*
X42305478Y2830293D01*
X42504720Y2864530D01*
X42504723Y2864531D01*
X42694392Y2934504D01*
X42868131Y3037867D01*
X42868135Y3037870D01*
X43020128Y3171164D01*
X43145287Y3329927D01*
X43239422Y3508847D01*
X43299369Y3701909D01*
X43299370Y3701918D01*
X43318800Y3886768D01*
X43318800Y4050184D01*
X108145731Y4050184D01*
X108145731Y4050171D01*
X108157910Y3781974D01*
X108157910Y3781973D01*
X108208675Y3518347D01*
X108208679Y3518334D01*
X108296969Y3264802D01*
X108296971Y3264797D01*
X108420939Y3026656D01*
X108577989Y2808900D01*
X108764819Y2616107D01*
X108764824Y2616102D01*
X108977541Y2452289D01*
X109211666Y2320905D01*
X109462310Y2224692D01*
X109724225Y2165666D01*
X109991907Y2145070D01*
X109991908Y2145070D01*
X110259758Y2163330D01*
X110259765Y2163331D01*
X110522180Y2220067D01*
X110773647Y2314088D01*
X110773651Y2314090D01*
X111008920Y2443430D01*
X111008921Y2443431D01*
X111223054Y2605379D01*
X111411562Y2796538D01*
X111411566Y2796542D01*
X111570502Y3012906D01*
X111570508Y3012917D01*
X111696545Y3249957D01*
X111787051Y3502729D01*
X111787052Y3502731D01*
X111840117Y3765907D01*
X111840118Y3765914D01*
X111850084Y4134242D01*
X111811328Y4399901D01*
X111811326Y4399913D01*
X111734626Y4657195D01*
X111621590Y4900710D01*
X111474580Y5125363D01*
X111296687Y5326437D01*
X111296675Y5326448D01*
X111091619Y5499734D01*
X111091616Y5499736D01*
X110863698Y5641602D01*
X110863690Y5641607D01*
X110617666Y5749092D01*
X110358709Y5819935D01*
X110092233Y5852654D01*
X109823820Y5846562D01*
X109559101Y5801787D01*
X109303625Y5719271D01*
X109062725Y5600734D01*
X108841475Y5448672D01*
X108644479Y5266253D01*
X108644472Y5266245D01*
X108475890Y5057317D01*
X108339220Y4826221D01*
X108339220Y4826220D01*
X108237344Y4577823D01*
X108172397Y4317329D01*
X108172395Y4317322D01*
X108145731Y4050184D01*
X43318800Y4050184D01*
X43318800Y4778753D01*
X52772684Y4778753D01*
X52830459Y4571831D01*
X52943984Y4389446D01*
X53104137Y4246253D01*
X53298045Y4153763D01*
X53510118Y4119415D01*
X53723302Y4145969D01*
X53920465Y4231289D01*
X54085760Y4368520D01*
X54205895Y4546626D01*
X54271211Y4751287D01*
X54274058Y4984420D01*
X54213762Y5190617D01*
X54098016Y5371603D01*
X54098015Y5371605D01*
X53936122Y5512833D01*
X53741104Y5602942D01*
X53528628Y5634698D01*
X53315786Y5605543D01*
X53119671Y5517817D01*
X52956071Y5378581D01*
X52956067Y5378577D01*
X52838122Y5199022D01*
X52838119Y5199017D01*
X52775311Y4993578D01*
X52775310Y4993573D01*
X52772684Y4778753D01*
X43318800Y4778753D01*
X43318800Y5082873D01*
X43305012Y5232917D01*
X43305011Y5232927D01*
X43250138Y5427494D01*
X43160725Y5608805D01*
X43160719Y5608815D01*
X43039761Y5770797D01*
X43039760Y5770797D01*
X42891309Y5908024D01*
X42891306Y5908027D01*
X42720330Y6015904D01*
X42720323Y6015908D01*
X42532558Y6090818D01*
X42532557Y6090819D01*
X42334273Y6130259D01*
X42132124Y6132907D01*
X41932880Y6098670D01*
X41932877Y6098669D01*
X41743208Y6028696D01*
X41569469Y5925333D01*
X41569465Y5925330D01*
X41417472Y5792036D01*
X41292313Y5633273D01*
X41198178Y5454352D01*
X41138231Y5261290D01*
X41138230Y5261281D01*
X41118800Y5076431D01*
X26818800Y5076431D01*
X26818800Y5082873D01*
X26805012Y5232917D01*
X26805011Y5232927D01*
X26750138Y5427494D01*
X26660725Y5608805D01*
X26660719Y5608815D01*
X26539761Y5770797D01*
X26539760Y5770797D01*
X26391309Y5908024D01*
X26391306Y5908027D01*
X26220330Y6015904D01*
X26220323Y6015908D01*
X26032558Y6090818D01*
X26032557Y6090819D01*
X25834273Y6130259D01*
X25632124Y6132907D01*
X25432880Y6098670D01*
X25432877Y6098669D01*
X25243208Y6028696D01*
X25069469Y5925333D01*
X25069465Y5925330D01*
X24917472Y5792036D01*
X24792313Y5633273D01*
X24698178Y5454352D01*
X24638231Y5261290D01*
X24638230Y5261281D01*
X24618800Y5076431D01*
X5506601Y5076431D01*
X5474580Y5125363D01*
X5296687Y5326437D01*
X5296675Y5326448D01*
X5091619Y5499734D01*
X5091616Y5499736D01*
X4863698Y5641602D01*
X4863690Y5641607D01*
X4617666Y5749092D01*
X4358709Y5819935D01*
X4092233Y5852654D01*
X3823820Y5846562D01*
X3559101Y5801787D01*
X3303625Y5719271D01*
X3062725Y5600734D01*
X2841475Y5448672D01*
X2644479Y5266253D01*
X2644472Y5266245D01*
X2475890Y5057317D01*
X2339220Y4826221D01*
X2339220Y4826220D01*
X2237344Y4577823D01*
X2172397Y4317329D01*
X2172395Y4317322D01*
X2145731Y4050184D01*
X500000Y4050184D01*
X500000Y7140001D01*
X85884946Y7140001D01*
X85910791Y6999186D01*
X85910793Y6999181D01*
X85986597Y6807721D01*
X86098140Y6634640D01*
X86241182Y6486517D01*
X86410269Y6368998D01*
X86598964Y6286559D01*
X86775000Y6247855D01*
X86775001Y7139999D01*
X86775000Y7140000D01*
X85884946Y7140001D01*
X500000Y7140001D01*
X500000Y7398993D01*
X87074999Y7398993D01*
X87075000Y7398991D01*
X87074999Y6250206D01*
X87208734Y6273787D01*
X87400709Y6348250D01*
X87400721Y6348256D01*
X87574567Y6458583D01*
X87574576Y6458590D01*
X87723688Y6600586D01*
X87842386Y6768852D01*
X87842390Y6768857D01*
X87917846Y6938337D01*
X87958787Y6983806D01*
X88018635Y6996528D01*
X88074531Y6971642D01*
X88107287Y6898070D01*
X88107287Y6440002D01*
X88175309Y6186143D01*
X88288649Y6051069D01*
X88441354Y5962906D01*
X88614995Y5932287D01*
X90314998Y5932287D01*
X90568857Y6000309D01*
X90703931Y6113649D01*
X90792094Y6266354D01*
X90822713Y6439995D01*
X90822713Y8139999D01*
X90754691Y8393856D01*
X90641351Y8528931D01*
X90488646Y8617094D01*
X90315005Y8647713D01*
X88615001Y8647713D01*
X88361144Y8579691D01*
X88226069Y8466351D01*
X88137906Y8313646D01*
X88107287Y8140005D01*
X88107287Y7677058D01*
X88088380Y7618867D01*
X88038880Y7582903D01*
X87977694Y7582903D01*
X87916757Y7639332D01*
X87856580Y7785331D01*
X87742632Y7956836D01*
X87597532Y8102953D01*
X87426822Y8218099D01*
X87236997Y8297894D01*
X87236994Y8297895D01*
X87075000Y8331148D01*
X87075000Y8331147D01*
X87074999Y7398993D01*
X500000Y7398993D01*
X500000Y7440000D01*
X85883381Y7440000D01*
X86774999Y7439999D01*
X86775000Y7440000D01*
X86775001Y8330366D01*
X86627114Y8302155D01*
X86627100Y8302151D01*
X86436191Y8225018D01*
X86436183Y8225014D01*
X86263884Y8112263D01*
X86116759Y7968189D01*
X86000431Y7798297D01*
X86000428Y7798291D01*
X85919308Y7609023D01*
X85883381Y7440000D01*
X500000Y7440000D01*
X500000Y9223753D01*
X52772684Y9223753D01*
X52830459Y9016831D01*
X52943984Y8834446D01*
X53104137Y8691253D01*
X53298045Y8598763D01*
X53510118Y8564415D01*
X53723302Y8590969D01*
X53920465Y8676289D01*
X54085760Y8813520D01*
X54205895Y8991626D01*
X54271211Y9196287D01*
X54274058Y9429420D01*
X54213762Y9635617D01*
X54098016Y9816603D01*
X54098015Y9816605D01*
X53936122Y9957833D01*
X53741104Y10047942D01*
X53528628Y10079698D01*
X53315786Y10050543D01*
X53119671Y9962817D01*
X52956071Y9823581D01*
X52956067Y9823577D01*
X52838122Y9644022D01*
X52838119Y9644017D01*
X52775311Y9438578D01*
X52775310Y9438573D01*
X52772684Y9223753D01*
X500000Y9223753D01*
X500000Y10696953D01*
X9389484Y10696953D01*
X9447259Y10490031D01*
X9560784Y10307646D01*
X9720937Y10164453D01*
X9914845Y10071963D01*
X10126918Y10037615D01*
X10340102Y10064169D01*
X10537265Y10149489D01*
X10702560Y10286720D01*
X10822695Y10464826D01*
X10888011Y10669487D01*
X10890858Y10902620D01*
X10830562Y11108817D01*
X10714816Y11289803D01*
X10714815Y11289805D01*
X10552922Y11431033D01*
X10357904Y11521142D01*
X10145428Y11552898D01*
X9932586Y11523743D01*
X9736471Y11436017D01*
X9572871Y11296781D01*
X9572867Y11296777D01*
X9454922Y11117222D01*
X9454919Y11117217D01*
X9392111Y10911778D01*
X9392110Y10911773D01*
X9389484Y10696953D01*
X500000Y10696953D01*
X500000Y12106431D01*
X24618800Y12106431D01*
X24618800Y10410327D01*
X24632588Y10260283D01*
X24632589Y10260276D01*
X24687464Y10065705D01*
X24776876Y9884395D01*
X24776882Y9884385D01*
X24897840Y9722403D01*
X25046296Y9585172D01*
X25217270Y9477296D01*
X25217277Y9477292D01*
X25405042Y9402382D01*
X25405043Y9402381D01*
X25603327Y9362941D01*
X25805478Y9360293D01*
X26004720Y9394530D01*
X26004723Y9394531D01*
X26194392Y9464504D01*
X26368131Y9567867D01*
X26368135Y9567870D01*
X26520128Y9701164D01*
X26645287Y9859927D01*
X26739422Y10038847D01*
X26799369Y10231909D01*
X26799370Y10231918D01*
X26818800Y10416768D01*
X26818800Y12112873D01*
X26815871Y12144753D01*
X33722684Y12144753D01*
X33780459Y11937831D01*
X33893984Y11755446D01*
X34054137Y11612253D01*
X34248045Y11519763D01*
X34460118Y11485415D01*
X34673302Y11511969D01*
X34870465Y11597289D01*
X35035760Y11734520D01*
X35155908Y11912646D01*
X35204123Y11950316D01*
X35265271Y11952451D01*
X35322031Y11909601D01*
X35417984Y11755446D01*
X35578137Y11612253D01*
X35772045Y11519763D01*
X35984118Y11485415D01*
X36197302Y11511969D01*
X36394465Y11597289D01*
X36559760Y11734520D01*
X36679908Y11912646D01*
X36728123Y11950316D01*
X36789271Y11952451D01*
X36846031Y11909601D01*
X36941984Y11755446D01*
X37102137Y11612253D01*
X37296045Y11519763D01*
X37508118Y11485415D01*
X37721302Y11511969D01*
X37918465Y11597289D01*
X38083762Y11734521D01*
X38083763Y11734523D01*
X38169056Y11860973D01*
X38217270Y11898643D01*
X38278419Y11900778D01*
X38329143Y11866563D01*
X38346483Y11832235D01*
X38352458Y11810834D01*
X38352460Y11810831D01*
X38465984Y11628446D01*
X38626137Y11485253D01*
X38820045Y11392763D01*
X39032118Y11358415D01*
X39245302Y11384969D01*
X39442465Y11470289D01*
X39607760Y11607520D01*
X39727895Y11785626D01*
X39793211Y11990287D01*
X39794629Y12106431D01*
X41118800Y12106431D01*
X41118800Y10410327D01*
X41132588Y10260283D01*
X41132589Y10260276D01*
X41187464Y10065705D01*
X41276876Y9884395D01*
X41276882Y9884385D01*
X41397840Y9722403D01*
X41546296Y9585172D01*
X41717270Y9477296D01*
X41717277Y9477292D01*
X41905042Y9402382D01*
X41905043Y9402381D01*
X42103327Y9362941D01*
X42305478Y9360293D01*
X42504720Y9394530D01*
X42504723Y9394531D01*
X42694392Y9464504D01*
X42868131Y9567867D01*
X42868135Y9567870D01*
X43020128Y9701164D01*
X43145287Y9859927D01*
X43239422Y10038847D01*
X43299369Y10231909D01*
X43299370Y10231918D01*
X43318800Y10416768D01*
X43318800Y10874753D01*
X81601684Y10874753D01*
X81659459Y10667831D01*
X81772984Y10485446D01*
X81933137Y10342253D01*
X82127045Y10249763D01*
X82339118Y10215415D01*
X82552304Y10241969D01*
X82673164Y10294270D01*
X82734077Y10300028D01*
X82786742Y10268882D01*
X82811042Y10212728D01*
X82807155Y10174468D01*
X82776311Y10073580D01*
X82776310Y10073573D01*
X82773684Y9858753D01*
X82831459Y9651831D01*
X82944984Y9469446D01*
X83105137Y9326253D01*
X83299045Y9233763D01*
X83511118Y9199415D01*
X83724302Y9225969D01*
X83921465Y9311289D01*
X84086760Y9448520D01*
X84206895Y9626626D01*
X84272211Y9831287D01*
X84275058Y10064420D01*
X84214762Y10270617D01*
X84099016Y10451603D01*
X84099015Y10451605D01*
X83937122Y10592833D01*
X83742104Y10682942D01*
X83529628Y10714698D01*
X83316784Y10685543D01*
X83205953Y10635966D01*
X83145114Y10629465D01*
X83092073Y10659965D01*
X83067089Y10715817D01*
X83071216Y10756437D01*
X83100211Y10847288D01*
X83103058Y11080420D01*
X83042762Y11286617D01*
X82927016Y11467603D01*
X82927015Y11467605D01*
X82765122Y11608833D01*
X82570104Y11698942D01*
X82357628Y11730698D01*
X82144786Y11701543D01*
X81948671Y11613817D01*
X81785071Y11474581D01*
X81785067Y11474577D01*
X81667122Y11295022D01*
X81667119Y11295017D01*
X81604311Y11089578D01*
X81604310Y11089573D01*
X81601684Y10874753D01*
X43318800Y10874753D01*
X43318800Y12112873D01*
X43305012Y12262917D01*
X43305011Y12262927D01*
X43250138Y12457494D01*
X43160725Y12638805D01*
X43160719Y12638815D01*
X43039761Y12800797D01*
X43039760Y12800797D01*
X42891309Y12938024D01*
X42891306Y12938027D01*
X42720330Y13045904D01*
X42720323Y13045908D01*
X42532558Y13120818D01*
X42532557Y13120819D01*
X42334273Y13160259D01*
X42132124Y13162907D01*
X41932880Y13128670D01*
X41932877Y13128669D01*
X41743208Y13058696D01*
X41569469Y12955333D01*
X41569465Y12955330D01*
X41417472Y12822036D01*
X41292313Y12663273D01*
X41198178Y12484352D01*
X41138231Y12291290D01*
X41138230Y12291281D01*
X41118800Y12106431D01*
X39794629Y12106431D01*
X39796058Y12223420D01*
X39735762Y12429617D01*
X39620016Y12610603D01*
X39620015Y12610605D01*
X39458122Y12751833D01*
X39263104Y12841942D01*
X39050628Y12873698D01*
X38837786Y12844543D01*
X38641671Y12756817D01*
X38478071Y12617581D01*
X38478067Y12617577D01*
X38399091Y12497347D01*
X38351340Y12459091D01*
X38290223Y12456209D01*
X38239084Y12489801D01*
X38221325Y12523914D01*
X38211762Y12556618D01*
X38096016Y12737603D01*
X38096015Y12737605D01*
X37934122Y12878833D01*
X37739104Y12968942D01*
X37526628Y13000698D01*
X37313786Y12971543D01*
X37117671Y12883817D01*
X36954071Y12744581D01*
X36954067Y12744577D01*
X36842083Y12574097D01*
X36794332Y12535841D01*
X36733215Y12532959D01*
X36675935Y12575111D01*
X36572016Y12737603D01*
X36572015Y12737605D01*
X36410122Y12878833D01*
X36215104Y12968942D01*
X36002628Y13000698D01*
X35789786Y12971543D01*
X35593671Y12883817D01*
X35430071Y12744581D01*
X35430067Y12744577D01*
X35318083Y12574097D01*
X35270332Y12535841D01*
X35209215Y12532959D01*
X35151935Y12575111D01*
X35048016Y12737603D01*
X35048015Y12737605D01*
X34886122Y12878833D01*
X34691104Y12968942D01*
X34478628Y13000698D01*
X34265786Y12971543D01*
X34069671Y12883817D01*
X33906071Y12744581D01*
X33906067Y12744577D01*
X33788122Y12565022D01*
X33788119Y12565017D01*
X33725311Y12359578D01*
X33725310Y12359573D01*
X33722684Y12144753D01*
X26815871Y12144753D01*
X26805012Y12262917D01*
X26805011Y12262927D01*
X26750138Y12457494D01*
X26660725Y12638805D01*
X26660719Y12638815D01*
X26539761Y12800797D01*
X26539760Y12800797D01*
X26391309Y12938024D01*
X26391306Y12938027D01*
X26220330Y13045904D01*
X26220323Y13045908D01*
X26032558Y13120818D01*
X26032557Y13120819D01*
X25834273Y13160259D01*
X25632124Y13162907D01*
X25432880Y13128670D01*
X25432877Y13128669D01*
X25243208Y13058696D01*
X25069469Y12955333D01*
X25069465Y12955330D01*
X24917472Y12822036D01*
X24792313Y12663273D01*
X24698178Y12484352D01*
X24638231Y12291290D01*
X24638230Y12291281D01*
X24618800Y12106431D01*
X500000Y12106431D01*
X500000Y14802253D01*
X88646684Y14802253D01*
X88704459Y14595331D01*
X88817984Y14412946D01*
X88978137Y14269753D01*
X89172045Y14177263D01*
X89384118Y14142915D01*
X89597302Y14169469D01*
X89794467Y14254790D01*
X89794468Y14254791D01*
X89847357Y14298699D01*
X89904206Y14321322D01*
X89963496Y14306208D01*
X90002578Y14259132D01*
X90005268Y14193583D01*
X89986311Y14131577D01*
X89986310Y14131573D01*
X89983684Y13916753D01*
X90041459Y13709831D01*
X90154984Y13527446D01*
X90315137Y13384253D01*
X90509045Y13291763D01*
X90721118Y13257415D01*
X90934302Y13283969D01*
X91131465Y13369289D01*
X91296760Y13506520D01*
X91416895Y13684626D01*
X91482211Y13889287D01*
X91485058Y14122420D01*
X91424762Y14328617D01*
X91309016Y14509603D01*
X91309015Y14509605D01*
X91147122Y14650833D01*
X90952104Y14740942D01*
X90739628Y14772698D01*
X90526786Y14743543D01*
X90330671Y14655817D01*
X90287720Y14619262D01*
X90231151Y14595946D01*
X90171682Y14610333D01*
X90132026Y14656928D01*
X90129242Y14724753D01*
X90145211Y14774790D01*
X90148058Y15007920D01*
X90087762Y15214117D01*
X89972016Y15395103D01*
X89972015Y15395105D01*
X89810122Y15536333D01*
X89615104Y15626442D01*
X89402628Y15658198D01*
X89189786Y15629043D01*
X88993671Y15541317D01*
X88830071Y15402081D01*
X88830067Y15402077D01*
X88712122Y15222522D01*
X88712119Y15222517D01*
X88649311Y15017078D01*
X88649310Y15017073D01*
X88646684Y14802253D01*
X500000Y14802253D01*
X500000Y15573753D01*
X31182684Y15573753D01*
X31240459Y15366831D01*
X31353984Y15184446D01*
X31514137Y15041253D01*
X31708045Y14948763D01*
X31920118Y14914415D01*
X32133302Y14940969D01*
X32330465Y15026289D01*
X32495760Y15163520D01*
X32615895Y15341626D01*
X32675296Y15527753D01*
X81601684Y15527753D01*
X81659459Y15320831D01*
X81772984Y15138446D01*
X81933137Y14995253D01*
X82127045Y14902763D01*
X82339118Y14868415D01*
X82552302Y14894969D01*
X82749465Y14980289D01*
X82914760Y15117520D01*
X83034895Y15295626D01*
X83100211Y15500287D01*
X83103058Y15733420D01*
X83042762Y15939617D01*
X82927016Y16120603D01*
X82927015Y16120605D01*
X82765122Y16261833D01*
X82570104Y16351942D01*
X82357628Y16383698D01*
X82144786Y16354543D01*
X81948671Y16266817D01*
X81785071Y16127581D01*
X81785067Y16127577D01*
X81667122Y15948022D01*
X81667119Y15948017D01*
X81604311Y15742578D01*
X81604310Y15742573D01*
X81601684Y15527753D01*
X32675296Y15527753D01*
X32681211Y15546287D01*
X32684058Y15779420D01*
X32623762Y15985617D01*
X32508016Y16166603D01*
X32508015Y16166605D01*
X32346122Y16307833D01*
X32151104Y16397942D01*
X31938628Y16429698D01*
X31725786Y16400543D01*
X31529671Y16312817D01*
X31366071Y16173581D01*
X31366067Y16173577D01*
X31248122Y15994022D01*
X31248119Y15994017D01*
X31185311Y15788578D01*
X31185310Y15788573D01*
X31182684Y15573753D01*
X500000Y15573753D01*
X500000Y16792000D01*
X56026082Y16792000D01*
X56026082Y16091997D01*
X56041604Y16013964D01*
X56085806Y15947811D01*
X56085811Y15947806D01*
X56151964Y15903604D01*
X56229997Y15888082D01*
X56929999Y15888082D01*
X56930000Y15888083D01*
X57229999Y15888083D01*
X57230000Y15888082D01*
X57930003Y15888082D01*
X58008037Y15903604D01*
X58008036Y15903604D01*
X58074189Y15947806D01*
X58074194Y15947811D01*
X58118396Y16013964D01*
X58133918Y16091997D01*
X58133918Y16791999D01*
X58133917Y16792000D01*
X60676082Y16792000D01*
X60676082Y16091997D01*
X60691604Y16013964D01*
X60735806Y15947811D01*
X60735811Y15947806D01*
X60801964Y15903604D01*
X60879997Y15888082D01*
X61579999Y15888082D01*
X61580000Y15888083D01*
X61879999Y15888083D01*
X61880000Y15888082D01*
X62580003Y15888082D01*
X62658037Y15903604D01*
X62658036Y15903604D01*
X62724189Y15947806D01*
X62724194Y15947811D01*
X62768396Y16013964D01*
X62783918Y16091997D01*
X62783918Y16791999D01*
X62783917Y16792000D01*
X61880001Y16792001D01*
X61880000Y16792000D01*
X61879999Y15888083D01*
X61580000Y15888083D01*
X61580001Y16791999D01*
X61580000Y16792000D01*
X60676083Y16792001D01*
X60676082Y16792000D01*
X58133917Y16792000D01*
X57230001Y16792001D01*
X57230000Y16792000D01*
X57229999Y15888083D01*
X56930000Y15888083D01*
X56930001Y16791999D01*
X56930000Y16792000D01*
X56026083Y16792001D01*
X56026082Y16792000D01*
X500000Y16792000D01*
X500000Y18113753D01*
X31817684Y18113753D01*
X31875459Y17906831D01*
X31988984Y17724446D01*
X32149137Y17581253D01*
X32343045Y17488763D01*
X32555118Y17454415D01*
X32768302Y17480969D01*
X32965465Y17566289D01*
X33130760Y17703520D01*
X33250895Y17881626D01*
X33316211Y18086287D01*
X33319058Y18319420D01*
X33258762Y18525617D01*
X33143016Y18706603D01*
X33143015Y18706605D01*
X32981122Y18847833D01*
X32786104Y18937942D01*
X32573628Y18969698D01*
X32360786Y18940543D01*
X32164671Y18852817D01*
X32001071Y18713581D01*
X32001067Y18713577D01*
X31883122Y18534022D01*
X31883119Y18534017D01*
X31820311Y18328578D01*
X31820310Y18328573D01*
X31817684Y18113753D01*
X500000Y18113753D01*
X500000Y19891753D01*
X24197684Y19891753D01*
X24255459Y19684831D01*
X24255460Y19684831D01*
X24368984Y19502446D01*
X24529137Y19359253D01*
X24723044Y19266763D01*
X24723045Y19266763D01*
X24935118Y19232415D01*
X25148302Y19258969D01*
X25345465Y19344289D01*
X25510760Y19481520D01*
X25630895Y19659626D01*
X25696211Y19864287D01*
X25696546Y19891753D01*
X27880684Y19891753D01*
X27938459Y19684831D01*
X27938460Y19684831D01*
X28051984Y19502446D01*
X28212137Y19359253D01*
X28406044Y19266763D01*
X28406045Y19266763D01*
X28618118Y19232415D01*
X28831302Y19258969D01*
X29028465Y19344289D01*
X29193760Y19481520D01*
X29313895Y19659626D01*
X29379211Y19864287D01*
X29379546Y19891753D01*
X30547684Y19891753D01*
X30605459Y19684831D01*
X30605460Y19684831D01*
X30718984Y19502446D01*
X30879137Y19359253D01*
X31073044Y19266763D01*
X31073045Y19266763D01*
X31285118Y19232415D01*
X31498302Y19258969D01*
X31695465Y19344289D01*
X31860760Y19481520D01*
X31880478Y19510753D01*
X35754684Y19510753D01*
X35812459Y19303831D01*
X35925984Y19121446D01*
X36080989Y18982856D01*
X36111766Y18929975D01*
X36105583Y18869103D01*
X36079166Y18833661D01*
X35938067Y18713577D01*
X35820122Y18534022D01*
X35820119Y18534017D01*
X35757311Y18328578D01*
X35757310Y18328573D01*
X35754684Y18113753D01*
X35812459Y17906831D01*
X35925984Y17724446D01*
X36086137Y17581253D01*
X36280045Y17488763D01*
X36492118Y17454415D01*
X36705302Y17480969D01*
X36902465Y17566289D01*
X37067760Y17703520D01*
X37187895Y17881626D01*
X37253211Y18086287D01*
X37253546Y18113753D01*
X39564684Y18113753D01*
X39622459Y17906831D01*
X39735984Y17724446D01*
X39896137Y17581253D01*
X40090045Y17488763D01*
X40302118Y17454415D01*
X40515302Y17480969D01*
X40712465Y17566289D01*
X40877760Y17703520D01*
X40997895Y17881626D01*
X41063211Y18086287D01*
X41066058Y18319420D01*
X41005762Y18525617D01*
X40890016Y18706603D01*
X40890015Y18706605D01*
X40728122Y18847833D01*
X40533104Y18937942D01*
X40320628Y18969698D01*
X40107786Y18940543D01*
X39911671Y18852817D01*
X39748071Y18713581D01*
X39748067Y18713577D01*
X39630122Y18534022D01*
X39630119Y18534017D01*
X39567311Y18328578D01*
X39567310Y18328573D01*
X39564684Y18113753D01*
X37253546Y18113753D01*
X37256058Y18319420D01*
X37195762Y18525617D01*
X37080016Y18706603D01*
X37080015Y18706605D01*
X36930333Y18837181D01*
X36898912Y18889682D01*
X36904351Y18950626D01*
X36932175Y18987955D01*
X37067760Y19100520D01*
X37187895Y19278626D01*
X37253211Y19483287D01*
X37256058Y19716420D01*
X37204788Y19891753D01*
X40834684Y19891753D01*
X40892459Y19684831D01*
X40892460Y19684831D01*
X41005984Y19502446D01*
X41166137Y19359253D01*
X41360044Y19266763D01*
X41360045Y19266763D01*
X41572118Y19232415D01*
X41785302Y19258969D01*
X41982465Y19344289D01*
X42147760Y19481520D01*
X42267895Y19659626D01*
X42333211Y19864287D01*
X42333546Y19891753D01*
X43755684Y19891753D01*
X43813459Y19684831D01*
X43813460Y19684831D01*
X43926984Y19502446D01*
X44087137Y19359253D01*
X44281044Y19266763D01*
X44281045Y19266763D01*
X44493118Y19232415D01*
X44706302Y19258969D01*
X44903465Y19344289D01*
X45068760Y19481520D01*
X45188895Y19659626D01*
X45254211Y19864287D01*
X45254546Y19891753D01*
X47311684Y19891753D01*
X47369459Y19684831D01*
X47369460Y19684831D01*
X47482984Y19502446D01*
X47643137Y19359253D01*
X47837044Y19266763D01*
X47837045Y19266763D01*
X48049118Y19232415D01*
X48262302Y19258969D01*
X48459465Y19344289D01*
X48624760Y19481520D01*
X48704753Y19600115D01*
X55730001Y19600115D01*
X55730001Y19363885D01*
X55771020Y19131261D01*
X55771020Y19131260D01*
X55851812Y18909286D01*
X55969926Y18704707D01*
X56121753Y18523768D01*
X56121768Y18523753D01*
X56302707Y18371926D01*
X56507286Y18253812D01*
X56688247Y18187948D01*
X56736462Y18150278D01*
X56753327Y18091463D01*
X56732400Y18033967D01*
X56654387Y17995918D01*
X56229997Y17995918D01*
X56151964Y17980396D01*
X56085811Y17936194D01*
X56085806Y17936189D01*
X56041604Y17870036D01*
X56026082Y17792003D01*
X56026082Y17092001D01*
X56026083Y17092000D01*
X56971007Y17091999D01*
X56971009Y17092000D01*
X58133917Y17091999D01*
X58133918Y17092000D01*
X58133918Y17792003D01*
X58118396Y17870036D01*
X58074194Y17936189D01*
X58074189Y17936194D01*
X58008036Y17980396D01*
X58008037Y17980396D01*
X57930003Y17995918D01*
X57505613Y17995918D01*
X57447422Y18014825D01*
X57411458Y18064325D01*
X57411458Y18125511D01*
X57471753Y18187948D01*
X57652714Y18253812D01*
X57857293Y18371926D01*
X58038232Y18523753D01*
X58038247Y18523768D01*
X58190074Y18704707D01*
X58308188Y18909286D01*
X58388980Y19131260D01*
X58388980Y19131261D01*
X58429999Y19363885D01*
X58429999Y19600115D01*
X58388980Y19832739D01*
X58388980Y19832740D01*
X58308188Y20054714D01*
X58190074Y20259293D01*
X58038247Y20440232D01*
X58038232Y20440247D01*
X57857293Y20592074D01*
X57809871Y20619453D01*
X57768930Y20664923D01*
X57762534Y20725773D01*
X57789367Y20775194D01*
X58178177Y21164004D01*
X58248181Y21193000D01*
X63987329Y21193000D01*
X63987353Y21193001D01*
X64029069Y21193001D01*
X64029075Y21193002D01*
X64065238Y21204751D01*
X64080340Y21208377D01*
X64117901Y21214326D01*
X64151785Y21231591D01*
X64166135Y21237535D01*
X64202297Y21249285D01*
X64202296Y21249285D01*
X64233056Y21271634D01*
X64246304Y21279752D01*
X64280188Y21297016D01*
X64408984Y21425811D01*
X65265587Y22282414D01*
X65297982Y22314810D01*
X65315246Y22348692D01*
X65323363Y22361937D01*
X65345713Y22392699D01*
X65357464Y22428866D01*
X65363410Y22443219D01*
X65380674Y22477100D01*
X65386623Y22514661D01*
X65390249Y22529764D01*
X65401998Y22565927D01*
X65401999Y22565930D01*
X65401999Y22607647D01*
X65402000Y22607671D01*
X65402000Y25552820D01*
X65430996Y25622824D01*
X65798176Y25990004D01*
X65868180Y26019000D01*
X65995263Y26019000D01*
X66053454Y26000093D01*
X66089418Y25950593D01*
X66089418Y25889407D01*
X66059427Y25844607D01*
X66037067Y25825577D01*
X65919122Y25646022D01*
X65919119Y25646017D01*
X65856311Y25440578D01*
X65856310Y25440573D01*
X65853684Y25225753D01*
X65911459Y25018831D01*
X66015048Y24852409D01*
X66030000Y24800094D01*
X66030001Y21158182D01*
X66001005Y21088178D01*
X64998824Y20085996D01*
X64928820Y20057000D01*
X63014026Y20057000D01*
X62955835Y20075907D01*
X62928289Y20106500D01*
X62840074Y20259293D01*
X62688247Y20440232D01*
X62688232Y20440247D01*
X62507293Y20592074D01*
X62302714Y20710188D01*
X62080740Y20790980D01*
X62080739Y20790980D01*
X61848115Y20831999D01*
X61611885Y20831999D01*
X61379260Y20790980D01*
X61157286Y20710188D01*
X60952707Y20592074D01*
X60771768Y20440247D01*
X60771753Y20440232D01*
X60619926Y20259293D01*
X60501812Y20054714D01*
X60421020Y19832740D01*
X60421020Y19832739D01*
X60380001Y19600115D01*
X60380001Y19363885D01*
X60421020Y19131261D01*
X60421020Y19131260D01*
X60501812Y18909286D01*
X60619926Y18704707D01*
X60771753Y18523768D01*
X60771768Y18523753D01*
X60952707Y18371926D01*
X61157286Y18253812D01*
X61338247Y18187948D01*
X61386462Y18150278D01*
X61403327Y18091463D01*
X61382400Y18033967D01*
X61304387Y17995918D01*
X60879997Y17995918D01*
X60801964Y17980396D01*
X60735811Y17936194D01*
X60735806Y17936189D01*
X60691604Y17870036D01*
X60676082Y17792003D01*
X60676082Y17092001D01*
X60676083Y17092000D01*
X61621007Y17091999D01*
X61621009Y17092000D01*
X62783917Y17091999D01*
X62783918Y17092000D01*
X62783918Y17792003D01*
X62768396Y17870036D01*
X62724194Y17936189D01*
X62724189Y17936194D01*
X62658036Y17980396D01*
X62658037Y17980396D01*
X62580003Y17995918D01*
X62155613Y17995918D01*
X62097422Y18014825D01*
X62061458Y18064325D01*
X62061458Y18125511D01*
X62072553Y18137001D01*
X85884946Y18137001D01*
X85910791Y17996186D01*
X85910793Y17996181D01*
X85986597Y17804721D01*
X86098140Y17631640D01*
X86241182Y17483517D01*
X86410269Y17365998D01*
X86598964Y17283559D01*
X86775000Y17244855D01*
X86775001Y18136999D01*
X86775000Y18137000D01*
X85884946Y18137001D01*
X62072553Y18137001D01*
X62121753Y18187948D01*
X62302714Y18253812D01*
X62507293Y18371926D01*
X62535974Y18395993D01*
X87074999Y18395993D01*
X87075000Y18395991D01*
X87074999Y17247206D01*
X87208734Y17270787D01*
X87400709Y17345250D01*
X87400721Y17345256D01*
X87574567Y17455583D01*
X87574576Y17455590D01*
X87723688Y17597586D01*
X87842386Y17765852D01*
X87842390Y17765857D01*
X87917846Y17935337D01*
X87958787Y17980806D01*
X88018635Y17993528D01*
X88074531Y17968642D01*
X88107287Y17895070D01*
X88107287Y17437002D01*
X88175309Y17183143D01*
X88288649Y17048069D01*
X88441354Y16959906D01*
X88614995Y16929287D01*
X90314998Y16929287D01*
X90568857Y16997309D01*
X90703931Y17110649D01*
X90792094Y17263354D01*
X90822713Y17436995D01*
X90822713Y19136999D01*
X90754691Y19390856D01*
X90641351Y19525931D01*
X90488646Y19614094D01*
X90315005Y19644713D01*
X88615001Y19644713D01*
X88361144Y19576691D01*
X88226069Y19463351D01*
X88137906Y19310646D01*
X88107287Y19137005D01*
X88107287Y18674058D01*
X88088380Y18615867D01*
X88038880Y18579903D01*
X87977694Y18579903D01*
X87916757Y18636332D01*
X87856580Y18782331D01*
X87742632Y18953836D01*
X87597532Y19099953D01*
X87426822Y19215099D01*
X87236997Y19294894D01*
X87236994Y19294895D01*
X87075000Y19328148D01*
X87075000Y19328147D01*
X87074999Y18395993D01*
X62535974Y18395993D01*
X62584844Y18437000D01*
X85883381Y18437000D01*
X86774999Y18436999D01*
X86775000Y18437000D01*
X86775001Y19327366D01*
X86627114Y19299155D01*
X86627100Y19299151D01*
X86436191Y19222018D01*
X86436183Y19222014D01*
X86263884Y19109263D01*
X86116759Y18965189D01*
X86000431Y18795297D01*
X86000428Y18795291D01*
X85919308Y18606023D01*
X85883381Y18437000D01*
X62584844Y18437000D01*
X62688232Y18523753D01*
X62688247Y18523768D01*
X62840074Y18704707D01*
X62928289Y18857500D01*
X62973759Y18898441D01*
X63014026Y18907000D01*
X65257329Y18907000D01*
X65257353Y18907001D01*
X65299069Y18907001D01*
X65299075Y18907002D01*
X65335238Y18918751D01*
X65350340Y18922377D01*
X65387901Y18928326D01*
X65421785Y18945591D01*
X65436135Y18951535D01*
X65472297Y18963285D01*
X65472296Y18963285D01*
X65503056Y18985634D01*
X65516304Y18993752D01*
X65550188Y19011016D01*
X65678984Y19139811D01*
X67043587Y20504414D01*
X67075983Y20536811D01*
X67075984Y20536812D01*
X67093245Y20570690D01*
X67101363Y20583938D01*
X67123714Y20614701D01*
X67135464Y20650864D01*
X67141409Y20665216D01*
X67158672Y20699098D01*
X67158674Y20699104D01*
X67164623Y20736661D01*
X67168249Y20751764D01*
X67179998Y20787927D01*
X67179999Y20787930D01*
X67179999Y20829647D01*
X67180000Y20829671D01*
X67180000Y22050753D01*
X71314684Y22050753D01*
X71372459Y21843831D01*
X71485984Y21661446D01*
X71646137Y21518253D01*
X71840045Y21425763D01*
X72052118Y21391415D01*
X72265302Y21417969D01*
X72462465Y21503289D01*
X72509999Y21542753D01*
X81601684Y21542753D01*
X81659459Y21335831D01*
X81772984Y21153446D01*
X81933137Y21010253D01*
X82127045Y20917763D01*
X82339118Y20883415D01*
X82552302Y20909969D01*
X82607117Y20933690D01*
X82668031Y20939448D01*
X82720696Y20908302D01*
X82745428Y20841622D01*
X82744684Y20780753D01*
X82802459Y20573831D01*
X82915984Y20391446D01*
X83076137Y20248253D01*
X83270045Y20155763D01*
X83482118Y20121415D01*
X83695302Y20147969D01*
X83892465Y20233289D01*
X84057760Y20370520D01*
X84177895Y20548626D01*
X84243211Y20753287D01*
X84246058Y20986420D01*
X84185762Y21192617D01*
X84070016Y21373603D01*
X84070015Y21373605D01*
X83908122Y21514833D01*
X83713104Y21604942D01*
X83500628Y21636698D01*
X83287783Y21607542D01*
X83241621Y21586893D01*
X83180782Y21580392D01*
X83127741Y21610892D01*
X83102204Y21678473D01*
X83103058Y21748420D01*
X83042762Y21954617D01*
X82927016Y22135603D01*
X82927015Y22135605D01*
X82765122Y22276833D01*
X82570104Y22366942D01*
X82357628Y22398698D01*
X82144786Y22369543D01*
X81948671Y22281817D01*
X81785071Y22142581D01*
X81785067Y22142577D01*
X81667122Y21963022D01*
X81667119Y21963017D01*
X81604311Y21757578D01*
X81604310Y21757573D01*
X81601684Y21542753D01*
X72509999Y21542753D01*
X72627760Y21640520D01*
X72747895Y21818626D01*
X72813211Y22023287D01*
X72813940Y22082986D01*
X72833557Y22140942D01*
X72894036Y22176143D01*
X72893499Y22178114D01*
X72900299Y22179968D01*
X73097465Y22265289D01*
X73262760Y22402520D01*
X73382895Y22580626D01*
X73448211Y22785287D01*
X73451058Y23018420D01*
X73390762Y23224617D01*
X73275016Y23405603D01*
X73275015Y23405605D01*
X73113122Y23546833D01*
X72918104Y23636942D01*
X72705628Y23668698D01*
X72492786Y23639543D01*
X72296671Y23551817D01*
X72133071Y23412581D01*
X72133067Y23412577D01*
X72015122Y23233022D01*
X72015119Y23233017D01*
X71952311Y23027578D01*
X71952310Y23027573D01*
X71951674Y22975558D01*
X71932056Y22917603D01*
X71866117Y22878684D01*
X71857786Y22877543D01*
X71661671Y22789817D01*
X71498071Y22650581D01*
X71498067Y22650577D01*
X71380122Y22471022D01*
X71380119Y22471017D01*
X71317311Y22265578D01*
X71317310Y22265573D01*
X71314684Y22050753D01*
X67180000Y22050753D01*
X67180000Y24804880D01*
X67196925Y24860240D01*
X67286893Y24993623D01*
X67286896Y24993629D01*
X67352211Y25198287D01*
X67352998Y25262753D01*
X88646684Y25262753D01*
X88704459Y25055831D01*
X88817984Y24873446D01*
X88978137Y24730253D01*
X89172045Y24637763D01*
X89384118Y24603415D01*
X89597302Y24629969D01*
X89794467Y24715290D01*
X89794469Y24715291D01*
X89823880Y24739709D01*
X89880729Y24762333D01*
X89940018Y24747220D01*
X89979102Y24700144D01*
X89986111Y24662329D01*
X89983684Y24463753D01*
X90041459Y24256831D01*
X90154984Y24074446D01*
X90315137Y23931253D01*
X90509045Y23838763D01*
X90721118Y23804415D01*
X90934302Y23830969D01*
X91131465Y23916289D01*
X91296760Y24053520D01*
X91416895Y24231626D01*
X91482211Y24436287D01*
X91485058Y24669420D01*
X91424762Y24875617D01*
X91309016Y25056603D01*
X91309015Y25056605D01*
X91147122Y25197833D01*
X90952104Y25287942D01*
X90739628Y25319698D01*
X90526786Y25290543D01*
X90330671Y25202817D01*
X90308678Y25184099D01*
X90252109Y25160783D01*
X90192639Y25175170D01*
X90152984Y25221765D01*
X90145521Y25260700D01*
X90148058Y25468421D01*
X90087762Y25674617D01*
X89972016Y25855603D01*
X89972015Y25855605D01*
X89810122Y25996833D01*
X89615104Y26086942D01*
X89402628Y26118698D01*
X89189786Y26089543D01*
X88993671Y26001817D01*
X88830071Y25862581D01*
X88830067Y25862577D01*
X88712122Y25683022D01*
X88712119Y25683017D01*
X88649311Y25477578D01*
X88649310Y25477573D01*
X88646684Y25262753D01*
X67352998Y25262753D01*
X67355058Y25431420D01*
X67294762Y25637617D01*
X67179016Y25818603D01*
X67179015Y25818605D01*
X67103926Y25884109D01*
X67072505Y25936610D01*
X67077944Y25997554D01*
X67105768Y26034882D01*
X67166756Y26085516D01*
X67166763Y26085523D01*
X67186478Y26114753D01*
X81601684Y26114753D01*
X81659459Y25907831D01*
X81772984Y25725446D01*
X81933137Y25582253D01*
X82127045Y25489763D01*
X82339118Y25455415D01*
X82552302Y25481969D01*
X82749465Y25567289D01*
X82914760Y25704520D01*
X83034895Y25882626D01*
X83100211Y26087287D01*
X83103058Y26320420D01*
X83042762Y26526617D01*
X82927016Y26707603D01*
X82927015Y26707605D01*
X82765122Y26848833D01*
X82570104Y26938942D01*
X82357628Y26970698D01*
X82144786Y26941543D01*
X81948671Y26853817D01*
X81785071Y26714581D01*
X81785067Y26714577D01*
X81667122Y26535022D01*
X81667119Y26535017D01*
X81604311Y26329578D01*
X81604310Y26329573D01*
X81601684Y26114753D01*
X67186478Y26114753D01*
X67286895Y26263626D01*
X67352211Y26468287D01*
X67355058Y26701420D01*
X67294762Y26907617D01*
X67179016Y27088603D01*
X67179015Y27088605D01*
X67017122Y27229833D01*
X66822104Y27319942D01*
X66609628Y27351698D01*
X66396786Y27322543D01*
X66200676Y27234819D01*
X66151077Y27192607D01*
X66086913Y27169000D01*
X65539671Y27169000D01*
X65539647Y27168999D01*
X65497932Y27168999D01*
X65497925Y27168998D01*
X65461762Y27157249D01*
X65446660Y27153623D01*
X65409099Y27147674D01*
X65375217Y27130410D01*
X65360867Y27124466D01*
X65324703Y27112715D01*
X65293938Y27090363D01*
X65280691Y27082246D01*
X65246814Y27064985D01*
X64356017Y26174188D01*
X64338751Y26140303D01*
X64330634Y26127058D01*
X64308287Y26096300D01*
X64296537Y26060137D01*
X64290592Y26045785D01*
X64273328Y26011901D01*
X64273326Y26011895D01*
X64267377Y25974338D01*
X64263751Y25959235D01*
X64252002Y25923072D01*
X64252001Y25923068D01*
X64252001Y25881352D01*
X64252000Y25881328D01*
X64252001Y22936182D01*
X64223005Y22866178D01*
X63728824Y22371996D01*
X63658820Y22343000D01*
X57919671Y22343000D01*
X57919647Y22342999D01*
X57877931Y22342999D01*
X57877927Y22342998D01*
X57841764Y22331249D01*
X57826661Y22327623D01*
X57789100Y22321674D01*
X57755219Y22304410D01*
X57740866Y22298464D01*
X57704699Y22286713D01*
X57673937Y22264363D01*
X57660692Y22256246D01*
X57626812Y22238983D01*
X57596894Y22209066D01*
X56737811Y21349983D01*
X56609017Y21221188D01*
X56591751Y21187303D01*
X56583634Y21174058D01*
X56561287Y21143300D01*
X56549537Y21107137D01*
X56543592Y21092785D01*
X56526328Y21058901D01*
X56526326Y21058895D01*
X56520377Y21021338D01*
X56516751Y21006235D01*
X56505002Y20970072D01*
X56505001Y20970068D01*
X56505001Y20928352D01*
X56505000Y20928328D01*
X56505000Y20766026D01*
X56486093Y20707835D01*
X56455500Y20680289D01*
X56302707Y20592074D01*
X56121768Y20440247D01*
X56121753Y20440232D01*
X55969926Y20259293D01*
X55851812Y20054714D01*
X55771020Y19832740D01*
X55771020Y19832739D01*
X55730001Y19600115D01*
X48704753Y19600115D01*
X48744895Y19659626D01*
X48810211Y19864287D01*
X48813058Y20097420D01*
X48752762Y20303617D01*
X48637016Y20484603D01*
X48637015Y20484605D01*
X48475122Y20625833D01*
X48280104Y20715942D01*
X48067628Y20747698D01*
X47854786Y20718543D01*
X47658671Y20630817D01*
X47495071Y20491581D01*
X47495067Y20491577D01*
X47377122Y20312022D01*
X47377119Y20312017D01*
X47314311Y20106578D01*
X47314310Y20106573D01*
X47311684Y19891753D01*
X45254546Y19891753D01*
X45257058Y20097420D01*
X45196762Y20303617D01*
X45081016Y20484603D01*
X45081015Y20484605D01*
X44919122Y20625833D01*
X44724104Y20715942D01*
X44511628Y20747698D01*
X44298786Y20718543D01*
X44102671Y20630817D01*
X43939071Y20491581D01*
X43939067Y20491577D01*
X43821122Y20312022D01*
X43821119Y20312017D01*
X43758311Y20106578D01*
X43758310Y20106573D01*
X43755684Y19891753D01*
X42333546Y19891753D01*
X42336058Y20097420D01*
X42275762Y20303617D01*
X42160016Y20484603D01*
X42160015Y20484605D01*
X41998122Y20625833D01*
X41803104Y20715942D01*
X41590628Y20747698D01*
X41377786Y20718543D01*
X41181671Y20630817D01*
X41018071Y20491581D01*
X41018067Y20491577D01*
X40900122Y20312022D01*
X40900119Y20312017D01*
X40837311Y20106578D01*
X40837310Y20106573D01*
X40834684Y19891753D01*
X37204788Y19891753D01*
X37195762Y19922617D01*
X37080016Y20103603D01*
X37080015Y20103605D01*
X36918122Y20244833D01*
X36723104Y20334942D01*
X36510628Y20366698D01*
X36297786Y20337543D01*
X36101671Y20249817D01*
X35938071Y20110581D01*
X35938067Y20110577D01*
X35820122Y19931022D01*
X35820119Y19931017D01*
X35757311Y19725578D01*
X35757310Y19725573D01*
X35754684Y19510753D01*
X31880478Y19510753D01*
X31980895Y19659626D01*
X32046211Y19864287D01*
X32049058Y20097420D01*
X31988762Y20303617D01*
X31873016Y20484603D01*
X31873015Y20484605D01*
X31711122Y20625833D01*
X31516104Y20715942D01*
X31303628Y20747698D01*
X31090786Y20718543D01*
X30894671Y20630817D01*
X30731071Y20491581D01*
X30731067Y20491577D01*
X30613122Y20312022D01*
X30613119Y20312017D01*
X30550311Y20106578D01*
X30550310Y20106573D01*
X30547684Y19891753D01*
X29379546Y19891753D01*
X29382058Y20097420D01*
X29321762Y20303617D01*
X29206016Y20484603D01*
X29206015Y20484605D01*
X29044122Y20625833D01*
X28849104Y20715942D01*
X28636628Y20747698D01*
X28423786Y20718543D01*
X28227671Y20630817D01*
X28064071Y20491581D01*
X28064067Y20491577D01*
X27946122Y20312022D01*
X27946119Y20312017D01*
X27883311Y20106578D01*
X27883310Y20106573D01*
X27880684Y19891753D01*
X25696546Y19891753D01*
X25699058Y20097420D01*
X25638762Y20303617D01*
X25523016Y20484603D01*
X25523015Y20484605D01*
X25361122Y20625833D01*
X25166104Y20715942D01*
X24953628Y20747698D01*
X24740786Y20718543D01*
X24544671Y20630817D01*
X24381071Y20491581D01*
X24381067Y20491577D01*
X24263122Y20312022D01*
X24263119Y20312017D01*
X24200311Y20106578D01*
X24200310Y20106573D01*
X24197684Y19891753D01*
X500000Y19891753D01*
X500000Y21923753D01*
X26483684Y21923753D01*
X26541459Y21716831D01*
X26654984Y21534446D01*
X26815137Y21391253D01*
X27009045Y21298763D01*
X27221118Y21264415D01*
X27434302Y21290969D01*
X27631465Y21376289D01*
X27796760Y21513520D01*
X27916895Y21691626D01*
X27982211Y21896287D01*
X27985058Y22129420D01*
X27976113Y22160010D01*
X27977928Y22221169D01*
X28001130Y22257800D01*
X29030335Y23287004D01*
X29100339Y23316000D01*
X30205329Y23316000D01*
X30205353Y23316001D01*
X30247069Y23316001D01*
X30247075Y23316002D01*
X30283238Y23327751D01*
X30298340Y23331377D01*
X30335901Y23337326D01*
X30369785Y23354591D01*
X30384135Y23360535D01*
X30420297Y23372285D01*
X30420296Y23372285D01*
X30451056Y23394634D01*
X30464304Y23402752D01*
X30498188Y23420016D01*
X30626984Y23548811D01*
X30850438Y23772264D01*
X30908204Y23800501D01*
X31008302Y23812969D01*
X31205465Y23898289D01*
X31370760Y24035520D01*
X31490895Y24213626D01*
X31556211Y24418287D01*
X31559058Y24651420D01*
X31515631Y24799932D01*
X33171918Y24799932D01*
X33190805Y24626068D01*
X33249184Y24461209D01*
X33343922Y24314204D01*
X33343924Y24314202D01*
X33469939Y24192935D01*
X33620477Y24103907D01*
X33787449Y24051902D01*
X33961911Y24039703D01*
X34134501Y24067965D01*
X34134500Y24067965D01*
X34295965Y24135177D01*
X34437627Y24237723D01*
X34551901Y24370110D01*
X34551902Y24370111D01*
X34632656Y24525239D01*
X34632657Y24525241D01*
X34675558Y24694781D01*
X34675559Y24694787D01*
X34676384Y24799932D01*
X35671918Y24799932D01*
X35690805Y24626068D01*
X35749184Y24461209D01*
X35843922Y24314204D01*
X35843924Y24314202D01*
X35969939Y24192935D01*
X36120477Y24103907D01*
X36287449Y24051902D01*
X36461911Y24039703D01*
X36634501Y24067965D01*
X36634500Y24067965D01*
X36795965Y24135177D01*
X36937627Y24237723D01*
X37051901Y24370110D01*
X37051902Y24370111D01*
X37132656Y24525239D01*
X37132657Y24525241D01*
X37175558Y24694781D01*
X37175559Y24694787D01*
X37176384Y24799932D01*
X38171918Y24799932D01*
X38190805Y24626068D01*
X38249184Y24461209D01*
X38343922Y24314204D01*
X38343924Y24314202D01*
X38469939Y24192935D01*
X38620477Y24103907D01*
X38787449Y24051902D01*
X38961911Y24039703D01*
X39134501Y24067965D01*
X39134500Y24067965D01*
X39295965Y24135177D01*
X39437627Y24237723D01*
X39551901Y24370110D01*
X39551902Y24370111D01*
X39632656Y24525239D01*
X39632657Y24525241D01*
X39675558Y24694781D01*
X39675559Y24694787D01*
X39677025Y24881443D01*
X39636792Y25051644D01*
X39558485Y25208017D01*
X39558484Y25208019D01*
X39446302Y25342187D01*
X39446299Y25342190D01*
X39306268Y25446946D01*
X39306266Y25446947D01*
X39145881Y25516685D01*
X39145872Y25516688D01*
X38973759Y25547656D01*
X38799123Y25538198D01*
X38631352Y25488820D01*
X38479436Y25402169D01*
X38351531Y25282895D01*
X38254496Y25137397D01*
X38193535Y24973479D01*
X38171918Y24799932D01*
X37176384Y24799932D01*
X37177025Y24881443D01*
X37136792Y25051644D01*
X37058485Y25208017D01*
X37058484Y25208019D01*
X36946302Y25342187D01*
X36946299Y25342190D01*
X36806268Y25446946D01*
X36806266Y25446947D01*
X36645881Y25516685D01*
X36645872Y25516688D01*
X36473759Y25547656D01*
X36299123Y25538198D01*
X36131352Y25488820D01*
X35979436Y25402169D01*
X35851531Y25282895D01*
X35754496Y25137397D01*
X35693535Y24973479D01*
X35671918Y24799932D01*
X34676384Y24799932D01*
X34677025Y24881443D01*
X34636792Y25051644D01*
X34558485Y25208017D01*
X34558484Y25208019D01*
X34446302Y25342187D01*
X34446299Y25342190D01*
X34306268Y25446946D01*
X34306266Y25446947D01*
X34145881Y25516685D01*
X34145872Y25516688D01*
X33973759Y25547656D01*
X33799123Y25538198D01*
X33631352Y25488820D01*
X33479436Y25402169D01*
X33351531Y25282895D01*
X33254496Y25137397D01*
X33193535Y24973479D01*
X33171918Y24799932D01*
X31515631Y24799932D01*
X31500449Y24851847D01*
X31501157Y24909733D01*
X31535691Y25017939D01*
X31538538Y25251071D01*
X31478242Y25457268D01*
X31382642Y25606753D01*
X41342684Y25606753D01*
X41400459Y25399831D01*
X41513985Y25217445D01*
X41523441Y25208990D01*
X41554220Y25156110D01*
X41548038Y25095238D01*
X41529322Y25070122D01*
X41530740Y25068870D01*
X41526070Y25063582D01*
X41408122Y24884022D01*
X41408119Y24884017D01*
X41345311Y24678578D01*
X41345310Y24678573D01*
X41342684Y24463753D01*
X41400459Y24256831D01*
X41513984Y24074446D01*
X41674137Y23931253D01*
X41868044Y23838763D01*
X41998787Y23817588D01*
X42052963Y23789865D01*
X44385811Y21457017D01*
X44419693Y21439753D01*
X44432938Y21431636D01*
X44463700Y21409286D01*
X44499867Y21397535D01*
X44514220Y21391589D01*
X44548101Y21374325D01*
X44585662Y21368376D01*
X44600765Y21364750D01*
X44636928Y21353001D01*
X44636931Y21353000D01*
X44678648Y21353000D01*
X44678672Y21352999D01*
X52971328Y21352999D01*
X52971352Y21353000D01*
X53013068Y21353000D01*
X53013074Y21353001D01*
X53049237Y21364750D01*
X53064339Y21368376D01*
X53101900Y21374325D01*
X53135784Y21391590D01*
X53150134Y21397534D01*
X53186296Y21409284D01*
X53186295Y21409284D01*
X53217055Y21431633D01*
X53230303Y21439751D01*
X53264187Y21457015D01*
X53392983Y21585810D01*
X54216587Y22409414D01*
X54248982Y22441810D01*
X54266246Y22475692D01*
X54274363Y22488937D01*
X54296713Y22519699D01*
X54308464Y22555866D01*
X54314410Y22570219D01*
X54331674Y22604100D01*
X54337623Y22641661D01*
X54341249Y22656764D01*
X54352998Y22692927D01*
X54352999Y22692930D01*
X54352999Y22734647D01*
X54353000Y22734671D01*
X54353000Y24082753D01*
X60900684Y24082753D01*
X60958459Y23875831D01*
X61071984Y23693446D01*
X61232137Y23550253D01*
X61426045Y23457763D01*
X61638118Y23423415D01*
X61851302Y23449969D01*
X62048465Y23535289D01*
X62213760Y23672520D01*
X62333895Y23850626D01*
X62399211Y24055287D01*
X62402058Y24288420D01*
X62341762Y24494617D01*
X62226016Y24675603D01*
X62226015Y24675605D01*
X62064122Y24816833D01*
X61869104Y24906942D01*
X61656628Y24938698D01*
X61443786Y24909543D01*
X61247671Y24821817D01*
X61084071Y24682581D01*
X61084067Y24682577D01*
X60966122Y24503022D01*
X60966119Y24503017D01*
X60903311Y24297578D01*
X60903310Y24297573D01*
X60900684Y24082753D01*
X54353000Y24082753D01*
X54353000Y24498698D01*
X54371907Y24556889D01*
X54421407Y24592853D01*
X54467828Y24596425D01*
X54653118Y24566415D01*
X54866302Y24592969D01*
X55063465Y24678289D01*
X55228760Y24815520D01*
X55348895Y24993626D01*
X55414211Y25198287D01*
X55417058Y25431420D01*
X55356762Y25637617D01*
X55241016Y25818603D01*
X55241015Y25818605D01*
X55079122Y25959833D01*
X55018697Y25987753D01*
X60900684Y25987753D01*
X60958459Y25780831D01*
X61071984Y25598446D01*
X61232137Y25455253D01*
X61426045Y25362763D01*
X61638118Y25328415D01*
X61851302Y25354969D01*
X62048465Y25440289D01*
X62213760Y25577520D01*
X62333895Y25755626D01*
X62399211Y25960287D01*
X62402058Y26193420D01*
X62341762Y26399617D01*
X62226016Y26580603D01*
X62226015Y26580605D01*
X62064122Y26721833D01*
X61869104Y26811942D01*
X61656628Y26843698D01*
X61443786Y26814543D01*
X61247671Y26726817D01*
X61084071Y26587581D01*
X61084067Y26587577D01*
X60966122Y26408022D01*
X60966119Y26408017D01*
X60903311Y26202578D01*
X60903310Y26202573D01*
X60900684Y25987753D01*
X55018697Y25987753D01*
X54884104Y26049942D01*
X54671628Y26081698D01*
X54465435Y26053454D01*
X54405217Y26064289D01*
X54362868Y26108451D01*
X54353000Y26151538D01*
X54353000Y26455880D01*
X54369925Y26511240D01*
X54459893Y26644623D01*
X54459896Y26644629D01*
X54525211Y26849287D01*
X54528058Y27082420D01*
X54467762Y27288617D01*
X54352016Y27469603D01*
X54352015Y27469605D01*
X54190122Y27610833D01*
X53995104Y27700942D01*
X53782628Y27732698D01*
X53569786Y27703543D01*
X53373671Y27615817D01*
X53210071Y27476581D01*
X53210067Y27476577D01*
X53092122Y27297022D01*
X53092119Y27297017D01*
X53029311Y27091578D01*
X53029310Y27091573D01*
X53026684Y26876753D01*
X53084459Y26669831D01*
X53188049Y26503406D01*
X53203001Y26451091D01*
X53203000Y23063181D01*
X53174004Y22993178D01*
X52712823Y22531996D01*
X52642819Y22502999D01*
X52064425Y22502999D01*
X52006234Y22521906D01*
X51969404Y22574213D01*
X51927762Y22716617D01*
X51812016Y22897603D01*
X51812015Y22897605D01*
X51650123Y23038832D01*
X51619504Y23052980D01*
X51574611Y23094552D01*
X51562726Y23154572D01*
X51591026Y23212853D01*
X51962984Y23584812D01*
X51962984Y23584813D01*
X51980246Y23618691D01*
X51988363Y23631938D01*
X52010715Y23662703D01*
X52022466Y23698867D01*
X52028410Y23713217D01*
X52045674Y23747099D01*
X52051623Y23784660D01*
X52055249Y23799762D01*
X52066998Y23835925D01*
X52066999Y23835931D01*
X52066999Y23877647D01*
X52067000Y23877671D01*
X52067000Y26747329D01*
X52066999Y26747353D01*
X52066999Y26789069D01*
X52066998Y26789073D01*
X52055249Y26825236D01*
X52051623Y26840339D01*
X52045674Y26877901D01*
X52028410Y26911783D01*
X52022466Y26926133D01*
X52010715Y26962297D01*
X51988363Y26993062D01*
X51980246Y27006309D01*
X51962985Y27040186D01*
X51557186Y27445985D01*
X51523304Y27463248D01*
X51510056Y27471366D01*
X51479296Y27493715D01*
X51479297Y27493715D01*
X51443135Y27505465D01*
X51428785Y27511409D01*
X51394901Y27528674D01*
X51357340Y27534623D01*
X51342238Y27538249D01*
X51306075Y27549998D01*
X51306068Y27549999D01*
X51264353Y27549999D01*
X51264329Y27550000D01*
X50740970Y27550000D01*
X50675890Y27574397D01*
X50634122Y27610833D01*
X50439104Y27700942D01*
X50226628Y27732698D01*
X50013786Y27703543D01*
X49817671Y27615817D01*
X49654071Y27476581D01*
X49654067Y27476577D01*
X49536122Y27297022D01*
X49536119Y27297017D01*
X49473311Y27091578D01*
X49473310Y27091573D01*
X49470684Y26876753D01*
X49528459Y26669831D01*
X49641982Y26487449D01*
X49677133Y26456021D01*
X49707911Y26403141D01*
X49693892Y26327864D01*
X49663120Y26281019D01*
X49663119Y26281017D01*
X49600311Y26075578D01*
X49600310Y26075573D01*
X49597684Y25860753D01*
X49655459Y25653831D01*
X49768984Y25471446D01*
X49929137Y25328253D01*
X50123045Y25235763D01*
X50335118Y25201415D01*
X50548302Y25227969D01*
X50745467Y25313290D01*
X50745468Y25313291D01*
X50754764Y25321008D01*
X50811613Y25343631D01*
X50870903Y25328517D01*
X50909986Y25281441D01*
X50917001Y25244837D01*
X50917000Y24787801D01*
X50898093Y24729610D01*
X50848592Y24693646D01*
X50787407Y24693646D01*
X50752920Y24713199D01*
X50634126Y24816831D01*
X50634123Y24816832D01*
X50439104Y24906942D01*
X50226628Y24938698D01*
X50013786Y24909543D01*
X49817671Y24821817D01*
X49654071Y24682581D01*
X49654067Y24682577D01*
X49536122Y24503022D01*
X49536119Y24503017D01*
X49479571Y24318055D01*
X49444477Y24267935D01*
X49384897Y24248000D01*
X47742634Y24248000D01*
X47684443Y24266907D01*
X47648479Y24316407D01*
X47648321Y24377100D01*
X47667211Y24436288D01*
X47670058Y24669420D01*
X47609762Y24875617D01*
X47494016Y25056603D01*
X47494015Y25056605D01*
X47332122Y25197833D01*
X47137104Y25287942D01*
X46924628Y25319698D01*
X46711786Y25290543D01*
X46515671Y25202817D01*
X46352071Y25063581D01*
X46352067Y25063577D01*
X46234122Y24884022D01*
X46234119Y24884017D01*
X46171311Y24678578D01*
X46171310Y24678573D01*
X46168684Y24463752D01*
X46193849Y24373623D01*
X46191287Y24312492D01*
X46153282Y24264541D01*
X46098496Y24248000D01*
X45040181Y24248000D01*
X44970177Y24276996D01*
X43103589Y26143583D01*
X43071188Y26175984D01*
X43037304Y26193248D01*
X43024056Y26201366D01*
X42993296Y26223715D01*
X42993297Y26223715D01*
X42957135Y26235465D01*
X42942785Y26241409D01*
X42908901Y26258674D01*
X42871340Y26264623D01*
X42856238Y26268249D01*
X42820075Y26279998D01*
X42820068Y26279999D01*
X42778353Y26279999D01*
X42778329Y26280000D01*
X42612970Y26280000D01*
X42547890Y26304397D01*
X42506122Y26340833D01*
X42445697Y26368753D01*
X47692684Y26368753D01*
X47750459Y26161831D01*
X47863984Y25979446D01*
X48024137Y25836253D01*
X48218045Y25743763D01*
X48430118Y25709415D01*
X48643302Y25735969D01*
X48840465Y25821289D01*
X49005760Y25958520D01*
X49125895Y26136626D01*
X49191211Y26341287D01*
X49194058Y26574420D01*
X49133762Y26780617D01*
X49018016Y26961603D01*
X49018015Y26961605D01*
X48856122Y27102833D01*
X48661104Y27192942D01*
X48448628Y27224698D01*
X48235786Y27195543D01*
X48039671Y27107817D01*
X47876071Y26968581D01*
X47876067Y26968577D01*
X47758122Y26789022D01*
X47758119Y26789017D01*
X47695311Y26583578D01*
X47695310Y26583573D01*
X47692684Y26368753D01*
X42445697Y26368753D01*
X42311104Y26430942D01*
X42098628Y26462698D01*
X41885786Y26433543D01*
X41689671Y26345817D01*
X41526071Y26206581D01*
X41526067Y26206577D01*
X41408122Y26027022D01*
X41408119Y26027017D01*
X41345311Y25821578D01*
X41345310Y25821573D01*
X41342684Y25606753D01*
X31382642Y25606753D01*
X31362496Y25638254D01*
X31362495Y25638256D01*
X31200602Y25779484D01*
X31005584Y25869593D01*
X30793108Y25901349D01*
X30589435Y25873450D01*
X30529217Y25884285D01*
X30486868Y25928447D01*
X30477000Y25971534D01*
X30477000Y27344880D01*
X30493925Y27400240D01*
X30583893Y27533623D01*
X30583896Y27533629D01*
X30649211Y27738287D01*
X30652058Y27971420D01*
X30591762Y28177617D01*
X30476016Y28358603D01*
X30476015Y28358605D01*
X30427700Y28400753D01*
X46168684Y28400753D01*
X46226459Y28193831D01*
X46339984Y28011446D01*
X46500137Y27868253D01*
X46694045Y27775763D01*
X46906118Y27741415D01*
X47119302Y27767969D01*
X47316465Y27853289D01*
X47481760Y27990520D01*
X47501478Y28019753D01*
X60900684Y28019753D01*
X60958459Y27812831D01*
X61071984Y27630446D01*
X61232137Y27487253D01*
X61426045Y27394763D01*
X61638118Y27360415D01*
X61851302Y27386969D01*
X62048465Y27472289D01*
X62213760Y27609520D01*
X62333895Y27787626D01*
X62399211Y27992287D01*
X62402058Y28225420D01*
X62341762Y28431617D01*
X62226016Y28612603D01*
X62226015Y28612605D01*
X62210659Y28626001D01*
X85884946Y28626001D01*
X85910791Y28485186D01*
X85910793Y28485181D01*
X85986597Y28293721D01*
X86098140Y28120640D01*
X86241182Y27972517D01*
X86410269Y27854998D01*
X86598964Y27772559D01*
X86775000Y27733855D01*
X86775001Y28625999D01*
X86775000Y28626000D01*
X85884946Y28626001D01*
X62210659Y28626001D01*
X62064122Y28753833D01*
X61869104Y28843942D01*
X61656628Y28875698D01*
X61443786Y28846543D01*
X61247671Y28758817D01*
X61084071Y28619581D01*
X61084067Y28619577D01*
X60966122Y28440022D01*
X60966119Y28440017D01*
X60903311Y28234578D01*
X60903310Y28234573D01*
X60900684Y28019753D01*
X47501478Y28019753D01*
X47601895Y28168626D01*
X47667211Y28373287D01*
X47670058Y28606420D01*
X47609762Y28812617D01*
X47563476Y28884993D01*
X87074999Y28884993D01*
X87075000Y28884991D01*
X87074999Y27736206D01*
X87208734Y27759787D01*
X87400709Y27834250D01*
X87400721Y27834256D01*
X87574567Y27944583D01*
X87574576Y27944590D01*
X87723688Y28086586D01*
X87842386Y28254852D01*
X87842390Y28254857D01*
X87917846Y28424337D01*
X87958787Y28469806D01*
X88018635Y28482528D01*
X88074531Y28457642D01*
X88107287Y28384070D01*
X88107287Y27926002D01*
X88175309Y27672143D01*
X88288649Y27537069D01*
X88441354Y27448906D01*
X88614995Y27418287D01*
X90314998Y27418287D01*
X90568857Y27486309D01*
X90703931Y27599649D01*
X90792094Y27752354D01*
X90822713Y27925995D01*
X90822713Y29625999D01*
X90754691Y29879856D01*
X90641351Y30014931D01*
X90488646Y30103094D01*
X90315005Y30133713D01*
X88615001Y30133713D01*
X88361144Y30065691D01*
X88226069Y29952351D01*
X88137906Y29799646D01*
X88107287Y29626005D01*
X88107287Y29163058D01*
X88088380Y29104867D01*
X88038880Y29068903D01*
X87977694Y29068903D01*
X87916757Y29125332D01*
X87856580Y29271331D01*
X87742632Y29442836D01*
X87597532Y29588953D01*
X87426822Y29704099D01*
X87236997Y29783894D01*
X87236994Y29783895D01*
X87075000Y29817148D01*
X87075000Y29817147D01*
X87074999Y28884993D01*
X47563476Y28884993D01*
X47537251Y28926000D01*
X85883381Y28926000D01*
X86774999Y28925999D01*
X86775000Y28926000D01*
X86775001Y29816366D01*
X86627114Y29788155D01*
X86627100Y29788151D01*
X86436191Y29711018D01*
X86436183Y29711014D01*
X86263884Y29598263D01*
X86116759Y29454189D01*
X86000431Y29284297D01*
X86000428Y29284291D01*
X85919308Y29095023D01*
X85883381Y28926000D01*
X47537251Y28926000D01*
X47494016Y28993603D01*
X47494015Y28993605D01*
X47332122Y29134833D01*
X47137104Y29224942D01*
X46924628Y29256698D01*
X46711786Y29227543D01*
X46515671Y29139817D01*
X46352071Y29000581D01*
X46352067Y29000577D01*
X46234122Y28821022D01*
X46234119Y28821017D01*
X46171311Y28615578D01*
X46171310Y28615573D01*
X46168684Y28400753D01*
X30427700Y28400753D01*
X30314122Y28499833D01*
X30119104Y28589942D01*
X29906628Y28621698D01*
X29693786Y28592543D01*
X29497671Y28504817D01*
X29334071Y28365581D01*
X29334067Y28365577D01*
X29216122Y28186022D01*
X29216119Y28186017D01*
X29153311Y27980578D01*
X29153310Y27980573D01*
X29150684Y27765753D01*
X29208459Y27558831D01*
X29312049Y27392406D01*
X29327001Y27340091D01*
X29327000Y25274672D01*
X29327001Y25274648D01*
X29327001Y25232931D01*
X29327002Y25232928D01*
X29338751Y25196765D01*
X29342377Y25181662D01*
X29348326Y25144105D01*
X29348328Y25144099D01*
X29365592Y25110215D01*
X29371537Y25095863D01*
X29383287Y25059700D01*
X29405634Y25028942D01*
X29413751Y25015697D01*
X29431017Y24981812D01*
X29719811Y24693018D01*
X29753696Y24675752D01*
X29766940Y24667636D01*
X29797968Y24645093D01*
X29833932Y24595593D01*
X29833933Y24534408D01*
X29797969Y24484908D01*
X29739778Y24466000D01*
X28771829Y24466000D01*
X28771805Y24465999D01*
X28730089Y24465999D01*
X28730085Y24465998D01*
X28693922Y24454249D01*
X28678819Y24450623D01*
X28641258Y24444674D01*
X28607377Y24427410D01*
X28593024Y24421464D01*
X28556857Y24409713D01*
X28526095Y24387363D01*
X28512850Y24379246D01*
X28478970Y24361983D01*
X28449052Y24332066D01*
X26892811Y22775825D01*
X26764017Y22647030D01*
X26746750Y22613143D01*
X26738634Y22599900D01*
X26716233Y22569067D01*
X26700304Y22551864D01*
X26667067Y22523577D01*
X26549122Y22344022D01*
X26549119Y22344017D01*
X26486311Y22138578D01*
X26486310Y22138573D01*
X26483684Y21923753D01*
X500000Y21923753D01*
X500000Y24844753D01*
X24197684Y24844753D01*
X24255459Y24637831D01*
X24368984Y24455446D01*
X24529137Y24312253D01*
X24723045Y24219763D01*
X24935118Y24185415D01*
X25148302Y24211969D01*
X25345465Y24297289D01*
X25510760Y24434520D01*
X25630895Y24612626D01*
X25696211Y24817287D01*
X25699058Y25050420D01*
X25638762Y25256617D01*
X25523016Y25437603D01*
X25523015Y25437605D01*
X25361122Y25578833D01*
X25166104Y25668942D01*
X24953628Y25700698D01*
X24740786Y25671543D01*
X24544671Y25583817D01*
X24381071Y25444581D01*
X24381067Y25444577D01*
X24263122Y25265022D01*
X24263119Y25265017D01*
X24200311Y25059578D01*
X24200310Y25059573D01*
X24197684Y24844753D01*
X500000Y24844753D01*
X500000Y28019753D01*
X24197684Y28019753D01*
X24255459Y27812831D01*
X24368984Y27630446D01*
X24529137Y27487253D01*
X24723045Y27394763D01*
X24935118Y27360415D01*
X25148302Y27386969D01*
X25345465Y27472289D01*
X25510760Y27609520D01*
X25630895Y27787626D01*
X25696211Y27992287D01*
X25699058Y28225420D01*
X25638762Y28431617D01*
X25523016Y28612603D01*
X25523015Y28612605D01*
X25361122Y28753833D01*
X25166104Y28843942D01*
X24953628Y28875698D01*
X24740786Y28846543D01*
X24544671Y28758817D01*
X24381071Y28619581D01*
X24381067Y28619577D01*
X24263122Y28440022D01*
X24263119Y28440017D01*
X24200311Y28234578D01*
X24200310Y28234573D01*
X24197684Y28019753D01*
X500000Y28019753D01*
X500000Y29162753D01*
X30547684Y29162753D01*
X30605459Y28955831D01*
X30718984Y28773446D01*
X30879137Y28630253D01*
X31073045Y28537763D01*
X31285118Y28503415D01*
X31498302Y28529969D01*
X31695465Y28615289D01*
X31860760Y28752520D01*
X31980895Y28930626D01*
X32046211Y29135287D01*
X32046546Y29162753D01*
X40834684Y29162753D01*
X40892459Y28955831D01*
X41005984Y28773446D01*
X41166137Y28630253D01*
X41360045Y28537763D01*
X41572118Y28503415D01*
X41785302Y28529969D01*
X41982465Y28615289D01*
X42147760Y28752520D01*
X42267895Y28930626D01*
X42333211Y29135287D01*
X42333546Y29162753D01*
X44009684Y29162753D01*
X44067459Y28955831D01*
X44180984Y28773446D01*
X44341137Y28630253D01*
X44535045Y28537763D01*
X44747118Y28503415D01*
X44960302Y28529969D01*
X45157465Y28615289D01*
X45322760Y28752520D01*
X45442895Y28930626D01*
X45508211Y29135287D01*
X45511058Y29368420D01*
X45450762Y29574617D01*
X45335016Y29755603D01*
X45335015Y29755605D01*
X45173122Y29896833D01*
X44978104Y29986942D01*
X44765628Y30018698D01*
X44552786Y29989543D01*
X44356671Y29901817D01*
X44193071Y29762581D01*
X44193067Y29762577D01*
X44075122Y29583022D01*
X44075119Y29583017D01*
X44012311Y29377578D01*
X44012310Y29377573D01*
X44009684Y29162753D01*
X42333546Y29162753D01*
X42336058Y29368420D01*
X42275762Y29574617D01*
X42160016Y29755603D01*
X42160015Y29755605D01*
X41998122Y29896833D01*
X41803104Y29986942D01*
X41590628Y30018698D01*
X41377786Y29989543D01*
X41181671Y29901817D01*
X41018071Y29762581D01*
X41018067Y29762577D01*
X40900122Y29583022D01*
X40900119Y29583017D01*
X40837311Y29377578D01*
X40837310Y29377573D01*
X40834684Y29162753D01*
X32046546Y29162753D01*
X32049058Y29368420D01*
X31988762Y29574617D01*
X31873016Y29755603D01*
X31873015Y29755605D01*
X31711122Y29896833D01*
X31516104Y29986942D01*
X31303628Y30018698D01*
X31090786Y29989543D01*
X30894671Y29901817D01*
X30731071Y29762581D01*
X30731067Y29762577D01*
X30613122Y29583022D01*
X30613119Y29583017D01*
X30550311Y29377578D01*
X30550310Y29377573D01*
X30547684Y29162753D01*
X500000Y29162753D01*
X500000Y30305753D01*
X24197684Y30305753D01*
X24255459Y30098831D01*
X24368984Y29916446D01*
X24529137Y29773253D01*
X24723045Y29680763D01*
X24935118Y29646415D01*
X25148302Y29672969D01*
X25345465Y29758289D01*
X25510760Y29895520D01*
X25616141Y30051753D01*
X35754684Y30051753D01*
X35812459Y29844831D01*
X35925984Y29662446D01*
X36086137Y29519253D01*
X36280045Y29426763D01*
X36492118Y29392415D01*
X36705302Y29418969D01*
X36902465Y29504289D01*
X37067760Y29641520D01*
X37187895Y29819626D01*
X37253211Y30024287D01*
X37256058Y30257420D01*
X37195762Y30463617D01*
X37080016Y30644603D01*
X37080015Y30644605D01*
X37038578Y30680753D01*
X64323684Y30680753D01*
X64381459Y30473831D01*
X64494984Y30291446D01*
X64655137Y30148253D01*
X64849045Y30055763D01*
X65061118Y30021415D01*
X65274302Y30047969D01*
X65471465Y30133289D01*
X65636760Y30270520D01*
X65756895Y30448626D01*
X65822211Y30653287D01*
X65822619Y30686753D01*
X70298684Y30686753D01*
X70356459Y30479831D01*
X70469984Y30297446D01*
X70630137Y30154253D01*
X70824045Y30061763D01*
X71036118Y30027415D01*
X71249302Y30053969D01*
X71446465Y30139289D01*
X71611760Y30276520D01*
X71731895Y30454626D01*
X71797211Y30659287D01*
X71800058Y30892420D01*
X71739762Y31098617D01*
X71624016Y31279603D01*
X71624015Y31279605D01*
X71462122Y31420833D01*
X71267104Y31510942D01*
X71054628Y31542698D01*
X70841786Y31513543D01*
X70645671Y31425817D01*
X70482071Y31286581D01*
X70482067Y31286577D01*
X70364122Y31107022D01*
X70364119Y31107017D01*
X70301311Y30901578D01*
X70301310Y30901573D01*
X70298684Y30686753D01*
X65822619Y30686753D01*
X65825058Y30886420D01*
X65764762Y31092617D01*
X65649016Y31273603D01*
X65649015Y31273605D01*
X65487122Y31414833D01*
X65292104Y31504942D01*
X65079628Y31536698D01*
X64866786Y31507543D01*
X64670671Y31419817D01*
X64507071Y31280581D01*
X64507067Y31280577D01*
X64389122Y31101022D01*
X64389119Y31101017D01*
X64326311Y30895578D01*
X64326310Y30895573D01*
X64323684Y30680753D01*
X37038578Y30680753D01*
X36918122Y30785833D01*
X36723104Y30875942D01*
X36510628Y30907698D01*
X36297786Y30878543D01*
X36101671Y30790817D01*
X35938071Y30651581D01*
X35938067Y30651577D01*
X35820122Y30472022D01*
X35820119Y30472017D01*
X35757311Y30266578D01*
X35757310Y30266573D01*
X35754684Y30051753D01*
X25616141Y30051753D01*
X25630895Y30073626D01*
X25696211Y30278287D01*
X25699058Y30511420D01*
X25638762Y30717617D01*
X25523016Y30898603D01*
X25523015Y30898605D01*
X25361122Y31039833D01*
X25166104Y31129942D01*
X24953628Y31161698D01*
X24740786Y31132543D01*
X24544671Y31044817D01*
X24381071Y30905581D01*
X24381067Y30905577D01*
X24263122Y30726022D01*
X24263119Y30726017D01*
X24200311Y30520578D01*
X24200310Y30520573D01*
X24197684Y30305753D01*
X500000Y30305753D01*
X500000Y31702753D01*
X30547684Y31702753D01*
X30605459Y31495831D01*
X30718984Y31313446D01*
X30879137Y31170253D01*
X31073045Y31077763D01*
X31285118Y31043415D01*
X31498302Y31069969D01*
X31695465Y31155289D01*
X31860760Y31292520D01*
X31980895Y31470626D01*
X32046211Y31675287D01*
X32046546Y31702753D01*
X50486684Y31702753D01*
X50544459Y31495831D01*
X50657984Y31313446D01*
X50818137Y31170253D01*
X51012045Y31077763D01*
X51224118Y31043415D01*
X51437302Y31069969D01*
X51634465Y31155289D01*
X51799760Y31292520D01*
X51919895Y31470626D01*
X51985211Y31675287D01*
X51988058Y31908420D01*
X51936788Y32083753D01*
X81601684Y32083753D01*
X81659459Y31876831D01*
X81772984Y31694446D01*
X81933137Y31551253D01*
X82127045Y31458763D01*
X82339118Y31424415D01*
X82379555Y31429452D01*
X82439637Y31417882D01*
X82481443Y31373207D01*
X82490785Y31330001D01*
X82490684Y31321753D01*
X82548459Y31114831D01*
X82661984Y30932446D01*
X82822137Y30789253D01*
X83016045Y30696763D01*
X83228118Y30662415D01*
X83441302Y30688969D01*
X83638465Y30774289D01*
X83803760Y30911520D01*
X83923895Y31089626D01*
X83989211Y31294287D01*
X83992058Y31527420D01*
X83931762Y31733617D01*
X83816016Y31914603D01*
X83816015Y31914605D01*
X83654122Y32055833D01*
X83459104Y32145942D01*
X83246628Y32177698D01*
X83215283Y32173404D01*
X83155064Y32184239D01*
X83112715Y32228400D01*
X83102854Y32272697D01*
X83103058Y32289420D01*
X83042762Y32495617D01*
X82927016Y32676603D01*
X82927015Y32676605D01*
X82765122Y32817833D01*
X82570104Y32907942D01*
X82357628Y32939698D01*
X82144786Y32910543D01*
X81948671Y32822817D01*
X81785071Y32683581D01*
X81785067Y32683577D01*
X81667122Y32504022D01*
X81667119Y32504017D01*
X81604311Y32298578D01*
X81604310Y32298573D01*
X81601684Y32083753D01*
X51936788Y32083753D01*
X51927762Y32114617D01*
X51812016Y32295603D01*
X51812015Y32295605D01*
X51650122Y32436833D01*
X51455104Y32526942D01*
X51242628Y32558698D01*
X51029786Y32529543D01*
X50833671Y32441817D01*
X50670071Y32302581D01*
X50670067Y32302577D01*
X50552122Y32123022D01*
X50552119Y32123017D01*
X50489311Y31917578D01*
X50489310Y31917573D01*
X50486684Y31702753D01*
X32046546Y31702753D01*
X32049058Y31908420D01*
X31988762Y32114617D01*
X31873016Y32295603D01*
X31873015Y32295605D01*
X31711122Y32436833D01*
X31516104Y32526942D01*
X31303628Y32558698D01*
X31090786Y32529543D01*
X30894671Y32441817D01*
X30731071Y32302581D01*
X30731067Y32302577D01*
X30613122Y32123022D01*
X30613119Y32123017D01*
X30550311Y31917578D01*
X30550310Y31917573D01*
X30547684Y31702753D01*
X500000Y31702753D01*
X500000Y44050184D01*
X2145731Y44050184D01*
X2145731Y44050171D01*
X2157910Y43781974D01*
X2157910Y43781973D01*
X2208675Y43518347D01*
X2208679Y43518334D01*
X2296969Y43264802D01*
X2296971Y43264797D01*
X2420939Y43026656D01*
X2577989Y42808900D01*
X2764819Y42616107D01*
X2764824Y42616102D01*
X2977541Y42452289D01*
X3211666Y42320905D01*
X3462310Y42224692D01*
X3724225Y42165666D01*
X3991907Y42145070D01*
X3991908Y42145070D01*
X4259758Y42163330D01*
X4259765Y42163331D01*
X4522180Y42220067D01*
X4773647Y42314088D01*
X4773651Y42314090D01*
X5008920Y42443430D01*
X5008921Y42443431D01*
X5223054Y42605379D01*
X5411562Y42796538D01*
X5411566Y42796542D01*
X5570502Y43012906D01*
X5570508Y43012917D01*
X5696545Y43249957D01*
X5787051Y43502729D01*
X5787052Y43502731D01*
X5840117Y43765907D01*
X5840118Y43765914D01*
X5850084Y44134242D01*
X5811328Y44399901D01*
X5811326Y44399913D01*
X5734626Y44657195D01*
X5621590Y44900710D01*
X5474580Y45125363D01*
X5296687Y45326437D01*
X5296675Y45326448D01*
X5091619Y45499734D01*
X5091616Y45499736D01*
X4863698Y45641602D01*
X4863690Y45641607D01*
X4617666Y45749092D01*
X4358709Y45819935D01*
X4092233Y45852654D01*
X3823820Y45846562D01*
X3559101Y45801787D01*
X3303625Y45719271D01*
X3062725Y45600734D01*
X2841475Y45448672D01*
X2644479Y45266253D01*
X2644472Y45266245D01*
X2475890Y45057317D01*
X2339220Y44826221D01*
X2339220Y44826220D01*
X2237344Y44577823D01*
X2172397Y44317329D01*
X2172395Y44317322D01*
X2145731Y44050184D01*
X500000Y44050184D01*
X500000Y47401000D01*
X518907Y47459191D01*
X599000Y47500000D01*
X13887587Y47500000D01*
X13945778Y47481093D01*
G37*
G04 #@! TD.AperFunction*
M02*
