G04 #@! TF.GenerationSoftware,KiCad,Pcbnew,(5.99.0-2858-ga3fc028c9b)*
G04 #@! TF.CreationDate,2020-08-26T16:16:25+02:00*
G04 #@! TF.ProjectId,EDSCH0002-V2-A,45445343-4830-4303-9032-2d56322d412e,V2.0*
G04 #@! TF.SameCoordinates,PX3235458PY54a6c6c*
G04 #@! TF.FileFunction,Legend,Top*
G04 #@! TF.FilePolarity,Positive*
%FSLAX46Y46*%
G04 Gerber Fmt 4.6, Leading zero omitted, Abs format (unit mm)*
G04 Created by KiCad (PCBNEW (5.99.0-2858-ga3fc028c9b)) date 2020-08-26 16:16:25*
%MOMM*%
%LPD*%
G01*
G04 APERTURE LIST*
%ADD10C,0.250000*%
%ADD11C,0.150000*%
%ADD12C,0.500000*%
%ADD13C,0.120000*%
%ADD14C,0.200000*%
%ADD15C,0.010000*%
G04 APERTURE END LIST*
D10*
X93823047Y17857120D02*
X93251618Y17857120D01*
X93537333Y17857120D02*
X93537333Y18857120D01*
X93442094Y18714262D01*
X93346856Y18619024D01*
X93251618Y18571405D01*
X94203999Y18761881D02*
X94251618Y18809500D01*
X94346856Y18857120D01*
X94584952Y18857120D01*
X94680190Y18809500D01*
X94727809Y18761881D01*
X94775428Y18666643D01*
X94775428Y18571405D01*
X94727809Y18428548D01*
X94156380Y17857120D01*
X94775428Y17857120D01*
X95680190Y18857120D02*
X95203999Y18857120D01*
X95156380Y18380929D01*
X95203999Y18428548D01*
X95299237Y18476167D01*
X95537333Y18476167D01*
X95632571Y18428548D01*
X95680190Y18380929D01*
X95727809Y18285691D01*
X95727809Y18047596D01*
X95680190Y17952358D01*
X95632571Y17904739D01*
X95537333Y17857120D01*
X95299237Y17857120D01*
X95203999Y17904739D01*
X95156380Y17952358D01*
X96156380Y17857120D02*
X96156380Y18857120D01*
X96489714Y18142834D01*
X96823047Y18857120D01*
X96823047Y17857120D01*
X97299237Y17857120D02*
X97299237Y18857120D01*
X97299237Y18380929D02*
X97870666Y18380929D01*
X97870666Y17857120D02*
X97870666Y18857120D01*
X98251618Y18523786D02*
X98775428Y18523786D01*
X98251618Y17857120D01*
X98775428Y17857120D01*
X93823047Y6860120D02*
X93251618Y6860120D01*
X93537333Y6860120D02*
X93537333Y7860120D01*
X93442094Y7717262D01*
X93346856Y7622024D01*
X93251618Y7574405D01*
X94442094Y7860120D02*
X94537333Y7860120D01*
X94632571Y7812500D01*
X94680190Y7764881D01*
X94727809Y7669643D01*
X94775428Y7479167D01*
X94775428Y7241072D01*
X94727809Y7050596D01*
X94680190Y6955358D01*
X94632571Y6907739D01*
X94537333Y6860120D01*
X94442094Y6860120D01*
X94346856Y6907739D01*
X94299237Y6955358D01*
X94251618Y7050596D01*
X94203999Y7241072D01*
X94203999Y7479167D01*
X94251618Y7669643D01*
X94299237Y7764881D01*
X94346856Y7812500D01*
X94442094Y7860120D01*
X95394475Y7860120D02*
X95489714Y7860120D01*
X95584952Y7812500D01*
X95632571Y7764881D01*
X95680190Y7669643D01*
X95727809Y7479167D01*
X95727809Y7241072D01*
X95680190Y7050596D01*
X95632571Y6955358D01*
X95584952Y6907739D01*
X95489714Y6860120D01*
X95394475Y6860120D01*
X95299237Y6907739D01*
X95251618Y6955358D01*
X95203999Y7050596D01*
X95156380Y7241072D01*
X95156380Y7479167D01*
X95203999Y7669643D01*
X95251618Y7764881D01*
X95299237Y7812500D01*
X95394475Y7860120D01*
X96156380Y6860120D02*
X96156380Y7860120D01*
X96489714Y7145834D01*
X96823047Y7860120D01*
X96823047Y6860120D01*
X97299237Y6860120D02*
X97299237Y7860120D01*
X97299237Y7383929D02*
X97870666Y7383929D01*
X97870666Y6860120D02*
X97870666Y7860120D01*
X98251618Y7526786D02*
X98775428Y7526786D01*
X98251618Y6860120D01*
X98775428Y6860120D01*
D11*
X60483761Y14205191D02*
X60598047Y14167096D01*
X60788523Y14167096D01*
X60864714Y14205191D01*
X60902809Y14243286D01*
X60940904Y14319477D01*
X60940904Y14395667D01*
X60902809Y14471858D01*
X60864714Y14509953D01*
X60788523Y14548048D01*
X60636142Y14586143D01*
X60559952Y14624239D01*
X60521857Y14662334D01*
X60483761Y14738524D01*
X60483761Y14814715D01*
X60521857Y14890905D01*
X60559952Y14929000D01*
X60636142Y14967096D01*
X60826619Y14967096D01*
X60940904Y14929000D01*
X61283761Y14586143D02*
X61550428Y14586143D01*
X61664714Y14167096D02*
X61283761Y14167096D01*
X61283761Y14967096D01*
X61664714Y14967096D01*
X62388523Y14167096D02*
X62007571Y14167096D01*
X62007571Y14967096D01*
X63074238Y14167096D02*
X62617095Y14167096D01*
X62845666Y14167096D02*
X62845666Y14967096D01*
X62769476Y14852810D01*
X62693285Y14776620D01*
X62617095Y14738524D01*
X55784761Y14205191D02*
X55899047Y14167096D01*
X56089523Y14167096D01*
X56165714Y14205191D01*
X56203809Y14243286D01*
X56241904Y14319477D01*
X56241904Y14395667D01*
X56203809Y14471858D01*
X56165714Y14509953D01*
X56089523Y14548048D01*
X55937142Y14586143D01*
X55860952Y14624239D01*
X55822857Y14662334D01*
X55784761Y14738524D01*
X55784761Y14814715D01*
X55822857Y14890905D01*
X55860952Y14929000D01*
X55937142Y14967096D01*
X56127619Y14967096D01*
X56241904Y14929000D01*
X56584761Y14586143D02*
X56851428Y14586143D01*
X56965714Y14167096D02*
X56584761Y14167096D01*
X56584761Y14967096D01*
X56965714Y14967096D01*
X57689523Y14167096D02*
X57308571Y14167096D01*
X57308571Y14967096D01*
X58108571Y14967096D02*
X58184761Y14967096D01*
X58260952Y14929000D01*
X58299047Y14890905D01*
X58337142Y14814715D01*
X58375238Y14662334D01*
X58375238Y14471858D01*
X58337142Y14319477D01*
X58299047Y14243286D01*
X58260952Y14205191D01*
X58184761Y14167096D01*
X58108571Y14167096D01*
X58032380Y14205191D01*
X57994285Y14243286D01*
X57956190Y14319477D01*
X57918095Y14471858D01*
X57918095Y14662334D01*
X57956190Y14814715D01*
X57994285Y14890905D01*
X58032380Y14929000D01*
X58108571Y14967096D01*
D10*
X93823047Y28346120D02*
X93251619Y28346120D01*
X93537333Y28346120D02*
X93537333Y29346120D01*
X93442095Y29203262D01*
X93346857Y29108024D01*
X93251619Y29060405D01*
X94680190Y29012786D02*
X94680190Y28346120D01*
X94442095Y29393739D02*
X94204000Y28679453D01*
X94823047Y28679453D01*
X95346857Y28917548D02*
X95251619Y28965167D01*
X95204000Y29012786D01*
X95156380Y29108024D01*
X95156380Y29155643D01*
X95204000Y29250881D01*
X95251619Y29298500D01*
X95346857Y29346120D01*
X95537333Y29346120D01*
X95632571Y29298500D01*
X95680190Y29250881D01*
X95727809Y29155643D01*
X95727809Y29108024D01*
X95680190Y29012786D01*
X95632571Y28965167D01*
X95537333Y28917548D01*
X95346857Y28917548D01*
X95251619Y28869929D01*
X95204000Y28822310D01*
X95156380Y28727072D01*
X95156380Y28536596D01*
X95204000Y28441358D01*
X95251619Y28393739D01*
X95346857Y28346120D01*
X95537333Y28346120D01*
X95632571Y28393739D01*
X95680190Y28441358D01*
X95727809Y28536596D01*
X95727809Y28727072D01*
X95680190Y28822310D01*
X95632571Y28869929D01*
X95537333Y28917548D01*
X96156380Y28441358D02*
X96204000Y28393739D01*
X96156380Y28346120D01*
X96108761Y28393739D01*
X96156380Y28441358D01*
X96156380Y28346120D01*
X97108761Y29346120D02*
X96632571Y29346120D01*
X96584952Y28869929D01*
X96632571Y28917548D01*
X96727809Y28965167D01*
X96965904Y28965167D01*
X97061142Y28917548D01*
X97108761Y28869929D01*
X97156380Y28774691D01*
X97156380Y28536596D01*
X97108761Y28441358D01*
X97061142Y28393739D01*
X96965904Y28346120D01*
X96727809Y28346120D01*
X96632571Y28393739D01*
X96584952Y28441358D01*
X97584952Y28346120D02*
X97584952Y29346120D01*
X97918285Y28631834D01*
X98251619Y29346120D01*
X98251619Y28346120D01*
X98727809Y28346120D02*
X98727809Y29346120D01*
X98727809Y28869929D02*
X99299238Y28869929D01*
X99299238Y28346120D02*
X99299238Y29346120D01*
X99680190Y29012786D02*
X100204000Y29012786D01*
X99680190Y28346120D01*
X100204000Y28346120D01*
D12*
X48221797Y40389239D02*
X48638464Y38389239D01*
X49555130Y40389239D01*
X50745607Y38484477D02*
X50543226Y38389239D01*
X50162273Y38389239D01*
X49983702Y38484477D01*
X49912273Y38674953D01*
X50007511Y39436858D01*
X50126559Y39627334D01*
X50328940Y39722572D01*
X50709892Y39722572D01*
X50888464Y39627334D01*
X50959892Y39436858D01*
X50936083Y39246381D01*
X49959892Y39055905D01*
X51602749Y38484477D02*
X51876559Y38389239D01*
X52352749Y38389239D01*
X52555130Y38484477D01*
X52662273Y38579715D01*
X52781321Y38770191D01*
X52805130Y38960667D01*
X52733702Y39151143D01*
X52650369Y39246381D01*
X52471797Y39341620D01*
X52102749Y39436858D01*
X51924178Y39532096D01*
X51840845Y39627334D01*
X51769416Y39817810D01*
X51793226Y40008286D01*
X51912273Y40198762D01*
X52019416Y40294000D01*
X52221797Y40389239D01*
X52697988Y40389239D01*
X52971797Y40294000D01*
X53590845Y38389239D02*
X53840845Y40389239D01*
X54602749Y40389239D01*
X54781321Y40294000D01*
X54864654Y40198762D01*
X54936083Y40008286D01*
X54900369Y39722572D01*
X54781321Y39532096D01*
X54674178Y39436858D01*
X54471797Y39341620D01*
X53709892Y39341620D01*
X55567035Y38960667D02*
X56519416Y38960667D01*
X55305130Y38389239D02*
X56221797Y40389239D01*
X56638464Y38389239D01*
X58924178Y39151143D02*
X60447988Y39151143D01*
X62828940Y38389239D02*
X63078940Y40389239D01*
X63840845Y40389239D01*
X64019416Y40294000D01*
X64102749Y40198762D01*
X64174178Y40008286D01*
X64138464Y39722572D01*
X64019416Y39532096D01*
X63912273Y39436858D01*
X63709892Y39341620D01*
X62947988Y39341620D01*
X65995607Y38579715D02*
X65888464Y38484477D01*
X65590845Y38389239D01*
X65400369Y38389239D01*
X65126559Y38484477D01*
X64959892Y38674953D01*
X64888464Y38865429D01*
X64840845Y39246381D01*
X64876559Y39532096D01*
X65019416Y39913048D01*
X65138464Y40103524D01*
X65352749Y40294000D01*
X65650369Y40389239D01*
X65840845Y40389239D01*
X66114654Y40294000D01*
X66197988Y40198762D01*
X66828940Y38389239D02*
X67078940Y40389239D01*
X68555130Y38484477D02*
X68352749Y38389239D01*
X67971797Y38389239D01*
X67793226Y38484477D01*
X67721797Y38674953D01*
X67817035Y39436858D01*
X67936083Y39627334D01*
X68138464Y39722572D01*
X68519416Y39722572D01*
X68697988Y39627334D01*
X68769416Y39436858D01*
X68745607Y39246381D01*
X67769416Y39055905D01*
X71150369Y39436858D02*
X71817035Y39436858D01*
X71971797Y38389239D02*
X71019416Y38389239D01*
X71269416Y40389239D01*
X72221797Y40389239D01*
X72793226Y40389239D02*
X73209892Y38389239D01*
X74126559Y40389239D01*
X74519416Y38960667D02*
X75471797Y38960667D01*
X74257511Y38389239D02*
X75174178Y40389239D01*
X75590845Y38389239D01*
X77209892Y38389239D02*
X76257511Y38389239D01*
X76507511Y40389239D01*
X79400369Y38389239D02*
X79650369Y40389239D01*
X80412273Y40389239D01*
X80590845Y40294000D01*
X80674178Y40198762D01*
X80745607Y40008286D01*
X80709892Y39722572D01*
X80590845Y39532096D01*
X80483702Y39436858D01*
X80281321Y39341620D01*
X79519416Y39341620D01*
X82352749Y38389239D02*
X81400369Y38389239D01*
X81650369Y40389239D01*
X83269416Y40389239D02*
X83067035Y38770191D01*
X83138464Y38579715D01*
X83221797Y38484477D01*
X83400369Y38389239D01*
X83781321Y38389239D01*
X83983702Y38484477D01*
X84090845Y38579715D01*
X84209892Y38770191D01*
X84412273Y40389239D01*
X86400369Y40294000D02*
X86221797Y40389239D01*
X85936083Y40389239D01*
X85638464Y40294000D01*
X85424178Y40103524D01*
X85305130Y39913048D01*
X85162273Y39532096D01*
X85126559Y39246381D01*
X85174178Y38865429D01*
X85245607Y38674953D01*
X85412273Y38484477D01*
X85686083Y38389239D01*
X85876559Y38389239D01*
X86174178Y38484477D01*
X86281321Y38579715D01*
X86364654Y39246381D01*
X85983702Y39246381D01*
X88614654Y39722572D02*
X88924178Y38389239D01*
X89567035Y39722572D01*
X90293226Y40198762D02*
X90400369Y40294000D01*
X90602749Y40389239D01*
X91078940Y40389239D01*
X91257511Y40294000D01*
X91340845Y40198762D01*
X91412273Y40008286D01*
X91388464Y39817810D01*
X91257511Y39532096D01*
X89971797Y38389239D01*
X91209892Y38389239D01*
X92090845Y38579715D02*
X92174178Y38484477D01*
X92067035Y38389239D01*
X91983702Y38484477D01*
X92090845Y38579715D01*
X92067035Y38389239D01*
X93650369Y40389239D02*
X93840845Y40389239D01*
X94019416Y40294000D01*
X94102750Y40198762D01*
X94174178Y40008286D01*
X94221797Y39627334D01*
X94162273Y39151143D01*
X94019416Y38770191D01*
X93900369Y38579715D01*
X93793226Y38484477D01*
X93590845Y38389239D01*
X93400369Y38389239D01*
X93221797Y38484477D01*
X93138464Y38579715D01*
X93067035Y38770191D01*
X93019416Y39151143D01*
X93078940Y39627334D01*
X93221797Y40008286D01*
X93340845Y40198762D01*
X93447988Y40294000D01*
X93650369Y40389239D01*
D13*
X88195000Y8620000D02*
X88195000Y5960000D01*
X88195000Y8620000D02*
X85595000Y8620000D01*
X88195000Y5960000D02*
X85595000Y5960000D01*
X90795000Y8620000D02*
X90795000Y7290000D01*
X85595000Y8620000D02*
X85595000Y5960000D01*
X89465000Y8620000D02*
X90795000Y8620000D01*
X89465000Y19617000D02*
X90795000Y19617000D01*
X85595000Y19617000D02*
X85595000Y16957000D01*
X90795000Y19617000D02*
X90795000Y18287000D01*
X88195000Y16957000D02*
X85595000Y16957000D01*
X88195000Y19617000D02*
X85595000Y19617000D01*
X88195000Y19617000D02*
X88195000Y16957000D01*
X88195000Y27446000D02*
X85595000Y27446000D01*
X85595000Y30106000D02*
X85595000Y27446000D01*
X88195000Y30106000D02*
X88195000Y27446000D01*
X88195000Y30106000D02*
X85595000Y30106000D01*
X90795000Y30106000D02*
X90795000Y28776000D01*
X89465000Y30106000D02*
X90795000Y30106000D01*
X63060000Y16942000D02*
X63060000Y15612000D01*
X63060000Y18212000D02*
X60400000Y18212000D01*
X63060000Y20812000D02*
X60400000Y20812000D01*
X63060000Y15612000D02*
X61730000Y15612000D01*
X63060000Y18212000D02*
X63060000Y20812000D01*
X60400000Y18212000D02*
X60400000Y20812000D01*
D11*
X70250000Y30552000D02*
X65800000Y30552000D01*
X71775000Y23652000D02*
X65800000Y23652000D01*
D13*
X31427000Y23294000D02*
X31427000Y22294000D01*
X41427000Y26294000D02*
X41427000Y27294000D01*
X40427000Y22294000D02*
X41427000Y22294000D01*
X32427000Y27294000D02*
X31427000Y27294000D01*
X31427000Y27294000D02*
X31427000Y26294000D01*
X31427000Y22294000D02*
X32427000Y22294000D01*
X41427000Y27294000D02*
X40427000Y27294000D01*
X41427000Y22294000D02*
X41427000Y23294000D01*
X28088064Y27377000D02*
X26883936Y27377000D01*
X28088064Y25557000D02*
X26883936Y25557000D01*
X44920936Y27377000D02*
X46125064Y27377000D01*
X44920936Y25557000D02*
X46125064Y25557000D01*
X19344500Y10110200D02*
X19344500Y11480200D01*
X16859500Y10110200D02*
X19344500Y10110200D01*
X19344500Y11480200D02*
X16859500Y11480200D01*
D14*
X43968800Y15581600D02*
X43968800Y1581600D01*
X23968800Y15581600D02*
X43968800Y15581600D01*
X23968800Y1581600D02*
X23968800Y15581600D01*
G36*
X73476522Y5234688D02*
G01*
X73492768Y5305910D01*
X73518405Y5376636D01*
X73542401Y5429007D01*
X73601020Y5524304D01*
X73679117Y5612330D01*
X73774315Y5691483D01*
X73884238Y5760160D01*
X74006510Y5816759D01*
X74138755Y5859679D01*
X74203422Y5874618D01*
X74339604Y5896723D01*
X74488049Y5911306D01*
X74639505Y5917687D01*
X74766064Y5916055D01*
X74927950Y5909276D01*
X74920530Y5968255D01*
X74901238Y6067408D01*
X74870104Y6148128D01*
X74826269Y6211034D01*
X74768871Y6256744D01*
X74697048Y6285878D01*
X74609941Y6299053D01*
X74506686Y6296889D01*
X74468711Y6292888D01*
X74327520Y6267720D01*
X74190707Y6226686D01*
X74096178Y6188685D01*
X74051018Y6169310D01*
X74012585Y6153740D01*
X73986234Y6144095D01*
X73978546Y6142048D01*
X73968802Y6151126D01*
X73952083Y6180095D01*
X73928232Y6229283D01*
X73897093Y6299016D01*
X73858507Y6389621D01*
X73851910Y6405411D01*
X73821853Y6477728D01*
X73794874Y6543075D01*
X73772136Y6598594D01*
X73754806Y6641428D01*
X73744048Y6668719D01*
X73740941Y6677558D01*
X73750940Y6682313D01*
X73777217Y6687590D01*
X73805489Y6691269D01*
X73835646Y6696026D01*
X73883433Y6705472D01*
X73944612Y6718680D01*
X74014946Y6734724D01*
X74090194Y6752680D01*
X74118755Y6759703D01*
X74223816Y6785291D01*
X74311480Y6805353D01*
X74386068Y6820531D01*
X74451903Y6831465D01*
X74513307Y6838796D01*
X74574602Y6843165D01*
X74640110Y6845213D01*
X74698128Y6845611D01*
X74867574Y6838948D01*
X75019492Y6818933D01*
X75154756Y6785298D01*
X75274239Y6737775D01*
X75378815Y6676095D01*
X75456424Y6612535D01*
X75525265Y6538401D01*
X75579006Y6458629D01*
X75621910Y6366409D01*
X75637384Y6323339D01*
X75650244Y6284358D01*
X75661446Y6248211D01*
X75671120Y6213066D01*
X75679396Y6177090D01*
X75686403Y6138450D01*
X75692272Y6095315D01*
X75697131Y6045851D01*
X75701110Y5988227D01*
X75704340Y5920609D01*
X75706949Y5841166D01*
X75709067Y5748064D01*
X75710824Y5639473D01*
X75712349Y5513558D01*
X75713772Y5368488D01*
X75715025Y5225722D01*
X75716351Y5069532D01*
X75717556Y4934261D01*
X75718766Y4818254D01*
X75720106Y4719855D01*
X75721700Y4637407D01*
X75723675Y4569254D01*
X75726156Y4513740D01*
X75729269Y4469208D01*
X75733138Y4434002D01*
X75737889Y4406466D01*
X75743648Y4384944D01*
X75750539Y4367778D01*
X75758689Y4353314D01*
X75768223Y4339894D01*
X75779266Y4325862D01*
X75783566Y4320429D01*
X75799386Y4297590D01*
X75806422Y4282037D01*
X75806444Y4281578D01*
X75795567Y4279379D01*
X75764582Y4277353D01*
X75715957Y4275558D01*
X75652163Y4274049D01*
X75575669Y4272884D01*
X75488944Y4272120D01*
X75394457Y4271814D01*
X75383550Y4271811D01*
X74960657Y4271811D01*
X74957395Y4367878D01*
X74954133Y4463944D01*
X74892044Y4412957D01*
X74794714Y4345443D01*
X74684813Y4290751D01*
X74598349Y4260522D01*
X74529278Y4245834D01*
X74445925Y4235841D01*
X74356159Y4230854D01*
X74267845Y4231187D01*
X74188851Y4237149D01*
X74152622Y4242862D01*
X74012603Y4280724D01*
X73886178Y4335568D01*
X73774260Y4406576D01*
X73677762Y4492932D01*
X73597600Y4593821D01*
X73534687Y4708424D01*
X73490312Y4834516D01*
X73477978Y4891099D01*
X73470368Y4953298D01*
X73466739Y5028137D01*
X73466245Y5062033D01*
X73466310Y5065218D01*
X74226248Y5065218D01*
X74235541Y4990167D01*
X74263728Y4926340D01*
X74312197Y4870702D01*
X74317254Y4866289D01*
X74365548Y4831463D01*
X74417257Y4808880D01*
X74477989Y4796960D01*
X74553352Y4794117D01*
X74571459Y4794522D01*
X74625278Y4797175D01*
X74665308Y4802591D01*
X74700324Y4812755D01*
X74739103Y4829650D01*
X74749745Y4834828D01*
X74810396Y4870656D01*
X74857215Y4913288D01*
X74869952Y4928527D01*
X74914622Y4985038D01*
X74914622Y5180914D01*
X74914086Y5259561D01*
X74912396Y5317512D01*
X74909428Y5356625D01*
X74905057Y5378759D01*
X74900972Y5385226D01*
X74885047Y5388389D01*
X74851264Y5391012D01*
X74804340Y5392845D01*
X74748993Y5393643D01*
X74740106Y5393658D01*
X74619330Y5388404D01*
X74516660Y5372237D01*
X74430106Y5344539D01*
X74357681Y5304692D01*
X74302751Y5257742D01*
X74258204Y5199855D01*
X74233480Y5136807D01*
X74226248Y5065218D01*
X73466310Y5065218D01*
X73468178Y5155788D01*
X73476522Y5234688D01*
G37*
D15*
X73476522Y5234688D02*
X73492768Y5305910D01*
X73518405Y5376636D01*
X73542401Y5429007D01*
X73601020Y5524304D01*
X73679117Y5612330D01*
X73774315Y5691483D01*
X73884238Y5760160D01*
X74006510Y5816759D01*
X74138755Y5859679D01*
X74203422Y5874618D01*
X74339604Y5896723D01*
X74488049Y5911306D01*
X74639505Y5917687D01*
X74766064Y5916055D01*
X74927950Y5909276D01*
X74920530Y5968255D01*
X74901238Y6067408D01*
X74870104Y6148128D01*
X74826269Y6211034D01*
X74768871Y6256744D01*
X74697048Y6285878D01*
X74609941Y6299053D01*
X74506686Y6296889D01*
X74468711Y6292888D01*
X74327520Y6267720D01*
X74190707Y6226686D01*
X74096178Y6188685D01*
X74051018Y6169310D01*
X74012585Y6153740D01*
X73986234Y6144095D01*
X73978546Y6142048D01*
X73968802Y6151126D01*
X73952083Y6180095D01*
X73928232Y6229283D01*
X73897093Y6299016D01*
X73858507Y6389621D01*
X73851910Y6405411D01*
X73821853Y6477728D01*
X73794874Y6543075D01*
X73772136Y6598594D01*
X73754806Y6641428D01*
X73744048Y6668719D01*
X73740941Y6677558D01*
X73750940Y6682313D01*
X73777217Y6687590D01*
X73805489Y6691269D01*
X73835646Y6696026D01*
X73883433Y6705472D01*
X73944612Y6718680D01*
X74014946Y6734724D01*
X74090194Y6752680D01*
X74118755Y6759703D01*
X74223816Y6785291D01*
X74311480Y6805353D01*
X74386068Y6820531D01*
X74451903Y6831465D01*
X74513307Y6838796D01*
X74574602Y6843165D01*
X74640110Y6845213D01*
X74698128Y6845611D01*
X74867574Y6838948D01*
X75019492Y6818933D01*
X75154756Y6785298D01*
X75274239Y6737775D01*
X75378815Y6676095D01*
X75456424Y6612535D01*
X75525265Y6538401D01*
X75579006Y6458629D01*
X75621910Y6366409D01*
X75637384Y6323339D01*
X75650244Y6284358D01*
X75661446Y6248211D01*
X75671120Y6213066D01*
X75679396Y6177090D01*
X75686403Y6138450D01*
X75692272Y6095315D01*
X75697131Y6045851D01*
X75701110Y5988227D01*
X75704340Y5920609D01*
X75706949Y5841166D01*
X75709067Y5748064D01*
X75710824Y5639473D01*
X75712349Y5513558D01*
X75713772Y5368488D01*
X75715025Y5225722D01*
X75716351Y5069532D01*
X75717556Y4934261D01*
X75718766Y4818254D01*
X75720106Y4719855D01*
X75721700Y4637407D01*
X75723675Y4569254D01*
X75726156Y4513740D01*
X75729269Y4469208D01*
X75733138Y4434002D01*
X75737889Y4406466D01*
X75743648Y4384944D01*
X75750539Y4367778D01*
X75758689Y4353314D01*
X75768223Y4339894D01*
X75779266Y4325862D01*
X75783566Y4320429D01*
X75799386Y4297590D01*
X75806422Y4282037D01*
X75806444Y4281578D01*
X75795567Y4279379D01*
X75764582Y4277353D01*
X75715957Y4275558D01*
X75652163Y4274049D01*
X75575669Y4272884D01*
X75488944Y4272120D01*
X75394457Y4271814D01*
X75383550Y4271811D01*
X74960657Y4271811D01*
X74957395Y4367878D01*
X74954133Y4463944D01*
X74892044Y4412957D01*
X74794714Y4345443D01*
X74684813Y4290751D01*
X74598349Y4260522D01*
X74529278Y4245834D01*
X74445925Y4235841D01*
X74356159Y4230854D01*
X74267845Y4231187D01*
X74188851Y4237149D01*
X74152622Y4242862D01*
X74012603Y4280724D01*
X73886178Y4335568D01*
X73774260Y4406576D01*
X73677762Y4492932D01*
X73597600Y4593821D01*
X73534687Y4708424D01*
X73490312Y4834516D01*
X73477978Y4891099D01*
X73470368Y4953298D01*
X73466739Y5028137D01*
X73466245Y5062033D01*
X73466310Y5065218D01*
X74226248Y5065218D01*
X74235541Y4990167D01*
X74263728Y4926340D01*
X74312197Y4870702D01*
X74317254Y4866289D01*
X74365548Y4831463D01*
X74417257Y4808880D01*
X74477989Y4796960D01*
X74553352Y4794117D01*
X74571459Y4794522D01*
X74625278Y4797175D01*
X74665308Y4802591D01*
X74700324Y4812755D01*
X74739103Y4829650D01*
X74749745Y4834828D01*
X74810396Y4870656D01*
X74857215Y4913288D01*
X74869952Y4928527D01*
X74914622Y4985038D01*
X74914622Y5180914D01*
X74914086Y5259561D01*
X74912396Y5317512D01*
X74909428Y5356625D01*
X74905057Y5378759D01*
X74900972Y5385226D01*
X74885047Y5388389D01*
X74851264Y5391012D01*
X74804340Y5392845D01*
X74748993Y5393643D01*
X74740106Y5393658D01*
X74619330Y5388404D01*
X74516660Y5372237D01*
X74430106Y5344539D01*
X74357681Y5304692D01*
X74302751Y5257742D01*
X74258204Y5199855D01*
X74233480Y5136807D01*
X74226248Y5065218D01*
X73466310Y5065218D01*
X73468178Y5155788D01*
X73476522Y5234688D01*
G36*
X69247600Y8216446D02*
G01*
X69258465Y8102507D01*
X69290082Y7994884D01*
X69340985Y7895885D01*
X69409707Y7807816D01*
X69494781Y7732984D01*
X69591768Y7675116D01*
X69698036Y7635495D01*
X69805050Y7616927D01*
X69910700Y7618066D01*
X70012875Y7637570D01*
X70109466Y7674094D01*
X70198362Y7726295D01*
X70277454Y7792827D01*
X70344631Y7872348D01*
X70397783Y7963513D01*
X70434801Y8064977D01*
X70453573Y8175398D01*
X70455511Y8225294D01*
X70455511Y8313233D01*
X70507440Y8313233D01*
X70543747Y8310389D01*
X70570645Y8298589D01*
X70597751Y8274851D01*
X70636133Y8236469D01*
X70636133Y6044898D01*
X70636124Y5782761D01*
X70636092Y5542259D01*
X70636028Y5322452D01*
X70635924Y5122399D01*
X70635773Y4941156D01*
X70635566Y4777784D01*
X70635294Y4631340D01*
X70634950Y4500883D01*
X70634526Y4385471D01*
X70634013Y4284162D01*
X70633403Y4196016D01*
X70632688Y4120090D01*
X70631860Y4055443D01*
X70630911Y4001133D01*
X70629833Y3956220D01*
X70628617Y3919760D01*
X70627255Y3890813D01*
X70625739Y3868437D01*
X70624062Y3851691D01*
X70622214Y3839632D01*
X70620187Y3831320D01*
X70617975Y3825813D01*
X70616892Y3823963D01*
X70612729Y3816951D01*
X70609195Y3810504D01*
X70605365Y3804600D01*
X70600318Y3799214D01*
X70593129Y3794322D01*
X70582877Y3789902D01*
X70568636Y3785928D01*
X70549486Y3782379D01*
X70524501Y3779230D01*
X70492760Y3776458D01*
X70453338Y3774039D01*
X70405314Y3771949D01*
X70347763Y3770165D01*
X70279763Y3768663D01*
X70200390Y3767420D01*
X70108721Y3766411D01*
X70003834Y3765615D01*
X69884804Y3765006D01*
X69750710Y3764561D01*
X69600627Y3764257D01*
X69433633Y3764070D01*
X69248804Y3763976D01*
X69045217Y3763952D01*
X68821950Y3763975D01*
X68578078Y3764020D01*
X68312679Y3764063D01*
X68274296Y3764068D01*
X68007318Y3764111D01*
X67761998Y3764182D01*
X67537417Y3764287D01*
X67332655Y3764434D01*
X67146794Y3764631D01*
X66978912Y3764884D01*
X66828092Y3765200D01*
X66693413Y3765587D01*
X66573956Y3766053D01*
X66468801Y3766603D01*
X66377029Y3767247D01*
X66297721Y3767989D01*
X66229957Y3768839D01*
X66172818Y3769803D01*
X66125383Y3770889D01*
X66086734Y3772103D01*
X66055951Y3773453D01*
X66032115Y3774945D01*
X66014306Y3776589D01*
X66001605Y3778389D01*
X65993092Y3780355D01*
X65988734Y3782023D01*
X65980272Y3785594D01*
X65972503Y3788230D01*
X65965398Y3790866D01*
X65958927Y3794438D01*
X65953061Y3799879D01*
X65947771Y3808125D01*
X65943026Y3820110D01*
X65938798Y3836769D01*
X65935057Y3859037D01*
X65931773Y3887848D01*
X65928917Y3924137D01*
X65926460Y3968839D01*
X65924371Y4022889D01*
X65922622Y4087221D01*
X65921183Y4162770D01*
X65920024Y4250470D01*
X65919117Y4351257D01*
X65918431Y4466066D01*
X65917937Y4595830D01*
X65917605Y4741485D01*
X65917407Y4903965D01*
X65917313Y5084205D01*
X65917292Y5283140D01*
X65917315Y5501704D01*
X65917354Y5740832D01*
X65917378Y6001460D01*
X65917378Y6043611D01*
X65917364Y6306508D01*
X65917339Y6547768D01*
X65917329Y6768335D01*
X65917358Y6969148D01*
X65917452Y7151151D01*
X65917638Y7315284D01*
X65917941Y7462489D01*
X65918386Y7593708D01*
X65918966Y7703633D01*
X66221803Y7703633D01*
X66261593Y7645789D01*
X66272764Y7630021D01*
X66282834Y7616059D01*
X66291862Y7602716D01*
X66299903Y7588807D01*
X66307014Y7573144D01*
X66313253Y7554542D01*
X66318675Y7531814D01*
X66323338Y7503773D01*
X66327299Y7469233D01*
X66330615Y7427008D01*
X66333341Y7375911D01*
X66335536Y7314756D01*
X66337255Y7242356D01*
X66338556Y7157525D01*
X66339495Y7059078D01*
X66340130Y6945826D01*
X66340516Y6816584D01*
X66340712Y6670166D01*
X66340773Y6505384D01*
X66340757Y6321053D01*
X66340720Y6115987D01*
X66340711Y5993367D01*
X66340735Y5776418D01*
X66340769Y5580858D01*
X66340757Y5405501D01*
X66340642Y5249159D01*
X66340370Y5110643D01*
X66339882Y4988766D01*
X66339124Y4882340D01*
X66338038Y4790178D01*
X66336569Y4711091D01*
X66334660Y4643892D01*
X66332256Y4587393D01*
X66329299Y4540407D01*
X66325734Y4501745D01*
X66321505Y4470220D01*
X66316554Y4444645D01*
X66310827Y4423830D01*
X66304267Y4406589D01*
X66296817Y4391735D01*
X66288421Y4378078D01*
X66279024Y4364431D01*
X66268568Y4349607D01*
X66262477Y4340717D01*
X66223704Y4283100D01*
X66755268Y4283100D01*
X66878517Y4283135D01*
X66981013Y4283285D01*
X67064580Y4283622D01*
X67131044Y4284214D01*
X67182229Y4285133D01*
X67219959Y4286449D01*
X67246060Y4288231D01*
X67262356Y4290549D01*
X67270672Y4293474D01*
X67272832Y4297076D01*
X67270661Y4301425D01*
X67269465Y4302855D01*
X67244315Y4339927D01*
X67218417Y4392728D01*
X67194808Y4454730D01*
X67186539Y4481143D01*
X67181922Y4499084D01*
X67178021Y4520145D01*
X67174752Y4546411D01*
X67172034Y4579968D01*
X67169785Y4622901D01*
X67167923Y4677296D01*
X67166364Y4745238D01*
X67165028Y4828812D01*
X67163831Y4930105D01*
X67162692Y5051200D01*
X67162315Y5095900D01*
X67161298Y5221051D01*
X67160540Y5325418D01*
X67160097Y5410793D01*
X67160030Y5478967D01*
X67160395Y5531735D01*
X67161252Y5570886D01*
X67162659Y5598215D01*
X67164675Y5615514D01*
X67167357Y5624574D01*
X67170764Y5627188D01*
X67174956Y5625149D01*
X67179429Y5620833D01*
X67189784Y5607898D01*
X67211842Y5578824D01*
X67244043Y5535741D01*
X67284826Y5480782D01*
X67332630Y5416077D01*
X67385895Y5343758D01*
X67443060Y5265956D01*
X67502563Y5184802D01*
X67562845Y5102428D01*
X67622345Y5020964D01*
X67679502Y4942543D01*
X67732755Y4869296D01*
X67780543Y4803353D01*
X67821307Y4746846D01*
X67853484Y4701907D01*
X67875515Y4670666D01*
X67880083Y4664034D01*
X67903004Y4627131D01*
X67929812Y4579141D01*
X67955211Y4529603D01*
X67958432Y4522923D01*
X67980110Y4474728D01*
X67992696Y4437166D01*
X67998426Y4401340D01*
X67999544Y4359300D01*
X67998910Y4283100D01*
X69153349Y4283100D01*
X69148347Y4288243D01*
X69360489Y4288243D01*
X69371396Y4287166D01*
X69402589Y4286165D01*
X69451777Y4285265D01*
X69516667Y4284490D01*
X69594970Y4283863D01*
X69684393Y4283409D01*
X69782644Y4283151D01*
X69851555Y4283100D01*
X69956548Y4283320D01*
X70053390Y4283952D01*
X70139893Y4284951D01*
X70213868Y4286273D01*
X70273126Y4287874D01*
X70315480Y4289709D01*
X70338740Y4291735D01*
X70342622Y4293007D01*
X70334924Y4307909D01*
X70326926Y4315940D01*
X70313754Y4333066D01*
X70296515Y4363317D01*
X70284593Y4387878D01*
X70257955Y4446789D01*
X70254880Y5623655D01*
X70251805Y6800522D01*
X69806147Y6800522D01*
X69708330Y6800358D01*
X69617936Y6799889D01*
X69537370Y6799153D01*
X69469038Y6798184D01*
X69415344Y6797020D01*
X69378695Y6795697D01*
X69361496Y6794251D01*
X69360489Y6793798D01*
X69366398Y6780841D01*
X69380728Y6758592D01*
X69381775Y6757109D01*
X69400562Y6726956D01*
X69420209Y6690125D01*
X69424108Y6681989D01*
X69427644Y6673560D01*
X69430770Y6663441D01*
X69433514Y6650240D01*
X69435908Y6632562D01*
X69437981Y6609016D01*
X69439765Y6578207D01*
X69441288Y6538743D01*
X69442581Y6489231D01*
X69443674Y6428277D01*
X69444597Y6354489D01*
X69445381Y6266472D01*
X69446055Y6162835D01*
X69446650Y6042184D01*
X69447195Y5903126D01*
X69447721Y5744268D01*
X69448255Y5565411D01*
X69448794Y5380293D01*
X69449228Y5216355D01*
X69449491Y5072197D01*
X69449516Y4946421D01*
X69449235Y4837629D01*
X69448581Y4744423D01*
X69447486Y4665403D01*
X69445882Y4599172D01*
X69443703Y4544330D01*
X69440881Y4499479D01*
X69437349Y4463222D01*
X69433039Y4434159D01*
X69427883Y4410891D01*
X69421815Y4392021D01*
X69414767Y4376149D01*
X69406671Y4361878D01*
X69397460Y4347809D01*
X69388960Y4335342D01*
X69371824Y4309048D01*
X69361678Y4291463D01*
X69360489Y4288243D01*
X69148347Y4288243D01*
X69062185Y4376831D01*
X69015388Y4426725D01*
X68965101Y4483205D01*
X68919056Y4537474D01*
X68898631Y4562827D01*
X68868193Y4602372D01*
X68828138Y4655584D01*
X68779639Y4720833D01*
X68723865Y4796489D01*
X68661989Y4880923D01*
X68595181Y4972506D01*
X68524613Y5069608D01*
X68451455Y5170599D01*
X68376879Y5273850D01*
X68302056Y5377732D01*
X68228157Y5480615D01*
X68156354Y5580869D01*
X68087816Y5676864D01*
X68023716Y5766973D01*
X67965225Y5849564D01*
X67913514Y5923008D01*
X67869753Y5985676D01*
X67835115Y6035939D01*
X67810770Y6072166D01*
X67797889Y6092729D01*
X67796131Y6096832D01*
X67804090Y6108158D01*
X67824885Y6135338D01*
X67857153Y6176671D01*
X67899530Y6230456D01*
X67950653Y6294994D01*
X68009159Y6368582D01*
X68073686Y6449522D01*
X68142869Y6536112D01*
X68215347Y6626652D01*
X68289754Y6719440D01*
X68349483Y6793798D01*
X68364730Y6812778D01*
X68438910Y6904963D01*
X68510931Y6994296D01*
X68579431Y7079076D01*
X68643045Y7157602D01*
X68700412Y7228174D01*
X68750167Y7289091D01*
X68790948Y7338653D01*
X68808112Y7359322D01*
X68894404Y7459984D01*
X68971003Y7543241D01*
X69039817Y7611062D01*
X69102752Y7665411D01*
X69112133Y7672778D01*
X69151644Y7703383D01*
X68019884Y7703633D01*
X68025173Y7655656D01*
X68021870Y7598312D01*
X68000339Y7530037D01*
X67960365Y7450288D01*
X67915057Y7378005D01*
X67898839Y7355360D01*
X67870786Y7317804D01*
X67832570Y7267479D01*
X67785863Y7206527D01*
X67732339Y7137089D01*
X67673669Y7061306D01*
X67611525Y6981320D01*
X67547579Y6899272D01*
X67483505Y6817304D01*
X67420973Y6737557D01*
X67361657Y6662173D01*
X67307229Y6593293D01*
X67259361Y6533058D01*
X67219725Y6483611D01*
X67189994Y6447092D01*
X67171839Y6425642D01*
X67168780Y6422344D01*
X67165921Y6430351D01*
X67163707Y6460645D01*
X67162143Y6512944D01*
X67161233Y6586969D01*
X67160980Y6682437D01*
X67161387Y6799066D01*
X67162296Y6919055D01*
X67163618Y7051167D01*
X67165143Y7162906D01*
X67167119Y7256475D01*
X67169794Y7334081D01*
X67173418Y7397926D01*
X67178239Y7450217D01*
X67184506Y7493156D01*
X67192468Y7528949D01*
X67202373Y7559800D01*
X67214469Y7587914D01*
X67229007Y7615495D01*
X67243689Y7640534D01*
X67281686Y7703633D01*
X66221803Y7703633D01*
X65918966Y7703633D01*
X65918999Y7709883D01*
X65919805Y7811956D01*
X65920830Y7900867D01*
X65922100Y7977559D01*
X65923640Y8042973D01*
X65925476Y8098051D01*
X65927633Y8143735D01*
X65930137Y8180966D01*
X65933013Y8210687D01*
X65936287Y8233838D01*
X65939985Y8251361D01*
X65944131Y8264199D01*
X65948753Y8273292D01*
X65953874Y8279582D01*
X65959522Y8284012D01*
X65965721Y8287522D01*
X65972496Y8291055D01*
X65978492Y8294624D01*
X65983725Y8297200D01*
X65991901Y8299528D01*
X66004114Y8301622D01*
X66021459Y8303493D01*
X66045031Y8305153D01*
X66075923Y8306616D01*
X66115232Y8307892D01*
X66164050Y8308996D01*
X66223473Y8309939D01*
X66294596Y8310733D01*
X66378512Y8311391D01*
X66476317Y8311925D01*
X66589106Y8312347D01*
X66717971Y8312671D01*
X66864009Y8312908D01*
X67028314Y8313070D01*
X67211980Y8313170D01*
X67416103Y8313220D01*
X67627247Y8313233D01*
X69247600Y8313233D01*
X69247600Y8216446D01*
G37*
X69247600Y8216446D02*
X69258465Y8102507D01*
X69290082Y7994884D01*
X69340985Y7895885D01*
X69409707Y7807816D01*
X69494781Y7732984D01*
X69591768Y7675116D01*
X69698036Y7635495D01*
X69805050Y7616927D01*
X69910700Y7618066D01*
X70012875Y7637570D01*
X70109466Y7674094D01*
X70198362Y7726295D01*
X70277454Y7792827D01*
X70344631Y7872348D01*
X70397783Y7963513D01*
X70434801Y8064977D01*
X70453573Y8175398D01*
X70455511Y8225294D01*
X70455511Y8313233D01*
X70507440Y8313233D01*
X70543747Y8310389D01*
X70570645Y8298589D01*
X70597751Y8274851D01*
X70636133Y8236469D01*
X70636133Y6044898D01*
X70636124Y5782761D01*
X70636092Y5542259D01*
X70636028Y5322452D01*
X70635924Y5122399D01*
X70635773Y4941156D01*
X70635566Y4777784D01*
X70635294Y4631340D01*
X70634950Y4500883D01*
X70634526Y4385471D01*
X70634013Y4284162D01*
X70633403Y4196016D01*
X70632688Y4120090D01*
X70631860Y4055443D01*
X70630911Y4001133D01*
X70629833Y3956220D01*
X70628617Y3919760D01*
X70627255Y3890813D01*
X70625739Y3868437D01*
X70624062Y3851691D01*
X70622214Y3839632D01*
X70620187Y3831320D01*
X70617975Y3825813D01*
X70616892Y3823963D01*
X70612729Y3816951D01*
X70609195Y3810504D01*
X70605365Y3804600D01*
X70600318Y3799214D01*
X70593129Y3794322D01*
X70582877Y3789902D01*
X70568636Y3785928D01*
X70549486Y3782379D01*
X70524501Y3779230D01*
X70492760Y3776458D01*
X70453338Y3774039D01*
X70405314Y3771949D01*
X70347763Y3770165D01*
X70279763Y3768663D01*
X70200390Y3767420D01*
X70108721Y3766411D01*
X70003834Y3765615D01*
X69884804Y3765006D01*
X69750710Y3764561D01*
X69600627Y3764257D01*
X69433633Y3764070D01*
X69248804Y3763976D01*
X69045217Y3763952D01*
X68821950Y3763975D01*
X68578078Y3764020D01*
X68312679Y3764063D01*
X68274296Y3764068D01*
X68007318Y3764111D01*
X67761998Y3764182D01*
X67537417Y3764287D01*
X67332655Y3764434D01*
X67146794Y3764631D01*
X66978912Y3764884D01*
X66828092Y3765200D01*
X66693413Y3765587D01*
X66573956Y3766053D01*
X66468801Y3766603D01*
X66377029Y3767247D01*
X66297721Y3767989D01*
X66229957Y3768839D01*
X66172818Y3769803D01*
X66125383Y3770889D01*
X66086734Y3772103D01*
X66055951Y3773453D01*
X66032115Y3774945D01*
X66014306Y3776589D01*
X66001605Y3778389D01*
X65993092Y3780355D01*
X65988734Y3782023D01*
X65980272Y3785594D01*
X65972503Y3788230D01*
X65965398Y3790866D01*
X65958927Y3794438D01*
X65953061Y3799879D01*
X65947771Y3808125D01*
X65943026Y3820110D01*
X65938798Y3836769D01*
X65935057Y3859037D01*
X65931773Y3887848D01*
X65928917Y3924137D01*
X65926460Y3968839D01*
X65924371Y4022889D01*
X65922622Y4087221D01*
X65921183Y4162770D01*
X65920024Y4250470D01*
X65919117Y4351257D01*
X65918431Y4466066D01*
X65917937Y4595830D01*
X65917605Y4741485D01*
X65917407Y4903965D01*
X65917313Y5084205D01*
X65917292Y5283140D01*
X65917315Y5501704D01*
X65917354Y5740832D01*
X65917378Y6001460D01*
X65917378Y6043611D01*
X65917364Y6306508D01*
X65917339Y6547768D01*
X65917329Y6768335D01*
X65917358Y6969148D01*
X65917452Y7151151D01*
X65917638Y7315284D01*
X65917941Y7462489D01*
X65918386Y7593708D01*
X65918966Y7703633D01*
X66221803Y7703633D01*
X66261593Y7645789D01*
X66272764Y7630021D01*
X66282834Y7616059D01*
X66291862Y7602716D01*
X66299903Y7588807D01*
X66307014Y7573144D01*
X66313253Y7554542D01*
X66318675Y7531814D01*
X66323338Y7503773D01*
X66327299Y7469233D01*
X66330615Y7427008D01*
X66333341Y7375911D01*
X66335536Y7314756D01*
X66337255Y7242356D01*
X66338556Y7157525D01*
X66339495Y7059078D01*
X66340130Y6945826D01*
X66340516Y6816584D01*
X66340712Y6670166D01*
X66340773Y6505384D01*
X66340757Y6321053D01*
X66340720Y6115987D01*
X66340711Y5993367D01*
X66340735Y5776418D01*
X66340769Y5580858D01*
X66340757Y5405501D01*
X66340642Y5249159D01*
X66340370Y5110643D01*
X66339882Y4988766D01*
X66339124Y4882340D01*
X66338038Y4790178D01*
X66336569Y4711091D01*
X66334660Y4643892D01*
X66332256Y4587393D01*
X66329299Y4540407D01*
X66325734Y4501745D01*
X66321505Y4470220D01*
X66316554Y4444645D01*
X66310827Y4423830D01*
X66304267Y4406589D01*
X66296817Y4391735D01*
X66288421Y4378078D01*
X66279024Y4364431D01*
X66268568Y4349607D01*
X66262477Y4340717D01*
X66223704Y4283100D01*
X66755268Y4283100D01*
X66878517Y4283135D01*
X66981013Y4283285D01*
X67064580Y4283622D01*
X67131044Y4284214D01*
X67182229Y4285133D01*
X67219959Y4286449D01*
X67246060Y4288231D01*
X67262356Y4290549D01*
X67270672Y4293474D01*
X67272832Y4297076D01*
X67270661Y4301425D01*
X67269465Y4302855D01*
X67244315Y4339927D01*
X67218417Y4392728D01*
X67194808Y4454730D01*
X67186539Y4481143D01*
X67181922Y4499084D01*
X67178021Y4520145D01*
X67174752Y4546411D01*
X67172034Y4579968D01*
X67169785Y4622901D01*
X67167923Y4677296D01*
X67166364Y4745238D01*
X67165028Y4828812D01*
X67163831Y4930105D01*
X67162692Y5051200D01*
X67162315Y5095900D01*
X67161298Y5221051D01*
X67160540Y5325418D01*
X67160097Y5410793D01*
X67160030Y5478967D01*
X67160395Y5531735D01*
X67161252Y5570886D01*
X67162659Y5598215D01*
X67164675Y5615514D01*
X67167357Y5624574D01*
X67170764Y5627188D01*
X67174956Y5625149D01*
X67179429Y5620833D01*
X67189784Y5607898D01*
X67211842Y5578824D01*
X67244043Y5535741D01*
X67284826Y5480782D01*
X67332630Y5416077D01*
X67385895Y5343758D01*
X67443060Y5265956D01*
X67502563Y5184802D01*
X67562845Y5102428D01*
X67622345Y5020964D01*
X67679502Y4942543D01*
X67732755Y4869296D01*
X67780543Y4803353D01*
X67821307Y4746846D01*
X67853484Y4701907D01*
X67875515Y4670666D01*
X67880083Y4664034D01*
X67903004Y4627131D01*
X67929812Y4579141D01*
X67955211Y4529603D01*
X67958432Y4522923D01*
X67980110Y4474728D01*
X67992696Y4437166D01*
X67998426Y4401340D01*
X67999544Y4359300D01*
X67998910Y4283100D01*
X69153349Y4283100D01*
X69148347Y4288243D01*
X69360489Y4288243D01*
X69371396Y4287166D01*
X69402589Y4286165D01*
X69451777Y4285265D01*
X69516667Y4284490D01*
X69594970Y4283863D01*
X69684393Y4283409D01*
X69782644Y4283151D01*
X69851555Y4283100D01*
X69956548Y4283320D01*
X70053390Y4283952D01*
X70139893Y4284951D01*
X70213868Y4286273D01*
X70273126Y4287874D01*
X70315480Y4289709D01*
X70338740Y4291735D01*
X70342622Y4293007D01*
X70334924Y4307909D01*
X70326926Y4315940D01*
X70313754Y4333066D01*
X70296515Y4363317D01*
X70284593Y4387878D01*
X70257955Y4446789D01*
X70254880Y5623655D01*
X70251805Y6800522D01*
X69806147Y6800522D01*
X69708330Y6800358D01*
X69617936Y6799889D01*
X69537370Y6799153D01*
X69469038Y6798184D01*
X69415344Y6797020D01*
X69378695Y6795697D01*
X69361496Y6794251D01*
X69360489Y6793798D01*
X69366398Y6780841D01*
X69380728Y6758592D01*
X69381775Y6757109D01*
X69400562Y6726956D01*
X69420209Y6690125D01*
X69424108Y6681989D01*
X69427644Y6673560D01*
X69430770Y6663441D01*
X69433514Y6650240D01*
X69435908Y6632562D01*
X69437981Y6609016D01*
X69439765Y6578207D01*
X69441288Y6538743D01*
X69442581Y6489231D01*
X69443674Y6428277D01*
X69444597Y6354489D01*
X69445381Y6266472D01*
X69446055Y6162835D01*
X69446650Y6042184D01*
X69447195Y5903126D01*
X69447721Y5744268D01*
X69448255Y5565411D01*
X69448794Y5380293D01*
X69449228Y5216355D01*
X69449491Y5072197D01*
X69449516Y4946421D01*
X69449235Y4837629D01*
X69448581Y4744423D01*
X69447486Y4665403D01*
X69445882Y4599172D01*
X69443703Y4544330D01*
X69440881Y4499479D01*
X69437349Y4463222D01*
X69433039Y4434159D01*
X69427883Y4410891D01*
X69421815Y4392021D01*
X69414767Y4376149D01*
X69406671Y4361878D01*
X69397460Y4347809D01*
X69388960Y4335342D01*
X69371824Y4309048D01*
X69361678Y4291463D01*
X69360489Y4288243D01*
X69148347Y4288243D01*
X69062185Y4376831D01*
X69015388Y4426725D01*
X68965101Y4483205D01*
X68919056Y4537474D01*
X68898631Y4562827D01*
X68868193Y4602372D01*
X68828138Y4655584D01*
X68779639Y4720833D01*
X68723865Y4796489D01*
X68661989Y4880923D01*
X68595181Y4972506D01*
X68524613Y5069608D01*
X68451455Y5170599D01*
X68376879Y5273850D01*
X68302056Y5377732D01*
X68228157Y5480615D01*
X68156354Y5580869D01*
X68087816Y5676864D01*
X68023716Y5766973D01*
X67965225Y5849564D01*
X67913514Y5923008D01*
X67869753Y5985676D01*
X67835115Y6035939D01*
X67810770Y6072166D01*
X67797889Y6092729D01*
X67796131Y6096832D01*
X67804090Y6108158D01*
X67824885Y6135338D01*
X67857153Y6176671D01*
X67899530Y6230456D01*
X67950653Y6294994D01*
X68009159Y6368582D01*
X68073686Y6449522D01*
X68142869Y6536112D01*
X68215347Y6626652D01*
X68289754Y6719440D01*
X68349483Y6793798D01*
X68364730Y6812778D01*
X68438910Y6904963D01*
X68510931Y6994296D01*
X68579431Y7079076D01*
X68643045Y7157602D01*
X68700412Y7228174D01*
X68750167Y7289091D01*
X68790948Y7338653D01*
X68808112Y7359322D01*
X68894404Y7459984D01*
X68971003Y7543241D01*
X69039817Y7611062D01*
X69102752Y7665411D01*
X69112133Y7672778D01*
X69151644Y7703383D01*
X68019884Y7703633D01*
X68025173Y7655656D01*
X68021870Y7598312D01*
X68000339Y7530037D01*
X67960365Y7450288D01*
X67915057Y7378005D01*
X67898839Y7355360D01*
X67870786Y7317804D01*
X67832570Y7267479D01*
X67785863Y7206527D01*
X67732339Y7137089D01*
X67673669Y7061306D01*
X67611525Y6981320D01*
X67547579Y6899272D01*
X67483505Y6817304D01*
X67420973Y6737557D01*
X67361657Y6662173D01*
X67307229Y6593293D01*
X67259361Y6533058D01*
X67219725Y6483611D01*
X67189994Y6447092D01*
X67171839Y6425642D01*
X67168780Y6422344D01*
X67165921Y6430351D01*
X67163707Y6460645D01*
X67162143Y6512944D01*
X67161233Y6586969D01*
X67160980Y6682437D01*
X67161387Y6799066D01*
X67162296Y6919055D01*
X67163618Y7051167D01*
X67165143Y7162906D01*
X67167119Y7256475D01*
X67169794Y7334081D01*
X67173418Y7397926D01*
X67178239Y7450217D01*
X67184506Y7493156D01*
X67192468Y7528949D01*
X67202373Y7559800D01*
X67214469Y7587914D01*
X67229007Y7615495D01*
X67243689Y7640534D01*
X67281686Y7703633D01*
X66221803Y7703633D01*
X65918966Y7703633D01*
X65918999Y7709883D01*
X65919805Y7811956D01*
X65920830Y7900867D01*
X65922100Y7977559D01*
X65923640Y8042973D01*
X65925476Y8098051D01*
X65927633Y8143735D01*
X65930137Y8180966D01*
X65933013Y8210687D01*
X65936287Y8233838D01*
X65939985Y8251361D01*
X65944131Y8264199D01*
X65948753Y8273292D01*
X65953874Y8279582D01*
X65959522Y8284012D01*
X65965721Y8287522D01*
X65972496Y8291055D01*
X65978492Y8294624D01*
X65983725Y8297200D01*
X65991901Y8299528D01*
X66004114Y8301622D01*
X66021459Y8303493D01*
X66045031Y8305153D01*
X66075923Y8306616D01*
X66115232Y8307892D01*
X66164050Y8308996D01*
X66223473Y8309939D01*
X66294596Y8310733D01*
X66378512Y8311391D01*
X66476317Y8311925D01*
X66589106Y8312347D01*
X66717971Y8312671D01*
X66864009Y8312908D01*
X67028314Y8313070D01*
X67211980Y8313170D01*
X67416103Y8313220D01*
X67627247Y8313233D01*
X69247600Y8313233D01*
X69247600Y8216446D01*
G36*
X72522429Y7756429D02*
G01*
X72682570Y7735255D01*
X72846510Y7695115D01*
X73016313Y7635611D01*
X73194043Y7556346D01*
X73205310Y7550801D01*
X73263005Y7522775D01*
X73314552Y7498698D01*
X73356191Y7480251D01*
X73384162Y7469114D01*
X73393733Y7466567D01*
X73412950Y7461559D01*
X73417561Y7457353D01*
X73412458Y7446920D01*
X73396418Y7420632D01*
X73371288Y7381243D01*
X73338914Y7331509D01*
X73301143Y7274185D01*
X73259822Y7212024D01*
X73216798Y7147782D01*
X73173917Y7084215D01*
X73133026Y7024075D01*
X73095971Y6970120D01*
X73064600Y6925103D01*
X73040759Y6891779D01*
X73026294Y6872903D01*
X73024309Y6870713D01*
X73014191Y6875362D01*
X72991850Y6892538D01*
X72961280Y6919060D01*
X72945536Y6933536D01*
X72849047Y7008818D01*
X72742336Y7064259D01*
X72626832Y7099359D01*
X72503962Y7113620D01*
X72434561Y7112449D01*
X72313423Y7095288D01*
X72204205Y7059406D01*
X72106582Y7004541D01*
X72020228Y6930430D01*
X71944815Y6836812D01*
X71880018Y6723424D01*
X71842601Y6636833D01*
X71798748Y6501134D01*
X71766428Y6353650D01*
X71745557Y6198186D01*
X71736051Y6038544D01*
X71737827Y5878527D01*
X71750803Y5721939D01*
X71774894Y5572582D01*
X71810018Y5434260D01*
X71856092Y5310776D01*
X71872373Y5276522D01*
X71940620Y5162436D01*
X72021079Y5065943D01*
X72112570Y4987830D01*
X72213911Y4928883D01*
X72323920Y4889888D01*
X72441415Y4871632D01*
X72482883Y4870289D01*
X72604441Y4881210D01*
X72724878Y4914026D01*
X72842666Y4968061D01*
X72956277Y5042635D01*
X73047685Y5120961D01*
X73094215Y5165492D01*
X73275483Y4868229D01*
X73320580Y4794067D01*
X73361819Y4725854D01*
X73397735Y4666041D01*
X73426866Y4617080D01*
X73447750Y4581421D01*
X73458924Y4561516D01*
X73460375Y4558421D01*
X73452146Y4548782D01*
X73426567Y4531501D01*
X73386873Y4508217D01*
X73336297Y4480566D01*
X73278074Y4450185D01*
X73215437Y4418710D01*
X73151621Y4387778D01*
X73089860Y4359027D01*
X73033388Y4334092D01*
X72985438Y4314611D01*
X72961986Y4306182D01*
X72828221Y4268367D01*
X72690327Y4243364D01*
X72542622Y4230360D01*
X72415833Y4228032D01*
X72347878Y4229127D01*
X72282277Y4231225D01*
X72224847Y4234066D01*
X72181403Y4237394D01*
X72167298Y4239078D01*
X72028284Y4267913D01*
X71886757Y4313032D01*
X71749275Y4371750D01*
X71622394Y4441380D01*
X71544889Y4494059D01*
X71417481Y4602261D01*
X71299178Y4728829D01*
X71192172Y4870634D01*
X71098652Y5024549D01*
X71020810Y5187447D01*
X70976956Y5304744D01*
X70926708Y5488372D01*
X70893209Y5682919D01*
X70876449Y5884175D01*
X70876416Y6087932D01*
X70893101Y6289979D01*
X70926493Y6486108D01*
X70976580Y6672109D01*
X70980397Y6683697D01*
X71043281Y6845750D01*
X71120028Y6993668D01*
X71213242Y7131635D01*
X71325527Y7263839D01*
X71369392Y7309101D01*
X71505534Y7433043D01*
X71645491Y7535585D01*
X71791411Y7617844D01*
X71945442Y7680936D01*
X72109732Y7725977D01*
X72205289Y7743467D01*
X72364023Y7759034D01*
X72522429Y7756429D01*
G37*
X72522429Y7756429D02*
X72682570Y7735255D01*
X72846510Y7695115D01*
X73016313Y7635611D01*
X73194043Y7556346D01*
X73205310Y7550801D01*
X73263005Y7522775D01*
X73314552Y7498698D01*
X73356191Y7480251D01*
X73384162Y7469114D01*
X73393733Y7466567D01*
X73412950Y7461559D01*
X73417561Y7457353D01*
X73412458Y7446920D01*
X73396418Y7420632D01*
X73371288Y7381243D01*
X73338914Y7331509D01*
X73301143Y7274185D01*
X73259822Y7212024D01*
X73216798Y7147782D01*
X73173917Y7084215D01*
X73133026Y7024075D01*
X73095971Y6970120D01*
X73064600Y6925103D01*
X73040759Y6891779D01*
X73026294Y6872903D01*
X73024309Y6870713D01*
X73014191Y6875362D01*
X72991850Y6892538D01*
X72961280Y6919060D01*
X72945536Y6933536D01*
X72849047Y7008818D01*
X72742336Y7064259D01*
X72626832Y7099359D01*
X72503962Y7113620D01*
X72434561Y7112449D01*
X72313423Y7095288D01*
X72204205Y7059406D01*
X72106582Y7004541D01*
X72020228Y6930430D01*
X71944815Y6836812D01*
X71880018Y6723424D01*
X71842601Y6636833D01*
X71798748Y6501134D01*
X71766428Y6353650D01*
X71745557Y6198186D01*
X71736051Y6038544D01*
X71737827Y5878527D01*
X71750803Y5721939D01*
X71774894Y5572582D01*
X71810018Y5434260D01*
X71856092Y5310776D01*
X71872373Y5276522D01*
X71940620Y5162436D01*
X72021079Y5065943D01*
X72112570Y4987830D01*
X72213911Y4928883D01*
X72323920Y4889888D01*
X72441415Y4871632D01*
X72482883Y4870289D01*
X72604441Y4881210D01*
X72724878Y4914026D01*
X72842666Y4968061D01*
X72956277Y5042635D01*
X73047685Y5120961D01*
X73094215Y5165492D01*
X73275483Y4868229D01*
X73320580Y4794067D01*
X73361819Y4725854D01*
X73397735Y4666041D01*
X73426866Y4617080D01*
X73447750Y4581421D01*
X73458924Y4561516D01*
X73460375Y4558421D01*
X73452146Y4548782D01*
X73426567Y4531501D01*
X73386873Y4508217D01*
X73336297Y4480566D01*
X73278074Y4450185D01*
X73215437Y4418710D01*
X73151621Y4387778D01*
X73089860Y4359027D01*
X73033388Y4334092D01*
X72985438Y4314611D01*
X72961986Y4306182D01*
X72828221Y4268367D01*
X72690327Y4243364D01*
X72542622Y4230360D01*
X72415833Y4228032D01*
X72347878Y4229127D01*
X72282277Y4231225D01*
X72224847Y4234066D01*
X72181403Y4237394D01*
X72167298Y4239078D01*
X72028284Y4267913D01*
X71886757Y4313032D01*
X71749275Y4371750D01*
X71622394Y4441380D01*
X71544889Y4494059D01*
X71417481Y4602261D01*
X71299178Y4728829D01*
X71192172Y4870634D01*
X71098652Y5024549D01*
X71020810Y5187447D01*
X70976956Y5304744D01*
X70926708Y5488372D01*
X70893209Y5682919D01*
X70876449Y5884175D01*
X70876416Y6087932D01*
X70893101Y6289979D01*
X70926493Y6486108D01*
X70976580Y6672109D01*
X70980397Y6683697D01*
X71043281Y6845750D01*
X71120028Y6993668D01*
X71213242Y7131635D01*
X71325527Y7263839D01*
X71369392Y7309101D01*
X71505534Y7433043D01*
X71645491Y7535585D01*
X71791411Y7617844D01*
X71945442Y7680936D01*
X72109732Y7725977D01*
X72205289Y7743467D01*
X72364023Y7759034D01*
X72522429Y7756429D01*
G36*
X69920957Y8678929D02*
G01*
X70017232Y8654691D01*
X70103816Y8611859D01*
X70178627Y8552081D01*
X70239582Y8477006D01*
X70284601Y8388280D01*
X70310864Y8291970D01*
X70316714Y8194705D01*
X70301860Y8100846D01*
X70268160Y8012989D01*
X70217472Y7933730D01*
X70151655Y7865664D01*
X70072566Y7811388D01*
X69982066Y7773498D01*
X69930800Y7761074D01*
X69886302Y7753553D01*
X69852001Y7750581D01*
X69819040Y7752406D01*
X69778566Y7759275D01*
X69745469Y7766250D01*
X69652053Y7797759D01*
X69568381Y7848883D01*
X69496335Y7918071D01*
X69437800Y8003772D01*
X69423852Y8031011D01*
X69407414Y8067378D01*
X69397106Y8097918D01*
X69391540Y8130050D01*
X69389331Y8171193D01*
X69389052Y8217278D01*
X69393139Y8301635D01*
X69406554Y8370914D01*
X69431744Y8431539D01*
X69471154Y8489933D01*
X69509702Y8534198D01*
X69581594Y8600016D01*
X69656687Y8645447D01*
X69739438Y8672650D01*
X69817072Y8682924D01*
X69920957Y8678929D01*
G37*
X69920957Y8678929D02*
X70017232Y8654691D01*
X70103816Y8611859D01*
X70178627Y8552081D01*
X70239582Y8477006D01*
X70284601Y8388280D01*
X70310864Y8291970D01*
X70316714Y8194705D01*
X70301860Y8100846D01*
X70268160Y8012989D01*
X70217472Y7933730D01*
X70151655Y7865664D01*
X70072566Y7811388D01*
X69982066Y7773498D01*
X69930800Y7761074D01*
X69886302Y7753553D01*
X69852001Y7750581D01*
X69819040Y7752406D01*
X69778566Y7759275D01*
X69745469Y7766250D01*
X69652053Y7797759D01*
X69568381Y7848883D01*
X69496335Y7918071D01*
X69437800Y8003772D01*
X69423852Y8031011D01*
X69407414Y8067378D01*
X69397106Y8097918D01*
X69391540Y8130050D01*
X69389331Y8171193D01*
X69389052Y8217278D01*
X69393139Y8301635D01*
X69406554Y8370914D01*
X69431744Y8431539D01*
X69471154Y8489933D01*
X69509702Y8534198D01*
X69581594Y8600016D01*
X69656687Y8645447D01*
X69739438Y8672650D01*
X69817072Y8682924D01*
X69920957Y8678929D01*
G36*
X76037802Y5871441D02*
G01*
X76073786Y6050168D01*
X76123759Y6211655D01*
X76187668Y6355774D01*
X76265462Y6482394D01*
X76357089Y6591385D01*
X76462497Y6682617D01*
X76507662Y6713568D01*
X76608611Y6769715D01*
X76711901Y6809326D01*
X76821989Y6833486D01*
X76943330Y6843281D01*
X77035836Y6842235D01*
X77165490Y6831269D01*
X77278084Y6809454D01*
X77376875Y6775786D01*
X77465121Y6729264D01*
X77513986Y6695052D01*
X77543353Y6673138D01*
X77565043Y6658167D01*
X77573253Y6653767D01*
X77574868Y6664596D01*
X77576159Y6695249D01*
X77577138Y6742974D01*
X77577817Y6805021D01*
X77578210Y6878638D01*
X77578330Y6961073D01*
X77578188Y7049575D01*
X77577797Y7141393D01*
X77577171Y7233776D01*
X77576320Y7323972D01*
X77575260Y7409229D01*
X77574001Y7486797D01*
X77572556Y7553924D01*
X77570938Y7607859D01*
X77569161Y7645850D01*
X77568669Y7652833D01*
X77561092Y7723249D01*
X77549531Y7778398D01*
X77531792Y7825519D01*
X77505682Y7871853D01*
X77499415Y7881433D01*
X77474983Y7918122D01*
X78380311Y7918122D01*
X78380507Y6233255D01*
X78380526Y5998838D01*
X78380552Y5785897D01*
X78380625Y5593332D01*
X78380782Y5420041D01*
X78381064Y5264924D01*
X78381509Y5126880D01*
X78382156Y5004808D01*
X78383045Y4897606D01*
X78384213Y4804174D01*
X78385701Y4723410D01*
X78387546Y4654214D01*
X78389789Y4595485D01*
X78392469Y4546121D01*
X78395623Y4505022D01*
X78399292Y4471087D01*
X78403513Y4443214D01*
X78408327Y4420302D01*
X78413773Y4401251D01*
X78419888Y4384960D01*
X78426712Y4370327D01*
X78434285Y4356251D01*
X78442645Y4341632D01*
X78447839Y4332526D01*
X78482104Y4271811D01*
X77623955Y4271811D01*
X77623955Y4367767D01*
X77623224Y4411130D01*
X77621272Y4444295D01*
X77618463Y4462076D01*
X77617221Y4463722D01*
X77605799Y4456838D01*
X77583084Y4438995D01*
X77560385Y4419621D01*
X77505800Y4378886D01*
X77436321Y4337883D01*
X77359270Y4300377D01*
X77281965Y4270136D01*
X77251113Y4260488D01*
X77182616Y4245922D01*
X77099764Y4235961D01*
X77010371Y4230917D01*
X76922248Y4231104D01*
X76843207Y4236834D01*
X76805511Y4242642D01*
X76667414Y4280703D01*
X76540113Y4338427D01*
X76424292Y4415289D01*
X76320637Y4510761D01*
X76229833Y4624321D01*
X76163031Y4735119D01*
X76108164Y4851875D01*
X76066163Y4971224D01*
X76036167Y5097217D01*
X76017311Y5233906D01*
X76008732Y5385342D01*
X76008006Y5462789D01*
X76010100Y5519566D01*
X76839217Y5519566D01*
X76839424Y5426498D01*
X76842337Y5338808D01*
X76848000Y5261728D01*
X76856455Y5200491D01*
X76859038Y5188150D01*
X76890840Y5080867D01*
X76932498Y4993842D01*
X76984363Y4926858D01*
X77046781Y4879695D01*
X77120100Y4852135D01*
X77204669Y4843959D01*
X77300835Y4854949D01*
X77364311Y4870671D01*
X77413454Y4888861D01*
X77467583Y4914709D01*
X77508244Y4938411D01*
X77578800Y4984779D01*
X77578800Y6134970D01*
X77511392Y6178538D01*
X77432867Y6219460D01*
X77348681Y6246111D01*
X77263557Y6258035D01*
X77182216Y6254778D01*
X77109380Y6235885D01*
X77077426Y6220316D01*
X77019501Y6177319D01*
X76970544Y6120547D01*
X76929390Y6047925D01*
X76894874Y5957379D01*
X76865833Y5846834D01*
X76864552Y5840967D01*
X76854381Y5778712D01*
X76846739Y5700906D01*
X76841670Y5612780D01*
X76839217Y5519566D01*
X76010100Y5519566D01*
X76015857Y5675605D01*
X76037802Y5871441D01*
G37*
X76037802Y5871441D02*
X76073786Y6050168D01*
X76123759Y6211655D01*
X76187668Y6355774D01*
X76265462Y6482394D01*
X76357089Y6591385D01*
X76462497Y6682617D01*
X76507662Y6713568D01*
X76608611Y6769715D01*
X76711901Y6809326D01*
X76821989Y6833486D01*
X76943330Y6843281D01*
X77035836Y6842235D01*
X77165490Y6831269D01*
X77278084Y6809454D01*
X77376875Y6775786D01*
X77465121Y6729264D01*
X77513986Y6695052D01*
X77543353Y6673138D01*
X77565043Y6658167D01*
X77573253Y6653767D01*
X77574868Y6664596D01*
X77576159Y6695249D01*
X77577138Y6742974D01*
X77577817Y6805021D01*
X77578210Y6878638D01*
X77578330Y6961073D01*
X77578188Y7049575D01*
X77577797Y7141393D01*
X77577171Y7233776D01*
X77576320Y7323972D01*
X77575260Y7409229D01*
X77574001Y7486797D01*
X77572556Y7553924D01*
X77570938Y7607859D01*
X77569161Y7645850D01*
X77568669Y7652833D01*
X77561092Y7723249D01*
X77549531Y7778398D01*
X77531792Y7825519D01*
X77505682Y7871853D01*
X77499415Y7881433D01*
X77474983Y7918122D01*
X78380311Y7918122D01*
X78380507Y6233255D01*
X78380526Y5998838D01*
X78380552Y5785897D01*
X78380625Y5593332D01*
X78380782Y5420041D01*
X78381064Y5264924D01*
X78381509Y5126880D01*
X78382156Y5004808D01*
X78383045Y4897606D01*
X78384213Y4804174D01*
X78385701Y4723410D01*
X78387546Y4654214D01*
X78389789Y4595485D01*
X78392469Y4546121D01*
X78395623Y4505022D01*
X78399292Y4471087D01*
X78403513Y4443214D01*
X78408327Y4420302D01*
X78413773Y4401251D01*
X78419888Y4384960D01*
X78426712Y4370327D01*
X78434285Y4356251D01*
X78442645Y4341632D01*
X78447839Y4332526D01*
X78482104Y4271811D01*
X77623955Y4271811D01*
X77623955Y4367767D01*
X77623224Y4411130D01*
X77621272Y4444295D01*
X77618463Y4462076D01*
X77617221Y4463722D01*
X77605799Y4456838D01*
X77583084Y4438995D01*
X77560385Y4419621D01*
X77505800Y4378886D01*
X77436321Y4337883D01*
X77359270Y4300377D01*
X77281965Y4270136D01*
X77251113Y4260488D01*
X77182616Y4245922D01*
X77099764Y4235961D01*
X77010371Y4230917D01*
X76922248Y4231104D01*
X76843207Y4236834D01*
X76805511Y4242642D01*
X76667414Y4280703D01*
X76540113Y4338427D01*
X76424292Y4415289D01*
X76320637Y4510761D01*
X76229833Y4624321D01*
X76163031Y4735119D01*
X76108164Y4851875D01*
X76066163Y4971224D01*
X76036167Y5097217D01*
X76017311Y5233906D01*
X76008732Y5385342D01*
X76008006Y5462789D01*
X76010100Y5519566D01*
X76839217Y5519566D01*
X76839424Y5426498D01*
X76842337Y5338808D01*
X76848000Y5261728D01*
X76856455Y5200491D01*
X76859038Y5188150D01*
X76890840Y5080867D01*
X76932498Y4993842D01*
X76984363Y4926858D01*
X77046781Y4879695D01*
X77120100Y4852135D01*
X77204669Y4843959D01*
X77300835Y4854949D01*
X77364311Y4870671D01*
X77413454Y4888861D01*
X77467583Y4914709D01*
X77508244Y4938411D01*
X77578800Y4984779D01*
X77578800Y6134970D01*
X77511392Y6178538D01*
X77432867Y6219460D01*
X77348681Y6246111D01*
X77263557Y6258035D01*
X77182216Y6254778D01*
X77109380Y6235885D01*
X77077426Y6220316D01*
X77019501Y6177319D01*
X76970544Y6120547D01*
X76929390Y6047925D01*
X76894874Y5957379D01*
X76865833Y5846834D01*
X76864552Y5840967D01*
X76854381Y5778712D01*
X76846739Y5700906D01*
X76841670Y5612780D01*
X76839217Y5519566D01*
X76010100Y5519566D01*
X76015857Y5675605D01*
X76037802Y5871441D01*
D13*
X58410000Y15612000D02*
X57080000Y15612000D01*
X58410000Y20812000D02*
X55750000Y20812000D01*
X55750000Y18212000D02*
X55750000Y20812000D01*
X58410000Y18212000D02*
X58410000Y20812000D01*
X58410000Y16942000D02*
X58410000Y15612000D01*
X58410000Y18212000D02*
X55750000Y18212000D01*
G36*
X18039196Y3737116D02*
G01*
X18052884Y3785805D01*
X18075096Y3821651D01*
X18107574Y3849987D01*
X18121733Y3859145D01*
X18186053Y3882993D01*
X18256473Y3884494D01*
X18324595Y3865534D01*
X18382021Y3828003D01*
X18409719Y3794404D01*
X18431662Y3733436D01*
X18433405Y3685192D01*
X18429457Y3620684D01*
X18280686Y3555566D01*
X18208349Y3522298D01*
X18161084Y3495536D01*
X18136507Y3472356D01*
X18132237Y3449833D01*
X18145889Y3425045D01*
X18160943Y3408614D01*
X18204746Y3382265D01*
X18252389Y3380419D01*
X18296145Y3400954D01*
X18328289Y3441748D01*
X18334038Y3456153D01*
X18361576Y3501144D01*
X18393258Y3520318D01*
X18436714Y3536721D01*
X18436714Y3474534D01*
X18432872Y3432217D01*
X18417823Y3396531D01*
X18386280Y3355557D01*
X18381592Y3350233D01*
X18346506Y3313780D01*
X18316347Y3294217D01*
X18278615Y3285217D01*
X18247335Y3282270D01*
X18191385Y3281535D01*
X18151555Y3290840D01*
X18126708Y3304654D01*
X18087656Y3335033D01*
X18060625Y3367887D01*
X18043517Y3409206D01*
X18034238Y3464979D01*
X18030693Y3541195D01*
X18030410Y3579878D01*
X18031372Y3626253D01*
X18119007Y3626253D01*
X18120023Y3601374D01*
X18122556Y3597300D01*
X18139274Y3602835D01*
X18175249Y3617483D01*
X18223331Y3638310D01*
X18233386Y3642786D01*
X18294152Y3673686D01*
X18327632Y3700843D01*
X18334990Y3726280D01*
X18317391Y3752019D01*
X18302856Y3763391D01*
X18250410Y3786136D01*
X18201322Y3782378D01*
X18160227Y3754616D01*
X18131758Y3705348D01*
X18122631Y3666243D01*
X18119007Y3626253D01*
X18031372Y3626253D01*
X18032285Y3670251D01*
X18039196Y3737116D01*
G37*
D15*
X18039196Y3737116D02*
X18052884Y3785805D01*
X18075096Y3821651D01*
X18107574Y3849987D01*
X18121733Y3859145D01*
X18186053Y3882993D01*
X18256473Y3884494D01*
X18324595Y3865534D01*
X18382021Y3828003D01*
X18409719Y3794404D01*
X18431662Y3733436D01*
X18433405Y3685192D01*
X18429457Y3620684D01*
X18280686Y3555566D01*
X18208349Y3522298D01*
X18161084Y3495536D01*
X18136507Y3472356D01*
X18132237Y3449833D01*
X18145889Y3425045D01*
X18160943Y3408614D01*
X18204746Y3382265D01*
X18252389Y3380419D01*
X18296145Y3400954D01*
X18328289Y3441748D01*
X18334038Y3456153D01*
X18361576Y3501144D01*
X18393258Y3520318D01*
X18436714Y3536721D01*
X18436714Y3474534D01*
X18432872Y3432217D01*
X18417823Y3396531D01*
X18386280Y3355557D01*
X18381592Y3350233D01*
X18346506Y3313780D01*
X18316347Y3294217D01*
X18278615Y3285217D01*
X18247335Y3282270D01*
X18191385Y3281535D01*
X18151555Y3290840D01*
X18126708Y3304654D01*
X18087656Y3335033D01*
X18060625Y3367887D01*
X18043517Y3409206D01*
X18034238Y3464979D01*
X18030693Y3541195D01*
X18030410Y3579878D01*
X18031372Y3626253D01*
X18119007Y3626253D01*
X18120023Y3601374D01*
X18122556Y3597300D01*
X18139274Y3602835D01*
X18175249Y3617483D01*
X18223331Y3638310D01*
X18233386Y3642786D01*
X18294152Y3673686D01*
X18327632Y3700843D01*
X18334990Y3726280D01*
X18317391Y3752019D01*
X18302856Y3763391D01*
X18250410Y3786136D01*
X18201322Y3782378D01*
X18160227Y3754616D01*
X18131758Y3705348D01*
X18122631Y3666243D01*
X18119007Y3626253D01*
X18031372Y3626253D01*
X18032285Y3670251D01*
X18039196Y3737116D01*
G36*
X15700926Y3882745D02*
G01*
X15766858Y3858416D01*
X15820273Y3815383D01*
X15841164Y3785091D01*
X15863939Y3729506D01*
X15863466Y3689314D01*
X15839562Y3662283D01*
X15830717Y3657687D01*
X15792530Y3643356D01*
X15773028Y3647028D01*
X15766422Y3671093D01*
X15766086Y3684386D01*
X15753992Y3733290D01*
X15722471Y3767501D01*
X15678659Y3784024D01*
X15629695Y3779866D01*
X15589894Y3758273D01*
X15576450Y3745956D01*
X15566921Y3731013D01*
X15560485Y3708425D01*
X15556317Y3673172D01*
X15553597Y3620234D01*
X15551502Y3544593D01*
X15550960Y3520643D01*
X15548981Y3438710D01*
X15546731Y3381045D01*
X15543357Y3342892D01*
X15538006Y3319496D01*
X15529824Y3306102D01*
X15517959Y3297955D01*
X15510362Y3294356D01*
X15478102Y3282048D01*
X15459111Y3277986D01*
X15452836Y3291552D01*
X15449006Y3332566D01*
X15447600Y3401501D01*
X15448598Y3498831D01*
X15448908Y3513843D01*
X15451101Y3602641D01*
X15453693Y3667481D01*
X15457382Y3713433D01*
X15462864Y3745565D01*
X15470835Y3768947D01*
X15481993Y3788648D01*
X15487830Y3797090D01*
X15521296Y3834443D01*
X15558727Y3863497D01*
X15563309Y3866033D01*
X15630426Y3886057D01*
X15700926Y3882745D01*
G37*
X15700926Y3882745D02*
X15766858Y3858416D01*
X15820273Y3815383D01*
X15841164Y3785091D01*
X15863939Y3729506D01*
X15863466Y3689314D01*
X15839562Y3662283D01*
X15830717Y3657687D01*
X15792530Y3643356D01*
X15773028Y3647028D01*
X15766422Y3671093D01*
X15766086Y3684386D01*
X15753992Y3733290D01*
X15722471Y3767501D01*
X15678659Y3784024D01*
X15629695Y3779866D01*
X15589894Y3758273D01*
X15576450Y3745956D01*
X15566921Y3731013D01*
X15560485Y3708425D01*
X15556317Y3673172D01*
X15553597Y3620234D01*
X15551502Y3544593D01*
X15550960Y3520643D01*
X15548981Y3438710D01*
X15546731Y3381045D01*
X15543357Y3342892D01*
X15538006Y3319496D01*
X15529824Y3306102D01*
X15517959Y3297955D01*
X15510362Y3294356D01*
X15478102Y3282048D01*
X15459111Y3277986D01*
X15452836Y3291552D01*
X15449006Y3332566D01*
X15447600Y3401501D01*
X15448598Y3498831D01*
X15448908Y3513843D01*
X15451101Y3602641D01*
X15453693Y3667481D01*
X15457382Y3713433D01*
X15462864Y3745565D01*
X15470835Y3768947D01*
X15481993Y3788648D01*
X15487830Y3797090D01*
X15521296Y3834443D01*
X15558727Y3863497D01*
X15563309Y3866033D01*
X15630426Y3886057D01*
X15700926Y3882745D01*
G36*
X13042550Y3796288D02*
G01*
X13076456Y3845198D01*
X13137653Y3894622D01*
X13205063Y3919141D01*
X13273880Y3920703D01*
X13339303Y3901261D01*
X13396527Y3862765D01*
X13440749Y3807165D01*
X13467167Y3736414D01*
X13472510Y3684338D01*
X13471903Y3662607D01*
X13466822Y3645969D01*
X13452855Y3631063D01*
X13425589Y3614527D01*
X13380612Y3593002D01*
X13313511Y3563126D01*
X13313171Y3562976D01*
X13251407Y3534687D01*
X13200759Y3509567D01*
X13166404Y3490321D01*
X13153518Y3479652D01*
X13153514Y3479566D01*
X13164872Y3456334D01*
X13191431Y3430726D01*
X13221923Y3412279D01*
X13237370Y3408614D01*
X13279515Y3421288D01*
X13315808Y3453029D01*
X13333517Y3487928D01*
X13350552Y3513655D01*
X13383922Y3542954D01*
X13423149Y3568265D01*
X13457756Y3582029D01*
X13464993Y3582786D01*
X13473139Y3570340D01*
X13473630Y3538528D01*
X13467643Y3495634D01*
X13456357Y3449942D01*
X13440950Y3409739D01*
X13440171Y3408178D01*
X13393804Y3343438D01*
X13333711Y3299403D01*
X13265465Y3277789D01*
X13194638Y3280315D01*
X13126804Y3308696D01*
X13123788Y3310692D01*
X13070427Y3359052D01*
X13035340Y3422148D01*
X13015922Y3505113D01*
X13013316Y3528422D01*
X13008701Y3638445D01*
X13014233Y3689752D01*
X13153514Y3689752D01*
X13155324Y3657747D01*
X13165222Y3648407D01*
X13189898Y3655395D01*
X13228795Y3671913D01*
X13272275Y3692619D01*
X13273356Y3693167D01*
X13310209Y3712551D01*
X13325000Y3725487D01*
X13321353Y3739049D01*
X13305995Y3756868D01*
X13266923Y3782655D01*
X13224846Y3784550D01*
X13187103Y3765783D01*
X13161034Y3729585D01*
X13153514Y3689752D01*
X13014233Y3689752D01*
X13018194Y3726473D01*
X13042550Y3796288D01*
G37*
X13042550Y3796288D02*
X13076456Y3845198D01*
X13137653Y3894622D01*
X13205063Y3919141D01*
X13273880Y3920703D01*
X13339303Y3901261D01*
X13396527Y3862765D01*
X13440749Y3807165D01*
X13467167Y3736414D01*
X13472510Y3684338D01*
X13471903Y3662607D01*
X13466822Y3645969D01*
X13452855Y3631063D01*
X13425589Y3614527D01*
X13380612Y3593002D01*
X13313511Y3563126D01*
X13313171Y3562976D01*
X13251407Y3534687D01*
X13200759Y3509567D01*
X13166404Y3490321D01*
X13153518Y3479652D01*
X13153514Y3479566D01*
X13164872Y3456334D01*
X13191431Y3430726D01*
X13221923Y3412279D01*
X13237370Y3408614D01*
X13279515Y3421288D01*
X13315808Y3453029D01*
X13333517Y3487928D01*
X13350552Y3513655D01*
X13383922Y3542954D01*
X13423149Y3568265D01*
X13457756Y3582029D01*
X13464993Y3582786D01*
X13473139Y3570340D01*
X13473630Y3538528D01*
X13467643Y3495634D01*
X13456357Y3449942D01*
X13440950Y3409739D01*
X13440171Y3408178D01*
X13393804Y3343438D01*
X13333711Y3299403D01*
X13265465Y3277789D01*
X13194638Y3280315D01*
X13126804Y3308696D01*
X13123788Y3310692D01*
X13070427Y3359052D01*
X13035340Y3422148D01*
X13015922Y3505113D01*
X13013316Y3528422D01*
X13008701Y3638445D01*
X13014233Y3689752D01*
X13153514Y3689752D01*
X13155324Y3657747D01*
X13165222Y3648407D01*
X13189898Y3655395D01*
X13228795Y3671913D01*
X13272275Y3692619D01*
X13273356Y3693167D01*
X13310209Y3712551D01*
X13325000Y3725487D01*
X13321353Y3739049D01*
X13305995Y3756868D01*
X13266923Y3782655D01*
X13224846Y3784550D01*
X13187103Y3765783D01*
X13161034Y3729585D01*
X13153514Y3689752D01*
X13014233Y3689752D01*
X13018194Y3726473D01*
X13042550Y3796288D01*
G36*
X15955726Y3742414D02*
G01*
X15978135Y3793900D01*
X16013124Y3834057D01*
X16040375Y3854639D01*
X16089907Y3876875D01*
X16147316Y3887196D01*
X16200682Y3884433D01*
X16230543Y3873288D01*
X16242261Y3870117D01*
X16250037Y3881943D01*
X16255465Y3913634D01*
X16259571Y3961907D01*
X16264067Y4015671D01*
X16270313Y4048018D01*
X16281676Y4066515D01*
X16301528Y4078730D01*
X16314000Y4084138D01*
X16361171Y4103899D01*
X16361117Y3767142D01*
X16360933Y3658663D01*
X16360219Y3575213D01*
X16358675Y3512796D01*
X16356001Y3467415D01*
X16351894Y3435071D01*
X16346055Y3411767D01*
X16338182Y3393505D01*
X16332221Y3383082D01*
X16282855Y3326555D01*
X16220264Y3291123D01*
X16151013Y3278410D01*
X16081668Y3290037D01*
X16040375Y3310932D01*
X15997025Y3347078D01*
X15967481Y3391224D01*
X15949655Y3449038D01*
X15941463Y3526187D01*
X15940302Y3582786D01*
X15940458Y3586853D01*
X16041857Y3586853D01*
X16042476Y3521950D01*
X16045314Y3478986D01*
X16051840Y3450878D01*
X16063523Y3430547D01*
X16077483Y3415212D01*
X16124365Y3385610D01*
X16174701Y3383081D01*
X16222276Y3407795D01*
X16225979Y3411144D01*
X16241783Y3428565D01*
X16251693Y3449291D01*
X16257058Y3480138D01*
X16259228Y3527923D01*
X16259571Y3580752D01*
X16258827Y3647119D01*
X16255748Y3691394D01*
X16249061Y3720491D01*
X16237496Y3741327D01*
X16228013Y3752393D01*
X16183960Y3780302D01*
X16133224Y3783657D01*
X16084796Y3762341D01*
X16075450Y3754427D01*
X16059540Y3736853D01*
X16049610Y3715913D01*
X16044278Y3684718D01*
X16042163Y3636378D01*
X16041857Y3586853D01*
X15940458Y3586853D01*
X15943810Y3673932D01*
X15955726Y3742414D01*
G37*
X15955726Y3742414D02*
X15978135Y3793900D01*
X16013124Y3834057D01*
X16040375Y3854639D01*
X16089907Y3876875D01*
X16147316Y3887196D01*
X16200682Y3884433D01*
X16230543Y3873288D01*
X16242261Y3870117D01*
X16250037Y3881943D01*
X16255465Y3913634D01*
X16259571Y3961907D01*
X16264067Y4015671D01*
X16270313Y4048018D01*
X16281676Y4066515D01*
X16301528Y4078730D01*
X16314000Y4084138D01*
X16361171Y4103899D01*
X16361117Y3767142D01*
X16360933Y3658663D01*
X16360219Y3575213D01*
X16358675Y3512796D01*
X16356001Y3467415D01*
X16351894Y3435071D01*
X16346055Y3411767D01*
X16338182Y3393505D01*
X16332221Y3383082D01*
X16282855Y3326555D01*
X16220264Y3291123D01*
X16151013Y3278410D01*
X16081668Y3290037D01*
X16040375Y3310932D01*
X15997025Y3347078D01*
X15967481Y3391224D01*
X15949655Y3449038D01*
X15941463Y3526187D01*
X15940302Y3582786D01*
X15940458Y3586853D01*
X16041857Y3586853D01*
X16042476Y3521950D01*
X16045314Y3478986D01*
X16051840Y3450878D01*
X16063523Y3430547D01*
X16077483Y3415212D01*
X16124365Y3385610D01*
X16174701Y3383081D01*
X16222276Y3407795D01*
X16225979Y3411144D01*
X16241783Y3428565D01*
X16251693Y3449291D01*
X16257058Y3480138D01*
X16259228Y3527923D01*
X16259571Y3580752D01*
X16258827Y3647119D01*
X16255748Y3691394D01*
X16249061Y3720491D01*
X16237496Y3741327D01*
X16228013Y3752393D01*
X16183960Y3780302D01*
X16133224Y3783657D01*
X16084796Y3762341D01*
X16075450Y3754427D01*
X16059540Y3736853D01*
X16049610Y3715913D01*
X16044278Y3684718D01*
X16042163Y3636378D01*
X16041857Y3586853D01*
X15940458Y3586853D01*
X15943810Y3673932D01*
X15955726Y3742414D01*
G36*
X12464677Y3682167D02*
G01*
X12467450Y3729542D01*
X12471388Y3763210D01*
X12476849Y3787002D01*
X12484192Y3804747D01*
X12493777Y3820276D01*
X12497887Y3826119D01*
X12552405Y3881315D01*
X12621336Y3912610D01*
X12701072Y3921335D01*
X12770744Y3912582D01*
X12826201Y3884932D01*
X12875148Y3834020D01*
X12888629Y3815162D01*
X12903314Y3790485D01*
X12912842Y3763684D01*
X12918293Y3727913D01*
X12920747Y3676331D01*
X12921286Y3608233D01*
X12918852Y3514912D01*
X12910394Y3444843D01*
X12894174Y3392569D01*
X12868454Y3352631D01*
X12831497Y3319571D01*
X12828782Y3317614D01*
X12792360Y3297592D01*
X12748502Y3287685D01*
X12692724Y3285243D01*
X12602048Y3285243D01*
X12602010Y3197217D01*
X12601166Y3148192D01*
X12596024Y3119435D01*
X12582587Y3102189D01*
X12556858Y3087692D01*
X12550679Y3084731D01*
X12521764Y3070852D01*
X12499376Y3062086D01*
X12482729Y3061329D01*
X12471036Y3071477D01*
X12463510Y3095427D01*
X12459366Y3136074D01*
X12457815Y3196314D01*
X12458071Y3279045D01*
X12459349Y3387161D01*
X12459748Y3419500D01*
X12461185Y3530976D01*
X12462472Y3603897D01*
X12601971Y3603897D01*
X12602755Y3542001D01*
X12606240Y3501503D01*
X12614124Y3474792D01*
X12628105Y3454256D01*
X12637597Y3444240D01*
X12676404Y3414933D01*
X12710763Y3412548D01*
X12746216Y3436750D01*
X12747114Y3437643D01*
X12761539Y3456347D01*
X12770313Y3481768D01*
X12774739Y3520916D01*
X12776118Y3580803D01*
X12776143Y3594070D01*
X12772812Y3676599D01*
X12761969Y3733809D01*
X12742340Y3768734D01*
X12712650Y3784406D01*
X12695491Y3785986D01*
X12654766Y3778574D01*
X12626832Y3754170D01*
X12610017Y3709520D01*
X12602650Y3641370D01*
X12601971Y3603897D01*
X12462472Y3603897D01*
X12462708Y3617255D01*
X12464677Y3682167D01*
G37*
X12464677Y3682167D02*
X12467450Y3729542D01*
X12471388Y3763210D01*
X12476849Y3787002D01*
X12484192Y3804747D01*
X12493777Y3820276D01*
X12497887Y3826119D01*
X12552405Y3881315D01*
X12621336Y3912610D01*
X12701072Y3921335D01*
X12770744Y3912582D01*
X12826201Y3884932D01*
X12875148Y3834020D01*
X12888629Y3815162D01*
X12903314Y3790485D01*
X12912842Y3763684D01*
X12918293Y3727913D01*
X12920747Y3676331D01*
X12921286Y3608233D01*
X12918852Y3514912D01*
X12910394Y3444843D01*
X12894174Y3392569D01*
X12868454Y3352631D01*
X12831497Y3319571D01*
X12828782Y3317614D01*
X12792360Y3297592D01*
X12748502Y3287685D01*
X12692724Y3285243D01*
X12602048Y3285243D01*
X12602010Y3197217D01*
X12601166Y3148192D01*
X12596024Y3119435D01*
X12582587Y3102189D01*
X12556858Y3087692D01*
X12550679Y3084731D01*
X12521764Y3070852D01*
X12499376Y3062086D01*
X12482729Y3061329D01*
X12471036Y3071477D01*
X12463510Y3095427D01*
X12459366Y3136074D01*
X12457815Y3196314D01*
X12458071Y3279045D01*
X12459349Y3387161D01*
X12459748Y3419500D01*
X12461185Y3530976D01*
X12462472Y3603897D01*
X12601971Y3603897D01*
X12602755Y3542001D01*
X12606240Y3501503D01*
X12614124Y3474792D01*
X12628105Y3454256D01*
X12637597Y3444240D01*
X12676404Y3414933D01*
X12710763Y3412548D01*
X12746216Y3436750D01*
X12747114Y3437643D01*
X12761539Y3456347D01*
X12770313Y3481768D01*
X12774739Y3520916D01*
X12776118Y3580803D01*
X12776143Y3594070D01*
X12772812Y3676599D01*
X12761969Y3733809D01*
X12742340Y3768734D01*
X12712650Y3784406D01*
X12695491Y3785986D01*
X12654766Y3778574D01*
X12626832Y3754170D01*
X12610017Y3709520D01*
X12602650Y3641370D01*
X12601971Y3603897D01*
X12462472Y3603897D01*
X12462708Y3617255D01*
X12464677Y3682167D01*
G36*
X11908096Y3724341D02*
G01*
X11913068Y3760551D01*
X11921713Y3787201D01*
X11935005Y3810778D01*
X11937943Y3815162D01*
X11987313Y3874251D01*
X12041109Y3908553D01*
X12106602Y3922169D01*
X12128842Y3922835D01*
X12212115Y3910538D01*
X12280145Y3874767D01*
X12330351Y3817199D01*
X12348185Y3780188D01*
X12362063Y3724618D01*
X12369167Y3654404D01*
X12369840Y3577773D01*
X12364427Y3502948D01*
X12353270Y3438158D01*
X12336714Y3391627D01*
X12331626Y3383613D01*
X12271355Y3323793D01*
X12199769Y3287965D01*
X12122092Y3277480D01*
X12043548Y3293690D01*
X12021689Y3303408D01*
X11979122Y3333357D01*
X11941763Y3373067D01*
X11938232Y3378103D01*
X11923881Y3402376D01*
X11914394Y3428322D01*
X11908790Y3462478D01*
X11906086Y3511381D01*
X11905299Y3581565D01*
X11905286Y3597300D01*
X11905322Y3602308D01*
X12050429Y3602308D01*
X12051273Y3536070D01*
X12054596Y3492114D01*
X12061583Y3463721D01*
X12073416Y3444175D01*
X12079457Y3437643D01*
X12114186Y3412820D01*
X12147903Y3413952D01*
X12181995Y3435484D01*
X12202329Y3458471D01*
X12214371Y3492022D01*
X12221134Y3544931D01*
X12221598Y3551101D01*
X12222752Y3646987D01*
X12210688Y3718201D01*
X12185570Y3764306D01*
X12147560Y3784865D01*
X12133992Y3785986D01*
X12098364Y3780348D01*
X12073994Y3760814D01*
X12059093Y3723458D01*
X12051875Y3664350D01*
X12050429Y3602308D01*
X11905322Y3602308D01*
X11905826Y3672087D01*
X11908096Y3724341D01*
G37*
X11908096Y3724341D02*
X11913068Y3760551D01*
X11921713Y3787201D01*
X11935005Y3810778D01*
X11937943Y3815162D01*
X11987313Y3874251D01*
X12041109Y3908553D01*
X12106602Y3922169D01*
X12128842Y3922835D01*
X12212115Y3910538D01*
X12280145Y3874767D01*
X12330351Y3817199D01*
X12348185Y3780188D01*
X12362063Y3724618D01*
X12369167Y3654404D01*
X12369840Y3577773D01*
X12364427Y3502948D01*
X12353270Y3438158D01*
X12336714Y3391627D01*
X12331626Y3383613D01*
X12271355Y3323793D01*
X12199769Y3287965D01*
X12122092Y3277480D01*
X12043548Y3293690D01*
X12021689Y3303408D01*
X11979122Y3333357D01*
X11941763Y3373067D01*
X11938232Y3378103D01*
X11923881Y3402376D01*
X11914394Y3428322D01*
X11908790Y3462478D01*
X11906086Y3511381D01*
X11905299Y3581565D01*
X11905286Y3597300D01*
X11905322Y3602308D01*
X12050429Y3602308D01*
X12051273Y3536070D01*
X12054596Y3492114D01*
X12061583Y3463721D01*
X12073416Y3444175D01*
X12079457Y3437643D01*
X12114186Y3412820D01*
X12147903Y3413952D01*
X12181995Y3435484D01*
X12202329Y3458471D01*
X12214371Y3492022D01*
X12221134Y3544931D01*
X12221598Y3551101D01*
X12222752Y3646987D01*
X12210688Y3718201D01*
X12185570Y3764306D01*
X12147560Y3784865D01*
X12133992Y3785986D01*
X12098364Y3780348D01*
X12073994Y3760814D01*
X12059093Y3723458D01*
X12051875Y3664350D01*
X12050429Y3602308D01*
X11905322Y3602308D01*
X11905826Y3672087D01*
X11908096Y3724341D01*
G36*
X14546886Y3981211D02*
G01*
X14551139Y3921887D01*
X14556025Y3886928D01*
X14562795Y3871680D01*
X14572702Y3871485D01*
X14575914Y3873305D01*
X14618644Y3886485D01*
X14674227Y3885715D01*
X14730737Y3872167D01*
X14766082Y3854639D01*
X14802321Y3826639D01*
X14828813Y3794951D01*
X14846999Y3754687D01*
X14858322Y3700957D01*
X14864222Y3628874D01*
X14866143Y3533549D01*
X14866177Y3515263D01*
X14866200Y3309854D01*
X14820491Y3293920D01*
X14788027Y3283080D01*
X14770215Y3278032D01*
X14769691Y3277986D01*
X14767937Y3291672D01*
X14766444Y3329424D01*
X14765326Y3386276D01*
X14764697Y3457266D01*
X14764600Y3500427D01*
X14764398Y3585527D01*
X14763358Y3646519D01*
X14760831Y3688323D01*
X14756164Y3715858D01*
X14748707Y3734044D01*
X14737811Y3747802D01*
X14731007Y3754427D01*
X14684272Y3781125D01*
X14633272Y3783125D01*
X14587001Y3760545D01*
X14578444Y3752393D01*
X14565893Y3737064D01*
X14557188Y3718882D01*
X14551631Y3692591D01*
X14548526Y3652938D01*
X14547176Y3594668D01*
X14546886Y3514327D01*
X14546886Y3309854D01*
X14501177Y3293920D01*
X14468713Y3283080D01*
X14450901Y3278032D01*
X14450377Y3277986D01*
X14449037Y3291877D01*
X14447828Y3331061D01*
X14446801Y3391800D01*
X14446002Y3470359D01*
X14445481Y3563002D01*
X14445286Y3665991D01*
X14445286Y4063158D01*
X14492457Y4083056D01*
X14539629Y4102953D01*
X14546886Y3981211D01*
G37*
X14546886Y3981211D02*
X14551139Y3921887D01*
X14556025Y3886928D01*
X14562795Y3871680D01*
X14572702Y3871485D01*
X14575914Y3873305D01*
X14618644Y3886485D01*
X14674227Y3885715D01*
X14730737Y3872167D01*
X14766082Y3854639D01*
X14802321Y3826639D01*
X14828813Y3794951D01*
X14846999Y3754687D01*
X14858322Y3700957D01*
X14864222Y3628874D01*
X14866143Y3533549D01*
X14866177Y3515263D01*
X14866200Y3309854D01*
X14820491Y3293920D01*
X14788027Y3283080D01*
X14770215Y3278032D01*
X14769691Y3277986D01*
X14767937Y3291672D01*
X14766444Y3329424D01*
X14765326Y3386276D01*
X14764697Y3457266D01*
X14764600Y3500427D01*
X14764398Y3585527D01*
X14763358Y3646519D01*
X14760831Y3688323D01*
X14756164Y3715858D01*
X14748707Y3734044D01*
X14737811Y3747802D01*
X14731007Y3754427D01*
X14684272Y3781125D01*
X14633272Y3783125D01*
X14587001Y3760545D01*
X14578444Y3752393D01*
X14565893Y3737064D01*
X14557188Y3718882D01*
X14551631Y3692591D01*
X14548526Y3652938D01*
X14547176Y3594668D01*
X14546886Y3514327D01*
X14546886Y3309854D01*
X14501177Y3293920D01*
X14468713Y3283080D01*
X14450901Y3278032D01*
X14450377Y3277986D01*
X14449037Y3291877D01*
X14447828Y3331061D01*
X14446801Y3391800D01*
X14446002Y3470359D01*
X14445481Y3563002D01*
X14445286Y3665991D01*
X14445286Y4063158D01*
X14492457Y4083056D01*
X14539629Y4102953D01*
X14546886Y3981211D01*
G36*
X17823600Y3873748D02*
G01*
X17840948Y3866166D01*
X17882356Y3833372D01*
X17917765Y3785953D01*
X17939664Y3735349D01*
X17943229Y3710402D01*
X17931279Y3675573D01*
X17905067Y3657143D01*
X17876964Y3645984D01*
X17864095Y3643928D01*
X17857829Y3658851D01*
X17845456Y3691325D01*
X17840028Y3705998D01*
X17809590Y3756756D01*
X17765520Y3782073D01*
X17709010Y3781294D01*
X17704825Y3780297D01*
X17674655Y3765993D01*
X17652476Y3738107D01*
X17637327Y3693213D01*
X17628250Y3627885D01*
X17624286Y3538696D01*
X17623914Y3491239D01*
X17623730Y3416429D01*
X17622522Y3365431D01*
X17619309Y3333029D01*
X17613109Y3314005D01*
X17602940Y3303144D01*
X17587819Y3295228D01*
X17586946Y3294830D01*
X17557828Y3282519D01*
X17543403Y3277986D01*
X17541186Y3291691D01*
X17539289Y3329575D01*
X17537847Y3386785D01*
X17536998Y3458473D01*
X17536829Y3510935D01*
X17537692Y3612453D01*
X17541070Y3689468D01*
X17548142Y3746477D01*
X17560088Y3787974D01*
X17578090Y3818457D01*
X17603327Y3842420D01*
X17628247Y3859145D01*
X17688171Y3881403D01*
X17757911Y3886424D01*
X17823600Y3873748D01*
G37*
X17823600Y3873748D02*
X17840948Y3866166D01*
X17882356Y3833372D01*
X17917765Y3785953D01*
X17939664Y3735349D01*
X17943229Y3710402D01*
X17931279Y3675573D01*
X17905067Y3657143D01*
X17876964Y3645984D01*
X17864095Y3643928D01*
X17857829Y3658851D01*
X17845456Y3691325D01*
X17840028Y3705998D01*
X17809590Y3756756D01*
X17765520Y3782073D01*
X17709010Y3781294D01*
X17704825Y3780297D01*
X17674655Y3765993D01*
X17652476Y3738107D01*
X17637327Y3693213D01*
X17628250Y3627885D01*
X17624286Y3538696D01*
X17623914Y3491239D01*
X17623730Y3416429D01*
X17622522Y3365431D01*
X17619309Y3333029D01*
X17613109Y3314005D01*
X17602940Y3303144D01*
X17587819Y3295228D01*
X17586946Y3294830D01*
X17557828Y3282519D01*
X17543403Y3277986D01*
X17541186Y3291691D01*
X17539289Y3329575D01*
X17537847Y3386785D01*
X17536998Y3458473D01*
X17536829Y3510935D01*
X17537692Y3612453D01*
X17541070Y3689468D01*
X17548142Y3746477D01*
X17560088Y3787974D01*
X17578090Y3818457D01*
X17603327Y3842420D01*
X17628247Y3859145D01*
X17688171Y3881403D01*
X17757911Y3886424D01*
X17823600Y3873748D01*
G36*
X17315876Y3876165D02*
G01*
X17357667Y3857156D01*
X17390469Y3834122D01*
X17414503Y3808367D01*
X17431097Y3775142D01*
X17441577Y3729700D01*
X17447271Y3667293D01*
X17449507Y3583173D01*
X17449743Y3527779D01*
X17449743Y3311674D01*
X17412774Y3294830D01*
X17383656Y3282519D01*
X17369231Y3277986D01*
X17366472Y3291475D01*
X17364282Y3327847D01*
X17362942Y3380958D01*
X17362657Y3423128D01*
X17361434Y3484053D01*
X17358136Y3532385D01*
X17353321Y3561982D01*
X17349496Y3568271D01*
X17323783Y3561848D01*
X17283418Y3545375D01*
X17236679Y3523042D01*
X17191845Y3499043D01*
X17157193Y3477570D01*
X17141002Y3462815D01*
X17140938Y3462655D01*
X17142330Y3435348D01*
X17154818Y3409281D01*
X17176743Y3388108D01*
X17208743Y3381026D01*
X17236092Y3381851D01*
X17274826Y3382458D01*
X17295158Y3373384D01*
X17307369Y3349408D01*
X17308909Y3344887D01*
X17314203Y3310694D01*
X17300047Y3289932D01*
X17263148Y3280038D01*
X17223289Y3278208D01*
X17151562Y3291773D01*
X17114432Y3311145D01*
X17068576Y3356655D01*
X17044256Y3412517D01*
X17042073Y3471543D01*
X17062629Y3526547D01*
X17093549Y3561014D01*
X17124420Y3580311D01*
X17172942Y3604741D01*
X17229485Y3629515D01*
X17238910Y3633301D01*
X17301019Y3660709D01*
X17336822Y3684866D01*
X17348337Y3708881D01*
X17337580Y3735865D01*
X17319114Y3756957D01*
X17275469Y3782928D01*
X17227446Y3784876D01*
X17183406Y3764863D01*
X17151709Y3724949D01*
X17147549Y3714652D01*
X17123327Y3676776D01*
X17087965Y3648658D01*
X17043343Y3625583D01*
X17043343Y3691015D01*
X17045969Y3730994D01*
X17057230Y3762503D01*
X17082199Y3796122D01*
X17106169Y3822016D01*
X17143441Y3858683D01*
X17172401Y3878379D01*
X17203505Y3886280D01*
X17238713Y3887586D01*
X17315876Y3876165D01*
G37*
X17315876Y3876165D02*
X17357667Y3857156D01*
X17390469Y3834122D01*
X17414503Y3808367D01*
X17431097Y3775142D01*
X17441577Y3729700D01*
X17447271Y3667293D01*
X17449507Y3583173D01*
X17449743Y3527779D01*
X17449743Y3311674D01*
X17412774Y3294830D01*
X17383656Y3282519D01*
X17369231Y3277986D01*
X17366472Y3291475D01*
X17364282Y3327847D01*
X17362942Y3380958D01*
X17362657Y3423128D01*
X17361434Y3484053D01*
X17358136Y3532385D01*
X17353321Y3561982D01*
X17349496Y3568271D01*
X17323783Y3561848D01*
X17283418Y3545375D01*
X17236679Y3523042D01*
X17191845Y3499043D01*
X17157193Y3477570D01*
X17141002Y3462815D01*
X17140938Y3462655D01*
X17142330Y3435348D01*
X17154818Y3409281D01*
X17176743Y3388108D01*
X17208743Y3381026D01*
X17236092Y3381851D01*
X17274826Y3382458D01*
X17295158Y3373384D01*
X17307369Y3349408D01*
X17308909Y3344887D01*
X17314203Y3310694D01*
X17300047Y3289932D01*
X17263148Y3280038D01*
X17223289Y3278208D01*
X17151562Y3291773D01*
X17114432Y3311145D01*
X17068576Y3356655D01*
X17044256Y3412517D01*
X17042073Y3471543D01*
X17062629Y3526547D01*
X17093549Y3561014D01*
X17124420Y3580311D01*
X17172942Y3604741D01*
X17229485Y3629515D01*
X17238910Y3633301D01*
X17301019Y3660709D01*
X17336822Y3684866D01*
X17348337Y3708881D01*
X17337580Y3735865D01*
X17319114Y3756957D01*
X17275469Y3782928D01*
X17227446Y3784876D01*
X17183406Y3764863D01*
X17151709Y3724949D01*
X17147549Y3714652D01*
X17123327Y3676776D01*
X17087965Y3648658D01*
X17043343Y3625583D01*
X17043343Y3691015D01*
X17045969Y3730994D01*
X17057230Y3762503D01*
X17082199Y3796122D01*
X17106169Y3822016D01*
X17143441Y3858683D01*
X17172401Y3878379D01*
X17203505Y3886280D01*
X17238713Y3887586D01*
X17315876Y3876165D01*
G36*
X15274910Y8590152D02*
G01*
X15353454Y8589722D01*
X15410298Y8588558D01*
X15449105Y8586293D01*
X15473538Y8582560D01*
X15487262Y8576994D01*
X15493940Y8569227D01*
X15497236Y8558895D01*
X15497556Y8557557D01*
X15502562Y8533421D01*
X15511829Y8485799D01*
X15524392Y8419759D01*
X15539287Y8340372D01*
X15555551Y8252704D01*
X15556119Y8249625D01*
X15572410Y8163711D01*
X15587652Y8087804D01*
X15600861Y8026455D01*
X15611054Y7984218D01*
X15617248Y7965645D01*
X15617543Y7965316D01*
X15635788Y7956247D01*
X15673405Y7941133D01*
X15722271Y7923238D01*
X15722543Y7923142D01*
X15784093Y7900007D01*
X15856657Y7870535D01*
X15925057Y7840903D01*
X15928294Y7839438D01*
X16039702Y7788874D01*
X16286399Y7957340D01*
X16362077Y8008697D01*
X16430631Y8054611D01*
X16488088Y8092470D01*
X16530476Y8119663D01*
X16553825Y8133579D01*
X16556042Y8134611D01*
X16573010Y8130016D01*
X16604701Y8107845D01*
X16652352Y8067053D01*
X16717198Y8006595D01*
X16783397Y7942273D01*
X16847214Y7878888D01*
X16904329Y7821049D01*
X16951305Y7772325D01*
X16984703Y7736290D01*
X17001085Y7716516D01*
X17001694Y7715498D01*
X17003505Y7701928D01*
X16996683Y7679767D01*
X16979540Y7646022D01*
X16950393Y7597700D01*
X16907555Y7531808D01*
X16850448Y7446983D01*
X16799766Y7372323D01*
X16754461Y7305360D01*
X16717150Y7249984D01*
X16690452Y7210080D01*
X16676985Y7189538D01*
X16676137Y7188144D01*
X16677781Y7168462D01*
X16690245Y7130207D01*
X16711048Y7080611D01*
X16718462Y7064772D01*
X16750814Y6994210D01*
X16785328Y6914147D01*
X16813365Y6844871D01*
X16833568Y6793455D01*
X16849615Y6754381D01*
X16858888Y6733959D01*
X16860041Y6732386D01*
X16877096Y6729779D01*
X16917298Y6722637D01*
X16975302Y6711977D01*
X17045763Y6698815D01*
X17123335Y6684167D01*
X17202672Y6669051D01*
X17278431Y6654482D01*
X17345264Y6641478D01*
X17397828Y6631055D01*
X17430776Y6624230D01*
X17438857Y6622301D01*
X17447205Y6617538D01*
X17453506Y6606782D01*
X17458045Y6586402D01*
X17461104Y6552766D01*
X17462967Y6502245D01*
X17463918Y6431208D01*
X17464240Y6336024D01*
X17464257Y6297008D01*
X17464257Y5979701D01*
X17388057Y5964661D01*
X17345663Y5956505D01*
X17282400Y5944601D01*
X17205962Y5930384D01*
X17124043Y5915290D01*
X17101400Y5911145D01*
X17025806Y5896447D01*
X16959953Y5881995D01*
X16909366Y5869125D01*
X16879574Y5859178D01*
X16874612Y5856213D01*
X16862426Y5835217D01*
X16844953Y5794533D01*
X16825577Y5742178D01*
X16821734Y5730900D01*
X16796339Y5660977D01*
X16764817Y5582082D01*
X16733969Y5511234D01*
X16733817Y5510905D01*
X16682447Y5399767D01*
X16851399Y5151247D01*
X17020352Y4902728D01*
X16803429Y4685442D01*
X16737819Y4620774D01*
X16677979Y4563767D01*
X16627267Y4517467D01*
X16589046Y4484916D01*
X16566675Y4469157D01*
X16563466Y4468157D01*
X16544626Y4476031D01*
X16506180Y4497922D01*
X16452330Y4531233D01*
X16387276Y4573369D01*
X16316940Y4620557D01*
X16245555Y4668690D01*
X16181908Y4710572D01*
X16130041Y4743629D01*
X16093995Y4765282D01*
X16077867Y4772957D01*
X16058189Y4766463D01*
X16020875Y4749350D01*
X15973621Y4725174D01*
X15968612Y4722487D01*
X15904977Y4690573D01*
X15861341Y4674921D01*
X15834202Y4674755D01*
X15820057Y4689296D01*
X15819975Y4689500D01*
X15812905Y4706721D01*
X15796042Y4747601D01*
X15770695Y4808975D01*
X15738171Y4887681D01*
X15699778Y4980553D01*
X15656822Y5084428D01*
X15615222Y5184998D01*
X15569504Y5295984D01*
X15527526Y5398797D01*
X15490548Y5490285D01*
X15459827Y5567299D01*
X15436622Y5626685D01*
X15422190Y5665291D01*
X15417743Y5679700D01*
X15428896Y5696228D01*
X15458069Y5722570D01*
X15496971Y5751613D01*
X15607757Y5843461D01*
X15694351Y5948741D01*
X15755716Y6065234D01*
X15790815Y6190724D01*
X15798608Y6322993D01*
X15792943Y6384043D01*
X15762078Y6510705D01*
X15708920Y6622559D01*
X15636767Y6718499D01*
X15548917Y6797424D01*
X15448665Y6858230D01*
X15339310Y6899813D01*
X15224147Y6921072D01*
X15106475Y6920901D01*
X14989590Y6898199D01*
X14876789Y6851862D01*
X14771369Y6780787D01*
X14727368Y6740589D01*
X14642979Y6637371D01*
X14584222Y6524575D01*
X14550704Y6405490D01*
X14542035Y6283405D01*
X14557823Y6161607D01*
X14597678Y6043384D01*
X14661207Y5932025D01*
X14748021Y5830816D01*
X14845029Y5751613D01*
X14885437Y5721338D01*
X14913982Y5695281D01*
X14924257Y5679675D01*
X14918877Y5662657D01*
X14903575Y5622000D01*
X14879612Y5560858D01*
X14848244Y5482381D01*
X14810732Y5389720D01*
X14768333Y5286028D01*
X14726663Y5184974D01*
X14680690Y5073893D01*
X14638107Y4970959D01*
X14600221Y4879335D01*
X14568340Y4802184D01*
X14543771Y4742669D01*
X14527820Y4703956D01*
X14521910Y4689500D01*
X14507948Y4674815D01*
X14480940Y4674858D01*
X14437413Y4690401D01*
X14373890Y4722216D01*
X14373388Y4722487D01*
X14325560Y4747177D01*
X14286897Y4765162D01*
X14265095Y4772886D01*
X14264133Y4772957D01*
X14247721Y4765122D01*
X14211487Y4743335D01*
X14159474Y4710172D01*
X14095725Y4668209D01*
X14025060Y4620557D01*
X13953116Y4572309D01*
X13888274Y4530349D01*
X13834735Y4497273D01*
X13796697Y4475679D01*
X13778533Y4468157D01*
X13761808Y4478043D01*
X13728180Y4505674D01*
X13681010Y4548005D01*
X13623658Y4601995D01*
X13559484Y4664601D01*
X13538497Y4685517D01*
X13321499Y4902877D01*
X13486668Y5145280D01*
X13536864Y5219719D01*
X13580919Y5286528D01*
X13616362Y5341835D01*
X13640719Y5381771D01*
X13651522Y5402464D01*
X13651838Y5403937D01*
X13646143Y5423442D01*
X13630826Y5462678D01*
X13608537Y5515070D01*
X13592893Y5550145D01*
X13563641Y5617299D01*
X13536094Y5685142D01*
X13514737Y5742466D01*
X13508935Y5759928D01*
X13492452Y5806562D01*
X13476340Y5842595D01*
X13467490Y5856213D01*
X13447960Y5864548D01*
X13405334Y5876363D01*
X13345145Y5890319D01*
X13272922Y5905078D01*
X13240600Y5911145D01*
X13158522Y5926227D01*
X13079795Y5940831D01*
X13012109Y5953520D01*
X12963160Y5962858D01*
X12953943Y5964661D01*
X12877743Y5979701D01*
X12877743Y6297008D01*
X12877914Y6401346D01*
X12878616Y6480287D01*
X12880134Y6537462D01*
X12882749Y6576501D01*
X12886746Y6601035D01*
X12892409Y6614695D01*
X12900020Y6621111D01*
X12903143Y6622301D01*
X12921978Y6626520D01*
X12963588Y6634938D01*
X13022630Y6646539D01*
X13093757Y6660305D01*
X13171625Y6675220D01*
X13250887Y6690268D01*
X13326198Y6704431D01*
X13392213Y6716694D01*
X13443587Y6726039D01*
X13474975Y6731450D01*
X13481959Y6732386D01*
X13488285Y6744904D01*
X13502290Y6778254D01*
X13521355Y6826123D01*
X13528634Y6844871D01*
X13557996Y6917305D01*
X13592571Y6997330D01*
X13623537Y7064772D01*
X13646323Y7116341D01*
X13661482Y7158715D01*
X13666542Y7184666D01*
X13665736Y7188144D01*
X13655041Y7204564D01*
X13630620Y7241083D01*
X13595095Y7293813D01*
X13551087Y7358865D01*
X13501217Y7432349D01*
X13491356Y7446855D01*
X13433492Y7532796D01*
X13390956Y7598239D01*
X13362054Y7646196D01*
X13345090Y7679680D01*
X13338367Y7701705D01*
X13340190Y7715283D01*
X13340236Y7715369D01*
X13354586Y7733203D01*
X13386323Y7767683D01*
X13432010Y7815232D01*
X13488204Y7872278D01*
X13551468Y7935245D01*
X13558602Y7942273D01*
X13638330Y8019480D01*
X13699857Y8076170D01*
X13744421Y8113390D01*
X13773257Y8132185D01*
X13785958Y8134611D01*
X13804494Y8124029D01*
X13842961Y8099584D01*
X13897386Y8063888D01*
X13963798Y8019553D01*
X14038225Y7969189D01*
X14055601Y7957340D01*
X14302297Y7788874D01*
X14413706Y7839438D01*
X14481457Y7868905D01*
X14554183Y7898541D01*
X14616703Y7922170D01*
X14619457Y7923142D01*
X14668360Y7941043D01*
X14706057Y7956180D01*
X14724425Y7965290D01*
X14724456Y7965316D01*
X14730285Y7981783D01*
X14740192Y8022281D01*
X14753195Y8082258D01*
X14768309Y8157160D01*
X14784552Y8242436D01*
X14785881Y8249625D01*
X14802175Y8337486D01*
X14817133Y8417240D01*
X14829791Y8483819D01*
X14839186Y8532153D01*
X14844354Y8557175D01*
X14844444Y8557557D01*
X14847589Y8568201D01*
X14853704Y8576238D01*
X14866453Y8582033D01*
X14889500Y8585953D01*
X14926509Y8588365D01*
X14981144Y8589635D01*
X15057067Y8590129D01*
X15157944Y8590214D01*
X15171000Y8590214D01*
X15274910Y8590152D01*
G37*
X15274910Y8590152D02*
X15353454Y8589722D01*
X15410298Y8588558D01*
X15449105Y8586293D01*
X15473538Y8582560D01*
X15487262Y8576994D01*
X15493940Y8569227D01*
X15497236Y8558895D01*
X15497556Y8557557D01*
X15502562Y8533421D01*
X15511829Y8485799D01*
X15524392Y8419759D01*
X15539287Y8340372D01*
X15555551Y8252704D01*
X15556119Y8249625D01*
X15572410Y8163711D01*
X15587652Y8087804D01*
X15600861Y8026455D01*
X15611054Y7984218D01*
X15617248Y7965645D01*
X15617543Y7965316D01*
X15635788Y7956247D01*
X15673405Y7941133D01*
X15722271Y7923238D01*
X15722543Y7923142D01*
X15784093Y7900007D01*
X15856657Y7870535D01*
X15925057Y7840903D01*
X15928294Y7839438D01*
X16039702Y7788874D01*
X16286399Y7957340D01*
X16362077Y8008697D01*
X16430631Y8054611D01*
X16488088Y8092470D01*
X16530476Y8119663D01*
X16553825Y8133579D01*
X16556042Y8134611D01*
X16573010Y8130016D01*
X16604701Y8107845D01*
X16652352Y8067053D01*
X16717198Y8006595D01*
X16783397Y7942273D01*
X16847214Y7878888D01*
X16904329Y7821049D01*
X16951305Y7772325D01*
X16984703Y7736290D01*
X17001085Y7716516D01*
X17001694Y7715498D01*
X17003505Y7701928D01*
X16996683Y7679767D01*
X16979540Y7646022D01*
X16950393Y7597700D01*
X16907555Y7531808D01*
X16850448Y7446983D01*
X16799766Y7372323D01*
X16754461Y7305360D01*
X16717150Y7249984D01*
X16690452Y7210080D01*
X16676985Y7189538D01*
X16676137Y7188144D01*
X16677781Y7168462D01*
X16690245Y7130207D01*
X16711048Y7080611D01*
X16718462Y7064772D01*
X16750814Y6994210D01*
X16785328Y6914147D01*
X16813365Y6844871D01*
X16833568Y6793455D01*
X16849615Y6754381D01*
X16858888Y6733959D01*
X16860041Y6732386D01*
X16877096Y6729779D01*
X16917298Y6722637D01*
X16975302Y6711977D01*
X17045763Y6698815D01*
X17123335Y6684167D01*
X17202672Y6669051D01*
X17278431Y6654482D01*
X17345264Y6641478D01*
X17397828Y6631055D01*
X17430776Y6624230D01*
X17438857Y6622301D01*
X17447205Y6617538D01*
X17453506Y6606782D01*
X17458045Y6586402D01*
X17461104Y6552766D01*
X17462967Y6502245D01*
X17463918Y6431208D01*
X17464240Y6336024D01*
X17464257Y6297008D01*
X17464257Y5979701D01*
X17388057Y5964661D01*
X17345663Y5956505D01*
X17282400Y5944601D01*
X17205962Y5930384D01*
X17124043Y5915290D01*
X17101400Y5911145D01*
X17025806Y5896447D01*
X16959953Y5881995D01*
X16909366Y5869125D01*
X16879574Y5859178D01*
X16874612Y5856213D01*
X16862426Y5835217D01*
X16844953Y5794533D01*
X16825577Y5742178D01*
X16821734Y5730900D01*
X16796339Y5660977D01*
X16764817Y5582082D01*
X16733969Y5511234D01*
X16733817Y5510905D01*
X16682447Y5399767D01*
X16851399Y5151247D01*
X17020352Y4902728D01*
X16803429Y4685442D01*
X16737819Y4620774D01*
X16677979Y4563767D01*
X16627267Y4517467D01*
X16589046Y4484916D01*
X16566675Y4469157D01*
X16563466Y4468157D01*
X16544626Y4476031D01*
X16506180Y4497922D01*
X16452330Y4531233D01*
X16387276Y4573369D01*
X16316940Y4620557D01*
X16245555Y4668690D01*
X16181908Y4710572D01*
X16130041Y4743629D01*
X16093995Y4765282D01*
X16077867Y4772957D01*
X16058189Y4766463D01*
X16020875Y4749350D01*
X15973621Y4725174D01*
X15968612Y4722487D01*
X15904977Y4690573D01*
X15861341Y4674921D01*
X15834202Y4674755D01*
X15820057Y4689296D01*
X15819975Y4689500D01*
X15812905Y4706721D01*
X15796042Y4747601D01*
X15770695Y4808975D01*
X15738171Y4887681D01*
X15699778Y4980553D01*
X15656822Y5084428D01*
X15615222Y5184998D01*
X15569504Y5295984D01*
X15527526Y5398797D01*
X15490548Y5490285D01*
X15459827Y5567299D01*
X15436622Y5626685D01*
X15422190Y5665291D01*
X15417743Y5679700D01*
X15428896Y5696228D01*
X15458069Y5722570D01*
X15496971Y5751613D01*
X15607757Y5843461D01*
X15694351Y5948741D01*
X15755716Y6065234D01*
X15790815Y6190724D01*
X15798608Y6322993D01*
X15792943Y6384043D01*
X15762078Y6510705D01*
X15708920Y6622559D01*
X15636767Y6718499D01*
X15548917Y6797424D01*
X15448665Y6858230D01*
X15339310Y6899813D01*
X15224147Y6921072D01*
X15106475Y6920901D01*
X14989590Y6898199D01*
X14876789Y6851862D01*
X14771369Y6780787D01*
X14727368Y6740589D01*
X14642979Y6637371D01*
X14584222Y6524575D01*
X14550704Y6405490D01*
X14542035Y6283405D01*
X14557823Y6161607D01*
X14597678Y6043384D01*
X14661207Y5932025D01*
X14748021Y5830816D01*
X14845029Y5751613D01*
X14885437Y5721338D01*
X14913982Y5695281D01*
X14924257Y5679675D01*
X14918877Y5662657D01*
X14903575Y5622000D01*
X14879612Y5560858D01*
X14848244Y5482381D01*
X14810732Y5389720D01*
X14768333Y5286028D01*
X14726663Y5184974D01*
X14680690Y5073893D01*
X14638107Y4970959D01*
X14600221Y4879335D01*
X14568340Y4802184D01*
X14543771Y4742669D01*
X14527820Y4703956D01*
X14521910Y4689500D01*
X14507948Y4674815D01*
X14480940Y4674858D01*
X14437413Y4690401D01*
X14373890Y4722216D01*
X14373388Y4722487D01*
X14325560Y4747177D01*
X14286897Y4765162D01*
X14265095Y4772886D01*
X14264133Y4772957D01*
X14247721Y4765122D01*
X14211487Y4743335D01*
X14159474Y4710172D01*
X14095725Y4668209D01*
X14025060Y4620557D01*
X13953116Y4572309D01*
X13888274Y4530349D01*
X13834735Y4497273D01*
X13796697Y4475679D01*
X13778533Y4468157D01*
X13761808Y4478043D01*
X13728180Y4505674D01*
X13681010Y4548005D01*
X13623658Y4601995D01*
X13559484Y4664601D01*
X13538497Y4685517D01*
X13321499Y4902877D01*
X13486668Y5145280D01*
X13536864Y5219719D01*
X13580919Y5286528D01*
X13616362Y5341835D01*
X13640719Y5381771D01*
X13651522Y5402464D01*
X13651838Y5403937D01*
X13646143Y5423442D01*
X13630826Y5462678D01*
X13608537Y5515070D01*
X13592893Y5550145D01*
X13563641Y5617299D01*
X13536094Y5685142D01*
X13514737Y5742466D01*
X13508935Y5759928D01*
X13492452Y5806562D01*
X13476340Y5842595D01*
X13467490Y5856213D01*
X13447960Y5864548D01*
X13405334Y5876363D01*
X13345145Y5890319D01*
X13272922Y5905078D01*
X13240600Y5911145D01*
X13158522Y5926227D01*
X13079795Y5940831D01*
X13012109Y5953520D01*
X12963160Y5962858D01*
X12953943Y5964661D01*
X12877743Y5979701D01*
X12877743Y6297008D01*
X12877914Y6401346D01*
X12878616Y6480287D01*
X12880134Y6537462D01*
X12882749Y6576501D01*
X12886746Y6601035D01*
X12892409Y6614695D01*
X12900020Y6621111D01*
X12903143Y6622301D01*
X12921978Y6626520D01*
X12963588Y6634938D01*
X13022630Y6646539D01*
X13093757Y6660305D01*
X13171625Y6675220D01*
X13250887Y6690268D01*
X13326198Y6704431D01*
X13392213Y6716694D01*
X13443587Y6726039D01*
X13474975Y6731450D01*
X13481959Y6732386D01*
X13488285Y6744904D01*
X13502290Y6778254D01*
X13521355Y6826123D01*
X13528634Y6844871D01*
X13557996Y6917305D01*
X13592571Y6997330D01*
X13623537Y7064772D01*
X13646323Y7116341D01*
X13661482Y7158715D01*
X13666542Y7184666D01*
X13665736Y7188144D01*
X13655041Y7204564D01*
X13630620Y7241083D01*
X13595095Y7293813D01*
X13551087Y7358865D01*
X13501217Y7432349D01*
X13491356Y7446855D01*
X13433492Y7532796D01*
X13390956Y7598239D01*
X13362054Y7646196D01*
X13345090Y7679680D01*
X13338367Y7701705D01*
X13340190Y7715283D01*
X13340236Y7715369D01*
X13354586Y7733203D01*
X13386323Y7767683D01*
X13432010Y7815232D01*
X13488204Y7872278D01*
X13551468Y7935245D01*
X13558602Y7942273D01*
X13638330Y8019480D01*
X13699857Y8076170D01*
X13744421Y8113390D01*
X13773257Y8132185D01*
X13785958Y8134611D01*
X13804494Y8124029D01*
X13842961Y8099584D01*
X13897386Y8063888D01*
X13963798Y8019553D01*
X14038225Y7969189D01*
X14055601Y7957340D01*
X14302297Y7788874D01*
X14413706Y7839438D01*
X14481457Y7868905D01*
X14554183Y7898541D01*
X14616703Y7922170D01*
X14619457Y7923142D01*
X14668360Y7941043D01*
X14706057Y7956180D01*
X14724425Y7965290D01*
X14724456Y7965316D01*
X14730285Y7981783D01*
X14740192Y8022281D01*
X14753195Y8082258D01*
X14768309Y8157160D01*
X14784552Y8242436D01*
X14785881Y8249625D01*
X14802175Y8337486D01*
X14817133Y8417240D01*
X14829791Y8483819D01*
X14839186Y8532153D01*
X14844354Y8557175D01*
X14844444Y8557557D01*
X14847589Y8568201D01*
X14853704Y8576238D01*
X14866453Y8582033D01*
X14889500Y8585953D01*
X14926509Y8588365D01*
X14981144Y8589635D01*
X15057067Y8590129D01*
X15157944Y8590214D01*
X15171000Y8590214D01*
X15274910Y8590152D01*
G36*
X15210744Y3881532D02*
G01*
X15267616Y3860413D01*
X15268267Y3860007D01*
X15303440Y3834120D01*
X15329407Y3803867D01*
X15347670Y3764442D01*
X15359732Y3711038D01*
X15367096Y3638849D01*
X15371264Y3543068D01*
X15371629Y3529422D01*
X15376876Y3323658D01*
X15332716Y3300822D01*
X15300763Y3285390D01*
X15281470Y3278077D01*
X15280578Y3277986D01*
X15277239Y3291478D01*
X15274587Y3327874D01*
X15272956Y3381048D01*
X15272600Y3424107D01*
X15272592Y3493859D01*
X15269403Y3537663D01*
X15258288Y3558556D01*
X15234501Y3559575D01*
X15193296Y3543759D01*
X15131086Y3514685D01*
X15085341Y3490537D01*
X15061813Y3469587D01*
X15054896Y3446753D01*
X15054886Y3445623D01*
X15066299Y3406288D01*
X15100092Y3385038D01*
X15151809Y3381961D01*
X15189061Y3382494D01*
X15208703Y3371765D01*
X15220952Y3345995D01*
X15228002Y3313163D01*
X15217842Y3294534D01*
X15214017Y3291868D01*
X15178001Y3281160D01*
X15127566Y3279644D01*
X15075626Y3286741D01*
X15038822Y3299712D01*
X14987938Y3342915D01*
X14959014Y3403054D01*
X14953286Y3450038D01*
X14957657Y3492418D01*
X14973475Y3527012D01*
X15004797Y3557737D01*
X15055678Y3588510D01*
X15130176Y3623248D01*
X15134714Y3625212D01*
X15201821Y3656213D01*
X15243232Y3681638D01*
X15260981Y3704486D01*
X15257107Y3727755D01*
X15233643Y3754444D01*
X15226627Y3760586D01*
X15179630Y3784400D01*
X15130933Y3783397D01*
X15088522Y3760049D01*
X15060384Y3716825D01*
X15057769Y3708340D01*
X15032308Y3667192D01*
X15000001Y3647372D01*
X14953286Y3627730D01*
X14953286Y3678550D01*
X14967496Y3752418D01*
X15009675Y3820173D01*
X15031624Y3842839D01*
X15081517Y3871931D01*
X15144967Y3885100D01*
X15210744Y3881532D01*
G37*
X15210744Y3881532D02*
X15267616Y3860413D01*
X15268267Y3860007D01*
X15303440Y3834120D01*
X15329407Y3803867D01*
X15347670Y3764442D01*
X15359732Y3711038D01*
X15367096Y3638849D01*
X15371264Y3543068D01*
X15371629Y3529422D01*
X15376876Y3323658D01*
X15332716Y3300822D01*
X15300763Y3285390D01*
X15281470Y3278077D01*
X15280578Y3277986D01*
X15277239Y3291478D01*
X15274587Y3327874D01*
X15272956Y3381048D01*
X15272600Y3424107D01*
X15272592Y3493859D01*
X15269403Y3537663D01*
X15258288Y3558556D01*
X15234501Y3559575D01*
X15193296Y3543759D01*
X15131086Y3514685D01*
X15085341Y3490537D01*
X15061813Y3469587D01*
X15054896Y3446753D01*
X15054886Y3445623D01*
X15066299Y3406288D01*
X15100092Y3385038D01*
X15151809Y3381961D01*
X15189061Y3382494D01*
X15208703Y3371765D01*
X15220952Y3345995D01*
X15228002Y3313163D01*
X15217842Y3294534D01*
X15214017Y3291868D01*
X15178001Y3281160D01*
X15127566Y3279644D01*
X15075626Y3286741D01*
X15038822Y3299712D01*
X14987938Y3342915D01*
X14959014Y3403054D01*
X14953286Y3450038D01*
X14957657Y3492418D01*
X14973475Y3527012D01*
X15004797Y3557737D01*
X15055678Y3588510D01*
X15130176Y3623248D01*
X15134714Y3625212D01*
X15201821Y3656213D01*
X15243232Y3681638D01*
X15260981Y3704486D01*
X15257107Y3727755D01*
X15233643Y3754444D01*
X15226627Y3760586D01*
X15179630Y3784400D01*
X15130933Y3783397D01*
X15088522Y3760049D01*
X15060384Y3716825D01*
X15057769Y3708340D01*
X15032308Y3667192D01*
X15000001Y3647372D01*
X14953286Y3627730D01*
X14953286Y3678550D01*
X14967496Y3752418D01*
X15009675Y3820173D01*
X15031624Y3842839D01*
X15081517Y3871931D01*
X15144967Y3885100D01*
X15210744Y3881532D01*
G36*
X16950833Y3873837D02*
G01*
X16953048Y3835650D01*
X16954784Y3777614D01*
X16955899Y3704320D01*
X16956257Y3627445D01*
X16956257Y3367304D01*
X16910326Y3321373D01*
X16878675Y3293071D01*
X16850890Y3281607D01*
X16812915Y3282332D01*
X16797840Y3284179D01*
X16750726Y3289552D01*
X16711756Y3292631D01*
X16702257Y3292915D01*
X16670233Y3291055D01*
X16624432Y3286386D01*
X16606674Y3284179D01*
X16563057Y3280765D01*
X16533745Y3288180D01*
X16504680Y3311073D01*
X16494188Y3321373D01*
X16448257Y3367304D01*
X16448257Y3853898D01*
X16485226Y3870742D01*
X16517059Y3883218D01*
X16535683Y3887586D01*
X16540458Y3873782D01*
X16544921Y3835214D01*
X16548775Y3776144D01*
X16551722Y3700837D01*
X16553143Y3637214D01*
X16557114Y3386843D01*
X16591759Y3381944D01*
X16623268Y3385369D01*
X16638708Y3396459D01*
X16643023Y3417192D01*
X16646708Y3461355D01*
X16649469Y3523354D01*
X16651012Y3597591D01*
X16651235Y3635794D01*
X16651457Y3855717D01*
X16697166Y3871651D01*
X16729518Y3882485D01*
X16747115Y3887538D01*
X16747623Y3887586D01*
X16749388Y3873852D01*
X16751329Y3835770D01*
X16753282Y3778018D01*
X16755084Y3705273D01*
X16756343Y3637214D01*
X16760314Y3386843D01*
X16847400Y3386843D01*
X16851396Y3615260D01*
X16855392Y3843678D01*
X16897847Y3865632D01*
X16929192Y3880707D01*
X16947744Y3887549D01*
X16948279Y3887586D01*
X16950833Y3873837D01*
G37*
X16950833Y3873837D02*
X16953048Y3835650D01*
X16954784Y3777614D01*
X16955899Y3704320D01*
X16956257Y3627445D01*
X16956257Y3367304D01*
X16910326Y3321373D01*
X16878675Y3293071D01*
X16850890Y3281607D01*
X16812915Y3282332D01*
X16797840Y3284179D01*
X16750726Y3289552D01*
X16711756Y3292631D01*
X16702257Y3292915D01*
X16670233Y3291055D01*
X16624432Y3286386D01*
X16606674Y3284179D01*
X16563057Y3280765D01*
X16533745Y3288180D01*
X16504680Y3311073D01*
X16494188Y3321373D01*
X16448257Y3367304D01*
X16448257Y3853898D01*
X16485226Y3870742D01*
X16517059Y3883218D01*
X16535683Y3887586D01*
X16540458Y3873782D01*
X16544921Y3835214D01*
X16548775Y3776144D01*
X16551722Y3700837D01*
X16553143Y3637214D01*
X16557114Y3386843D01*
X16591759Y3381944D01*
X16623268Y3385369D01*
X16638708Y3396459D01*
X16643023Y3417192D01*
X16646708Y3461355D01*
X16649469Y3523354D01*
X16651012Y3597591D01*
X16651235Y3635794D01*
X16651457Y3855717D01*
X16697166Y3871651D01*
X16729518Y3882485D01*
X16747115Y3887538D01*
X16747623Y3887586D01*
X16749388Y3873852D01*
X16751329Y3835770D01*
X16753282Y3778018D01*
X16755084Y3705273D01*
X16756343Y3637214D01*
X16760314Y3386843D01*
X16847400Y3386843D01*
X16851396Y3615260D01*
X16855392Y3843678D01*
X16897847Y3865632D01*
X16929192Y3880707D01*
X16947744Y3887549D01*
X16948279Y3887586D01*
X16950833Y3873837D01*
G36*
X13887093Y3904720D02*
G01*
X13933672Y3877777D01*
X13966057Y3851034D01*
X13989742Y3823016D01*
X14006059Y3788752D01*
X14016339Y3743273D01*
X14021914Y3681608D01*
X14024116Y3598789D01*
X14024371Y3539254D01*
X14024371Y3320109D01*
X13962686Y3292456D01*
X13901000Y3264803D01*
X13893743Y3504830D01*
X13890744Y3594472D01*
X13887598Y3659538D01*
X13883701Y3704474D01*
X13878447Y3733730D01*
X13871231Y3751752D01*
X13861450Y3762989D01*
X13858312Y3765421D01*
X13810761Y3784417D01*
X13762697Y3776900D01*
X13734086Y3756957D01*
X13722447Y3742825D01*
X13714391Y3724280D01*
X13709271Y3696166D01*
X13706441Y3653327D01*
X13705256Y3590605D01*
X13705057Y3525239D01*
X13705018Y3443232D01*
X13703614Y3385184D01*
X13698914Y3346035D01*
X13688987Y3320720D01*
X13671903Y3304177D01*
X13645732Y3291344D01*
X13610775Y3278009D01*
X13572596Y3263493D01*
X13577141Y3521111D01*
X13578971Y3613981D01*
X13581112Y3682611D01*
X13584181Y3731789D01*
X13588794Y3766302D01*
X13595568Y3790938D01*
X13605119Y3810484D01*
X13616634Y3827730D01*
X13672190Y3882820D01*
X13739980Y3914678D01*
X13813713Y3922309D01*
X13887093Y3904720D01*
G37*
X13887093Y3904720D02*
X13933672Y3877777D01*
X13966057Y3851034D01*
X13989742Y3823016D01*
X14006059Y3788752D01*
X14016339Y3743273D01*
X14021914Y3681608D01*
X14024116Y3598789D01*
X14024371Y3539254D01*
X14024371Y3320109D01*
X13962686Y3292456D01*
X13901000Y3264803D01*
X13893743Y3504830D01*
X13890744Y3594472D01*
X13887598Y3659538D01*
X13883701Y3704474D01*
X13878447Y3733730D01*
X13871231Y3751752D01*
X13861450Y3762989D01*
X13858312Y3765421D01*
X13810761Y3784417D01*
X13762697Y3776900D01*
X13734086Y3756957D01*
X13722447Y3742825D01*
X13714391Y3724280D01*
X13709271Y3696166D01*
X13706441Y3653327D01*
X13705256Y3590605D01*
X13705057Y3525239D01*
X13705018Y3443232D01*
X13703614Y3385184D01*
X13698914Y3346035D01*
X13688987Y3320720D01*
X13671903Y3304177D01*
X13645732Y3291344D01*
X13610775Y3278009D01*
X13572596Y3263493D01*
X13577141Y3521111D01*
X13578971Y3613981D01*
X13581112Y3682611D01*
X13584181Y3731789D01*
X13588794Y3766302D01*
X13595568Y3790938D01*
X13605119Y3810484D01*
X13616634Y3827730D01*
X13672190Y3882820D01*
X13739980Y3914678D01*
X13813713Y3922309D01*
X13887093Y3904720D01*
M02*
