G04 #@! TF.GenerationSoftware,KiCad,Pcbnew,(5.99.0-2858-ga3fc028c9b)*
G04 #@! TF.CreationDate,2020-08-26T16:16:25+02:00*
G04 #@! TF.ProjectId,EDSCH0002-V2-A,45445343-4830-4303-9032-2d56322d412e,V2.0*
G04 #@! TF.SameCoordinates,PX3235458PY54a6c6c*
G04 #@! TF.FileFunction,Copper,L2,Inr*
G04 #@! TF.FilePolarity,Positive*
%FSLAX46Y46*%
G04 Gerber Fmt 4.6, Leading zero omitted, Abs format (unit mm)*
G04 Created by KiCad (PCBNEW (5.99.0-2858-ga3fc028c9b)) date 2020-08-26 16:16:25*
%MOMM*%
%LPD*%
G01*
G04 APERTURE LIST*
G04 #@! TA.AperFunction,ComponentPad*
%ADD10R,1.700000X1.700000*%
G04 #@! TD*
G04 #@! TA.AperFunction,ComponentPad*
%ADD11C,0.500000*%
G04 #@! TD*
G04 #@! TA.AperFunction,ViaPad*
%ADD12C,0.500000*%
G04 #@! TD*
G04 APERTURE END LIST*
D10*
X61730000Y16942000D03*
D11*
X38927000Y24794000D03*
X33927000Y24794000D03*
D10*
X57080000Y16942000D03*
D12*
X83242000Y31420000D03*
X90735000Y35039500D03*
X83525000Y9957000D03*
X89398000Y14900500D03*
X90735000Y14015000D03*
X89398000Y25361000D03*
X31299000Y31801000D03*
X34220000Y33071000D03*
X36760000Y33071000D03*
X40697000Y33071000D03*
X32569000Y35103000D03*
X36760000Y35103000D03*
X39427000Y35103000D03*
X40824000Y37389000D03*
X36760000Y37389000D03*
X32569000Y37389000D03*
X27235000Y37389000D03*
X32569000Y40437000D03*
X36760000Y40437000D03*
X40824000Y40437000D03*
X45142000Y40437000D03*
X45142000Y37389000D03*
X27235000Y40437000D03*
X42856000Y35103000D03*
X27235000Y33071000D03*
X32569000Y18212000D03*
X40316000Y18212000D03*
X36506000Y18212000D03*
X31299000Y19990000D03*
X28632000Y19990000D03*
X24949000Y19990000D03*
X24949000Y24943000D03*
X24949000Y28118000D03*
X24949000Y30404000D03*
X31299000Y29261000D03*
X41586000Y19990000D03*
X44507000Y19990000D03*
X48063000Y19990000D03*
X46920000Y24562000D03*
X48444000Y26467000D03*
X46920000Y28499000D03*
X41586000Y29261000D03*
X44761000Y29261000D03*
X64446000Y42342000D03*
X66478000Y42342000D03*
X69526000Y42342000D03*
X73580000Y42342000D03*
X77517000Y42342000D03*
X81589000Y42348000D03*
X85526000Y42348000D03*
X89590000Y42348000D03*
X93527000Y42348000D03*
X71390000Y42348000D03*
X75454000Y42348000D03*
X79391000Y42348000D03*
X83344000Y42348000D03*
X87408000Y42348000D03*
X91345000Y42348000D03*
X61652000Y26086000D03*
X61652000Y24181000D03*
X36125000Y42215000D03*
X56445000Y42342000D03*
X53524000Y4877000D03*
X10140800Y10795200D03*
X90735000Y24562000D03*
X61652000Y28118000D03*
X71050000Y30785000D03*
X27235000Y42088000D03*
X54667000Y25324000D03*
X37522000Y12243000D03*
X72701000Y22911000D03*
X67367000Y42342000D03*
X82353000Y15626000D03*
X97466000Y42342000D03*
X65075000Y30779000D03*
X17456000Y42088000D03*
X35998000Y12243000D03*
X51238000Y22403000D03*
X44507000Y42342000D03*
X20377000Y41961000D03*
X46412000Y42342000D03*
X36506000Y19609000D03*
X60509000Y42342000D03*
X54408000Y42347000D03*
X82353000Y36754000D03*
X31426000Y42215000D03*
X50476000Y42342000D03*
X82353000Y21641000D03*
X49460000Y42342000D03*
X51261000Y36350000D03*
X33331000Y42215000D03*
X82353000Y32182000D03*
X31934000Y15672000D03*
X36506000Y30150000D03*
X50349000Y25959000D03*
X53524000Y9322000D03*
X95408000Y42368000D03*
X40316000Y42342000D03*
X37141000Y42215000D03*
X51238000Y31801000D03*
X82353000Y26213000D03*
X58477000Y42342000D03*
X89398000Y35925000D03*
X47428000Y42342000D03*
X62414000Y42342000D03*
X72066000Y22149000D03*
X39046000Y12116000D03*
X52508000Y42342000D03*
X83496000Y20879000D03*
X34474000Y12243000D03*
X41205000Y42342000D03*
X82353000Y10973000D03*
X31172000Y23165000D03*
X29013000Y23165000D03*
X30664000Y26340000D03*
X29013000Y24562000D03*
X41586000Y23165000D03*
X42984000Y22149000D03*
X42602000Y26594000D03*
X41459000Y26340000D03*
X83369000Y26213000D03*
X52508000Y9322000D03*
X55810000Y25324000D03*
X71050000Y22149000D03*
X50222000Y31801000D03*
X83750000Y10973000D03*
X63430000Y25197000D03*
X83398000Y15626000D03*
X31000990Y15754990D03*
X52254000Y25197000D03*
X30918000Y11989000D03*
X44507000Y24943000D03*
X36379000Y27610000D03*
X19869000Y10846000D03*
X71050000Y22149000D03*
X52889000Y23165000D03*
X52508000Y4877000D03*
X70288000Y22911000D03*
X36379000Y22149000D03*
X63430000Y23292000D03*
X63430000Y28880000D03*
X83750000Y21768000D03*
X83623000Y32309000D03*
X83369000Y36754000D03*
X50222000Y36373000D03*
X47175000Y33645500D03*
X47175000Y34534500D03*
X42094000Y24562000D03*
X53778000Y26975000D03*
X42475000Y25070000D03*
X50222000Y26975000D03*
X50222000Y24181000D03*
X42094000Y25705000D03*
X27235000Y22022000D03*
X30809000Y24544000D03*
X66605000Y26594000D03*
X66605000Y25324000D03*
X29902000Y27864000D03*
X30788480Y25143651D03*
X21647000Y32944000D03*
G04 #@! TA.AperFunction,Conductor*
G36*
X113759191Y47781093D02*
G01*
X113800000Y47701000D01*
X113800001Y299000D01*
X113781094Y240809D01*
X113731594Y204845D01*
X113701001Y200000D01*
X299000Y200000D01*
X240809Y218907D01*
X200000Y299000D01*
X200000Y4016285D01*
X2445043Y4016285D01*
X2445043Y4016283D01*
X2462443Y3767462D01*
X2519399Y3524632D01*
X2519399Y3524630D01*
X2614445Y3294030D01*
X2745145Y3081581D01*
X2745152Y3081572D01*
X2908119Y2892775D01*
X2908126Y2892767D01*
X3099190Y2732445D01*
X3099199Y2732438D01*
X3313435Y2604728D01*
X3545349Y2512906D01*
X3788963Y2459345D01*
X4037989Y2445422D01*
X4286051Y2471494D01*
X4526752Y2536891D01*
X4753898Y2639929D01*
X4753905Y2639933D01*
X4961649Y2777958D01*
X4961648Y2777958D01*
X5144658Y2947425D01*
X5144668Y2947436D01*
X5298220Y3143974D01*
X5298227Y3143985D01*
X5418383Y3362549D01*
X5502054Y3597524D01*
X5547080Y3842853D01*
X5550033Y4124714D01*
X5516526Y4331599D01*
X24918801Y4331599D01*
X24918801Y3886473D01*
X24933745Y3753240D01*
X24933746Y3753234D01*
X24992768Y3583748D01*
X24992771Y3583743D01*
X25087879Y3431538D01*
X25214347Y3304184D01*
X25214350Y3304182D01*
X25365883Y3208016D01*
X25534963Y3147810D01*
X25534971Y3147808D01*
X25568800Y3143774D01*
X25568800Y4331599D01*
X25868800Y4331599D01*
X25868800Y3142914D01*
X25891677Y3145319D01*
X25891679Y3145319D01*
X26061574Y3203155D01*
X26061578Y3203157D01*
X26214441Y3297198D01*
X26342681Y3422781D01*
X26439904Y3573641D01*
X26477228Y3676191D01*
X33068800Y3676191D01*
X33068800Y3487009D01*
X33108135Y3301954D01*
X33108138Y3301947D01*
X33185079Y3129132D01*
X33185083Y3129125D01*
X33296290Y2976062D01*
X33296291Y2976061D01*
X33436877Y2849476D01*
X33436883Y2849472D01*
X33600711Y2754886D01*
X33600725Y2754879D01*
X33780644Y2696419D01*
X33968800Y2676643D01*
X34156956Y2696419D01*
X34336875Y2754879D01*
X34336889Y2754886D01*
X34500717Y2849472D01*
X34500723Y2849476D01*
X34641309Y2976061D01*
X34641310Y2976062D01*
X34752517Y3129125D01*
X34752521Y3129132D01*
X34829462Y3301947D01*
X34829465Y3301954D01*
X34868800Y3487009D01*
X34868800Y3676191D01*
X34829465Y3861246D01*
X34829462Y3861253D01*
X34752521Y4034068D01*
X34752517Y4034075D01*
X34641310Y4187138D01*
X34641309Y4187139D01*
X34500723Y4313724D01*
X34500717Y4313728D01*
X34469764Y4331599D01*
X41418801Y4331599D01*
X41418801Y3886473D01*
X41433745Y3753240D01*
X41433746Y3753234D01*
X41492768Y3583748D01*
X41492771Y3583743D01*
X41587879Y3431538D01*
X41714347Y3304184D01*
X41714350Y3304182D01*
X41865883Y3208016D01*
X42034963Y3147810D01*
X42034971Y3147808D01*
X42068800Y3143774D01*
X42068800Y4331599D01*
X42368800Y4331599D01*
X42368800Y3142914D01*
X42391677Y3145319D01*
X42391679Y3145319D01*
X42561574Y3203155D01*
X42561578Y3203157D01*
X42714441Y3297198D01*
X42842681Y3422781D01*
X42939904Y3573641D01*
X43001289Y3742297D01*
X43018800Y3889156D01*
X43018800Y4016285D01*
X108445043Y4016285D01*
X108445043Y4016283D01*
X108462443Y3767462D01*
X108519399Y3524632D01*
X108519399Y3524630D01*
X108614445Y3294030D01*
X108745145Y3081581D01*
X108745152Y3081572D01*
X108908119Y2892775D01*
X108908126Y2892767D01*
X109099190Y2732445D01*
X109099199Y2732438D01*
X109313435Y2604728D01*
X109545349Y2512906D01*
X109788963Y2459345D01*
X110037989Y2445422D01*
X110286051Y2471494D01*
X110526752Y2536891D01*
X110753898Y2639929D01*
X110753905Y2639933D01*
X110961649Y2777958D01*
X110961648Y2777958D01*
X111144658Y2947425D01*
X111144668Y2947436D01*
X111298220Y3143974D01*
X111298227Y3143985D01*
X111418383Y3362549D01*
X111502054Y3597524D01*
X111547080Y3842853D01*
X111550033Y4124714D01*
X111510155Y4370931D01*
X111431424Y4607603D01*
X111431424Y4607604D01*
X111315869Y4828640D01*
X111166456Y5028365D01*
X111166451Y5028370D01*
X110987040Y5201627D01*
X110782217Y5343983D01*
X110557284Y5451754D01*
X110317999Y5522181D01*
X110070556Y5553440D01*
X110070543Y5553440D01*
X109821268Y5544736D01*
X109576591Y5496288D01*
X109576585Y5496286D01*
X109342812Y5409347D01*
X109342809Y5409346D01*
X109125942Y5286148D01*
X108931548Y5129852D01*
X108931545Y5129850D01*
X108764654Y4944497D01*
X108629538Y4734840D01*
X108629537Y4734838D01*
X108529679Y4506273D01*
X108467650Y4264686D01*
X108445043Y4016285D01*
X43018800Y4016285D01*
X43018800Y4331599D01*
X43018799Y4331600D01*
X42368801Y4331600D01*
X42368800Y4331599D01*
X42068800Y4331599D01*
X42068799Y4331600D01*
X41418802Y4331600D01*
X41418801Y4331599D01*
X34469764Y4331599D01*
X34336889Y4408314D01*
X34336875Y4408321D01*
X34156956Y4466781D01*
X33968800Y4486557D01*
X33780644Y4466781D01*
X33600725Y4408321D01*
X33600711Y4408314D01*
X33436883Y4313728D01*
X33436877Y4313724D01*
X33296291Y4187139D01*
X33296290Y4187138D01*
X33185083Y4034075D01*
X33185079Y4034068D01*
X33108138Y3861253D01*
X33108135Y3861246D01*
X33068800Y3676191D01*
X26477228Y3676191D01*
X26501289Y3742297D01*
X26518800Y3889156D01*
X26518800Y4331599D01*
X26518799Y4331600D01*
X25868801Y4331600D01*
X25868800Y4331599D01*
X25568800Y4331599D01*
X25568799Y4331600D01*
X24918802Y4331600D01*
X24918801Y4331599D01*
X5516526Y4331599D01*
X5510155Y4370931D01*
X5431424Y4607603D01*
X5431424Y4607604D01*
X5315869Y4828640D01*
X5166456Y5028365D01*
X5166451Y5028370D01*
X5119156Y5074043D01*
X24918800Y5074043D01*
X24918800Y4631601D01*
X24918801Y4631600D01*
X25568799Y4631600D01*
X25568800Y4631601D01*
X25868800Y4631601D01*
X25868801Y4631600D01*
X26518799Y4631600D01*
X26518800Y4631601D01*
X26518800Y5074043D01*
X41418800Y5074043D01*
X41418800Y4631601D01*
X41418801Y4631600D01*
X42068799Y4631600D01*
X42068800Y4631601D01*
X42368800Y4631601D01*
X42368801Y4631600D01*
X43018799Y4631600D01*
X43018800Y4631601D01*
X43018800Y4882193D01*
X52050235Y4882193D01*
X52079057Y4717051D01*
X52165398Y4573355D01*
X52297678Y4470380D01*
X52458165Y4421927D01*
X52625326Y4434496D01*
X52625330Y4434497D01*
X52776759Y4506401D01*
X52776762Y4506404D01*
X52892156Y4628003D01*
X52956038Y4782992D01*
X52958055Y4960820D01*
X52897708Y5117214D01*
X52897705Y5117219D01*
X52785101Y5241404D01*
X52785102Y5241404D01*
X52635337Y5316728D01*
X52468496Y5333086D01*
X52306958Y5288288D01*
X52172374Y5188337D01*
X52172371Y5188333D01*
X52082797Y5046640D01*
X52082796Y5046638D01*
X52050236Y4882198D01*
X52050235Y4882193D01*
X43018800Y4882193D01*
X43018800Y5076727D01*
X43003856Y5209960D01*
X43003855Y5209966D01*
X42944833Y5379452D01*
X42944830Y5379457D01*
X42849723Y5531661D01*
X42849720Y5531664D01*
X42723253Y5659016D01*
X42723250Y5659018D01*
X42571717Y5755184D01*
X42402637Y5815390D01*
X42402629Y5815392D01*
X42368800Y5819426D01*
X42368800Y4631601D01*
X42068800Y4631601D01*
X42068800Y5820286D01*
X42045922Y5817881D01*
X41876026Y5760045D01*
X41876022Y5760043D01*
X41723158Y5666001D01*
X41723149Y5665994D01*
X41594926Y5540427D01*
X41594919Y5540418D01*
X41497696Y5389558D01*
X41436311Y5220902D01*
X41418800Y5074043D01*
X26518800Y5074043D01*
X26518800Y5076727D01*
X26503856Y5209960D01*
X26503855Y5209966D01*
X26444833Y5379452D01*
X26444830Y5379457D01*
X26349723Y5531661D01*
X26349720Y5531664D01*
X26223253Y5659016D01*
X26223250Y5659018D01*
X26071717Y5755184D01*
X25902637Y5815390D01*
X25902629Y5815392D01*
X25868800Y5819426D01*
X25868800Y4631601D01*
X25568800Y4631601D01*
X25568800Y5820286D01*
X25545922Y5817881D01*
X25376026Y5760045D01*
X25376022Y5760043D01*
X25223158Y5666001D01*
X25223149Y5665994D01*
X25094926Y5540427D01*
X25094919Y5540418D01*
X24997696Y5389558D01*
X24936311Y5220902D01*
X24918800Y5074043D01*
X5119156Y5074043D01*
X4987040Y5201627D01*
X4782217Y5343983D01*
X4557284Y5451754D01*
X4317999Y5522181D01*
X4070556Y5553440D01*
X4070543Y5553440D01*
X3821268Y5544736D01*
X3576591Y5496288D01*
X3576585Y5496286D01*
X3342812Y5409347D01*
X3342809Y5409346D01*
X3125942Y5286148D01*
X2931548Y5129852D01*
X2931545Y5129850D01*
X2764654Y4944497D01*
X2629538Y4734840D01*
X2629537Y4734838D01*
X2529679Y4506273D01*
X2467650Y4264686D01*
X2445043Y4016285D01*
X200000Y4016285D01*
X200000Y7212620D01*
X86224118Y7212620D01*
X86262806Y7047672D01*
X86339724Y6896712D01*
X86450430Y6768457D01*
X86588538Y6670309D01*
X86588539Y6670308D01*
X86746061Y6607942D01*
X86746069Y6607939D01*
X86913923Y6584946D01*
X86913925Y6584946D01*
X87082424Y6602656D01*
X87241834Y6660047D01*
X87241834Y6660048D01*
X87382954Y6753809D01*
X87497632Y6878519D01*
X87497634Y6878522D01*
X87579254Y7026989D01*
X87623105Y7190642D01*
X87623335Y7212620D01*
X88764118Y7212620D01*
X88802806Y7047672D01*
X88879724Y6896712D01*
X88990430Y6768457D01*
X89128538Y6670309D01*
X89128539Y6670308D01*
X89286061Y6607942D01*
X89286069Y6607939D01*
X89453923Y6584946D01*
X89453925Y6584946D01*
X89622424Y6602656D01*
X89781834Y6660047D01*
X89781834Y6660048D01*
X89922954Y6753809D01*
X90037632Y6878519D01*
X90037634Y6878522D01*
X90119254Y7026989D01*
X90163105Y7190642D01*
X90165034Y7374714D01*
X90165033Y7374716D01*
X90124622Y7539246D01*
X90124620Y7539249D01*
X90046127Y7689394D01*
X90046126Y7689395D01*
X89934082Y7816484D01*
X89794955Y7913179D01*
X89636787Y7973895D01*
X89636778Y7973898D01*
X89468697Y7995130D01*
X89468688Y7995130D01*
X89300389Y7975658D01*
X89141586Y7916599D01*
X89001456Y7821366D01*
X88888088Y7695459D01*
X88808025Y7546141D01*
X88765892Y7382040D01*
X88764118Y7212620D01*
X87623335Y7212620D01*
X87625034Y7374714D01*
X87625033Y7374716D01*
X87584622Y7539246D01*
X87584620Y7539249D01*
X87506127Y7689394D01*
X87506126Y7689395D01*
X87394082Y7816484D01*
X87254955Y7913179D01*
X87096787Y7973895D01*
X87096778Y7973898D01*
X86928697Y7995130D01*
X86928688Y7995130D01*
X86760389Y7975658D01*
X86601586Y7916599D01*
X86461456Y7821366D01*
X86348088Y7695459D01*
X86268025Y7546141D01*
X86225892Y7382040D01*
X86224118Y7212620D01*
X200000Y7212620D01*
X200000Y9327193D01*
X52050235Y9327193D01*
X52079057Y9162051D01*
X52165398Y9018355D01*
X52297678Y8915380D01*
X52458165Y8866927D01*
X52625326Y8879496D01*
X52625330Y8879497D01*
X52776759Y8951401D01*
X52776762Y8951404D01*
X52892156Y9073003D01*
X52956038Y9227992D01*
X52958055Y9405820D01*
X52897708Y9562214D01*
X52897705Y9562219D01*
X52785101Y9686404D01*
X52785102Y9686404D01*
X52635337Y9761728D01*
X52468496Y9778086D01*
X52306958Y9733288D01*
X52172374Y9633337D01*
X52172371Y9633333D01*
X52082797Y9491640D01*
X52082796Y9491638D01*
X52050236Y9327198D01*
X52050235Y9327193D01*
X200000Y9327193D01*
X200000Y10851193D01*
X19411235Y10851193D01*
X19440057Y10686051D01*
X19526398Y10542355D01*
X19658678Y10439380D01*
X19819165Y10390927D01*
X19986326Y10403496D01*
X19986330Y10403497D01*
X20137759Y10475401D01*
X20137762Y10475404D01*
X20253156Y10597003D01*
X20317038Y10751992D01*
X20319055Y10929820D01*
X20258708Y11086214D01*
X20258705Y11086219D01*
X20235692Y11111599D01*
X24918801Y11111599D01*
X24918801Y10416473D01*
X24933745Y10283240D01*
X24933746Y10283234D01*
X24992768Y10113748D01*
X24992771Y10113743D01*
X25087879Y9961538D01*
X25214347Y9834184D01*
X25214350Y9834182D01*
X25365883Y9738016D01*
X25534963Y9677810D01*
X25534971Y9677808D01*
X25568800Y9673774D01*
X25568800Y11111599D01*
X25868800Y11111599D01*
X25868800Y9672914D01*
X25891677Y9675319D01*
X25891679Y9675319D01*
X26061574Y9733155D01*
X26061578Y9733157D01*
X26214441Y9827198D01*
X26342681Y9952781D01*
X26439904Y10103641D01*
X26501289Y10272297D01*
X26518800Y10419156D01*
X26518800Y11111599D01*
X41418801Y11111599D01*
X41418801Y10416473D01*
X41433745Y10283240D01*
X41433746Y10283234D01*
X41492768Y10113748D01*
X41492771Y10113743D01*
X41587879Y9961538D01*
X41714347Y9834184D01*
X41714350Y9834182D01*
X41865883Y9738016D01*
X42034963Y9677810D01*
X42034971Y9677808D01*
X42068800Y9673774D01*
X42068800Y11111599D01*
X42368800Y11111599D01*
X42368800Y9672914D01*
X42391677Y9675319D01*
X42391679Y9675319D01*
X42561574Y9733155D01*
X42561578Y9733157D01*
X42714441Y9827198D01*
X42842681Y9952781D01*
X42939904Y10103641D01*
X43001289Y10272297D01*
X43018800Y10419156D01*
X43018800Y10978193D01*
X83292235Y10978193D01*
X83321057Y10813051D01*
X83407398Y10669355D01*
X83539678Y10566380D01*
X83700165Y10517927D01*
X83867326Y10530496D01*
X83867330Y10530497D01*
X84018759Y10602401D01*
X84018762Y10602404D01*
X84134156Y10724003D01*
X84198038Y10878992D01*
X84200055Y11056820D01*
X84139708Y11213214D01*
X84139705Y11213219D01*
X84027101Y11337404D01*
X84027102Y11337404D01*
X83877337Y11412728D01*
X83710496Y11429086D01*
X83548958Y11384288D01*
X83414374Y11284337D01*
X83414371Y11284333D01*
X83324797Y11142640D01*
X83324796Y11142638D01*
X83292236Y10978198D01*
X83292235Y10978193D01*
X43018800Y10978193D01*
X43018800Y11111599D01*
X43018799Y11111600D01*
X42368801Y11111600D01*
X42368800Y11111599D01*
X42068800Y11111599D01*
X42068799Y11111600D01*
X41418802Y11111600D01*
X41418801Y11111599D01*
X26518800Y11111599D01*
X26518799Y11111600D01*
X25868801Y11111600D01*
X25868800Y11111599D01*
X25568800Y11111599D01*
X25568799Y11111600D01*
X24918802Y11111600D01*
X24918801Y11111599D01*
X20235692Y11111599D01*
X20146101Y11210404D01*
X20146102Y11210404D01*
X19996337Y11285728D01*
X19829496Y11302086D01*
X19667958Y11257288D01*
X19533374Y11157337D01*
X19533371Y11157333D01*
X19443797Y11015640D01*
X19443796Y11015638D01*
X19411236Y10851198D01*
X19411235Y10851193D01*
X200000Y10851193D01*
X200000Y12104043D01*
X24918800Y12104043D01*
X24918800Y11411601D01*
X24918801Y11411600D01*
X25568799Y11411600D01*
X25568800Y11411601D01*
X25868800Y11411601D01*
X25868801Y11411600D01*
X26518799Y11411600D01*
X26518800Y11411601D01*
X26518800Y11994193D01*
X30460235Y11994193D01*
X30489057Y11829051D01*
X30575398Y11685355D01*
X30707678Y11582380D01*
X30868165Y11533927D01*
X31035326Y11546496D01*
X31035330Y11546497D01*
X31186759Y11618401D01*
X31186762Y11618404D01*
X31302156Y11740003D01*
X31366038Y11894992D01*
X31368055Y12072820D01*
X31356008Y12104043D01*
X41418800Y12104043D01*
X41418800Y11411601D01*
X41418801Y11411600D01*
X42068799Y11411600D01*
X42068800Y11411601D01*
X42368800Y11411601D01*
X42368801Y11411600D01*
X43018799Y11411600D01*
X43018800Y11411601D01*
X43018800Y12106727D01*
X43003856Y12239960D01*
X43003855Y12239966D01*
X42944833Y12409452D01*
X42944830Y12409457D01*
X42849723Y12561661D01*
X42849720Y12561664D01*
X42723253Y12689016D01*
X42723250Y12689018D01*
X42571717Y12785184D01*
X42402637Y12845390D01*
X42402629Y12845392D01*
X42368800Y12849426D01*
X42368800Y11411601D01*
X42068800Y11411601D01*
X42068800Y12850286D01*
X42045922Y12847881D01*
X41876026Y12790045D01*
X41876022Y12790043D01*
X41723158Y12696001D01*
X41723149Y12695994D01*
X41594926Y12570427D01*
X41594919Y12570418D01*
X41497696Y12419558D01*
X41436311Y12250902D01*
X41418800Y12104043D01*
X31356008Y12104043D01*
X31307708Y12229214D01*
X31307705Y12229219D01*
X31195101Y12353404D01*
X31195102Y12353404D01*
X31045337Y12428728D01*
X30878496Y12445086D01*
X30716958Y12400288D01*
X30582374Y12300337D01*
X30582371Y12300333D01*
X30492797Y12158640D01*
X30492796Y12158638D01*
X30460236Y11994198D01*
X30460235Y11994193D01*
X26518800Y11994193D01*
X26518800Y12106727D01*
X26503856Y12239960D01*
X26503855Y12239966D01*
X26444833Y12409452D01*
X26444830Y12409457D01*
X26349723Y12561661D01*
X26349720Y12561664D01*
X26223253Y12689016D01*
X26223250Y12689018D01*
X26071717Y12785184D01*
X25902637Y12845390D01*
X25902629Y12845392D01*
X25868800Y12849426D01*
X25868800Y11411601D01*
X25568800Y11411601D01*
X25568800Y12850286D01*
X25545922Y12847881D01*
X25376026Y12790045D01*
X25376022Y12790043D01*
X25223158Y12696001D01*
X25223149Y12695994D01*
X25094926Y12570427D01*
X25094919Y12570418D01*
X24997696Y12419558D01*
X24936311Y12250902D01*
X24918800Y12104043D01*
X200000Y12104043D01*
X200000Y15760183D01*
X30543225Y15760183D01*
X30572047Y15595041D01*
X30658388Y15451345D01*
X30790668Y15348370D01*
X30951155Y15299917D01*
X31118316Y15312486D01*
X31118320Y15312487D01*
X31269749Y15384391D01*
X31269752Y15384394D01*
X31385146Y15505993D01*
X31436749Y15631193D01*
X82940235Y15631193D01*
X82969057Y15466051D01*
X83055398Y15322355D01*
X83187678Y15219380D01*
X83348165Y15170927D01*
X83515326Y15183496D01*
X83515330Y15183497D01*
X83666759Y15255401D01*
X83666762Y15255404D01*
X83782156Y15377003D01*
X83846038Y15531992D01*
X83848055Y15709820D01*
X83787708Y15866214D01*
X83787705Y15866219D01*
X83675101Y15990404D01*
X83675102Y15990404D01*
X83525337Y16065728D01*
X83358496Y16082086D01*
X83196958Y16037288D01*
X83062374Y15937337D01*
X83062371Y15937333D01*
X82972797Y15795640D01*
X82972796Y15795638D01*
X82940236Y15631198D01*
X82940235Y15631193D01*
X31436749Y15631193D01*
X31449028Y15660982D01*
X31451045Y15838810D01*
X31390698Y15995204D01*
X31390695Y15995209D01*
X31278091Y16119394D01*
X31278092Y16119394D01*
X31128327Y16194718D01*
X30961486Y16211076D01*
X30799948Y16166278D01*
X30665364Y16066327D01*
X30665361Y16066323D01*
X30575787Y15924630D01*
X30575786Y15924628D01*
X30543226Y15760188D01*
X30543225Y15760183D01*
X200000Y15760183D01*
X200000Y17792003D01*
X56026082Y17792003D01*
X56026082Y16091997D01*
X56041604Y16013964D01*
X56085806Y15947811D01*
X56085811Y15947806D01*
X56151964Y15903604D01*
X56229997Y15888082D01*
X57930003Y15888082D01*
X58008037Y15903604D01*
X58008036Y15903604D01*
X58074189Y15947806D01*
X58074194Y15947811D01*
X58118396Y16013964D01*
X58133918Y16091997D01*
X58133918Y17792003D01*
X60676082Y17792003D01*
X60676082Y16091997D01*
X60691604Y16013964D01*
X60735806Y15947811D01*
X60735811Y15947806D01*
X60801964Y15903604D01*
X60879997Y15888082D01*
X62580003Y15888082D01*
X62658037Y15903604D01*
X62658036Y15903604D01*
X62724189Y15947806D01*
X62724194Y15947811D01*
X62768396Y16013964D01*
X62783918Y16091997D01*
X62783918Y17792003D01*
X62768396Y17870036D01*
X62724194Y17936189D01*
X62724189Y17936194D01*
X62658036Y17980396D01*
X62658037Y17980396D01*
X62580003Y17995918D01*
X60879997Y17995918D01*
X60801964Y17980396D01*
X60735811Y17936194D01*
X60735806Y17936189D01*
X60691604Y17870036D01*
X60676082Y17792003D01*
X58133918Y17792003D01*
X58118396Y17870036D01*
X58074194Y17936189D01*
X58074189Y17936194D01*
X58008036Y17980396D01*
X58008037Y17980396D01*
X57930003Y17995918D01*
X56229997Y17995918D01*
X56151964Y17980396D01*
X56085811Y17936194D01*
X56085806Y17936189D01*
X56041604Y17870036D01*
X56026082Y17792003D01*
X200000Y17792003D01*
X200000Y18209620D01*
X86224118Y18209620D01*
X86262806Y18044672D01*
X86339724Y17893712D01*
X86450430Y17765457D01*
X86588538Y17667309D01*
X86588539Y17667308D01*
X86746061Y17604942D01*
X86746069Y17604939D01*
X86913923Y17581946D01*
X86913925Y17581946D01*
X87082424Y17599656D01*
X87241834Y17657047D01*
X87241834Y17657048D01*
X87382954Y17750809D01*
X87497632Y17875519D01*
X87497634Y17875522D01*
X87579254Y18023989D01*
X87623105Y18187642D01*
X87623335Y18209620D01*
X88764118Y18209620D01*
X88802806Y18044672D01*
X88879724Y17893712D01*
X88990430Y17765457D01*
X89128538Y17667309D01*
X89128539Y17667308D01*
X89286061Y17604942D01*
X89286069Y17604939D01*
X89453923Y17581946D01*
X89453925Y17581946D01*
X89622424Y17599656D01*
X89781834Y17657047D01*
X89781834Y17657048D01*
X89922954Y17750809D01*
X90037632Y17875519D01*
X90037634Y17875522D01*
X90119254Y18023989D01*
X90163105Y18187642D01*
X90165034Y18371714D01*
X90165033Y18371716D01*
X90124622Y18536246D01*
X90124620Y18536249D01*
X90046127Y18686394D01*
X90046126Y18686395D01*
X89934082Y18813484D01*
X89794955Y18910179D01*
X89636787Y18970895D01*
X89636778Y18970898D01*
X89468697Y18992130D01*
X89468688Y18992130D01*
X89300389Y18972658D01*
X89141586Y18913599D01*
X89001456Y18818366D01*
X88888088Y18692459D01*
X88808025Y18543141D01*
X88765892Y18379040D01*
X88764118Y18209620D01*
X87623335Y18209620D01*
X87625034Y18371714D01*
X87625033Y18371716D01*
X87584622Y18536246D01*
X87584620Y18536249D01*
X87506127Y18686394D01*
X87506126Y18686395D01*
X87394082Y18813484D01*
X87254955Y18910179D01*
X87096787Y18970895D01*
X87096778Y18970898D01*
X86928697Y18992130D01*
X86928688Y18992130D01*
X86760389Y18972658D01*
X86601586Y18913599D01*
X86461456Y18818366D01*
X86348088Y18692459D01*
X86268025Y18543141D01*
X86225892Y18379040D01*
X86224118Y18209620D01*
X200000Y18209620D01*
X200000Y19404620D01*
X56379118Y19404620D01*
X56417806Y19239672D01*
X56494724Y19088712D01*
X56605430Y18960457D01*
X56743538Y18862309D01*
X56743539Y18862308D01*
X56901061Y18799942D01*
X56901069Y18799939D01*
X57068923Y18776946D01*
X57068925Y18776946D01*
X57237424Y18794656D01*
X57396834Y18852047D01*
X57396834Y18852048D01*
X57537954Y18945809D01*
X57652632Y19070519D01*
X57652634Y19070522D01*
X57734254Y19218989D01*
X57778105Y19382642D01*
X57778335Y19404620D01*
X61029118Y19404620D01*
X61067806Y19239672D01*
X61144724Y19088712D01*
X61255430Y18960457D01*
X61393538Y18862309D01*
X61393539Y18862308D01*
X61551061Y18799942D01*
X61551069Y18799939D01*
X61718923Y18776946D01*
X61718925Y18776946D01*
X61887424Y18794656D01*
X62046834Y18852047D01*
X62046834Y18852048D01*
X62187954Y18945809D01*
X62302632Y19070519D01*
X62302634Y19070522D01*
X62384254Y19218989D01*
X62428105Y19382642D01*
X62430034Y19566714D01*
X62430033Y19566716D01*
X62389622Y19731246D01*
X62389620Y19731249D01*
X62311127Y19881394D01*
X62311126Y19881395D01*
X62199082Y20008484D01*
X62059955Y20105179D01*
X61901787Y20165895D01*
X61901778Y20165898D01*
X61733697Y20187130D01*
X61733688Y20187130D01*
X61565389Y20167658D01*
X61406586Y20108599D01*
X61266456Y20013366D01*
X61153088Y19887459D01*
X61073025Y19738141D01*
X61030892Y19574040D01*
X61029118Y19404620D01*
X57778335Y19404620D01*
X57780034Y19566714D01*
X57780033Y19566716D01*
X57739622Y19731246D01*
X57739620Y19731249D01*
X57661127Y19881394D01*
X57661126Y19881395D01*
X57549082Y20008484D01*
X57409955Y20105179D01*
X57251787Y20165895D01*
X57251778Y20165898D01*
X57083697Y20187130D01*
X57083688Y20187130D01*
X56915389Y20167658D01*
X56756586Y20108599D01*
X56616456Y20013366D01*
X56503088Y19887459D01*
X56423025Y19738141D01*
X56380892Y19574040D01*
X56379118Y19404620D01*
X200000Y19404620D01*
X200000Y22027193D01*
X26777235Y22027193D01*
X26806057Y21862051D01*
X26892398Y21718355D01*
X27024678Y21615380D01*
X27185165Y21566927D01*
X27352326Y21579496D01*
X27352330Y21579497D01*
X27503759Y21651401D01*
X27503762Y21651404D01*
X27619156Y21773003D01*
X27683038Y21927992D01*
X27685055Y22105820D01*
X27666390Y22154193D01*
X35921235Y22154193D01*
X35950057Y21989051D01*
X36036398Y21845355D01*
X36168678Y21742380D01*
X36329165Y21693927D01*
X36496326Y21706496D01*
X36496330Y21706497D01*
X36647759Y21778401D01*
X36647762Y21778404D01*
X36763156Y21900003D01*
X36827038Y22054992D01*
X36828163Y22154193D01*
X42526235Y22154193D01*
X42555057Y21989051D01*
X42641398Y21845355D01*
X42773678Y21742380D01*
X42934165Y21693927D01*
X43101326Y21706496D01*
X43101330Y21706497D01*
X43252759Y21778401D01*
X43252762Y21778404D01*
X43368156Y21900003D01*
X43432038Y22054992D01*
X43434055Y22232820D01*
X43373708Y22389214D01*
X43373705Y22389219D01*
X43261101Y22513404D01*
X43261102Y22513404D01*
X43111337Y22588728D01*
X42944496Y22605086D01*
X42782958Y22560288D01*
X42648374Y22460337D01*
X42648371Y22460333D01*
X42558797Y22318640D01*
X42558796Y22318638D01*
X42526236Y22154198D01*
X42526235Y22154193D01*
X36828163Y22154193D01*
X36829055Y22232820D01*
X36768708Y22389214D01*
X36768705Y22389219D01*
X36656101Y22513404D01*
X36656102Y22513404D01*
X36506337Y22588728D01*
X36339496Y22605086D01*
X36177958Y22560288D01*
X36043374Y22460337D01*
X36043371Y22460333D01*
X35953797Y22318640D01*
X35953796Y22318638D01*
X35921236Y22154198D01*
X35921235Y22154193D01*
X27666390Y22154193D01*
X27624708Y22262214D01*
X27624705Y22262219D01*
X27512101Y22386404D01*
X27512102Y22386404D01*
X27362337Y22461728D01*
X27195496Y22478086D01*
X27033958Y22433288D01*
X26899374Y22333337D01*
X26899371Y22333333D01*
X26809797Y22191640D01*
X26809796Y22191638D01*
X26777236Y22027198D01*
X26777235Y22027193D01*
X200000Y22027193D01*
X200000Y23170193D01*
X28555235Y23170193D01*
X28584057Y23005051D01*
X28670398Y22861355D01*
X28802678Y22758380D01*
X28963165Y22709927D01*
X29130326Y22722496D01*
X29130330Y22722497D01*
X29281759Y22794401D01*
X29281762Y22794404D01*
X29397156Y22916003D01*
X29461038Y23070992D01*
X29462163Y23170193D01*
X30714235Y23170193D01*
X30743057Y23005051D01*
X30829398Y22861355D01*
X30961678Y22758380D01*
X31122165Y22709927D01*
X31289326Y22722496D01*
X31289330Y22722497D01*
X31440759Y22794401D01*
X31440762Y22794404D01*
X31556156Y22916003D01*
X31620038Y23070992D01*
X31621163Y23170193D01*
X41128235Y23170193D01*
X41157057Y23005051D01*
X41243398Y22861355D01*
X41375678Y22758380D01*
X41536165Y22709927D01*
X41703326Y22722496D01*
X41703330Y22722497D01*
X41854759Y22794401D01*
X41854762Y22794404D01*
X41970156Y22916003D01*
X42034038Y23070992D01*
X42035163Y23170193D01*
X52431235Y23170193D01*
X52460057Y23005051D01*
X52546398Y22861355D01*
X52678678Y22758380D01*
X52839165Y22709927D01*
X53006326Y22722496D01*
X53006330Y22722497D01*
X53157759Y22794401D01*
X53157762Y22794404D01*
X53273156Y22916003D01*
X53337038Y23070992D01*
X53339055Y23248820D01*
X53320390Y23297193D01*
X62972235Y23297193D01*
X63001057Y23132051D01*
X63087398Y22988355D01*
X63219678Y22885380D01*
X63380165Y22836927D01*
X63547326Y22849496D01*
X63547330Y22849497D01*
X63687791Y22916193D01*
X69830235Y22916193D01*
X69859057Y22751051D01*
X69945398Y22607355D01*
X70077678Y22504380D01*
X70238165Y22455927D01*
X70405326Y22468496D01*
X70405330Y22468497D01*
X70545479Y22535045D01*
X70606155Y22542926D01*
X70659875Y22513637D01*
X70686119Y22458366D01*
X70671625Y22392714D01*
X70624796Y22318638D01*
X70592236Y22154198D01*
X70592235Y22154193D01*
X70621057Y21989051D01*
X70707398Y21845355D01*
X70839678Y21742380D01*
X71000165Y21693927D01*
X71167326Y21706496D01*
X71167330Y21706497D01*
X71307791Y21773193D01*
X83292235Y21773193D01*
X83321057Y21608051D01*
X83407398Y21464355D01*
X83539678Y21361380D01*
X83700165Y21312927D01*
X83867326Y21325496D01*
X83867330Y21325497D01*
X84018759Y21397401D01*
X84018762Y21397404D01*
X84134156Y21519003D01*
X84198038Y21673992D01*
X84200055Y21851820D01*
X84139708Y22008214D01*
X84139705Y22008219D01*
X84027101Y22132404D01*
X84027102Y22132404D01*
X83877337Y22207728D01*
X83710496Y22224086D01*
X83548958Y22179288D01*
X83414374Y22079337D01*
X83414371Y22079333D01*
X83324797Y21937640D01*
X83324796Y21937638D01*
X83292236Y21773198D01*
X83292235Y21773193D01*
X71307791Y21773193D01*
X71318759Y21778401D01*
X71318762Y21778404D01*
X71434156Y21900003D01*
X71498038Y22054992D01*
X71500055Y22232820D01*
X71439708Y22389214D01*
X71439705Y22389219D01*
X71327101Y22513404D01*
X71327102Y22513404D01*
X71177337Y22588728D01*
X71010496Y22605086D01*
X70848958Y22560288D01*
X70820335Y22539031D01*
X70762345Y22519515D01*
X70703960Y22537813D01*
X70667480Y22586933D01*
X70669779Y22656236D01*
X70736038Y22816992D01*
X70738055Y22994820D01*
X70677708Y23151214D01*
X70677705Y23151219D01*
X70565101Y23275404D01*
X70565102Y23275404D01*
X70415337Y23350728D01*
X70248496Y23367086D01*
X70086958Y23322288D01*
X69952374Y23222337D01*
X69952371Y23222333D01*
X69862797Y23080640D01*
X69862796Y23080638D01*
X69830236Y22916198D01*
X69830235Y22916193D01*
X63687791Y22916193D01*
X63698759Y22921401D01*
X63698762Y22921404D01*
X63814156Y23043003D01*
X63878038Y23197992D01*
X63880055Y23375820D01*
X63819708Y23532214D01*
X63819705Y23532219D01*
X63707101Y23656404D01*
X63707102Y23656404D01*
X63557337Y23731728D01*
X63390496Y23748086D01*
X63228958Y23703288D01*
X63094374Y23603337D01*
X63094371Y23603333D01*
X63004797Y23461640D01*
X63004796Y23461638D01*
X62972236Y23297198D01*
X62972235Y23297193D01*
X53320390Y23297193D01*
X53278708Y23405214D01*
X53278705Y23405219D01*
X53166101Y23529404D01*
X53166102Y23529404D01*
X53016337Y23604728D01*
X52849496Y23621086D01*
X52687958Y23576288D01*
X52553374Y23476337D01*
X52553371Y23476333D01*
X52463797Y23334640D01*
X52463796Y23334638D01*
X52431236Y23170198D01*
X52431235Y23170193D01*
X42035163Y23170193D01*
X42036055Y23248820D01*
X41975708Y23405214D01*
X41975705Y23405219D01*
X41863101Y23529404D01*
X41863102Y23529404D01*
X41713337Y23604728D01*
X41546496Y23621086D01*
X41384958Y23576288D01*
X41250374Y23476337D01*
X41250371Y23476333D01*
X41160797Y23334640D01*
X41160796Y23334638D01*
X41128236Y23170198D01*
X41128235Y23170193D01*
X31621163Y23170193D01*
X31622055Y23248820D01*
X31561708Y23405214D01*
X31561705Y23405219D01*
X31449101Y23529404D01*
X31449102Y23529404D01*
X31299337Y23604728D01*
X31132496Y23621086D01*
X30970958Y23576288D01*
X30836374Y23476337D01*
X30836371Y23476333D01*
X30746797Y23334640D01*
X30746796Y23334638D01*
X30714236Y23170198D01*
X30714235Y23170193D01*
X29462163Y23170193D01*
X29463055Y23248820D01*
X29402708Y23405214D01*
X29402705Y23405219D01*
X29290101Y23529404D01*
X29290102Y23529404D01*
X29140337Y23604728D01*
X28973496Y23621086D01*
X28811958Y23576288D01*
X28677374Y23476337D01*
X28677371Y23476333D01*
X28587797Y23334640D01*
X28587796Y23334638D01*
X28555236Y23170198D01*
X28555235Y23170193D01*
X200000Y23170193D01*
X200000Y24567193D01*
X28555235Y24567193D01*
X28584057Y24402051D01*
X28670398Y24258355D01*
X28802678Y24155380D01*
X28963165Y24106927D01*
X29130326Y24119496D01*
X29130330Y24119497D01*
X29281759Y24191401D01*
X29281762Y24191404D01*
X29397156Y24313003D01*
X29461038Y24467992D01*
X29463055Y24645820D01*
X29402708Y24802214D01*
X29402705Y24802219D01*
X29290101Y24926404D01*
X29290102Y24926404D01*
X29140337Y25001728D01*
X28973496Y25018086D01*
X28811958Y24973288D01*
X28677374Y24873337D01*
X28677371Y24873333D01*
X28587797Y24731640D01*
X28587796Y24731638D01*
X28555236Y24567198D01*
X28555235Y24567193D01*
X200000Y24567193D01*
X200000Y25148844D01*
X30330715Y25148844D01*
X30359537Y24983702D01*
X30423125Y24877875D01*
X30436888Y24818258D01*
X30421946Y24773985D01*
X30383796Y24713638D01*
X30351236Y24549198D01*
X30351235Y24549193D01*
X30380057Y24384051D01*
X30466398Y24240355D01*
X30598678Y24137380D01*
X30759165Y24088927D01*
X30926326Y24101496D01*
X30926330Y24101497D01*
X31077759Y24173401D01*
X31077762Y24173404D01*
X31193156Y24295003D01*
X31257038Y24449992D01*
X31259055Y24627820D01*
X31198706Y24784218D01*
X31191531Y24792131D01*
X31166448Y24847939D01*
X31173339Y24896359D01*
X31236518Y25049643D01*
X31238535Y25227471D01*
X31178188Y25383865D01*
X31178185Y25383870D01*
X31065581Y25508055D01*
X31065582Y25508055D01*
X30915817Y25583379D01*
X30748976Y25599737D01*
X30587438Y25554939D01*
X30452854Y25454988D01*
X30452851Y25454984D01*
X30363277Y25313291D01*
X30363276Y25313289D01*
X30330716Y25148849D01*
X30330715Y25148844D01*
X200000Y25148844D01*
X200000Y26345193D01*
X30206235Y26345193D01*
X30235057Y26180051D01*
X30321398Y26036355D01*
X30453678Y25933380D01*
X30614165Y25884927D01*
X30781326Y25897496D01*
X30781330Y25897497D01*
X30932759Y25969401D01*
X30932762Y25969404D01*
X31048156Y26091003D01*
X31112038Y26245992D01*
X31113163Y26345193D01*
X41001235Y26345193D01*
X41030057Y26180051D01*
X41116398Y26036355D01*
X41248678Y25933380D01*
X41409165Y25884927D01*
X41544963Y25895137D01*
X41604408Y25880646D01*
X41643982Y25833982D01*
X41649500Y25777186D01*
X41636236Y25710198D01*
X41636235Y25710193D01*
X41665057Y25545051D01*
X41751398Y25401355D01*
X41883680Y25298379D01*
X41965465Y25273686D01*
X42015707Y25238767D01*
X42033965Y25159683D01*
X42015460Y25066227D01*
X42012225Y25066867D01*
X41997751Y25023969D01*
X41944774Y24987658D01*
X41892958Y24973288D01*
X41758374Y24873337D01*
X41758371Y24873333D01*
X41668797Y24731640D01*
X41668796Y24731638D01*
X41636236Y24567198D01*
X41636235Y24567193D01*
X41665057Y24402051D01*
X41751398Y24258355D01*
X41883678Y24155380D01*
X42044165Y24106927D01*
X42211326Y24119496D01*
X42211330Y24119497D01*
X42351791Y24186193D01*
X49764235Y24186193D01*
X49793057Y24021051D01*
X49879398Y23877355D01*
X50011678Y23774380D01*
X50172165Y23725927D01*
X50339326Y23738496D01*
X50339330Y23738497D01*
X50490759Y23810401D01*
X50490762Y23810404D01*
X50606156Y23932003D01*
X50670038Y24086992D01*
X50672055Y24264820D01*
X50611708Y24421214D01*
X50611705Y24421219D01*
X50499101Y24545404D01*
X50499102Y24545404D01*
X50349337Y24620728D01*
X50182496Y24637086D01*
X50020958Y24592288D01*
X49886374Y24492337D01*
X49886371Y24492333D01*
X49796797Y24350640D01*
X49796796Y24350638D01*
X49764236Y24186198D01*
X49764235Y24186193D01*
X42351791Y24186193D01*
X42362759Y24191401D01*
X42362762Y24191404D01*
X42478156Y24313003D01*
X42542038Y24467992D01*
X42542884Y24542553D01*
X42562451Y24600526D01*
X42599413Y24630860D01*
X42743759Y24699401D01*
X42743762Y24699404D01*
X42859156Y24821003D01*
X42911580Y24948193D01*
X44049235Y24948193D01*
X44078057Y24783051D01*
X44164398Y24639355D01*
X44296678Y24536380D01*
X44457165Y24487927D01*
X44624326Y24500496D01*
X44624330Y24500497D01*
X44775759Y24572401D01*
X44775762Y24572404D01*
X44891156Y24694003D01*
X44955038Y24848992D01*
X44957055Y25026820D01*
X44896708Y25183214D01*
X44896705Y25183219D01*
X44879501Y25202193D01*
X51796235Y25202193D01*
X51825057Y25037051D01*
X51911398Y24893355D01*
X52043678Y24790380D01*
X52204165Y24741927D01*
X52371326Y24754496D01*
X52371330Y24754497D01*
X52522759Y24826401D01*
X52522762Y24826404D01*
X52638156Y24948003D01*
X52702038Y25102992D01*
X52704055Y25280820D01*
X52685390Y25329193D01*
X55352235Y25329193D01*
X55381057Y25164051D01*
X55467398Y25020355D01*
X55599678Y24917380D01*
X55760165Y24868927D01*
X55927326Y24881496D01*
X55927330Y24881497D01*
X56078759Y24953401D01*
X56078762Y24953404D01*
X56194156Y25075003D01*
X56246580Y25202193D01*
X62972235Y25202193D01*
X63001057Y25037051D01*
X63087398Y24893355D01*
X63219678Y24790380D01*
X63380165Y24741927D01*
X63547326Y24754496D01*
X63547330Y24754497D01*
X63698759Y24826401D01*
X63698762Y24826404D01*
X63814156Y24948003D01*
X63878038Y25102992D01*
X63880055Y25280820D01*
X63861390Y25329193D01*
X66147235Y25329193D01*
X66176057Y25164051D01*
X66262398Y25020355D01*
X66394678Y24917380D01*
X66555165Y24868927D01*
X66722326Y24881496D01*
X66722330Y24881497D01*
X66873759Y24953401D01*
X66873762Y24953404D01*
X66989156Y25075003D01*
X67053038Y25229992D01*
X67055055Y25407820D01*
X66994708Y25564214D01*
X66994705Y25564219D01*
X66882101Y25688404D01*
X66882102Y25688404D01*
X66732337Y25763728D01*
X66565496Y25780086D01*
X66403958Y25735288D01*
X66269374Y25635337D01*
X66269371Y25635333D01*
X66179797Y25493640D01*
X66179796Y25493638D01*
X66147236Y25329198D01*
X66147235Y25329193D01*
X63861390Y25329193D01*
X63819708Y25437214D01*
X63819705Y25437219D01*
X63707101Y25561404D01*
X63707102Y25561404D01*
X63557337Y25636728D01*
X63390496Y25653086D01*
X63228958Y25608288D01*
X63094374Y25508337D01*
X63094371Y25508333D01*
X63004797Y25366640D01*
X63004796Y25366638D01*
X62972236Y25202198D01*
X62972235Y25202193D01*
X56246580Y25202193D01*
X56258038Y25229992D01*
X56260055Y25407820D01*
X56199708Y25564214D01*
X56199705Y25564219D01*
X56087101Y25688404D01*
X56087102Y25688404D01*
X55937337Y25763728D01*
X55770496Y25780086D01*
X55608958Y25735288D01*
X55474374Y25635337D01*
X55474371Y25635333D01*
X55384797Y25493640D01*
X55384796Y25493638D01*
X55352236Y25329198D01*
X55352235Y25329193D01*
X52685390Y25329193D01*
X52643708Y25437214D01*
X52643705Y25437219D01*
X52531101Y25561404D01*
X52531102Y25561404D01*
X52381337Y25636728D01*
X52214496Y25653086D01*
X52052958Y25608288D01*
X51918374Y25508337D01*
X51918371Y25508333D01*
X51828797Y25366640D01*
X51828796Y25366638D01*
X51796236Y25202198D01*
X51796235Y25202193D01*
X44879501Y25202193D01*
X44784101Y25307404D01*
X44784102Y25307404D01*
X44634337Y25382728D01*
X44467496Y25399086D01*
X44305958Y25354288D01*
X44171374Y25254337D01*
X44171371Y25254333D01*
X44081797Y25112640D01*
X44081796Y25112638D01*
X44049236Y24948198D01*
X44049235Y24948193D01*
X42911580Y24948193D01*
X42923038Y24975992D01*
X42925055Y25153820D01*
X42864708Y25310214D01*
X42864705Y25310219D01*
X42752101Y25434404D01*
X42752102Y25434404D01*
X42596450Y25512689D01*
X42552960Y25555727D01*
X42541939Y25602256D01*
X42544055Y25788820D01*
X42483708Y25945214D01*
X42483705Y25945219D01*
X42455837Y25975953D01*
X42430756Y26031762D01*
X42443268Y26091654D01*
X42488595Y26132753D01*
X42542677Y26136250D01*
X42543079Y26139922D01*
X42552164Y26138927D01*
X42719326Y26151496D01*
X42719330Y26151497D01*
X42870759Y26223401D01*
X42870762Y26223404D01*
X42986156Y26345003D01*
X43050038Y26499992D01*
X43052055Y26677820D01*
X42991708Y26834214D01*
X42991705Y26834219D01*
X42879101Y26958404D01*
X42879102Y26958404D01*
X42835780Y26980193D01*
X49764235Y26980193D01*
X49793057Y26815051D01*
X49879398Y26671355D01*
X50011678Y26568380D01*
X50172165Y26519927D01*
X50339326Y26532496D01*
X50339330Y26532497D01*
X50490759Y26604401D01*
X50490762Y26604404D01*
X50606156Y26726003D01*
X50670038Y26880992D01*
X50671163Y26980193D01*
X53320235Y26980193D01*
X53349057Y26815051D01*
X53435398Y26671355D01*
X53567678Y26568380D01*
X53728165Y26519927D01*
X53895326Y26532496D01*
X53895330Y26532497D01*
X54035791Y26599193D01*
X66147235Y26599193D01*
X66176057Y26434051D01*
X66262398Y26290355D01*
X66394678Y26187380D01*
X66555165Y26138927D01*
X66722326Y26151496D01*
X66722330Y26151497D01*
X66862791Y26218193D01*
X82911235Y26218193D01*
X82940057Y26053051D01*
X83026398Y25909355D01*
X83158678Y25806380D01*
X83319165Y25757927D01*
X83486326Y25770496D01*
X83486330Y25770497D01*
X83637759Y25842401D01*
X83637762Y25842404D01*
X83753156Y25964003D01*
X83817038Y26118992D01*
X83819055Y26296820D01*
X83758708Y26453214D01*
X83758705Y26453219D01*
X83646101Y26577404D01*
X83646102Y26577404D01*
X83496337Y26652728D01*
X83329496Y26669086D01*
X83167958Y26624288D01*
X83033374Y26524337D01*
X83033371Y26524333D01*
X82943797Y26382640D01*
X82943796Y26382638D01*
X82911236Y26218198D01*
X82911235Y26218193D01*
X66862791Y26218193D01*
X66873759Y26223401D01*
X66873762Y26223404D01*
X66989156Y26345003D01*
X67053038Y26499992D01*
X67055055Y26677820D01*
X66994708Y26834214D01*
X66994705Y26834219D01*
X66882101Y26958404D01*
X66882102Y26958404D01*
X66732337Y27033728D01*
X66565496Y27050086D01*
X66403958Y27005288D01*
X66269374Y26905337D01*
X66269371Y26905333D01*
X66179797Y26763640D01*
X66179796Y26763638D01*
X66147236Y26599198D01*
X66147235Y26599193D01*
X54035791Y26599193D01*
X54046759Y26604401D01*
X54046762Y26604404D01*
X54162156Y26726003D01*
X54226038Y26880992D01*
X54228055Y27058820D01*
X54167708Y27215214D01*
X54167705Y27215219D01*
X54055101Y27339404D01*
X54055102Y27339404D01*
X53905337Y27414728D01*
X53738496Y27431086D01*
X53576958Y27386288D01*
X53442374Y27286337D01*
X53442371Y27286333D01*
X53352797Y27144640D01*
X53352796Y27144638D01*
X53320236Y26980198D01*
X53320235Y26980193D01*
X50671163Y26980193D01*
X50672055Y27058820D01*
X50611708Y27215214D01*
X50611705Y27215219D01*
X50499101Y27339404D01*
X50499102Y27339404D01*
X50349337Y27414728D01*
X50182496Y27431086D01*
X50020958Y27386288D01*
X49886374Y27286337D01*
X49886371Y27286333D01*
X49796797Y27144640D01*
X49796796Y27144638D01*
X49764236Y26980198D01*
X49764235Y26980193D01*
X42835780Y26980193D01*
X42729337Y27033728D01*
X42562496Y27050086D01*
X42400958Y27005288D01*
X42266374Y26905337D01*
X42266371Y26905333D01*
X42176797Y26763640D01*
X42176796Y26763638D01*
X42144236Y26599198D01*
X42144235Y26599193D01*
X42173058Y26434050D01*
X42253380Y26300370D01*
X42267143Y26240753D01*
X42243236Y26184432D01*
X42190790Y26152919D01*
X42158860Y26150854D01*
X42054498Y26161086D01*
X42032551Y26155000D01*
X41971424Y26157670D01*
X41923540Y26195759D01*
X41907101Y26251523D01*
X41909055Y26423820D01*
X41848708Y26580214D01*
X41848705Y26580219D01*
X41736101Y26704404D01*
X41736102Y26704404D01*
X41586337Y26779728D01*
X41419496Y26796086D01*
X41257958Y26751288D01*
X41123374Y26651337D01*
X41123371Y26651333D01*
X41033797Y26509640D01*
X41033796Y26509638D01*
X41001236Y26345198D01*
X41001235Y26345193D01*
X31113163Y26345193D01*
X31114055Y26423820D01*
X31053708Y26580214D01*
X31053705Y26580219D01*
X30941101Y26704404D01*
X30941102Y26704404D01*
X30791337Y26779728D01*
X30624496Y26796086D01*
X30462958Y26751288D01*
X30328374Y26651337D01*
X30328371Y26651333D01*
X30238797Y26509640D01*
X30238796Y26509638D01*
X30206236Y26345198D01*
X30206235Y26345193D01*
X200000Y26345193D01*
X200000Y27869193D01*
X29444235Y27869193D01*
X29473057Y27704051D01*
X29559398Y27560355D01*
X29691678Y27457380D01*
X29852165Y27408927D01*
X30019326Y27421496D01*
X30019330Y27421497D01*
X30170759Y27493401D01*
X30170762Y27493404D01*
X30286156Y27615003D01*
X30286234Y27615193D01*
X35921235Y27615193D01*
X35950057Y27450051D01*
X36036398Y27306355D01*
X36168678Y27203380D01*
X36329165Y27154927D01*
X36496326Y27167496D01*
X36496330Y27167497D01*
X36647759Y27239401D01*
X36647762Y27239404D01*
X36763156Y27361003D01*
X36827038Y27515992D01*
X36829055Y27693820D01*
X36768708Y27850214D01*
X36768705Y27850219D01*
X36656101Y27974404D01*
X36656102Y27974404D01*
X36506337Y28049728D01*
X36339496Y28066086D01*
X36177958Y28021288D01*
X36043374Y27921337D01*
X36043371Y27921333D01*
X35953797Y27779640D01*
X35953796Y27779638D01*
X35921236Y27615198D01*
X35921235Y27615193D01*
X30286234Y27615193D01*
X30350038Y27769992D01*
X30352055Y27947820D01*
X30291708Y28104214D01*
X30291705Y28104219D01*
X30179101Y28228404D01*
X30179102Y28228404D01*
X30029337Y28303728D01*
X29862496Y28320086D01*
X29700958Y28275288D01*
X29566374Y28175337D01*
X29566371Y28175333D01*
X29476797Y28033640D01*
X29476796Y28033638D01*
X29444236Y27869198D01*
X29444235Y27869193D01*
X200000Y27869193D01*
X200000Y28885193D01*
X62972235Y28885193D01*
X63001057Y28720051D01*
X63087398Y28576355D01*
X63219678Y28473380D01*
X63380165Y28424927D01*
X63547326Y28437496D01*
X63547330Y28437497D01*
X63698759Y28509401D01*
X63698762Y28509404D01*
X63814156Y28631003D01*
X63842025Y28698620D01*
X86224118Y28698620D01*
X86262806Y28533672D01*
X86339724Y28382712D01*
X86450430Y28254457D01*
X86588538Y28156309D01*
X86588539Y28156308D01*
X86746061Y28093942D01*
X86746069Y28093939D01*
X86913923Y28070946D01*
X86913925Y28070946D01*
X87082424Y28088656D01*
X87241834Y28146047D01*
X87241834Y28146048D01*
X87382954Y28239809D01*
X87497632Y28364519D01*
X87497634Y28364522D01*
X87579254Y28512989D01*
X87623105Y28676642D01*
X87623335Y28698620D01*
X88764118Y28698620D01*
X88802806Y28533672D01*
X88879724Y28382712D01*
X88990430Y28254457D01*
X89128538Y28156309D01*
X89128539Y28156308D01*
X89286061Y28093942D01*
X89286069Y28093939D01*
X89453923Y28070946D01*
X89453925Y28070946D01*
X89622424Y28088656D01*
X89781834Y28146047D01*
X89781834Y28146048D01*
X89922954Y28239809D01*
X90037632Y28364519D01*
X90037634Y28364522D01*
X90119254Y28512989D01*
X90163105Y28676642D01*
X90165034Y28860714D01*
X90165033Y28860716D01*
X90124622Y29025246D01*
X90124620Y29025249D01*
X90046127Y29175394D01*
X90046126Y29175395D01*
X89934082Y29302484D01*
X89794955Y29399179D01*
X89636787Y29459895D01*
X89636778Y29459898D01*
X89468697Y29481130D01*
X89468688Y29481130D01*
X89300389Y29461658D01*
X89141586Y29402599D01*
X89001456Y29307366D01*
X88888088Y29181459D01*
X88808025Y29032141D01*
X88765892Y28868040D01*
X88764118Y28698620D01*
X87623335Y28698620D01*
X87625034Y28860714D01*
X87625033Y28860716D01*
X87584622Y29025246D01*
X87584620Y29025249D01*
X87506127Y29175394D01*
X87506126Y29175395D01*
X87394082Y29302484D01*
X87254955Y29399179D01*
X87096787Y29459895D01*
X87096778Y29459898D01*
X86928697Y29481130D01*
X86928688Y29481130D01*
X86760389Y29461658D01*
X86601586Y29402599D01*
X86461456Y29307366D01*
X86348088Y29181459D01*
X86268025Y29032141D01*
X86225892Y28868040D01*
X86224118Y28698620D01*
X63842025Y28698620D01*
X63878038Y28785992D01*
X63880055Y28963820D01*
X63819708Y29120214D01*
X63819705Y29120219D01*
X63707101Y29244404D01*
X63707102Y29244404D01*
X63557337Y29319728D01*
X63390496Y29336086D01*
X63228958Y29291288D01*
X63094374Y29191337D01*
X63094371Y29191333D01*
X63004797Y29049640D01*
X63004796Y29049638D01*
X62972236Y28885198D01*
X62972235Y28885193D01*
X200000Y28885193D01*
X200000Y31806193D01*
X49764235Y31806193D01*
X49793057Y31641051D01*
X49879398Y31497355D01*
X50011678Y31394380D01*
X50172165Y31345927D01*
X50339326Y31358496D01*
X50339330Y31358497D01*
X50490759Y31430401D01*
X50490762Y31430404D01*
X50606156Y31552003D01*
X50670038Y31706992D01*
X50672055Y31884820D01*
X50611708Y32041214D01*
X50611705Y32041219D01*
X50499101Y32165404D01*
X50499102Y32165404D01*
X50349337Y32240728D01*
X50182496Y32257086D01*
X50020958Y32212288D01*
X49886374Y32112337D01*
X49886371Y32112333D01*
X49796797Y31970640D01*
X49796796Y31970638D01*
X49764236Y31806198D01*
X49764235Y31806193D01*
X200000Y31806193D01*
X200000Y32314193D01*
X83165235Y32314193D01*
X83194057Y32149051D01*
X83280398Y32005355D01*
X83412678Y31902380D01*
X83573165Y31853927D01*
X83740326Y31866496D01*
X83740330Y31866497D01*
X83891759Y31938401D01*
X83891762Y31938404D01*
X84007156Y32060003D01*
X84071038Y32214992D01*
X84073055Y32392820D01*
X84012708Y32549214D01*
X84012705Y32549219D01*
X83900101Y32673404D01*
X83900102Y32673404D01*
X83750337Y32748728D01*
X83583496Y32765086D01*
X83421958Y32720288D01*
X83287374Y32620337D01*
X83287371Y32620333D01*
X83197797Y32478640D01*
X83197796Y32478638D01*
X83165236Y32314198D01*
X83165235Y32314193D01*
X200000Y32314193D01*
X200000Y32949193D01*
X21189235Y32949193D01*
X21218057Y32784051D01*
X21304398Y32640355D01*
X21436678Y32537380D01*
X21597165Y32488927D01*
X21764326Y32501496D01*
X21764330Y32501497D01*
X21915759Y32573401D01*
X21915762Y32573404D01*
X22031156Y32695003D01*
X22095038Y32849992D01*
X22097055Y33027820D01*
X22036708Y33184214D01*
X22036705Y33184219D01*
X21924101Y33308404D01*
X21924102Y33308404D01*
X21774337Y33383728D01*
X21607496Y33400086D01*
X21445958Y33355288D01*
X21311374Y33255337D01*
X21311371Y33255333D01*
X21221797Y33113640D01*
X21221796Y33113638D01*
X21189236Y32949198D01*
X21189235Y32949193D01*
X200000Y32949193D01*
X200000Y34539693D01*
X46717235Y34539693D01*
X46746057Y34374551D01*
X46832398Y34230856D01*
X46913212Y34167945D01*
X46947515Y34117280D01*
X46945487Y34056128D01*
X46911424Y34010346D01*
X46839374Y33956837D01*
X46839371Y33956833D01*
X46749797Y33815140D01*
X46749796Y33815138D01*
X46717236Y33650698D01*
X46717235Y33650693D01*
X46746057Y33485551D01*
X46832398Y33341855D01*
X46964678Y33238880D01*
X47125165Y33190427D01*
X47292326Y33202996D01*
X47292330Y33202997D01*
X47443759Y33274901D01*
X47443762Y33274904D01*
X47559156Y33396503D01*
X47623038Y33551492D01*
X47625055Y33729320D01*
X47564708Y33885714D01*
X47564705Y33885719D01*
X47452100Y34009905D01*
X47450279Y34011290D01*
X47448437Y34013945D01*
X47445960Y34016677D01*
X47446317Y34017001D01*
X47415403Y34061562D01*
X47416737Y34122733D01*
X47438390Y34158242D01*
X47559156Y34285503D01*
X47623038Y34440492D01*
X47625055Y34618320D01*
X47564708Y34774714D01*
X47564705Y34774719D01*
X47452101Y34898904D01*
X47452102Y34898904D01*
X47302337Y34974228D01*
X47135496Y34990586D01*
X46973958Y34945788D01*
X46839374Y34845837D01*
X46839371Y34845833D01*
X46749797Y34704140D01*
X46749796Y34704138D01*
X46717236Y34539698D01*
X46717235Y34539693D01*
X200000Y34539693D01*
X200000Y36378193D01*
X49764235Y36378193D01*
X49793057Y36213051D01*
X49879398Y36069355D01*
X50011678Y35966380D01*
X50172165Y35917927D01*
X50339326Y35930496D01*
X50339330Y35930497D01*
X50490759Y36002401D01*
X50490762Y36002404D01*
X50606156Y36124003D01*
X50670038Y36278992D01*
X50672055Y36456820D01*
X50611708Y36613214D01*
X50611705Y36613219D01*
X50499101Y36737404D01*
X50499102Y36737404D01*
X50455780Y36759193D01*
X82911235Y36759193D01*
X82940057Y36594051D01*
X83026398Y36450355D01*
X83158678Y36347380D01*
X83319165Y36298927D01*
X83486326Y36311496D01*
X83486330Y36311497D01*
X83637759Y36383401D01*
X83637762Y36383404D01*
X83753156Y36505003D01*
X83817038Y36659992D01*
X83819055Y36837820D01*
X83758708Y36994214D01*
X83758705Y36994219D01*
X83646101Y37118404D01*
X83646102Y37118404D01*
X83496337Y37193728D01*
X83329496Y37210086D01*
X83167958Y37165288D01*
X83033374Y37065337D01*
X83033371Y37065333D01*
X82943797Y36923640D01*
X82943796Y36923638D01*
X82911236Y36759198D01*
X82911235Y36759193D01*
X50455780Y36759193D01*
X50349337Y36812728D01*
X50182496Y36829086D01*
X50020958Y36784288D01*
X49886374Y36684337D01*
X49886371Y36684333D01*
X49796797Y36542640D01*
X49796796Y36542638D01*
X49764236Y36378198D01*
X49764235Y36378193D01*
X200000Y36378193D01*
X200000Y44016285D01*
X2445043Y44016285D01*
X2445043Y44016283D01*
X2462443Y43767462D01*
X2519399Y43524632D01*
X2519399Y43524630D01*
X2614445Y43294030D01*
X2745145Y43081581D01*
X2745152Y43081572D01*
X2908119Y42892775D01*
X2908126Y42892767D01*
X3099190Y42732445D01*
X3099199Y42732438D01*
X3313435Y42604728D01*
X3545349Y42512906D01*
X3788963Y42459345D01*
X4037989Y42445422D01*
X4286051Y42471494D01*
X4526752Y42536891D01*
X4753898Y42639929D01*
X4753905Y42639933D01*
X4961649Y42777958D01*
X4961648Y42777958D01*
X5144658Y42947425D01*
X5144668Y42947436D01*
X5298220Y43143974D01*
X5298227Y43143985D01*
X5418383Y43362549D01*
X5502054Y43597524D01*
X5547080Y43842853D01*
X5548897Y44016285D01*
X108445043Y44016285D01*
X108445043Y44016283D01*
X108462443Y43767462D01*
X108519399Y43524632D01*
X108519399Y43524630D01*
X108614445Y43294030D01*
X108745145Y43081581D01*
X108745152Y43081572D01*
X108908119Y42892775D01*
X108908126Y42892767D01*
X109099190Y42732445D01*
X109099199Y42732438D01*
X109313435Y42604728D01*
X109545349Y42512906D01*
X109788963Y42459345D01*
X110037989Y42445422D01*
X110286051Y42471494D01*
X110526752Y42536891D01*
X110753898Y42639929D01*
X110753905Y42639933D01*
X110961649Y42777958D01*
X110961648Y42777958D01*
X111144658Y42947425D01*
X111144668Y42947436D01*
X111298220Y43143974D01*
X111298227Y43143985D01*
X111418383Y43362549D01*
X111502054Y43597524D01*
X111547080Y43842853D01*
X111550033Y44124714D01*
X111510155Y44370931D01*
X111431424Y44607603D01*
X111431424Y44607604D01*
X111315869Y44828640D01*
X111166456Y45028365D01*
X111166451Y45028370D01*
X110987040Y45201627D01*
X110782217Y45343983D01*
X110557284Y45451754D01*
X110317999Y45522181D01*
X110070556Y45553440D01*
X110070543Y45553440D01*
X109821268Y45544736D01*
X109576591Y45496288D01*
X109576585Y45496286D01*
X109342812Y45409347D01*
X109342809Y45409346D01*
X109125942Y45286148D01*
X108931548Y45129852D01*
X108931545Y45129850D01*
X108764654Y44944497D01*
X108629538Y44734840D01*
X108629537Y44734838D01*
X108529679Y44506273D01*
X108467650Y44264686D01*
X108445043Y44016285D01*
X5548897Y44016285D01*
X5550033Y44124714D01*
X5510155Y44370931D01*
X5431424Y44607603D01*
X5431424Y44607604D01*
X5315869Y44828640D01*
X5166456Y45028365D01*
X5166451Y45028370D01*
X4987040Y45201627D01*
X4782217Y45343983D01*
X4557284Y45451754D01*
X4317999Y45522181D01*
X4070556Y45553440D01*
X4070543Y45553440D01*
X3821268Y45544736D01*
X3576591Y45496288D01*
X3576585Y45496286D01*
X3342812Y45409347D01*
X3342809Y45409346D01*
X3125942Y45286148D01*
X2931548Y45129852D01*
X2931545Y45129850D01*
X2764654Y44944497D01*
X2629538Y44734840D01*
X2629537Y44734838D01*
X2529679Y44506273D01*
X2467650Y44264686D01*
X2445043Y44016285D01*
X200000Y44016285D01*
X200000Y47701000D01*
X218907Y47759191D01*
X299000Y47800000D01*
X113701000Y47800000D01*
X113759191Y47781093D01*
G37*
G04 #@! TD.AperFunction*
M02*
